<svg width="591" height="195" viewBox="0 0 591 195" fill="none" xmlns="http://www.w3.org/2000/svg">
<rect x="42.5" y="1.5" width="547" height="192" rx="85.5" fill="#F7F4EE" stroke="#0B2818" stroke-width="3"/>
<path d="M230.344 43.8C230.86 43.8 231.298 43.758 231.658 43.674C232.03 43.578 232.36 43.488 232.648 43.404C232.948 43.308 233.236 43.26 233.512 43.26C234.016 43.26 234.394 43.386 234.646 43.638C234.898 43.89 235.108 44.316 235.276 44.916L236.878 50.676C236.974 51.012 236.926 51.294 236.734 51.522C236.542 51.75 236.272 51.894 235.924 51.954C235.66 51.99 235.39 51.96 235.114 51.864C234.838 51.756 234.61 51.522 234.43 51.162C233.698 49.794 232.996 48.744 232.324 48.012C231.664 47.28 230.992 46.776 230.308 46.5C229.624 46.212 228.874 46.068 228.058 46.068H226.276V65.418C226.276 65.694 226.342 65.934 226.474 66.138C226.618 66.33 226.852 66.456 227.176 66.516L228.382 66.75C228.718 66.822 228.958 66.954 229.102 67.146C229.258 67.326 229.336 67.59 229.336 67.938C229.336 68.262 229.222 68.52 228.994 68.712C228.778 68.904 228.442 69 227.986 69H216.898C216.43 69 216.082 68.904 215.854 68.712C215.638 68.52 215.53 68.262 215.53 67.938C215.53 67.362 215.812 66.972 216.376 66.768L217.114 66.516C217.414 66.408 217.636 66.27 217.78 66.102C217.936 65.922 218.014 65.694 218.014 65.418V47.382C218.014 47.106 217.936 46.884 217.78 46.716C217.636 46.536 217.414 46.392 217.114 46.284L216.376 46.032C215.812 45.828 215.53 45.438 215.53 44.862C215.53 44.538 215.638 44.28 215.854 44.088C216.082 43.896 216.43 43.8 216.898 43.8H230.344ZM223.45 55.734H228.094C228.922 55.734 229.522 55.572 229.894 55.248C230.266 54.912 230.596 54.258 230.884 53.286C230.992 52.962 231.142 52.74 231.334 52.62C231.526 52.488 231.748 52.422 232 52.422C232.612 52.422 232.984 52.71 233.116 53.286L234.538 59.226C234.634 59.61 234.622 59.91 234.502 60.126C234.382 60.33 234.19 60.486 233.926 60.594C233.626 60.702 233.344 60.714 233.08 60.63C232.828 60.534 232.582 60.33 232.342 60.018C231.946 59.478 231.58 59.058 231.244 58.758C230.908 58.458 230.536 58.248 230.128 58.128C229.72 58.008 229.192 57.948 228.544 57.948H223.45V55.734ZM247.29 51.306C249.282 51.306 251.022 51.69 252.51 52.458C254.01 53.226 255.174 54.3 256.002 55.68C256.842 57.048 257.262 58.644 257.262 60.468C257.262 62.16 256.824 63.69 255.948 65.058C255.072 66.414 253.866 67.494 252.33 68.298C250.794 69.09 249.018 69.486 247.002 69.486C245.01 69.486 243.264 69.102 241.764 68.334C240.276 67.554 239.112 66.48 238.272 65.112C237.444 63.732 237.03 62.142 237.03 60.342C237.03 58.614 237.468 57.072 238.344 55.716C239.22 54.36 240.426 53.286 241.962 52.494C243.498 51.702 245.274 51.306 247.29 51.306ZM248.568 67.2C249.012 67.092 249.354 66.768 249.594 66.228C249.834 65.688 249.942 64.902 249.918 63.87C249.894 62.826 249.72 61.512 249.396 59.928C249.084 58.392 248.736 57.138 248.352 56.166C247.98 55.194 247.572 54.498 247.128 54.078C246.684 53.646 246.222 53.49 245.742 53.61C245.286 53.706 244.938 54.024 244.698 54.564C244.47 55.104 244.368 55.89 244.392 56.922C244.428 57.954 244.602 59.268 244.914 60.864C245.214 62.4 245.556 63.654 245.94 64.626C246.324 65.598 246.732 66.294 247.164 66.714C247.608 67.134 248.076 67.296 248.568 67.2ZM267.535 59.19C267.535 57.402 267.769 55.926 268.237 54.762C268.717 53.598 269.353 52.734 270.145 52.17C270.937 51.594 271.801 51.306 272.737 51.306C273.961 51.306 274.897 51.678 275.545 52.422C276.205 53.166 276.535 54.294 276.535 55.806C276.535 57.342 276.223 58.476 275.599 59.208C274.975 59.928 274.165 60.288 273.169 60.288C272.173 60.288 271.429 60.03 270.937 59.514C270.445 58.998 270.193 58.284 270.181 57.372V56.616C270.169 56.316 270.103 56.088 269.983 55.932C269.863 55.764 269.671 55.68 269.407 55.68C269.167 55.68 268.951 55.788 268.759 56.004C268.579 56.208 268.435 56.55 268.327 57.03C268.219 57.51 268.165 58.158 268.165 58.974L267.535 59.19ZM267.733 52.746L268.165 56.76V65.562C268.165 65.946 268.225 66.222 268.345 66.39C268.465 66.558 268.717 66.684 269.101 66.768L270.523 67.038C270.847 67.11 271.081 67.224 271.225 67.38C271.369 67.536 271.441 67.758 271.441 68.046C271.441 68.346 271.339 68.58 271.135 68.748C270.931 68.916 270.631 69 270.235 69H260.299C259.867 69 259.555 68.916 259.363 68.748C259.183 68.58 259.093 68.346 259.093 68.046C259.093 67.842 259.147 67.662 259.255 67.506C259.363 67.338 259.543 67.2 259.795 67.092L260.227 66.93C260.395 66.846 260.515 66.714 260.587 66.534C260.659 66.354 260.695 66.048 260.695 65.616V56.562C260.695 56.214 260.647 55.968 260.551 55.824C260.467 55.668 260.329 55.566 260.137 55.518L259.687 55.41C259.459 55.338 259.291 55.236 259.183 55.104C259.087 54.96 259.039 54.786 259.039 54.582C259.039 54.33 259.111 54.126 259.255 53.97C259.399 53.814 259.657 53.67 260.029 53.538L264.313 52.008C265.057 51.72 265.591 51.534 265.915 51.45C266.251 51.366 266.515 51.324 266.707 51.324C267.007 51.324 267.235 51.438 267.391 51.666C267.547 51.882 267.661 52.242 267.733 52.746ZM302.553 56.76C302.553 57.672 302.217 58.44 301.545 59.064C300.885 59.676 299.997 59.982 298.881 59.982C297.789 59.982 296.961 59.688 296.397 59.1C295.845 58.512 295.569 57.744 295.569 56.796V56.058C295.569 55.278 295.413 54.672 295.101 54.24C294.789 53.796 294.381 53.574 293.877 53.574C293.457 53.574 293.067 53.742 292.707 54.078C292.347 54.402 292.059 54.894 291.843 55.554C291.627 56.214 291.519 57.048 291.519 58.056C291.519 59.472 291.747 60.66 292.203 61.62C292.671 62.568 293.307 63.282 294.111 63.762C294.927 64.242 295.857 64.482 296.901 64.482C297.705 64.482 298.425 64.38 299.061 64.176C299.697 63.96 300.291 63.558 300.843 62.97C301.143 62.694 301.371 62.508 301.527 62.412C301.683 62.316 301.839 62.268 301.995 62.268C302.199 62.268 302.349 62.376 302.445 62.592C302.553 62.808 302.607 63.066 302.607 63.366C302.583 64.47 302.217 65.49 301.509 66.426C300.801 67.35 299.823 68.094 298.575 68.658C297.339 69.21 295.899 69.486 294.255 69.486C292.467 69.486 290.865 69.132 289.449 68.424C288.033 67.716 286.911 66.72 286.083 65.436C285.267 64.152 284.859 62.64 284.859 60.9C284.859 59.052 285.261 57.408 286.065 55.968C286.881 54.516 288.027 53.376 289.503 52.548C290.979 51.72 292.719 51.306 294.723 51.306C296.355 51.306 297.753 51.552 298.917 52.044C300.081 52.524 300.975 53.178 301.599 54.006C302.235 54.822 302.553 55.74 302.553 56.76ZM312.992 59.19C312.992 57.402 313.226 55.926 313.694 54.762C314.174 53.598 314.81 52.734 315.602 52.17C316.394 51.594 317.258 51.306 318.194 51.306C319.418 51.306 320.354 51.678 321.002 52.422C321.662 53.166 321.992 54.294 321.992 55.806C321.992 57.342 321.68 58.476 321.056 59.208C320.432 59.928 319.622 60.288 318.626 60.288C317.63 60.288 316.886 60.03 316.394 59.514C315.902 58.998 315.65 58.284 315.638 57.372V56.616C315.626 56.316 315.56 56.088 315.44 55.932C315.32 55.764 315.128 55.68 314.864 55.68C314.624 55.68 314.408 55.788 314.216 56.004C314.036 56.208 313.892 56.55 313.784 57.03C313.676 57.51 313.622 58.158 313.622 58.974L312.992 59.19ZM313.19 52.746L313.622 56.76V65.562C313.622 65.946 313.682 66.222 313.802 66.39C313.922 66.558 314.174 66.684 314.558 66.768L315.98 67.038C316.304 67.11 316.538 67.224 316.682 67.38C316.826 67.536 316.898 67.758 316.898 68.046C316.898 68.346 316.796 68.58 316.592 68.748C316.388 68.916 316.088 69 315.692 69H305.756C305.324 69 305.012 68.916 304.82 68.748C304.64 68.58 304.55 68.346 304.55 68.046C304.55 67.842 304.604 67.662 304.712 67.506C304.82 67.338 305 67.2 305.252 67.092L305.684 66.93C305.852 66.846 305.972 66.714 306.044 66.534C306.116 66.354 306.152 66.048 306.152 65.616V56.562C306.152 56.214 306.104 55.968 306.008 55.824C305.924 55.668 305.786 55.566 305.594 55.518L305.144 55.41C304.916 55.338 304.748 55.236 304.64 55.104C304.544 54.96 304.496 54.786 304.496 54.582C304.496 54.33 304.568 54.126 304.712 53.97C304.856 53.814 305.114 53.67 305.486 53.538L309.77 52.008C310.514 51.72 311.048 51.534 311.372 51.45C311.708 51.366 311.972 51.324 312.164 51.324C312.464 51.324 312.692 51.438 312.848 51.666C313.004 51.882 313.118 52.242 313.19 52.746ZM336.536 65.166L332.504 72.132L324.458 55.338C324.242 54.858 324.02 54.504 323.792 54.276C323.564 54.048 323.282 53.856 322.946 53.7C322.718 53.592 322.556 53.472 322.46 53.34C322.364 53.196 322.316 53.004 322.316 52.764C322.316 52.476 322.418 52.248 322.622 52.08C322.826 51.912 323.108 51.828 323.468 51.828H333.17C333.518 51.828 333.794 51.912 333.998 52.08C334.214 52.248 334.322 52.476 334.322 52.764C334.322 53.004 334.256 53.196 334.124 53.34C334.004 53.472 333.806 53.58 333.53 53.664L332.99 53.826C332.534 53.946 332.264 54.168 332.18 54.492C332.096 54.816 332.216 55.35 332.54 56.094L336.536 65.166ZM332.612 70.602L333.17 69.252L334.052 67.578L338.462 56.418C338.762 55.674 338.864 55.116 338.768 54.744C338.684 54.36 338.396 54.09 337.904 53.934L337.274 53.736C337.01 53.652 336.812 53.532 336.68 53.376C336.548 53.208 336.482 53.004 336.482 52.764C336.482 52.476 336.584 52.248 336.788 52.08C336.992 51.912 337.268 51.828 337.616 51.828H342.584C342.944 51.828 343.226 51.912 343.43 52.08C343.634 52.248 343.736 52.476 343.736 52.764C343.736 52.956 343.676 53.13 343.556 53.286C343.448 53.442 343.262 53.586 342.998 53.718C342.518 53.934 342.122 54.216 341.81 54.564C341.498 54.9 341.192 55.446 340.892 56.202L335.33 69.9C334.526 71.88 333.8 73.416 333.152 74.508C332.516 75.612 331.814 76.374 331.046 76.794C330.29 77.226 329.324 77.442 328.148 77.442C326.492 77.442 325.166 76.992 324.17 76.092C323.186 75.192 322.694 74.064 322.694 72.708C322.694 71.712 322.946 70.932 323.45 70.368C323.954 69.804 324.62 69.522 325.448 69.522C326.264 69.522 326.888 69.75 327.32 70.206C327.752 70.674 328.136 71.304 328.472 72.096L328.85 72.96C329.018 73.356 329.21 73.68 329.426 73.932C329.642 74.184 329.876 74.31 330.128 74.31C330.356 74.31 330.572 74.22 330.776 74.04C330.98 73.86 331.226 73.5 331.514 72.96C331.802 72.432 332.168 71.646 332.612 70.602ZM353.341 52.728V54.384L353.647 54.996V73.986C353.647 74.418 353.683 74.724 353.755 74.904C353.827 75.096 353.947 75.234 354.115 75.318L354.565 75.498C354.805 75.594 354.979 75.72 355.087 75.876C355.195 76.044 355.249 76.23 355.249 76.434C355.249 76.734 355.153 76.968 354.961 77.136C354.781 77.304 354.475 77.388 354.043 77.388H345.763C345.343 77.388 345.037 77.304 344.845 77.136C344.653 76.968 344.557 76.734 344.557 76.434C344.557 76.23 344.611 76.044 344.719 75.876C344.827 75.72 345.007 75.594 345.259 75.498L345.691 75.318C345.871 75.234 345.991 75.096 346.051 74.904C346.123 74.724 346.159 74.418 346.159 73.986V56.508C346.159 56.172 346.111 55.932 346.015 55.788C345.931 55.632 345.793 55.53 345.601 55.482L345.151 55.374C344.923 55.302 344.755 55.2 344.647 55.068C344.551 54.924 344.503 54.744 344.503 54.528C344.503 54.276 344.575 54.084 344.719 53.952C344.863 53.82 345.121 53.67 345.493 53.502L349.579 51.9C350.107 51.672 350.539 51.516 350.875 51.432C351.211 51.348 351.517 51.306 351.793 51.306C352.309 51.306 352.693 51.438 352.945 51.702C353.209 51.966 353.341 52.308 353.341 52.728ZM352.423 57.426L351.289 56.328C352.273 54.756 353.371 53.526 354.583 52.638C355.795 51.75 357.187 51.306 358.759 51.306C360.187 51.306 361.453 51.666 362.557 52.386C363.673 53.094 364.549 54.09 365.185 55.374C365.833 56.646 366.157 58.122 366.157 59.802C366.157 61.734 365.761 63.432 364.969 64.896C364.189 66.348 363.115 67.476 361.747 68.28C360.391 69.084 358.855 69.486 357.139 69.486C355.735 69.486 354.523 69.198 353.503 68.622C352.483 68.046 351.607 67.164 350.875 65.976L352.621 64.806C353.125 65.55 353.611 66.084 354.079 66.408C354.547 66.72 355.057 66.876 355.609 66.876C356.185 66.876 356.683 66.672 357.103 66.264C357.535 65.856 357.865 65.19 358.093 64.266C358.333 63.33 358.453 62.088 358.453 60.54C358.453 59.136 358.333 58.008 358.093 57.156C357.853 56.304 357.529 55.686 357.121 55.302C356.713 54.906 356.239 54.708 355.699 54.708C355.063 54.708 354.475 54.924 353.935 55.356C353.395 55.788 352.891 56.478 352.423 57.426ZM368.692 53.934L368.008 53.682C367.768 53.586 367.588 53.466 367.468 53.322C367.348 53.166 367.288 52.98 367.288 52.764C367.288 52.464 367.39 52.236 367.594 52.08C367.798 51.912 368.062 51.828 368.386 51.828H369.448C369.652 51.828 369.838 51.774 370.006 51.666C370.186 51.558 370.414 51.366 370.69 51.09L373.966 48.03C374.314 47.67 374.638 47.406 374.938 47.238C375.25 47.07 375.55 46.986 375.838 46.986C376.15 46.986 376.39 47.088 376.558 47.292C376.738 47.496 376.828 47.79 376.828 48.174V62.646C376.828 63.546 376.984 64.23 377.296 64.698C377.608 65.154 378.052 65.382 378.628 65.382C379.06 65.382 379.39 65.28 379.618 65.076C379.858 64.872 380.056 64.632 380.212 64.356C380.368 64.08 380.524 63.828 380.68 63.6C380.848 63.36 381.064 63.204 381.328 63.132C381.532 63.12 381.7 63.186 381.832 63.33C381.964 63.474 382.03 63.732 382.03 64.104C382.006 65.124 381.712 66.042 381.148 66.858C380.584 67.662 379.81 68.304 378.826 68.784C377.842 69.252 376.714 69.486 375.442 69.486C373.51 69.486 372.016 69.024 370.96 68.1C369.916 67.176 369.394 65.772 369.394 63.888V54.978C369.394 54.666 369.34 54.438 369.232 54.294C369.124 54.15 368.944 54.03 368.692 53.934ZM374.308 54.078L374.344 51.828H380.824C381.148 51.828 381.406 51.9 381.598 52.044C381.79 52.176 381.886 52.374 381.886 52.638C381.886 53.046 381.688 53.388 381.292 53.664C380.908 53.94 380.266 54.078 379.366 54.078H374.308ZM393.434 51.306C395.426 51.306 397.166 51.69 398.654 52.458C400.154 53.226 401.318 54.3 402.146 55.68C402.986 57.048 403.406 58.644 403.406 60.468C403.406 62.16 402.968 63.69 402.092 65.058C401.216 66.414 400.01 67.494 398.474 68.298C396.938 69.09 395.162 69.486 393.146 69.486C391.154 69.486 389.408 69.102 387.908 68.334C386.42 67.554 385.256 66.48 384.416 65.112C383.588 63.732 383.174 62.142 383.174 60.342C383.174 58.614 383.612 57.072 384.488 55.716C385.364 54.36 386.57 53.286 388.106 52.494C389.642 51.702 391.418 51.306 393.434 51.306ZM394.712 67.2C395.156 67.092 395.498 66.768 395.738 66.228C395.978 65.688 396.086 64.902 396.062 63.87C396.038 62.826 395.864 61.512 395.54 59.928C395.228 58.392 394.88 57.138 394.496 56.166C394.124 55.194 393.716 54.498 393.272 54.078C392.828 53.646 392.366 53.49 391.886 53.61C391.43 53.706 391.082 54.024 390.842 54.564C390.614 55.104 390.512 55.89 390.536 56.922C390.572 57.954 390.746 59.268 391.058 60.864C391.358 62.4 391.7 63.654 392.084 64.626C392.468 65.598 392.876 66.294 393.308 66.714C393.752 67.134 394.22 67.296 394.712 67.2ZM425.281 65.778V65.202L425.047 65.184V56.526C425.047 56.178 424.999 55.932 424.903 55.788C424.819 55.644 424.681 55.548 424.489 55.5L424.039 55.392C423.811 55.32 423.643 55.218 423.535 55.086C423.439 54.942 423.391 54.762 423.391 54.546C423.391 54.294 423.457 54.096 423.589 53.952C423.733 53.796 423.997 53.646 424.381 53.502L428.773 51.9C429.313 51.696 429.751 51.546 430.087 51.45C430.423 51.354 430.753 51.306 431.077 51.306C431.545 51.306 431.899 51.444 432.139 51.72C432.391 51.984 432.517 52.32 432.517 52.728V65.598C432.517 66.03 432.553 66.342 432.625 66.534C432.697 66.714 432.823 66.846 433.003 66.93L433.435 67.11C433.687 67.206 433.867 67.338 433.975 67.506C434.083 67.662 434.137 67.842 434.137 68.046C434.137 68.346 434.041 68.58 433.849 68.748C433.657 68.916 433.351 69 432.931 69H428.125C427.369 69 426.703 68.682 426.127 68.046C425.563 67.41 425.281 66.654 425.281 65.778ZM413.599 63.942V56.526C413.599 56.178 413.551 55.932 413.455 55.788C413.371 55.644 413.233 55.548 413.041 55.5L412.591 55.392C412.363 55.32 412.195 55.218 412.087 55.086C411.991 54.942 411.943 54.762 411.943 54.546C411.943 54.294 412.009 54.096 412.141 53.952C412.285 53.796 412.549 53.646 412.933 53.502L417.325 51.9C417.901 51.684 418.351 51.534 418.675 51.45C419.011 51.354 419.305 51.306 419.557 51.306C420.061 51.306 420.439 51.444 420.691 51.72C420.955 51.984 421.087 52.32 421.087 52.728V62.916C421.087 63.672 421.255 64.242 421.591 64.626C421.939 64.998 422.425 65.184 423.049 65.184C423.445 65.184 423.853 65.112 424.273 64.968C424.693 64.812 425.071 64.584 425.407 64.284L426.037 63.726L426.991 64.752L426.433 65.274C424.789 66.822 423.349 67.914 422.113 68.55C420.889 69.174 419.767 69.486 418.747 69.486C417.211 69.486 415.969 68.982 415.021 67.974C414.073 66.954 413.599 65.61 413.599 63.942ZM444.476 67.452C445.16 67.452 445.67 67.302 446.006 67.002C446.342 66.702 446.51 66.33 446.51 65.886C446.51 65.622 446.45 65.37 446.33 65.13C446.222 64.89 445.988 64.674 445.628 64.482C445.268 64.278 444.704 64.104 443.936 63.96C441.788 63.564 440.15 63.054 439.022 62.43C437.894 61.806 437.12 61.08 436.7 60.252C436.292 59.412 436.088 58.47 436.088 57.426C436.088 55.506 436.754 54.006 438.086 52.926C439.418 51.846 441.362 51.306 443.918 51.306C444.818 51.306 445.532 51.378 446.06 51.522C446.6 51.666 447.026 51.81 447.338 51.954C447.662 52.098 447.944 52.17 448.184 52.17C448.46 52.17 448.694 52.098 448.886 51.954C449.09 51.81 449.294 51.666 449.498 51.522C449.714 51.378 449.966 51.306 450.254 51.306C450.482 51.306 450.686 51.384 450.866 51.54C451.058 51.684 451.208 51.96 451.316 52.368L452.234 55.914C452.402 56.466 452.45 56.91 452.378 57.246C452.306 57.57 452.102 57.792 451.766 57.912C451.442 58.044 451.154 58.05 450.902 57.93C450.65 57.81 450.404 57.576 450.164 57.228C449.576 56.328 448.97 55.59 448.346 55.014C447.734 54.438 447.098 54.012 446.438 53.736C445.79 53.46 445.106 53.322 444.386 53.322C443.594 53.322 443 53.478 442.604 53.79C442.22 54.102 442.028 54.51 442.028 55.014C442.028 55.35 442.112 55.644 442.28 55.896C442.448 56.136 442.784 56.358 443.288 56.562C443.804 56.766 444.566 56.97 445.574 57.174C447.266 57.498 448.604 57.954 449.588 58.542C450.584 59.118 451.298 59.826 451.73 60.666C452.162 61.494 452.378 62.466 452.378 63.582C452.378 64.77 452.06 65.808 451.424 66.696C450.788 67.584 449.924 68.274 448.832 68.766C447.74 69.246 446.498 69.486 445.106 69.486C444.242 69.486 443.558 69.408 443.054 69.252C442.55 69.096 442.136 68.946 441.812 68.802C441.488 68.646 441.188 68.568 440.912 68.568C440.636 68.568 440.372 68.646 440.12 68.802C439.868 68.946 439.622 69.09 439.382 69.234C439.142 69.39 438.89 69.468 438.626 69.468C438.386 69.468 438.182 69.378 438.014 69.198C437.858 69.03 437.738 68.73 437.654 68.298L437.096 64.986C437 64.434 436.994 64.026 437.078 63.762C437.162 63.486 437.354 63.282 437.654 63.15C437.978 63.018 438.266 63.024 438.518 63.168C438.77 63.312 439.028 63.57 439.292 63.942C440.168 65.214 441.038 66.12 441.902 66.66C442.778 67.188 443.636 67.452 444.476 67.452ZM472.684 58.344C472.684 59.076 472.48 59.646 472.072 60.054C471.676 60.462 471.1 60.666 470.344 60.666H459.58V59.01H464.404C465.004 59.01 465.304 58.722 465.304 58.146C465.304 56.502 465.124 55.332 464.764 54.636C464.404 53.928 463.942 53.574 463.378 53.574C462.97 53.574 462.604 53.736 462.28 54.06C461.956 54.372 461.692 54.864 461.488 55.536C461.296 56.196 461.2 57.054 461.2 58.11C461.2 60.342 461.692 61.974 462.676 63.006C463.672 64.038 465.016 64.554 466.708 64.554C467.584 64.554 468.358 64.428 469.03 64.176C469.702 63.924 470.308 63.48 470.848 62.844C471.136 62.568 471.358 62.382 471.514 62.286C471.682 62.19 471.838 62.142 471.982 62.142C472.198 62.142 472.354 62.25 472.45 62.466C472.558 62.67 472.612 62.928 472.612 63.24C472.612 64.356 472.252 65.388 471.532 66.336C470.812 67.284 469.81 68.046 468.526 68.622C467.254 69.198 465.778 69.486 464.098 69.486C462.286 69.486 460.66 69.126 459.22 68.406C457.792 67.686 456.658 66.678 455.818 65.382C454.99 64.086 454.576 62.58 454.576 60.864C454.576 58.932 454.96 57.252 455.728 55.824C456.496 54.384 457.612 53.274 459.076 52.494C460.552 51.702 462.322 51.306 464.386 51.306C466.198 51.306 467.722 51.612 468.958 52.224C470.194 52.836 471.124 53.67 471.748 54.726C472.372 55.782 472.684 56.988 472.684 58.344ZM482.937 59.19C482.937 57.402 483.171 55.926 483.639 54.762C484.119 53.598 484.755 52.734 485.547 52.17C486.339 51.594 487.203 51.306 488.139 51.306C489.363 51.306 490.299 51.678 490.947 52.422C491.607 53.166 491.937 54.294 491.937 55.806C491.937 57.342 491.625 58.476 491.001 59.208C490.377 59.928 489.567 60.288 488.571 60.288C487.575 60.288 486.831 60.03 486.339 59.514C485.847 58.998 485.595 58.284 485.583 57.372V56.616C485.571 56.316 485.505 56.088 485.385 55.932C485.265 55.764 485.073 55.68 484.809 55.68C484.569 55.68 484.353 55.788 484.161 56.004C483.981 56.208 483.837 56.55 483.729 57.03C483.621 57.51 483.567 58.158 483.567 58.974L482.937 59.19ZM483.135 52.746L483.567 56.76V65.562C483.567 65.946 483.627 66.222 483.747 66.39C483.867 66.558 484.119 66.684 484.503 66.768L485.925 67.038C486.249 67.11 486.483 67.224 486.627 67.38C486.771 67.536 486.843 67.758 486.843 68.046C486.843 68.346 486.741 68.58 486.537 68.748C486.333 68.916 486.033 69 485.637 69H475.701C475.269 69 474.957 68.916 474.765 68.748C474.585 68.58 474.495 68.346 474.495 68.046C474.495 67.842 474.549 67.662 474.657 67.506C474.765 67.338 474.945 67.2 475.197 67.092L475.629 66.93C475.797 66.846 475.917 66.714 475.989 66.534C476.061 66.354 476.097 66.048 476.097 65.616V56.562C476.097 56.214 476.049 55.968 475.953 55.824C475.869 55.668 475.731 55.566 475.539 55.518L475.089 55.41C474.861 55.338 474.693 55.236 474.585 55.104C474.489 54.96 474.441 54.786 474.441 54.582C474.441 54.33 474.513 54.126 474.657 53.97C474.801 53.814 475.059 53.67 475.431 53.538L479.715 52.008C480.459 51.72 480.993 51.534 481.317 51.45C481.653 51.366 481.917 51.324 482.109 51.324C482.409 51.324 482.637 51.438 482.793 51.666C482.949 51.882 483.063 52.242 483.135 52.746ZM501.71 67.452C502.394 67.452 502.904 67.302 503.24 67.002C503.576 66.702 503.744 66.33 503.744 65.886C503.744 65.622 503.684 65.37 503.564 65.13C503.456 64.89 503.222 64.674 502.862 64.482C502.502 64.278 501.938 64.104 501.17 63.96C499.022 63.564 497.384 63.054 496.256 62.43C495.128 61.806 494.354 61.08 493.934 60.252C493.526 59.412 493.322 58.47 493.322 57.426C493.322 55.506 493.988 54.006 495.32 52.926C496.652 51.846 498.596 51.306 501.152 51.306C502.052 51.306 502.766 51.378 503.294 51.522C503.834 51.666 504.26 51.81 504.572 51.954C504.896 52.098 505.178 52.17 505.418 52.17C505.694 52.17 505.928 52.098 506.12 51.954C506.324 51.81 506.528 51.666 506.732 51.522C506.948 51.378 507.2 51.306 507.488 51.306C507.716 51.306 507.92 51.384 508.1 51.54C508.292 51.684 508.442 51.96 508.55 52.368L509.468 55.914C509.636 56.466 509.684 56.91 509.612 57.246C509.54 57.57 509.336 57.792 509 57.912C508.676 58.044 508.388 58.05 508.136 57.93C507.884 57.81 507.638 57.576 507.398 57.228C506.81 56.328 506.204 55.59 505.58 55.014C504.968 54.438 504.332 54.012 503.672 53.736C503.024 53.46 502.34 53.322 501.62 53.322C500.828 53.322 500.234 53.478 499.838 53.79C499.454 54.102 499.262 54.51 499.262 55.014C499.262 55.35 499.346 55.644 499.514 55.896C499.682 56.136 500.018 56.358 500.522 56.562C501.038 56.766 501.8 56.97 502.808 57.174C504.5 57.498 505.838 57.954 506.822 58.542C507.818 59.118 508.532 59.826 508.964 60.666C509.396 61.494 509.612 62.466 509.612 63.582C509.612 64.77 509.294 65.808 508.658 66.696C508.022 67.584 507.158 68.274 506.066 68.766C504.974 69.246 503.732 69.486 502.34 69.486C501.476 69.486 500.792 69.408 500.288 69.252C499.784 69.096 499.37 68.946 499.046 68.802C498.722 68.646 498.422 68.568 498.146 68.568C497.87 68.568 497.606 68.646 497.354 68.802C497.102 68.946 496.856 69.09 496.616 69.234C496.376 69.39 496.124 69.468 495.86 69.468C495.62 69.468 495.416 69.378 495.248 69.198C495.092 69.03 494.972 68.73 494.888 68.298L494.33 64.986C494.234 64.434 494.228 64.026 494.312 63.762C494.396 63.486 494.588 63.282 494.888 63.15C495.212 63.018 495.5 63.024 495.752 63.168C496.004 63.312 496.262 63.57 496.526 63.942C497.402 65.214 498.272 66.12 499.136 66.66C500.012 67.188 500.87 67.452 501.71 67.452Z" fill="#0B2818"/>
<path d="M216.7 102V100.7H221.06C221.967 100.7 222.68 100.447 223.2 99.94C223.72 99.4333 223.98 98.8 223.98 98.04C223.98 97.5467 223.867 97.1 223.64 96.7C223.413 96.3 223.087 95.9867 222.66 95.76C222.247 95.52 221.753 95.4 221.18 95.4H216.7V94.12H220.96C221.707 94.12 222.293 93.92 222.72 93.52C223.16 93.12 223.38 92.5533 223.38 91.82C223.38 91.0867 223.147 90.52 222.68 90.12C222.213 89.72 221.587 89.52 220.8 89.52H216.7V88.24H220.84C221.693 88.24 222.42 88.3933 223.02 88.7C223.62 89.0067 224.073 89.42 224.38 89.94C224.687 90.46 224.84 91.0467 224.84 91.7C224.84 92.4733 224.64 93.14 224.24 93.7C223.84 94.2467 223.253 94.6667 222.48 94.96L222.62 94.48C223.513 94.76 224.207 95.22 224.7 95.86C225.207 96.5 225.46 97.26 225.46 98.14C225.46 98.8733 225.28 99.5333 224.92 100.12C224.573 100.693 224.06 101.153 223.38 101.5C222.713 101.833 221.907 102 220.96 102H216.7ZM215.76 102V88.24H217.22V102H215.76ZM232.26 102.2C231.313 102.2 230.467 101.987 229.72 101.56C228.973 101.133 228.38 100.547 227.94 99.8C227.513 99.0533 227.3 98.2133 227.3 97.28C227.3 96.36 227.513 95.5333 227.94 94.8C228.367 94.0533 228.947 93.4667 229.68 93.04C230.413 92.6133 231.233 92.4 232.14 92.4C232.993 92.4 233.747 92.5933 234.4 92.98C235.067 93.3667 235.587 93.9067 235.96 94.6C236.347 95.28 236.54 96.0667 236.54 96.96C236.54 97.0667 236.533 97.1933 236.52 97.34C236.507 97.4733 236.48 97.6333 236.44 97.82H228.3V96.62H235.68L235.18 97.06C235.193 96.3667 235.073 95.7733 234.82 95.28C234.58 94.7733 234.227 94.3867 233.76 94.12C233.307 93.84 232.753 93.7 232.1 93.7C231.42 93.7 230.827 93.8467 230.32 94.14C229.813 94.4333 229.413 94.8467 229.12 95.38C228.84 95.9 228.7 96.52 228.7 97.24C228.7 97.96 228.847 98.5933 229.14 99.14C229.447 99.6867 229.867 100.113 230.4 100.42C230.947 100.727 231.573 100.88 232.28 100.88C232.853 100.88 233.38 100.78 233.86 100.58C234.34 100.367 234.747 100.053 235.08 99.64L235.98 100.56C235.54 101.08 234.993 101.487 234.34 101.78C233.7 102.06 233.007 102.2 232.26 102.2ZM240.142 102V88.64H241.562V102H240.142ZM237.762 93.86V92.6H249.442V93.86H237.762ZM245.662 102V88.64H247.082V102H245.662ZM255.365 102.2C254.419 102.2 253.572 101.987 252.825 101.56C252.079 101.133 251.485 100.547 251.045 99.8C250.619 99.0533 250.405 98.2133 250.405 97.28C250.405 96.36 250.619 95.5333 251.045 94.8C251.472 94.0533 252.052 93.4667 252.785 93.04C253.519 92.6133 254.339 92.4 255.245 92.4C256.099 92.4 256.852 92.5933 257.505 92.98C258.172 93.3667 258.692 93.9067 259.065 94.6C259.452 95.28 259.645 96.0667 259.645 96.96C259.645 97.0667 259.639 97.1933 259.625 97.34C259.612 97.4733 259.585 97.6333 259.545 97.82H251.405V96.62H258.785L258.285 97.06C258.299 96.3667 258.179 95.7733 257.925 95.28C257.685 94.7733 257.332 94.3867 256.865 94.12C256.412 93.84 255.859 93.7 255.205 93.7C254.525 93.7 253.932 93.8467 253.425 94.14C252.919 94.4333 252.519 94.8467 252.225 95.38C251.945 95.9 251.805 96.52 251.805 97.24C251.805 97.96 251.952 98.5933 252.245 99.14C252.552 99.6867 252.972 100.113 253.505 100.42C254.052 100.727 254.679 100.88 255.385 100.88C255.959 100.88 256.485 100.78 256.965 100.58C257.445 100.367 257.852 100.053 258.185 99.64L259.085 100.56C258.645 101.08 258.099 101.487 257.445 101.78C256.805 102.06 256.112 102.2 255.365 102.2ZM261.787 102V92.6H263.187V102H261.787ZM263.187 96.52L262.607 96.26C262.607 95.0733 262.894 94.1333 263.467 93.44C264.054 92.7467 264.854 92.4 265.867 92.4C266.334 92.4 266.761 92.4867 267.147 92.66C267.534 92.82 267.894 93.08 268.227 93.44L267.307 94.42C267.081 94.1667 266.827 93.9867 266.547 93.88C266.281 93.7733 265.974 93.72 265.627 93.72C264.907 93.72 264.321 93.96 263.867 94.44C263.414 94.9067 263.187 95.6 263.187 96.52ZM279.725 102.2C278.725 102.2 277.832 101.98 277.045 101.54C276.272 101.087 275.659 100.473 275.205 99.7C274.752 98.9133 274.525 98.0333 274.525 97.06V88.24H276.005V96.98C276.005 97.7533 276.165 98.4267 276.485 99C276.805 99.5733 277.245 100.013 277.805 100.32C278.379 100.627 279.019 100.78 279.725 100.78C280.432 100.78 281.059 100.627 281.605 100.32C282.165 100.013 282.605 99.58 282.925 99.02C283.259 98.4467 283.425 97.7733 283.425 97V88.24H284.885V97.08C284.885 98.0533 284.659 98.9267 284.205 99.7C283.765 100.473 283.152 101.087 282.365 101.54C281.592 101.98 280.712 102.2 279.725 102.2ZM297.329 102L292.769 95.52H292.509L287.069 88.24H288.829L293.309 94.3H293.569L299.069 102H297.329ZM286.849 102L292.269 94.74L293.229 95.62L288.509 102H286.849ZM293.689 95.3L292.729 94.4L297.189 88.24H298.849L293.689 95.3ZM308.138 102L304.518 92.6H305.978L308.838 100.4L308.318 100.42L311.158 92.6H311.978L314.818 100.42L314.298 100.4L317.138 92.6H318.618L314.978 102H314.158L311.258 94.3H311.858L308.978 102H308.138ZM320.283 102V92.6H321.703V102H320.283ZM320.983 90.56C320.717 90.56 320.49 90.4667 320.303 90.28C320.117 90.08 320.023 89.8467 320.023 89.58C320.023 89.3 320.117 89.0667 320.303 88.88C320.49 88.6933 320.717 88.6 320.983 88.6C321.277 88.6 321.51 88.6933 321.683 88.88C321.87 89.0667 321.963 89.3 321.963 89.58C321.963 89.8467 321.87 90.08 321.683 90.28C321.51 90.4667 321.277 90.56 320.983 90.56ZM326.001 102V88.64H327.401V102H326.001ZM323.621 93.86V92.6H329.761V93.86H323.621ZM338.53 102V96.48C338.53 95.6533 338.283 94.9867 337.79 94.48C337.31 93.96 336.67 93.7 335.87 93.7C335.323 93.7 334.843 93.82 334.43 94.06C334.016 94.3 333.69 94.6267 333.45 95.04C333.21 95.4533 333.09 95.9267 333.09 96.46L332.45 96.1C332.45 95.3933 332.616 94.76 332.95 94.2C333.283 93.64 333.73 93.2 334.29 92.88C334.863 92.56 335.516 92.4 336.25 92.4C336.97 92.4 337.61 92.5667 338.17 92.9C338.73 93.22 339.163 93.6667 339.47 94.24C339.79 94.8133 339.95 95.48 339.95 96.24V102H338.53ZM331.69 102V87.84H333.09V102H331.69ZM346.828 102.2C345.922 102.2 345.095 101.98 344.348 101.54C343.615 101.1 343.028 100.507 342.588 99.76C342.162 99.0133 341.948 98.18 341.948 97.26C341.948 96.3533 342.162 95.5333 342.588 94.8C343.028 94.0667 343.615 93.4867 344.348 93.06C345.095 92.62 345.922 92.4 346.828 92.4C347.748 92.4 348.575 92.6133 349.308 93.04C350.042 93.4667 350.622 94.0533 351.048 94.8C351.488 95.5333 351.708 96.3533 351.708 97.26C351.708 98.1933 351.488 99.0333 351.048 99.78C350.622 100.513 350.042 101.1 349.308 101.54C348.575 101.98 347.748 102.2 346.828 102.2ZM346.828 100.84C347.495 100.84 348.082 100.687 348.588 100.38C349.108 100.073 349.515 99.6467 349.808 99.1C350.115 98.5533 350.268 97.94 350.268 97.26C350.268 96.58 350.115 95.98 349.808 95.46C349.515 94.9267 349.108 94.5067 348.588 94.2C348.082 93.8933 347.495 93.74 346.828 93.74C346.175 93.74 345.588 93.8933 345.068 94.2C344.548 94.5067 344.142 94.9267 343.848 95.46C343.555 95.98 343.408 96.58 343.408 97.26C343.408 97.9533 343.555 98.5733 343.848 99.12C344.142 99.6533 344.548 100.073 345.068 100.38C345.588 100.687 346.175 100.84 346.828 100.84ZM357.656 102.2C356.896 102.2 356.216 102.027 355.616 101.68C355.016 101.32 354.542 100.833 354.196 100.22C353.862 99.6067 353.696 98.8867 353.696 98.06V92.6H355.116V98C355.116 98.5733 355.216 99.0733 355.416 99.5C355.629 99.9267 355.929 100.26 356.316 100.5C356.702 100.74 357.149 100.86 357.656 100.86C358.442 100.86 359.062 100.6 359.516 100.08C359.982 99.56 360.216 98.8667 360.216 98V92.6H361.616V98.06C361.616 98.8733 361.449 99.5933 361.116 100.22C360.782 100.847 360.316 101.333 359.716 101.68C359.116 102.027 358.429 102.2 357.656 102.2ZM365.689 102V88.64H367.089V102H365.689ZM363.309 93.86V92.6H369.449V93.86H363.309ZM375.674 102V87.84H377.074V102H375.674ZM384.172 102.2C383.266 102.2 382.439 101.98 381.692 101.54C380.959 101.1 380.372 100.507 379.932 99.76C379.506 99.0133 379.292 98.18 379.292 97.26C379.292 96.3533 379.506 95.5333 379.932 94.8C380.372 94.0667 380.959 93.4867 381.692 93.06C382.439 92.62 383.266 92.4 384.172 92.4C385.092 92.4 385.919 92.6133 386.652 93.04C387.386 93.4667 387.966 94.0533 388.392 94.8C388.832 95.5333 389.052 96.3533 389.052 97.26C389.052 98.1933 388.832 99.0333 388.392 99.78C387.966 100.513 387.386 101.1 386.652 101.54C385.919 101.98 385.092 102.2 384.172 102.2ZM384.172 100.84C384.839 100.84 385.426 100.687 385.932 100.38C386.452 100.073 386.859 99.6467 387.152 99.1C387.459 98.5533 387.612 97.94 387.612 97.26C387.612 96.58 387.459 95.98 387.152 95.46C386.859 94.9267 386.452 94.5067 385.932 94.2C385.426 93.8933 384.839 93.74 384.172 93.74C383.519 93.74 382.932 93.8933 382.412 94.2C381.892 94.5067 381.486 94.9267 381.192 95.46C380.899 95.98 380.752 96.58 380.752 97.26C380.752 97.9533 380.899 98.5733 381.192 99.12C381.486 99.6533 381.892 100.073 382.412 100.38C382.932 100.687 383.519 100.84 384.172 100.84ZM394.159 102.2C393.653 102.2 393.166 102.133 392.699 102C392.233 101.853 391.806 101.653 391.419 101.4C391.046 101.147 390.719 100.847 390.439 100.5L391.339 99.58C391.713 100.033 392.133 100.373 392.599 100.6C393.079 100.813 393.613 100.92 394.199 100.92C394.826 100.92 395.313 100.8 395.659 100.56C396.019 100.32 396.199 99.9867 396.199 99.56C396.199 99.16 396.073 98.8467 395.819 98.62C395.566 98.3933 395.239 98.2133 394.839 98.08C394.453 97.9467 394.039 97.82 393.599 97.7C393.159 97.5667 392.739 97.4067 392.339 97.22C391.939 97.02 391.613 96.7467 391.359 96.4C391.119 96.0533 390.999 95.6 390.999 95.04C390.999 94.5067 391.126 94.0467 391.379 93.66C391.646 93.26 392.019 92.9533 392.499 92.74C392.993 92.5133 393.573 92.4 394.239 92.4C394.946 92.4 395.586 92.5267 396.159 92.78C396.733 93.0333 397.193 93.4067 397.539 93.9L396.639 94.8C396.359 94.44 396.006 94.1667 395.579 93.98C395.166 93.78 394.699 93.68 394.179 93.68C393.579 93.68 393.119 93.8 392.799 94.04C392.493 94.2667 392.339 94.5667 392.339 94.94C392.339 95.3 392.466 95.5867 392.719 95.8C392.973 96 393.293 96.1667 393.679 96.3C394.079 96.42 394.499 96.5467 394.939 96.68C395.379 96.8 395.799 96.9667 396.199 97.18C396.599 97.38 396.919 97.66 397.159 98.02C397.413 98.3667 397.539 98.84 397.539 99.44C397.539 100.28 397.233 100.953 396.619 101.46C396.019 101.953 395.199 102.2 394.159 102.2ZM399.756 102V92.6H401.176V102H399.756ZM400.456 90.56C400.189 90.56 399.963 90.4667 399.776 90.28C399.589 90.08 399.496 89.8467 399.496 89.58C399.496 89.3 399.589 89.0667 399.776 88.88C399.963 88.6933 400.189 88.6 400.456 88.6C400.749 88.6 400.983 88.6933 401.156 88.88C401.343 89.0667 401.436 89.3 401.436 89.58C401.436 89.8467 401.343 90.08 401.156 90.28C400.983 90.4667 400.749 90.56 400.456 90.56ZM410.854 102V96.48C410.854 95.6533 410.607 94.9867 410.114 94.48C409.634 93.96 408.994 93.7 408.194 93.7C407.647 93.7 407.167 93.82 406.754 94.06C406.34 94.3 406.014 94.6267 405.774 95.04C405.534 95.4533 405.414 95.9267 405.414 96.46L404.774 96.1C404.774 95.3933 404.94 94.76 405.274 94.2C405.607 93.64 406.054 93.2 406.614 92.88C407.187 92.56 407.84 92.4 408.574 92.4C409.294 92.4 409.934 92.5733 410.494 92.92C411.054 93.2667 411.487 93.7333 411.794 94.32C412.114 94.9067 412.274 95.5467 412.274 96.24V102H410.854ZM404.014 102V92.6H405.414V102H404.014ZM418.773 106.16C417.826 106.16 416.979 105.98 416.233 105.62C415.499 105.273 414.906 104.78 414.453 104.14L415.373 103.22C415.746 103.727 416.219 104.12 416.793 104.4C417.366 104.68 418.039 104.82 418.813 104.82C419.879 104.82 420.726 104.533 421.353 103.96C421.993 103.387 422.313 102.607 422.313 101.62V99.28L422.593 97.14L422.313 95.02V92.6H423.713V101.62C423.713 102.527 423.506 103.32 423.093 104C422.679 104.68 422.099 105.207 421.353 105.58C420.619 105.967 419.759 106.16 418.773 106.16ZM418.873 101.9C418.006 101.9 417.226 101.693 416.533 101.28C415.839 100.867 415.293 100.3 414.893 99.58C414.493 98.86 414.293 98.0467 414.293 97.14C414.293 96.2333 414.486 95.4267 414.873 94.72C415.273 94 415.819 93.4333 416.513 93.02C417.206 92.6067 417.986 92.4 418.853 92.4C419.586 92.4 420.239 92.54 420.813 92.82C421.399 93.1 421.866 93.5 422.213 94.02C422.573 94.5267 422.793 95.1267 422.873 95.82V98.48C422.793 99.16 422.573 99.76 422.213 100.28C421.853 100.787 421.386 101.187 420.813 101.48C420.239 101.76 419.593 101.9 418.873 101.9ZM419.133 100.56C419.786 100.56 420.353 100.42 420.833 100.14C421.326 99.86 421.706 99.4667 421.973 98.96C422.253 98.44 422.393 97.8333 422.393 97.14C422.393 96.46 422.253 95.8667 421.973 95.36C421.706 94.8533 421.326 94.4533 420.833 94.16C420.339 93.8667 419.766 93.72 419.113 93.72C418.459 93.72 417.873 93.8667 417.353 94.16C416.846 94.4533 416.446 94.8533 416.153 95.36C415.873 95.8667 415.733 96.46 415.733 97.14C415.733 97.8067 415.879 98.4 416.173 98.92C416.466 99.44 416.866 99.8467 417.373 100.14C417.879 100.42 418.466 100.56 419.133 100.56ZM435.11 102.2C434.19 102.2 433.357 101.987 432.61 101.56C431.877 101.12 431.29 100.527 430.85 99.78C430.423 99.0333 430.21 98.2 430.21 97.28C430.21 96.36 430.423 95.5333 430.85 94.8C431.29 94.0533 431.877 93.4667 432.61 93.04C433.357 92.6133 434.19 92.4 435.11 92.4C435.817 92.4 436.477 92.5333 437.09 92.8C437.703 93.0667 438.223 93.44 438.65 93.92L437.73 94.86C437.41 94.5 437.023 94.2267 436.57 94.04C436.117 93.84 435.63 93.74 435.11 93.74C434.443 93.74 433.85 93.8933 433.33 94.2C432.81 94.5067 432.403 94.9267 432.11 95.46C431.817 95.98 431.67 96.5867 431.67 97.28C431.67 97.96 431.817 98.5733 432.11 99.12C432.403 99.6533 432.81 100.073 433.33 100.38C433.85 100.687 434.443 100.84 435.11 100.84C435.643 100.84 436.137 100.747 436.59 100.56C437.043 100.36 437.43 100.08 437.75 99.72L438.69 100.66C438.25 101.153 437.717 101.533 437.09 101.8C436.477 102.067 435.817 102.2 435.11 102.2ZM444.739 102.2C443.832 102.2 443.005 101.98 442.259 101.54C441.525 101.1 440.939 100.507 440.499 99.76C440.072 99.0133 439.859 98.18 439.859 97.26C439.859 96.3533 440.072 95.5333 440.499 94.8C440.939 94.0667 441.525 93.4867 442.259 93.06C443.005 92.62 443.832 92.4 444.739 92.4C445.659 92.4 446.485 92.6133 447.219 93.04C447.952 93.4667 448.532 94.0533 448.959 94.8C449.399 95.5333 449.619 96.3533 449.619 97.26C449.619 98.1933 449.399 99.0333 448.959 99.78C448.532 100.513 447.952 101.1 447.219 101.54C446.485 101.98 445.659 102.2 444.739 102.2ZM444.739 100.84C445.405 100.84 445.992 100.687 446.499 100.38C447.019 100.073 447.425 99.6467 447.719 99.1C448.025 98.5533 448.179 97.94 448.179 97.26C448.179 96.58 448.025 95.98 447.719 95.46C447.425 94.9267 447.019 94.5067 446.499 94.2C445.992 93.8933 445.405 93.74 444.739 93.74C444.085 93.74 443.499 93.8933 442.979 94.2C442.459 94.5067 442.052 94.9267 441.759 95.46C441.465 95.98 441.319 96.58 441.319 97.26C441.319 97.9533 441.465 98.5733 441.759 99.12C442.052 99.6533 442.459 100.073 442.979 100.38C443.499 100.687 444.085 100.84 444.739 100.84ZM458.686 102V96.48C458.686 95.6533 458.439 94.9867 457.946 94.48C457.466 93.96 456.826 93.7 456.026 93.7C455.479 93.7 454.999 93.82 454.586 94.06C454.172 94.3 453.846 94.6267 453.606 95.04C453.366 95.4533 453.246 95.9267 453.246 96.46L452.606 96.1C452.606 95.3933 452.772 94.76 453.106 94.2C453.439 93.64 453.886 93.2 454.446 92.88C455.019 92.56 455.672 92.4 456.406 92.4C457.126 92.4 457.766 92.5733 458.326 92.92C458.886 93.2667 459.319 93.7333 459.626 94.32C459.946 94.9067 460.106 95.5467 460.106 96.24V102H458.686ZM451.846 102V92.6H453.246V102H451.846ZM464.068 102V88.64H465.468V102H464.068ZM461.688 93.86V92.6H467.828V93.86H461.688ZM469.756 102V92.6H471.156V102H469.756ZM471.156 96.52L470.576 96.26C470.576 95.0733 470.863 94.1333 471.436 93.44C472.023 92.7467 472.823 92.4 473.836 92.4C474.303 92.4 474.729 92.4867 475.116 92.66C475.503 92.82 475.863 93.08 476.196 93.44L475.276 94.42C475.049 94.1667 474.796 93.9867 474.516 93.88C474.249 93.7733 473.943 93.72 473.596 93.72C472.876 93.72 472.289 93.96 471.836 94.44C471.383 94.9067 471.156 95.6 471.156 96.52ZM481.614 102.2C480.707 102.2 479.88 101.98 479.134 101.54C478.4 101.1 477.814 100.507 477.374 99.76C476.947 99.0133 476.734 98.18 476.734 97.26C476.734 96.3533 476.947 95.5333 477.374 94.8C477.814 94.0667 478.4 93.4867 479.134 93.06C479.88 92.62 480.707 92.4 481.614 92.4C482.534 92.4 483.36 92.6133 484.094 93.04C484.827 93.4667 485.407 94.0533 485.834 94.8C486.274 95.5333 486.494 96.3533 486.494 97.26C486.494 98.1933 486.274 99.0333 485.834 99.78C485.407 100.513 484.827 101.1 484.094 101.54C483.36 101.98 482.534 102.2 481.614 102.2ZM481.614 100.84C482.28 100.84 482.867 100.687 483.374 100.38C483.894 100.073 484.3 99.6467 484.594 99.1C484.9 98.5533 485.054 97.94 485.054 97.26C485.054 96.58 484.9 95.98 484.594 95.46C484.3 94.9267 483.894 94.5067 483.374 94.2C482.867 93.8933 482.28 93.74 481.614 93.74C480.96 93.74 480.374 93.8933 479.854 94.2C479.334 94.5067 478.927 94.9267 478.634 95.46C478.34 95.98 478.194 96.58 478.194 97.26C478.194 97.9533 478.34 98.5733 478.634 99.12C478.927 99.6533 479.334 100.073 479.854 100.38C480.374 100.687 480.96 100.84 481.614 100.84ZM488.721 102V87.84H490.121V102H488.721ZM494.439 102.2C494.106 102.2 493.832 102.087 493.619 101.86C493.406 101.633 493.299 101.36 493.299 101.04C493.299 100.72 493.406 100.453 493.619 100.24C493.832 100.013 494.106 99.9 494.439 99.9C494.759 99.9 495.026 100.013 495.239 100.24C495.452 100.453 495.559 100.72 495.559 101.04C495.559 101.36 495.452 101.633 495.239 101.86C495.026 102.087 494.759 102.2 494.439 102.2ZM221.96 126.2C220.987 126.2 220.08 126.02 219.24 125.66C218.413 125.287 217.687 124.78 217.06 124.14C216.433 123.487 215.94 122.733 215.58 121.88C215.233 121.013 215.06 120.087 215.06 119.1C215.06 118.1 215.233 117.173 215.58 116.32C215.927 115.467 216.413 114.72 217.04 114.08C217.667 113.44 218.393 112.94 219.22 112.58C220.047 112.22 220.947 112.04 221.92 112.04C222.893 112.04 223.793 112.22 224.62 112.58C225.46 112.94 226.193 113.44 226.82 114.08C227.447 114.72 227.933 115.473 228.28 116.34C228.627 117.193 228.8 118.12 228.8 119.12C228.8 120.107 228.627 121.033 228.28 121.9C227.933 122.753 227.447 123.5 226.82 124.14C226.207 124.78 225.487 125.287 224.66 125.66C223.833 126.02 222.933 126.2 221.96 126.2ZM221.92 124.78C222.96 124.78 223.88 124.533 224.68 124.04C225.493 123.547 226.127 122.873 226.58 122.02C227.047 121.167 227.28 120.193 227.28 119.1C227.28 118.287 227.147 117.54 226.88 116.86C226.613 116.167 226.24 115.567 225.76 115.06C225.28 114.54 224.713 114.14 224.06 113.86C223.42 113.58 222.707 113.44 221.92 113.44C220.893 113.44 219.973 113.687 219.16 114.18C218.36 114.66 217.727 115.327 217.26 116.18C216.807 117.033 216.58 118.007 216.58 119.1C216.58 119.913 216.713 120.667 216.98 121.36C217.247 122.053 217.62 122.66 218.1 123.18C218.58 123.687 219.147 124.08 219.8 124.36C220.453 124.64 221.16 124.78 221.92 124.78ZM238.139 126V120.48C238.139 119.653 237.892 118.987 237.399 118.48C236.919 117.96 236.279 117.7 235.479 117.7C234.932 117.7 234.452 117.82 234.039 118.06C233.626 118.3 233.299 118.627 233.059 119.04C232.819 119.453 232.699 119.927 232.699 120.46L232.059 120.1C232.059 119.393 232.226 118.76 232.559 118.2C232.892 117.64 233.339 117.2 233.899 116.88C234.472 116.56 235.126 116.4 235.859 116.4C236.579 116.4 237.219 116.573 237.779 116.92C238.339 117.267 238.772 117.733 239.079 118.32C239.399 118.907 239.559 119.547 239.559 120.24V126H238.139ZM231.299 126V116.6H232.699V126H231.299ZM242.178 121.6V120.26H248.558V121.6H242.178ZM255.911 126.2C254.991 126.2 254.158 125.987 253.411 125.56C252.678 125.12 252.091 124.527 251.651 123.78C251.224 123.033 251.011 122.2 251.011 121.28C251.011 120.36 251.224 119.533 251.651 118.8C252.091 118.053 252.678 117.467 253.411 117.04C254.158 116.613 254.991 116.4 255.911 116.4C256.618 116.4 257.278 116.533 257.891 116.8C258.504 117.067 259.024 117.44 259.451 117.92L258.531 118.86C258.211 118.5 257.824 118.227 257.371 118.04C256.918 117.84 256.431 117.74 255.911 117.74C255.244 117.74 254.651 117.893 254.131 118.2C253.611 118.507 253.204 118.927 252.911 119.46C252.618 119.98 252.471 120.587 252.471 121.28C252.471 121.96 252.618 122.573 252.911 123.12C253.204 123.653 253.611 124.073 254.131 124.38C254.651 124.687 255.244 124.84 255.911 124.84C256.444 124.84 256.938 124.747 257.391 124.56C257.844 124.36 258.231 124.08 258.551 123.72L259.491 124.66C259.051 125.153 258.518 125.533 257.891 125.8C257.278 126.067 256.618 126.2 255.911 126.2ZM268.295 126V120.48C268.295 119.653 268.048 118.987 267.555 118.48C267.075 117.96 266.435 117.7 265.635 117.7C265.088 117.7 264.608 117.82 264.195 118.06C263.782 118.3 263.455 118.627 263.215 119.04C262.975 119.453 262.855 119.927 262.855 120.46L262.215 120.1C262.215 119.393 262.382 118.76 262.715 118.2C263.048 117.64 263.495 117.2 264.055 116.88C264.628 116.56 265.282 116.4 266.015 116.4C266.735 116.4 267.375 116.567 267.935 116.9C268.495 117.22 268.928 117.667 269.235 118.24C269.555 118.813 269.715 119.48 269.715 120.24V126H268.295ZM261.455 126V111.84H262.855V126H261.455ZM276.414 126.2C275.521 126.2 274.721 125.987 274.014 125.56C273.307 125.12 272.747 124.533 272.334 123.8C271.934 123.067 271.734 122.24 271.734 121.32C271.734 120.387 271.934 119.553 272.334 118.82C272.747 118.073 273.307 117.487 274.014 117.06C274.721 116.62 275.514 116.4 276.394 116.4C277.114 116.4 277.754 116.547 278.314 116.84C278.887 117.12 279.347 117.52 279.694 118.04C280.054 118.547 280.274 119.14 280.354 119.82V122.76C280.274 123.44 280.054 124.04 279.694 124.56C279.347 125.08 278.887 125.487 278.314 125.78C277.754 126.06 277.121 126.2 276.414 126.2ZM276.634 124.86C277.607 124.86 278.387 124.533 278.974 123.88C279.574 123.227 279.874 122.367 279.874 121.3C279.874 120.593 279.734 119.973 279.454 119.44C279.187 118.893 278.807 118.473 278.314 118.18C277.834 117.873 277.267 117.72 276.614 117.72C275.947 117.72 275.354 117.873 274.834 118.18C274.327 118.487 273.921 118.913 273.614 119.46C273.321 119.993 273.174 120.607 273.174 121.3C273.174 121.993 273.321 122.607 273.614 123.14C273.921 123.673 274.334 124.093 274.854 124.4C275.374 124.707 275.967 124.86 276.634 124.86ZM279.794 126V123.48L280.074 121.16L279.794 118.9V116.6H281.194V126H279.794ZM284.033 126V116.6H285.453V126H284.033ZM284.733 114.56C284.467 114.56 284.24 114.467 284.053 114.28C283.867 114.08 283.773 113.847 283.773 113.58C283.773 113.3 283.867 113.067 284.053 112.88C284.24 112.693 284.467 112.6 284.733 112.6C285.027 112.6 285.26 112.693 285.433 112.88C285.62 113.067 285.713 113.3 285.713 113.58C285.713 113.847 285.62 114.08 285.433 114.28C285.26 114.467 285.027 114.56 284.733 114.56ZM295.131 126V120.48C295.131 119.653 294.884 118.987 294.391 118.48C293.911 117.96 293.271 117.7 292.471 117.7C291.924 117.7 291.444 117.82 291.031 118.06C290.618 118.3 290.291 118.627 290.051 119.04C289.811 119.453 289.691 119.927 289.691 120.46L289.051 120.1C289.051 119.393 289.218 118.76 289.551 118.2C289.884 117.64 290.331 117.2 290.891 116.88C291.464 116.56 292.118 116.4 292.851 116.4C293.571 116.4 294.211 116.573 294.771 116.92C295.331 117.267 295.764 117.733 296.071 118.32C296.391 118.907 296.551 119.547 296.551 120.24V126H295.131ZM288.291 126V116.6H289.691V126H288.291ZM307.807 126.2C306.86 126.2 306.014 125.987 305.267 125.56C304.52 125.133 303.927 124.547 303.487 123.8C303.06 123.053 302.847 122.213 302.847 121.28C302.847 120.36 303.06 119.533 303.487 118.8C303.914 118.053 304.494 117.467 305.227 117.04C305.96 116.613 306.78 116.4 307.687 116.4C308.54 116.4 309.294 116.593 309.947 116.98C310.614 117.367 311.134 117.907 311.507 118.6C311.894 119.28 312.087 120.067 312.087 120.96C312.087 121.067 312.08 121.193 312.067 121.34C312.054 121.473 312.027 121.633 311.987 121.82H303.847V120.62H311.227L310.727 121.06C310.74 120.367 310.62 119.773 310.367 119.28C310.127 118.773 309.774 118.387 309.307 118.12C308.854 117.84 308.3 117.7 307.647 117.7C306.967 117.7 306.374 117.847 305.867 118.14C305.36 118.433 304.96 118.847 304.667 119.38C304.387 119.9 304.247 120.52 304.247 121.24C304.247 121.96 304.394 122.593 304.687 123.14C304.994 123.687 305.414 124.113 305.947 124.42C306.494 124.727 307.12 124.88 307.827 124.88C308.4 124.88 308.927 124.78 309.407 124.58C309.887 124.367 310.294 124.053 310.627 123.64L311.527 124.56C311.087 125.08 310.54 125.487 309.887 125.78C309.247 126.06 308.554 126.2 307.807 126.2ZM317.109 126.2C316.602 126.2 316.115 126.133 315.649 126C315.182 125.853 314.755 125.653 314.369 125.4C313.995 125.147 313.669 124.847 313.389 124.5L314.289 123.58C314.662 124.033 315.082 124.373 315.549 124.6C316.029 124.813 316.562 124.92 317.149 124.92C317.775 124.92 318.262 124.8 318.609 124.56C318.969 124.32 319.149 123.987 319.149 123.56C319.149 123.16 319.022 122.847 318.769 122.62C318.515 122.393 318.189 122.213 317.789 122.08C317.402 121.947 316.989 121.82 316.549 121.7C316.109 121.567 315.689 121.407 315.289 121.22C314.889 121.02 314.562 120.747 314.309 120.4C314.069 120.053 313.949 119.6 313.949 119.04C313.949 118.507 314.075 118.047 314.329 117.66C314.595 117.26 314.969 116.953 315.449 116.74C315.942 116.513 316.522 116.4 317.189 116.4C317.895 116.4 318.535 116.527 319.109 116.78C319.682 117.033 320.142 117.407 320.489 117.9L319.589 118.8C319.309 118.44 318.955 118.167 318.529 117.98C318.115 117.78 317.649 117.68 317.129 117.68C316.529 117.68 316.069 117.8 315.749 118.04C315.442 118.267 315.289 118.567 315.289 118.94C315.289 119.3 315.415 119.587 315.669 119.8C315.922 120 316.242 120.167 316.629 120.3C317.029 120.42 317.449 120.547 317.889 120.68C318.329 120.8 318.749 120.967 319.149 121.18C319.549 121.38 319.869 121.66 320.109 122.02C320.362 122.367 320.489 122.84 320.489 123.44C320.489 124.28 320.182 124.953 319.569 125.46C318.969 125.953 318.149 126.2 317.109 126.2ZM326.985 126.2C326.065 126.2 325.232 125.987 324.485 125.56C323.752 125.12 323.165 124.527 322.725 123.78C322.298 123.033 322.085 122.2 322.085 121.28C322.085 120.36 322.298 119.533 322.725 118.8C323.165 118.053 323.752 117.467 324.485 117.04C325.232 116.613 326.065 116.4 326.985 116.4C327.692 116.4 328.352 116.533 328.965 116.8C329.578 117.067 330.098 117.44 330.525 117.92L329.605 118.86C329.285 118.5 328.898 118.227 328.445 118.04C327.992 117.84 327.505 117.74 326.985 117.74C326.318 117.74 325.725 117.893 325.205 118.2C324.685 118.507 324.278 118.927 323.985 119.46C323.692 119.98 323.545 120.587 323.545 121.28C323.545 121.96 323.692 122.573 323.985 123.12C324.278 123.653 324.685 124.073 325.205 124.38C325.725 124.687 326.318 124.84 326.985 124.84C327.518 124.84 328.012 124.747 328.465 124.56C328.918 124.36 329.305 124.08 329.625 123.72L330.565 124.66C330.125 125.153 329.592 125.533 328.965 125.8C328.352 126.067 327.692 126.2 326.985 126.2ZM332.529 126V116.6H333.929V126H332.529ZM333.929 120.52L333.349 120.26C333.349 119.073 333.636 118.133 334.209 117.44C334.796 116.747 335.596 116.4 336.609 116.4C337.076 116.4 337.503 116.487 337.889 116.66C338.276 116.82 338.636 117.08 338.969 117.44L338.049 118.42C337.823 118.167 337.569 117.987 337.289 117.88C337.023 117.773 336.716 117.72 336.369 117.72C335.649 117.72 335.063 117.96 334.609 118.44C334.156 118.907 333.929 119.6 333.929 120.52ZM344.387 126.2C343.48 126.2 342.654 125.98 341.907 125.54C341.174 125.1 340.587 124.507 340.147 123.76C339.72 123.013 339.507 122.18 339.507 121.26C339.507 120.353 339.72 119.533 340.147 118.8C340.587 118.067 341.174 117.487 341.907 117.06C342.654 116.62 343.48 116.4 344.387 116.4C345.307 116.4 346.134 116.613 346.867 117.04C347.6 117.467 348.18 118.053 348.607 118.8C349.047 119.533 349.267 120.353 349.267 121.26C349.267 122.193 349.047 123.033 348.607 123.78C348.18 124.513 347.6 125.1 346.867 125.54C346.134 125.98 345.307 126.2 344.387 126.2ZM344.387 124.84C345.054 124.84 345.64 124.687 346.147 124.38C346.667 124.073 347.074 123.647 347.367 123.1C347.674 122.553 347.827 121.94 347.827 121.26C347.827 120.58 347.674 119.98 347.367 119.46C347.074 118.927 346.667 118.507 346.147 118.2C345.64 117.893 345.054 117.74 344.387 117.74C343.734 117.74 343.147 117.893 342.627 118.2C342.107 118.507 341.7 118.927 341.407 119.46C341.114 119.98 340.967 120.58 340.967 121.26C340.967 121.953 341.114 122.573 341.407 123.12C341.7 123.653 342.107 124.073 342.627 124.38C343.147 124.687 343.734 124.84 344.387 124.84ZM353.802 126L350.182 116.6H351.642L354.502 124.4L353.982 124.42L356.822 116.6H357.642L360.482 124.42L359.962 124.4L362.802 116.6H364.282L360.642 126H359.822L356.922 118.3H357.522L354.642 126H353.802ZM365.6 128.06L366.74 125.84L367.24 125.72C367.187 125.84 367.114 125.94 367.02 126.02C366.927 126.113 366.814 126.16 366.68 126.16C366.427 126.16 366.194 126.06 365.98 125.86C365.78 125.647 365.68 125.387 365.68 125.08C365.68 124.76 365.794 124.487 366.02 124.26C366.247 124.02 366.52 123.9 366.84 123.9C367.147 123.9 367.414 124.02 367.64 124.26C367.88 124.487 368 124.76 368 125.08C368 125.213 367.974 125.373 367.92 125.56C367.88 125.733 367.787 125.967 367.64 126.26L366.44 128.52L365.6 128.06ZM376.566 126V115C376.566 114.347 376.706 113.767 376.986 113.26C377.279 112.753 377.679 112.36 378.186 112.08C378.706 111.787 379.292 111.64 379.946 111.64C380.452 111.64 380.899 111.733 381.286 111.92C381.672 112.093 382.026 112.34 382.346 112.66L381.426 113.58C381.212 113.367 380.986 113.213 380.746 113.12C380.519 113.013 380.252 112.96 379.946 112.96C379.319 112.96 378.832 113.147 378.486 113.52C378.152 113.88 377.986 114.387 377.986 115.04V126H376.566ZM374.206 117.86V116.6H381.126V117.86H374.206ZM386.531 126.2C385.638 126.2 384.838 125.987 384.131 125.56C383.425 125.12 382.865 124.533 382.451 123.8C382.051 123.067 381.851 122.24 381.851 121.32C381.851 120.387 382.051 119.553 382.451 118.82C382.865 118.073 383.425 117.487 384.131 117.06C384.838 116.62 385.631 116.4 386.511 116.4C387.231 116.4 387.871 116.547 388.431 116.84C389.005 117.12 389.465 117.52 389.811 118.04C390.171 118.547 390.391 119.14 390.471 119.82V122.76C390.391 123.44 390.171 124.04 389.811 124.56C389.465 125.08 389.005 125.487 388.431 125.78C387.871 126.06 387.238 126.2 386.531 126.2ZM386.751 124.86C387.725 124.86 388.505 124.533 389.091 123.88C389.691 123.227 389.991 122.367 389.991 121.3C389.991 120.593 389.851 119.973 389.571 119.44C389.305 118.893 388.925 118.473 388.431 118.18C387.951 117.873 387.385 117.72 386.731 117.72C386.065 117.72 385.471 117.873 384.951 118.18C384.445 118.487 384.038 118.913 383.731 119.46C383.438 119.993 383.291 120.607 383.291 121.3C383.291 121.993 383.438 122.607 383.731 123.14C384.038 123.673 384.451 124.093 384.971 124.4C385.491 124.707 386.085 124.86 386.751 124.86ZM389.911 126V123.48L390.191 121.16L389.911 118.9V116.6H391.311V126H389.911ZM397.03 126.2C396.524 126.2 396.037 126.133 395.57 126C395.104 125.853 394.677 125.653 394.29 125.4C393.917 125.147 393.59 124.847 393.31 124.5L394.21 123.58C394.584 124.033 395.004 124.373 395.47 124.6C395.95 124.813 396.484 124.92 397.07 124.92C397.697 124.92 398.184 124.8 398.53 124.56C398.89 124.32 399.07 123.987 399.07 123.56C399.07 123.16 398.944 122.847 398.69 122.62C398.437 122.393 398.11 122.213 397.71 122.08C397.324 121.947 396.91 121.82 396.47 121.7C396.03 121.567 395.61 121.407 395.21 121.22C394.81 121.02 394.484 120.747 394.23 120.4C393.99 120.053 393.87 119.6 393.87 119.04C393.87 118.507 393.997 118.047 394.25 117.66C394.517 117.26 394.89 116.953 395.37 116.74C395.864 116.513 396.444 116.4 397.11 116.4C397.817 116.4 398.457 116.527 399.03 116.78C399.604 117.033 400.064 117.407 400.41 117.9L399.51 118.8C399.23 118.44 398.877 118.167 398.45 117.98C398.037 117.78 397.57 117.68 397.05 117.68C396.45 117.68 395.99 117.8 395.67 118.04C395.364 118.267 395.21 118.567 395.21 118.94C395.21 119.3 395.337 119.587 395.59 119.8C395.844 120 396.164 120.167 396.55 120.3C396.95 120.42 397.37 120.547 397.81 120.68C398.25 120.8 398.67 120.967 399.07 121.18C399.47 121.38 399.79 121.66 400.03 122.02C400.284 122.367 400.41 122.84 400.41 123.44C400.41 124.28 400.104 124.953 399.49 125.46C398.89 125.953 398.07 126.2 397.03 126.2ZM404.087 126V112.64H405.487V126H404.087ZM401.707 117.86V116.6H407.847V117.86H401.707ZM418.212 126.2C417.146 126.2 416.226 126 415.452 125.6C414.679 125.187 413.999 124.613 413.412 123.88L414.432 122.88C414.899 123.533 415.439 124.02 416.052 124.34C416.679 124.66 417.419 124.82 418.272 124.82C419.152 124.82 419.866 124.62 420.412 124.22C420.959 123.82 421.232 123.267 421.232 122.56C421.232 122.013 421.106 121.567 420.852 121.22C420.599 120.86 420.266 120.573 419.852 120.36C419.452 120.133 419.006 119.933 418.512 119.76C418.019 119.587 417.526 119.407 417.032 119.22C416.552 119.02 416.106 118.773 415.692 118.48C415.279 118.187 414.946 117.813 414.692 117.36C414.452 116.907 414.332 116.327 414.332 115.62C414.332 114.873 414.512 114.233 414.872 113.7C415.232 113.167 415.726 112.76 416.352 112.48C416.979 112.187 417.692 112.04 418.492 112.04C419.386 112.04 420.179 112.213 420.872 112.56C421.579 112.907 422.166 113.373 422.632 113.96L421.632 114.96C421.206 114.453 420.739 114.067 420.232 113.8C419.726 113.533 419.132 113.4 418.452 113.4C417.652 113.4 417.012 113.587 416.532 113.96C416.052 114.333 415.812 114.853 415.812 115.52C415.812 116.04 415.932 116.46 416.172 116.78C416.426 117.1 416.759 117.367 417.172 117.58C417.586 117.793 418.032 117.987 418.512 118.16C419.006 118.32 419.499 118.5 419.992 118.7C420.486 118.9 420.932 119.153 421.332 119.46C421.746 119.767 422.079 120.16 422.332 120.64C422.586 121.107 422.712 121.707 422.712 122.44C422.712 123.627 422.306 124.553 421.492 125.22C420.692 125.873 419.599 126.2 418.212 126.2ZM429.231 126.2C428.324 126.2 427.497 125.98 426.751 125.54C426.017 125.1 425.431 124.507 424.991 123.76C424.564 123.013 424.351 122.18 424.351 121.26C424.351 120.353 424.564 119.533 424.991 118.8C425.431 118.067 426.017 117.487 426.751 117.06C427.497 116.62 428.324 116.4 429.231 116.4C430.151 116.4 430.977 116.613 431.711 117.04C432.444 117.467 433.024 118.053 433.451 118.8C433.891 119.533 434.111 120.353 434.111 121.26C434.111 122.193 433.891 123.033 433.451 123.78C433.024 124.513 432.444 125.1 431.711 125.54C430.977 125.98 430.151 126.2 429.231 126.2ZM429.231 124.84C429.897 124.84 430.484 124.687 430.991 124.38C431.511 124.073 431.917 123.647 432.211 123.1C432.517 122.553 432.671 121.94 432.671 121.26C432.671 120.58 432.517 119.98 432.211 119.46C431.917 118.927 431.511 118.507 430.991 118.2C430.484 117.893 429.897 117.74 429.231 117.74C428.577 117.74 427.991 117.893 427.471 118.2C426.951 118.507 426.544 118.927 426.251 119.46C425.957 119.98 425.811 120.58 425.811 121.26C425.811 121.953 425.957 122.573 426.251 123.12C426.544 123.653 426.951 124.073 427.471 124.38C427.991 124.687 428.577 124.84 429.231 124.84ZM436.338 126V111.84H437.738V126H436.338ZM444.656 126.2C443.763 126.2 442.963 125.987 442.256 125.56C441.55 125.12 440.99 124.533 440.576 123.8C440.176 123.067 439.976 122.24 439.976 121.32C439.976 120.387 440.176 119.553 440.576 118.82C440.99 118.073 441.55 117.487 442.256 117.06C442.963 116.62 443.756 116.4 444.636 116.4C445.356 116.4 445.996 116.547 446.556 116.84C447.13 117.12 447.59 117.52 447.936 118.04C448.296 118.547 448.516 119.14 448.596 119.82V122.76C448.516 123.44 448.296 124.04 447.936 124.56C447.59 125.08 447.13 125.487 446.556 125.78C445.996 126.06 445.363 126.2 444.656 126.2ZM444.876 124.86C445.85 124.86 446.63 124.533 447.216 123.88C447.816 123.227 448.116 122.367 448.116 121.3C448.116 120.593 447.976 119.973 447.696 119.44C447.43 118.893 447.05 118.473 446.556 118.18C446.076 117.873 445.51 117.72 444.856 117.72C444.19 117.72 443.596 117.873 443.076 118.18C442.57 118.487 442.163 118.913 441.856 119.46C441.563 119.993 441.416 120.607 441.416 121.3C441.416 121.993 441.563 122.607 441.856 123.14C442.163 123.673 442.576 124.093 443.096 124.4C443.616 124.707 444.21 124.86 444.876 124.86ZM448.036 126V123.48L448.316 121.16L448.036 118.9V116.6H449.436V126H448.036ZM459.115 126V120.48C459.115 119.653 458.869 118.987 458.375 118.48C457.895 117.96 457.255 117.7 456.455 117.7C455.909 117.7 455.429 117.82 455.015 118.06C454.602 118.3 454.275 118.627 454.035 119.04C453.795 119.453 453.675 119.927 453.675 120.46L453.035 120.1C453.035 119.393 453.202 118.76 453.535 118.2C453.869 117.64 454.315 117.2 454.875 116.88C455.449 116.56 456.102 116.4 456.835 116.4C457.555 116.4 458.195 116.573 458.755 116.92C459.315 117.267 459.749 117.733 460.055 118.32C460.375 118.907 460.535 119.547 460.535 120.24V126H459.115ZM452.275 126V116.6H453.675V126H452.275ZM467.234 126.2C466.341 126.2 465.541 125.987 464.834 125.56C464.128 125.12 463.568 124.533 463.154 123.8C462.754 123.067 462.554 122.24 462.554 121.32C462.554 120.387 462.754 119.553 463.154 118.82C463.568 118.073 464.128 117.487 464.834 117.06C465.541 116.62 466.334 116.4 467.214 116.4C467.934 116.4 468.574 116.547 469.134 116.84C469.708 117.12 470.168 117.52 470.514 118.04C470.874 118.547 471.094 119.14 471.174 119.82V122.76C471.094 123.44 470.874 124.04 470.514 124.56C470.168 125.08 469.708 125.487 469.134 125.78C468.574 126.06 467.941 126.2 467.234 126.2ZM467.454 124.86C468.428 124.86 469.208 124.533 469.794 123.88C470.394 123.227 470.694 122.367 470.694 121.3C470.694 120.593 470.554 119.973 470.274 119.44C470.008 118.893 469.628 118.473 469.134 118.18C468.654 117.873 468.088 117.72 467.434 117.72C466.768 117.72 466.174 117.873 465.654 118.18C465.148 118.487 464.741 118.913 464.434 119.46C464.141 119.993 463.994 120.607 463.994 121.3C463.994 121.993 464.141 122.607 464.434 123.14C464.741 123.673 465.154 124.093 465.674 124.4C466.194 124.707 466.788 124.86 467.454 124.86ZM470.614 126V123.48L470.894 121.16L470.614 118.9V116.6H472.014V126H470.614ZM216.88 150V136.64H218.28V150H216.88ZM214.5 141.86V140.6H220.64V141.86H214.5ZM222.568 150V140.6H223.968V150H222.568ZM223.968 144.52L223.388 144.26C223.388 143.073 223.675 142.133 224.248 141.44C224.835 140.747 225.635 140.4 226.648 140.4C227.115 140.4 227.542 140.487 227.928 140.66C228.315 140.82 228.675 141.08 229.008 141.44L228.088 142.42C227.862 142.167 227.608 141.987 227.328 141.88C227.062 141.773 226.755 141.72 226.408 141.72C225.688 141.72 225.102 141.96 224.648 142.44C224.195 142.907 223.968 143.6 223.968 144.52ZM234.246 150.2C233.353 150.2 232.553 149.987 231.846 149.56C231.139 149.12 230.579 148.533 230.166 147.8C229.766 147.067 229.566 146.24 229.566 145.32C229.566 144.387 229.766 143.553 230.166 142.82C230.579 142.073 231.139 141.487 231.846 141.06C232.553 140.62 233.346 140.4 234.226 140.4C234.946 140.4 235.586 140.547 236.146 140.84C236.719 141.12 237.179 141.52 237.526 142.04C237.886 142.547 238.106 143.14 238.186 143.82V146.76C238.106 147.44 237.886 148.04 237.526 148.56C237.179 149.08 236.719 149.487 236.146 149.78C235.586 150.06 234.953 150.2 234.246 150.2ZM234.466 148.86C235.439 148.86 236.219 148.533 236.806 147.88C237.406 147.227 237.706 146.367 237.706 145.3C237.706 144.593 237.566 143.973 237.286 143.44C237.019 142.893 236.639 142.473 236.146 142.18C235.666 141.873 235.099 141.72 234.446 141.72C233.779 141.72 233.186 141.873 232.666 142.18C232.159 142.487 231.753 142.913 231.446 143.46C231.153 143.993 231.006 144.607 231.006 145.3C231.006 145.993 231.153 146.607 231.446 147.14C231.753 147.673 232.166 148.093 232.686 148.4C233.206 148.707 233.799 148.86 234.466 148.86ZM237.626 150V147.48L237.906 145.16L237.626 142.9V140.6H239.026V150H237.626ZM248.705 150V144.48C248.705 143.653 248.459 142.987 247.965 142.48C247.485 141.96 246.845 141.7 246.045 141.7C245.499 141.7 245.019 141.82 244.605 142.06C244.192 142.3 243.865 142.627 243.625 143.04C243.385 143.453 243.265 143.927 243.265 144.46L242.625 144.1C242.625 143.393 242.792 142.76 243.125 142.2C243.459 141.64 243.905 141.2 244.465 140.88C245.039 140.56 245.692 140.4 246.425 140.4C247.145 140.4 247.785 140.573 248.345 140.92C248.905 141.267 249.339 141.733 249.645 142.32C249.965 142.907 250.125 143.547 250.125 144.24V150H248.705ZM241.865 150V140.6H243.265V150H241.865ZM255.624 150.2C255.118 150.2 254.631 150.133 254.164 150C253.698 149.853 253.271 149.653 252.884 149.4C252.511 149.147 252.184 148.847 251.904 148.5L252.804 147.58C253.178 148.033 253.598 148.373 254.064 148.6C254.544 148.813 255.078 148.92 255.664 148.92C256.291 148.92 256.778 148.8 257.124 148.56C257.484 148.32 257.664 147.987 257.664 147.56C257.664 147.16 257.538 146.847 257.284 146.62C257.031 146.393 256.704 146.213 256.304 146.08C255.918 145.947 255.504 145.82 255.064 145.7C254.624 145.567 254.204 145.407 253.804 145.22C253.404 145.02 253.078 144.747 252.824 144.4C252.584 144.053 252.464 143.6 252.464 143.04C252.464 142.507 252.591 142.047 252.844 141.66C253.111 141.26 253.484 140.953 253.964 140.74C254.458 140.513 255.038 140.4 255.704 140.4C256.411 140.4 257.051 140.527 257.624 140.78C258.198 141.033 258.658 141.407 259.004 141.9L258.104 142.8C257.824 142.44 257.471 142.167 257.044 141.98C256.631 141.78 256.164 141.68 255.644 141.68C255.044 141.68 254.584 141.8 254.264 142.04C253.958 142.267 253.804 142.567 253.804 142.94C253.804 143.3 253.931 143.587 254.184 143.8C254.438 144 254.758 144.167 255.144 144.3C255.544 144.42 255.964 144.547 256.404 144.68C256.844 144.8 257.264 144.967 257.664 145.18C258.064 145.38 258.384 145.66 258.624 146.02C258.878 146.367 259.004 146.84 259.004 147.44C259.004 148.28 258.698 148.953 258.084 149.46C257.484 149.953 256.664 150.2 255.624 150.2ZM262.601 150V139C262.601 138.347 262.741 137.767 263.021 137.26C263.314 136.753 263.714 136.36 264.221 136.08C264.741 135.787 265.327 135.64 265.981 135.64C266.487 135.64 266.934 135.733 267.321 135.92C267.707 136.093 268.061 136.34 268.381 136.66L267.461 137.58C267.247 137.367 267.021 137.213 266.781 137.12C266.554 137.013 266.287 136.96 265.981 136.96C265.354 136.96 264.867 137.147 264.521 137.52C264.187 137.88 264.021 138.387 264.021 139.04V150H262.601ZM260.241 141.86V140.6H267.161V141.86H260.241ZM272.826 150.2C271.88 150.2 271.033 149.987 270.286 149.56C269.54 149.133 268.946 148.547 268.506 147.8C268.08 147.053 267.866 146.213 267.866 145.28C267.866 144.36 268.08 143.533 268.506 142.8C268.933 142.053 269.513 141.467 270.246 141.04C270.98 140.613 271.8 140.4 272.706 140.4C273.56 140.4 274.313 140.593 274.966 140.98C275.633 141.367 276.153 141.907 276.526 142.6C276.913 143.28 277.106 144.067 277.106 144.96C277.106 145.067 277.1 145.193 277.086 145.34C277.073 145.473 277.046 145.633 277.006 145.82H268.866V144.62H276.246L275.746 145.06C275.76 144.367 275.64 143.773 275.386 143.28C275.146 142.773 274.793 142.387 274.326 142.12C273.873 141.84 273.32 141.7 272.666 141.7C271.986 141.7 271.393 141.847 270.886 142.14C270.38 142.433 269.98 142.847 269.686 143.38C269.406 143.9 269.266 144.52 269.266 145.24C269.266 145.96 269.413 146.593 269.706 147.14C270.013 147.687 270.433 148.113 270.966 148.42C271.513 148.727 272.14 148.88 272.846 148.88C273.42 148.88 273.946 148.78 274.426 148.58C274.906 148.367 275.313 148.053 275.646 147.64L276.546 148.56C276.106 149.08 275.56 149.487 274.906 149.78C274.266 150.06 273.573 150.2 272.826 150.2ZM279.248 150V140.6H280.648V150H279.248ZM280.648 144.52L280.068 144.26C280.068 143.073 280.355 142.133 280.928 141.44C281.515 140.747 282.315 140.4 283.328 140.4C283.795 140.4 284.221 140.487 284.608 140.66C284.995 140.82 285.355 141.08 285.688 141.44L284.768 142.42C284.541 142.167 284.288 141.987 284.008 141.88C283.741 141.773 283.435 141.72 283.088 141.72C282.368 141.72 281.781 141.96 281.328 142.44C280.875 142.907 280.648 143.6 280.648 144.52ZM289.843 150.2C289.336 150.2 288.85 150.133 288.383 150C287.916 149.853 287.49 149.653 287.103 149.4C286.73 149.147 286.403 148.847 286.123 148.5L287.023 147.58C287.396 148.033 287.816 148.373 288.283 148.6C288.763 148.813 289.296 148.92 289.883 148.92C290.51 148.92 290.996 148.8 291.343 148.56C291.703 148.32 291.883 147.987 291.883 147.56C291.883 147.16 291.756 146.847 291.503 146.62C291.25 146.393 290.923 146.213 290.523 146.08C290.136 145.947 289.723 145.82 289.283 145.7C288.843 145.567 288.423 145.407 288.023 145.22C287.623 145.02 287.296 144.747 287.043 144.4C286.803 144.053 286.683 143.6 286.683 143.04C286.683 142.507 286.81 142.047 287.063 141.66C287.33 141.26 287.703 140.953 288.183 140.74C288.676 140.513 289.256 140.4 289.923 140.4C290.63 140.4 291.27 140.527 291.843 140.78C292.416 141.033 292.876 141.407 293.223 141.9L292.323 142.8C292.043 142.44 291.69 142.167 291.263 141.98C290.85 141.78 290.383 141.68 289.863 141.68C289.263 141.68 288.803 141.8 288.483 142.04C288.176 142.267 288.023 142.567 288.023 142.94C288.023 143.3 288.15 143.587 288.403 143.8C288.656 144 288.976 144.167 289.363 144.3C289.763 144.42 290.183 144.547 290.623 144.68C291.063 144.8 291.483 144.967 291.883 145.18C292.283 145.38 292.603 145.66 292.843 146.02C293.096 146.367 293.223 146.84 293.223 147.44C293.223 148.28 292.916 148.953 292.303 149.46C291.703 149.953 290.883 150.2 289.843 150.2ZM296.92 150.2C296.586 150.2 296.313 150.087 296.1 149.86C295.886 149.633 295.78 149.36 295.78 149.04C295.78 148.72 295.886 148.453 296.1 148.24C296.313 148.013 296.586 147.9 296.92 147.9C297.24 147.9 297.506 148.013 297.72 148.24C297.933 148.453 298.04 148.72 298.04 149.04C298.04 149.36 297.933 149.633 297.72 149.86C297.506 150.087 297.24 150.2 296.92 150.2Z" fill="#0B2818"/>
<circle cx="82" cy="98" r="81.1214" fill="#0B2818" stroke="#F7F4EE" stroke-width="1.75714"/>
<path d="M61.1721 59.0856C61.279 59.0821 61.3859 59.079 61.4928 59.0764C71.3007 58.8295 81.2787 59.2801 91.1028 59.0553C92.167 59.0309 94.4493 58.9956 95.4488 59.2359C100.413 60.4283 99.576 65.7137 99.5922 69.5712L99.6263 78.9773C102.309 77.0002 107.17 75.6495 107.74 80.3656C108.339 85.3122 109.065 90.0114 110.941 94.6752C112.614 98.8359 114.893 102.9 115.661 107.335C116.65 113.099 116.383 118.479 115.622 124.216C117.407 126.062 119.095 128.409 120.81 130.36C121.623 131.285 125.951 135.604 122.773 136.008C121.685 135.665 116.202 128.709 114.814 127.219C114.159 128.081 113.872 128.586 112.758 128.756C112.504 128.599 112.298 128.396 112.374 128.043C113.712 121.874 113.872 115.751 113.301 109.482C112.944 105.579 111.475 102.752 109.925 99.2463C108.653 96.3669 107.63 93.3902 106.825 90.346C106.439 88.9291 106.118 87.4958 105.861 86.0502C105.649 84.8164 105.323 80.7617 104.902 79.9804C103.752 79.3002 101.949 80.0713 101.257 81.094C97.7278 86.3142 99.7672 93.0767 101.606 98.5276C101.999 99.6928 102.859 100.79 103.007 102.001C102.83 102.845 102.346 103.426 101.457 103.251C100.606 102.624 100.229 101.639 99.7688 100.692C99.6473 102.711 99.7348 105.327 99.7461 107.39L99.7963 121.447C99.7915 123.645 99.7931 125.994 98.1198 127.617C97.284 128.429 96.223 128.972 95.0762 129.176C93.4321 129.481 87.7223 129.378 85.7445 129.375L67.789 129.335C75.3292 134.797 81.5946 137.687 90.957 137.778C91.9468 137.788 92.6886 137.863 93.3333 138.617C93.4402 139.159 93.4872 138.919 93.2426 139.367C92.2691 140.072 90.9797 139.994 89.7827 140.046C90.9797 141.399 95.2058 145.855 94.472 147.499C94.0833 147.875 94.0233 147.897 93.4904 148C92.0553 147.733 88.0203 141.748 86.4572 140.169L86.3082 140.02C85.0464 139.709 83.3116 139.569 81.891 139.232C77.1741 138.11 73.3465 136.256 69.2662 133.719C67.7436 132.772 64.9818 130.2 63.903 129.735C60.1872 128.13 55.4574 127.681 52.4316 124.815C49.8901 122.405 49.5613 118.523 52.0833 115.961C49.0413 112.4 48.6704 109.802 51.714 106.082C49.2195 104.462 48.7384 101.915 49.5127 99.1101C49.8674 97.8239 50.6239 97.08 51.5374 96.1444C49.963 95.2349 48.5084 94.4119 47.415 92.9088C45.5814 90.3889 46.3022 86.9238 48.9263 85.2663C51.3382 83.7428 53.7971 83.794 56.4843 84.3099C56.3774 80.3506 56.5637 76.1421 56.4681 72.1325C56.5297 69.2716 56.3013 66.3168 56.5718 63.4704C56.7921 61.1623 59.0679 59.4663 61.1721 59.0856ZM97.2759 116.51C97.1382 108.845 97.2176 100.948 97.1868 93.2547C97.1577 86.2389 96.79 77.4707 97.156 70.5417L70.9281 70.5398C67.303 70.5411 62.4193 70.7019 58.9302 70.5568L58.9804 97.2735C63.6034 100.011 68.2279 104.344 63.3021 109.416C65.1406 111.445 65.9505 112.543 65.8015 115.461C65.7804 115.822 65.7529 116.181 65.7172 116.54L95.0276 116.524L97.2759 116.51ZM96.6572 62.847C96.1421 62.4542 95.1945 61.6496 94.5465 61.6245C85.3963 61.2705 76.1844 61.5558 67.0195 61.4928C65.6832 61.4836 64.3112 61.4863 62.983 61.5267C57.994 61.5599 59.2024 64.7815 58.9221 68.2289C62.6104 67.9738 67.4666 68.112 71.2683 68.1109L92.6417 68.1311L97.0929 68.1339C97.0783 66.4259 97.1933 64.4259 96.6572 62.847ZM65.2961 126.894L84.4163 126.868C87.2347 126.867 93.7285 127.219 96.0157 126.227C97.838 124.218 97.1382 121.756 97.3294 119.073L75.3195 119.06C71.8952 119.059 67.6578 119.177 64.3145 119.039C66.0801 121.773 66.8916 123.752 65.2961 126.894ZM52.9596 86.4303C51.437 86.76 50.5494 86.9709 49.4366 88.1253L48.8761 89.7595C49.6196 92.4988 51.024 93.1543 53.5736 94.1603C54.4709 94.4962 55.6501 94.8995 56.4973 95.2993C56.4827 92.5362 56.5248 89.7268 56.4892 86.9745C55.1188 86.5773 54.3948 86.3067 52.9596 86.4303ZM62.5829 125.754C63.5807 124.71 64.112 123.57 63.2843 122.212C61.3033 118.959 57.3396 118.879 54.1324 117.222C53.4051 118.302 53.1589 118.896 52.7572 120.141C53.1994 121.446 53.3921 122.168 54.4742 123.138C56.3013 124.774 60.1419 126.329 62.5829 125.754ZM61.6985 116.878C63.3475 115.914 63.8075 114.556 62.7902 112.852C61.4069 110.534 58.9319 109.596 56.4941 108.804C55.4639 108.474 54.6216 107.957 53.4974 108.067C48.4436 112.887 59.2283 117.716 61.6985 116.878ZM53.4132 98.2149C47.3373 102.527 57.2489 107.368 61.2433 107.599C66.5482 103.414 57.0545 98.0381 53.4132 98.2149Z" fill="#F7F4EE"/>
<path d="M79.2733 81.1413C79.3316 79.7687 78.8586 77.8709 80.02 77.0373C80.5691 76.9652 80.655 76.9445 81.149 77.1837C81.9023 77.9463 81.5831 79.7868 81.601 81.0599C83.7375 81.4431 86.0733 82.1302 87.4193 83.9447C89.517 86.7728 88.4301 89.6428 85.8465 91.6087C90.3317 93.4249 91.7701 97.6474 88.537 101.704C86.9188 103.736 84.0825 104.036 81.6074 104.136L81.5767 105.932C81.5864 106.568 81.601 107.154 81.5637 107.791C81.1053 108.472 79.9795 108.399 79.3656 108.01C79.1194 107.369 79.3138 104.965 79.3478 104.135L75.3971 104.084L75.4263 108.308L75.308 108.314C72.9949 108.404 72.8249 108.149 72.9528 105.719C72.9787 105.214 72.9949 104.657 73.016 104.147C71.9048 104.115 69.1123 104.352 68.3817 103.719C68.2538 103.447 68.2116 103.319 68.1954 103.013C68.074 100.877 69.7132 101.216 71.2893 101.216C71.2261 100.451 71.2455 99.4837 71.2617 98.7098C71.3654 93.894 71.1986 89.054 71.2504 84.2438C70.4113 84.1729 69.2516 84.1973 68.5777 83.7941C67.9962 83.1398 68.0448 82.1407 68.6344 81.5987C69.4184 80.8779 72.0004 81.1432 73.0743 81.1434C73.0597 80.0941 72.7909 77.6813 73.5165 77.0421C74.0673 77.0209 74.4722 76.9479 74.9695 77.1678C75.7146 77.9403 75.3939 79.8495 75.3777 81.1222C76.6751 81.1442 77.9742 81.1507 79.2733 81.1413ZM84.9653 100.222C86.4912 98.5898 86.4701 97.3513 85.7428 95.3667C82.8174 92.7071 79.0611 93.8124 75.1185 93.5667C75.091 96.1443 75.0926 98.7221 75.1234 101.3C77.9402 101.265 82.7381 101.801 84.9653 100.222ZM75.1072 90.7019C77.6519 90.7052 81.3596 91.1077 83.4524 89.8236C84.8438 88.5091 84.6835 87.6052 84.4146 85.815C81.8439 83.3736 78.695 84.2236 75.1088 84.1067L75.1072 90.7019Z" fill="#F7F4EE"/>
<path d="M74.0233 64.1141C75.9234 64.1026 83.0084 63.8923 84.3496 64.2937C84.8874 64.9113 84.8161 65.6607 84.2783 66.2693C83.7357 66.5776 83.0553 66.4732 82.3961 66.4573C80.3778 66.4664 71.558 67.1368 71.1562 65.1503C71.66 63.8775 72.8473 64.1293 74.0233 64.1141Z" fill="#F7F4EE"/>
<path d="M76.3709 121.359C77.7947 121.38 80.537 120.992 81.5478 121.897C82.0046 122.694 81.8118 123.334 81.0602 123.796C79.6429 123.824 75.6225 124.357 75.4492 122.622C75.7035 121.951 75.8671 121.836 76.3709 121.359Z" fill="#F7F4EE"/>
</svg>
