<svg width="51" height="51" viewBox="0 0 51 51" fill="none" xmlns="http://www.w3.org/2000/svg">
<path d="M0 25.5C0 11.4167 11.4167 0 25.5 0C39.5833 0 51 11.4167 51 25.5C51 39.5833 39.5833 51 25.5 51C11.4167 51 0 39.5833 0 25.5Z" fill="#0B2818"/>
<path d="M15.9375 19.126H35.0597" stroke="#B8FF4F" stroke-width="2" stroke-linecap="round" stroke-linejoin="round"/>
<path d="M32.9353 19.126V33.9988C32.9353 35.0612 31.873 36.1235 30.8107 36.1235H20.1872C19.1248 36.1235 18.0625 35.0612 18.0625 33.9988V19.126" stroke="#B8FF4F" stroke-width="2" stroke-linecap="round" stroke-linejoin="round"/>
<path d="M21.25 19.1258V17.0012C21.25 15.9388 22.3123 14.8765 23.3747 14.8765H27.6241C28.6864 14.8765 29.7488 15.9388 29.7488 17.0012V19.1258" stroke="#B8FF4F" stroke-width="2" stroke-linecap="round" stroke-linejoin="round"/>
<path d="M23.375 24.438V30.8121" stroke="#B8FF4F" stroke-width="2" stroke-linecap="round" stroke-linejoin="round"/>
<path d="M27.625 24.438V30.8121" stroke="#B8FF4F" stroke-width="2" stroke-linecap="round" stroke-linejoin="round"/>
</svg>
