<svg width="100" height="100" viewBox="0 0 100 100" fill="none" xmlns="http://www.w3.org/2000/svg">
<circle cx="50" cy="50" r="50" fill="#0B2818"/>
<path d="M50.5827 56.6284L55.981 52.7675C56.8694 52.1184 57.416 51.0934 57.416 50C57.416 48.9067 56.8694 47.8475 55.981 47.2325L50.5827 43.3717L32.0644 30.1492C31.5553 29.7823 30.9548 29.5631 30.3291 29.5158C29.7034 29.4685 29.0768 29.595 28.5184 29.8812C27.96 30.1675 27.4916 30.6024 27.1647 31.1381C26.8378 31.6737 26.6652 32.2892 26.666 32.9167V67.0834C26.666 68.3475 27.3835 69.5434 28.511 70.1242C28.9894 70.3634 29.536 70.5 30.0827 70.5C30.8002 70.5 31.4835 70.295 32.0644 69.8509L50.5827 56.6284Z" fill="#B8FF4F"/>
<path d="M79.899 47.2325L55.9823 30.1492C55.4733 29.7823 54.8728 29.5631 54.2471 29.5158C53.6214 29.4685 52.9948 29.595 52.4364 29.8812C51.878 30.1675 51.4095 30.6024 51.0827 31.1381C50.7558 31.6737 50.5832 32.2892 50.584 32.9167V39.1692L57.964 44.4309C59.7407 45.7292 60.834 47.7792 60.834 50C60.834 52.2209 59.7748 54.2709 57.964 55.5692L50.584 60.8309V67.0834C50.584 68.3475 51.3015 69.5434 52.429 70.1242C52.9073 70.3634 53.454 70.5 54.0007 70.5C54.7182 70.5 55.4015 70.295 55.9823 69.8509L79.899 52.7675C80.7873 52.1184 81.334 51.0934 81.334 50C81.334 48.9067 80.7873 47.8475 79.899 47.2325Z" fill="#B8FF4F"/>
</svg>
