<svg width="64" height="64" viewBox="0 0 64 64" fill="none" xmlns="http://www.w3.org/2000/svg">
<g filter="url(#filter0_d_242_837)">
<rect width="61" height="61" rx="30.5" fill="#B8FF4F"/>
<rect x="0.279817" y="0.279817" width="60.4404" height="60.4404" rx="30.2202" stroke="#0B2818" stroke-width="0.559633"/>
</g>
<path d="M13.1444 19.2279C13.4412 19.1165 13.752 19.0471 14.0763 19.0189L14.7303 18.9305C14.9616 18.8968 15.2064 18.8583 15.465 18.8161L15.4641 18.8165C15.976 18.7116 16.5456 18.5077 17.1734 18.2031L36.7563 8.70072C37.2709 8.45107 37.7298 8.35082 38.1205 8.43172C38.5361 8.50623 38.8451 8.76174 39.0446 9.17297C39.159 9.40874 39.2129 9.71123 39.2178 10.0713L39.2191 10.0717C39.2335 10.412 39.1996 10.8273 39.1222 11.3149L36.5573 28.506L36.5459 28.581L33.9103 46.4272L40.7941 43.087C41.7895 42.604 42.5902 42.0503 43.1998 41.4279L43.2007 41.4275C43.2015 41.4267 43.202 41.4258 43.202 41.4258C43.2024 41.424 43.203 41.4179 43.201 41.4057C43.1957 41.3743 43.1756 41.3229 43.1277 41.2502C43.0329 41.1061 42.86 40.9211 42.6254 40.7026C42.1583 40.2677 41.4791 39.7324 40.7824 39.1818C40.0893 38.6339 39.3795 38.0704 38.8613 37.5848C38.6028 37.3426 38.3858 37.1145 38.2421 36.9127C38.1702 36.8119 38.1128 36.712 38.0787 36.6164C38.0474 36.5285 38.0328 36.4339 38.0549 36.3414L38.6986 31.7176C38.6986 31.7143 38.6991 31.7116 38.6991 31.7098C38.6995 31.6994 38.7006 31.6878 38.7017 31.677C38.704 31.6544 38.7077 31.623 38.7128 31.5859C38.7232 31.5109 38.74 31.4052 38.7597 31.2798C38.7992 31.0288 38.8538 30.6952 38.9104 30.3622C38.9669 30.0291 39.0249 29.6952 39.0707 29.4443C39.0935 29.319 39.1133 29.2132 39.1284 29.1384C39.1359 29.1014 39.1434 29.0707 39.1487 29.0482C39.1513 29.0374 39.1539 29.0259 39.157 29.016C39.1583 29.0116 39.1607 29.0029 39.1647 28.9938C39.1665 28.9896 39.1711 28.9803 39.1781 28.97C39.1816 28.9646 39.1884 28.9555 39.198 28.9462C39.2069 28.9375 39.2256 28.9218 39.2543 28.9123C39.2945 28.8993 39.3382 28.8987 39.3711 28.9002C39.4074 28.9019 39.4491 28.9072 39.4932 28.9147C39.5817 28.9298 39.6935 28.9554 39.8229 28.9903C40.0829 29.0603 40.4262 29.1693 40.8233 29.3027C41.618 29.5696 42.6362 29.9408 43.6493 30.3216C45.6724 31.0819 47.6907 31.8853 47.872 31.9707C48.275 32.1609 48.5352 32.5553 48.6739 33.1088L50.5338 40.3375L50.5351 40.3423C50.7011 41.0774 50.689 41.6964 50.4747 42.1843C50.2594 42.6743 49.8267 43.0664 49.2032 43.369C48.8193 43.5553 48.41 43.667 47.9767 43.7047L47.3232 43.7939C47.0918 43.8276 46.8467 43.8653 46.588 43.9075L46.5876 43.9066C46.076 44.0117 45.5069 44.2161 44.8796 44.5205L25.2967 54.0229C24.78 54.2736 24.3195 54.3737 23.9277 54.2909L23.9273 54.2901C23.5142 54.2144 23.2072 53.9603 23.0084 53.5506C22.9222 53.373 22.8701 53.1574 22.8474 52.908L22.8339 52.6475C22.82 52.3076 22.8527 51.8932 22.9299 51.4069L25.4871 33.9471L25.4854 33.948L25.5266 33.6751L25.5319 33.6345L25.5376 33.5992L25.5384 33.5988L28.1418 16.2968L21.2589 19.6366C20.2635 20.1196 19.4628 20.6733 18.8532 21.2957L18.8523 21.2961C18.8515 21.2969 18.851 21.2978 18.851 21.2978C18.8506 21.2996 18.85 21.3057 18.852 21.3179C18.8573 21.3493 18.8775 21.4007 18.9253 21.4734C19.0202 21.6175 19.1933 21.8033 19.4281 22.0219C19.8952 22.4567 20.5741 22.9914 21.2706 23.5418C21.9638 24.0897 22.6735 24.6531 23.1918 25.1388C23.4503 25.381 23.6672 25.6091 23.811 25.8109C23.8828 25.9117 23.941 26.0112 23.9752 26.1068C24.0065 26.1946 24.0189 26.2893 23.9968 26.3817L23.9981 26.3822L23.3531 31.0055C23.3531 31.009 23.3539 31.0119 23.3539 31.0138C23.3535 31.0241 23.3524 31.0358 23.3513 31.0466C23.349 31.0692 23.3453 31.1005 23.3402 31.1377C23.3298 31.2127 23.313 31.3183 23.2933 31.4438C23.2538 31.6948 23.1992 32.0283 23.1426 32.3614C23.0861 32.6945 23.0281 33.0284 22.9824 33.2793C22.9595 33.4046 22.9397 33.5104 22.9246 33.5852C22.9171 33.6222 22.9096 33.6529 22.9043 33.6754C22.9017 33.6862 22.8991 33.6976 22.896 33.7076C22.8947 33.712 22.8924 33.7207 22.8883 33.7298C22.8865 33.734 22.8819 33.7433 22.875 33.7536C22.8714 33.7589 22.8653 33.7678 22.8559 33.777C22.8471 33.7856 22.8278 33.8017 22.7987 33.8113C22.7585 33.8243 22.7148 33.8249 22.682 33.8234C22.6457 33.8217 22.6047 33.8159 22.5607 33.8084C22.4722 33.7934 22.3604 33.7677 22.231 33.7329C21.971 33.6628 21.6268 33.5543 21.2297 33.4209C20.435 33.154 19.4168 32.7828 18.4037 32.402C16.3806 31.6417 14.3624 30.8383 14.181 30.7529C13.7781 30.5628 13.5182 30.1689 13.3795 29.6156L11.5192 22.3861L11.5184 22.3821C11.3522 21.6467 11.3647 21.0269 11.5792 20.5388C11.7946 20.0489 12.2271 19.6567 12.8507 19.3541L13.1444 19.2279Z" fill="#B8FF4F" stroke="black" stroke-width="0.291151"/>
<path d="M36.045 27.8223L33.4388 45.472L33.358 46.017L40.9851 42.316C42.0147 41.8165 42.8596 41.2349 43.512 40.5689L43.5107 40.5684C43.6281 40.4496 43.6533 40.2991 43.6312 40.168C43.6112 40.0497 43.5537 39.9393 43.4922 39.8458C43.3671 39.6557 43.1619 39.4407 42.9227 39.218C42.4396 38.7681 41.7442 38.2206 41.0538 37.6749C40.3563 37.1237 39.6616 36.5725 39.1594 36.1019C38.9075 35.8658 38.7159 35.6604 38.5975 35.4943C38.5386 35.4114 38.5053 35.349 38.4897 35.3056C38.4832 35.2872 38.4811 35.2759 38.4805 35.271L38.4841 35.2606L38.4879 35.237L39.1344 30.5989L39.1635 30.3904L39.1592 30.3882C39.1678 30.33 39.1786 30.2607 39.1909 30.1829C39.23 29.934 39.2842 29.6022 39.3406 29.2701C39.397 28.9379 39.4551 28.6063 39.5004 28.3578C39.5104 28.3026 39.5202 28.2518 39.5288 28.2062C39.5803 28.2179 39.6407 28.2297 39.7087 28.248C39.9558 28.3146 40.29 28.4194 40.6843 28.5518C41.4717 28.8163 42.4843 29.1855 43.4959 29.5658C45.5261 30.3287 47.5237 31.1243 47.6856 31.2005C47.9272 31.3144 48.1292 31.5685 48.2499 32.0502L48.2507 32.052L50.1094 39.2736C50.2647 39.9612 50.2366 40.4748 50.0746 40.8438C49.9142 41.2088 49.5774 41.5376 49.0127 41.8117C48.6765 41.9749 48.3174 42.0732 47.9343 42.106L47.9229 42.1071L47.2597 42.1967C47.0256 42.2308 46.7782 42.269 46.5176 42.3115L46.5067 42.3135L46.2943 42.3612C45.7955 42.4836 45.2598 42.6852 44.6886 42.9623L25.1057 52.4647C24.629 52.696 24.2738 52.7535 24.018 52.6994L24.0175 52.6986L24.0093 52.6971L23.9148 52.6746C23.701 52.6105 23.5304 52.462 23.4011 52.1955C23.3247 52.038 23.2748 51.8047 23.2708 51.4772L23.2709 51.4685C23.2582 51.1673 23.2866 50.7828 23.3615 50.3108L23.362 50.3073L25.9368 32.7272L36.045 27.8223ZM13.0404 18.5828C13.3765 18.4196 13.7356 18.3213 14.1187 18.2885L14.1192 18.2894L14.1301 18.2873C14.3378 18.2617 14.559 18.232 14.7933 18.1978L15.5354 18.083L15.5463 18.081C16.1044 17.9671 16.7114 17.749 17.3644 17.4322L36.9473 7.92978C37.4242 7.69841 37.7796 7.64185 38.0355 7.69594L38.0438 7.69735C38.3023 7.7437 38.5041 7.89442 38.6519 8.19899C38.6857 8.26864 38.7118 8.35369 38.7336 8.45459L38.5467 8.55719L38.6708 8.81286L38.7748 8.7678C38.7777 8.81528 38.7816 8.86507 38.7822 8.91726L38.7821 8.926C38.7948 9.22721 38.7665 9.61172 38.6915 10.0837L38.6906 10.0863L36.148 27.1243L26.0407 32.0288L28.6147 14.9234L28.6967 14.3767L21.0679 18.0784C20.1671 18.5156 19.4079 19.0155 18.7951 19.5797L18.541 19.8256C18.424 19.9443 18.3998 20.0956 18.4218 20.2265C18.4418 20.3448 18.4993 20.4552 18.5608 20.5487C18.6859 20.7387 18.8911 20.9538 19.1303 21.1765C19.6134 21.6264 20.3088 22.1739 20.9993 22.7195C21.6967 23.2708 22.3914 23.822 22.8936 24.2926C23.1456 24.5287 23.3371 24.734 23.4555 24.9002C23.5145 24.983 23.5477 25.0454 23.5633 25.0889C23.5696 25.1065 23.5705 25.1179 23.5712 25.123L23.5689 25.1339L23.5651 25.1575L22.9195 29.7952L22.8895 30.0041L22.8925 30.0058C22.8839 30.0641 22.8744 30.1337 22.8621 30.2116C22.823 30.4605 22.7688 30.7923 22.7124 31.1244C22.656 31.4566 22.598 31.7882 22.5526 32.0367C22.5426 32.0918 22.5315 32.1423 22.5229 32.1879C22.4718 32.1762 22.4117 32.1646 22.3443 32.1465C22.0972 32.0799 21.763 31.9751 21.3687 31.8427C20.5813 31.5782 19.5687 31.2089 18.5571 30.8287C16.5267 30.0657 14.5289 29.27 14.3674 29.1939C14.1258 29.08 13.9238 28.8259 13.8032 28.3443L13.8023 28.3425L11.9436 21.1209C11.7883 20.4334 11.8164 19.9197 11.9784 19.5507C12.1388 19.1857 12.4757 18.8568 13.0404 18.5828Z" fill="black" stroke="#192FFD" stroke-width="0.582303"/>
<path d="M23.6048 53.4199C23.6564 53.4456 23.7079 53.4692 23.7612 53.4873C23.9458 53.5498 24.1267 53.5601 24.3101 53.5357L24.3108 53.6558C24.084 53.6939 23.9483 53.6854 23.8467 53.6412C23.7738 53.6094 23.694 53.5481 23.6048 53.4199Z" stroke="black" stroke-width="0.582303"/>
<path d="M48.9112 43.122L48.7656 42.3942C49.2034 42.366 50.2175 41.5925 50.2214 41.3776V41.3751C50.2214 41.3759 50.2214 41.3767 50.2214 41.3776V42.103C50.0806 42.4723 49.2517 43.0183 48.9112 43.122Z" fill="black"/>
<defs>
<filter id="filter0_d_242_837" x="0" y="0" width="63.2385" height="63.2385" filterUnits="userSpaceOnUse" color-interpolation-filters="sRGB">
<feFlood flood-opacity="0" result="BackgroundImageFix"/>
<feColorMatrix in="SourceAlpha" type="matrix" values="0 0 0 0 0 0 0 0 0 0 0 0 0 0 0 0 0 0 127 0" result="hardAlpha"/>
<feOffset dx="2.23853" dy="2.23853"/>
<feComposite in2="hardAlpha" operator="out"/>
<feColorMatrix type="matrix" values="0 0 0 0 0.0431373 0 0 0 0 0.156863 0 0 0 0 0.0941176 0 0 0 1 0"/>
<feBlend mode="normal" in2="BackgroundImageFix" result="effect1_dropShadow_242_837"/>
<feBlend mode="normal" in="SourceGraphic" in2="effect1_dropShadow_242_837" result="shape"/>
</filter>
</defs>
</svg>
