<svg width="436" height="900" viewBox="0 0 436 900" fill="none" xmlns="http://www.w3.org/2000/svg">
<rect x="3.34526" y="408.408" width="391.92" height="325.156" rx="60" transform="rotate(-7.04412 3.34526 408.408)" stroke="#0B2818" stroke-width="6"/>
<path d="M170.931 0H176.056C181.752 33.864 182.42 450.782 167.736 482.963C164.007 491.135 139.761 521.77 170.973 523.308C180.078 523.757 187.994 503.618 193.598 497.895L194.974 497.685C196.632 498.985 196.052 498.178 196.72 500.235C196.121 503.683 191.869 510.179 189.876 513.413C189.633 525.021 186.595 546.23 204.465 545.621C208.317 545.527 211.965 543.871 214.576 541.035C219.985 535.038 218.247 519.364 218.264 510.852C208.68 506.529 206.696 500.599 202.018 491.581C200.636 488.919 199.489 486.742 199.682 483.63C200.566 482.009 199.934 482.482 201.403 481.897C208.13 485.278 211.321 511.506 227.034 505.885C235.002 503.034 236.975 493.331 234.329 486.12C231.747 479.102 225.606 473.43 227.104 465.367C227.789 461.54 229.031 459.546 229.37 455.388C229.663 451.737 228.691 445.582 229.481 442.596C230.676 441.237 230.582 441.262 232.309 440.776C237.924 443.888 232.672 463.794 231.197 469.001C238.632 481.982 246.711 496.893 232.719 508.971C236.589 515.788 240.464 525.196 248.309 527.32C251.131 528.088 254.146 527.639 256.617 526.083C272.044 516.458 254.673 496.256 249.697 486.429C254.094 478.781 255.511 476.689 256.986 467.833C258.625 457.988 253.678 449.054 253.526 441.76C253.122 422.747 253.175 19.0922 253.631 0H258.596V418.322C258.286 432.314 257.478 439.967 261.353 453.667C263.168 466.798 262.091 475.022 255.487 486.592C262.53 498.077 273.97 512.858 263.9 526.253C261.342 529.711 257.472 531.96 253.204 532.467C233.398 534.887 233.474 509.597 224.318 511.276C220.056 516.083 231.185 551.245 203.4 550.732C198.447 550.605 193.751 548.52 190.337 544.935C183.533 537.896 184.775 529.052 184.844 519.797C179.084 526.176 172.992 529.784 164.197 527.812C159.304 526.679 155.071 523.631 152.447 519.349C144.357 506.279 158.501 491.861 163.489 480.454C167.618 471.011 168.69 452.562 170.973 442.596C170.973 416.5 175.272 24.4261 170.931 0Z" fill="#0B2818"/>
<path d="M176.5 390V384L245 369.5L253.5 374.5V380.5L252 386L176.5 390Z" fill="#F7F4EE"/>
</svg>
