<svg width="100" height="100" viewBox="0 0 100 100" fill="none" xmlns="http://www.w3.org/2000/svg">
<circle cx="50" cy="50" r="50" fill="#0B2818"/>
<path d="M42 29.6667L26 40.3334V72.3334L42 61.6667L58 72.3334L74 61.6667V29.6667L58 40.3334L42 29.6667Z" fill="#B8FF4F"/>
<path fill-rule="evenodd" clip-rule="evenodd" d="M75.2593 27.3147C75.6849 27.5426 76.0407 27.8817 76.2887 28.2959C76.5366 28.7102 76.6675 29.1839 76.6673 29.6667V61.6667C76.6674 62.1056 76.5591 62.5378 76.3521 62.9248C76.1451 63.3118 75.8458 63.6418 75.4806 63.8854L59.4806 74.552C59.0424 74.8444 58.5274 75.0004 58.0006 75.0004C57.4739 75.0004 56.9589 74.8444 56.5206 74.552L42.0007 64.872L27.4807 74.552C27.079 74.82 26.6122 74.9739 26.13 74.9973C25.6478 75.0207 25.1683 74.9128 24.7426 74.685C24.3169 74.4573 23.9611 74.1182 23.713 73.7041C23.4649 73.2899 23.3339 72.8162 23.334 72.3334V40.3334C23.3339 39.8945 23.4422 39.4623 23.6492 39.0753C23.8562 38.6883 24.1555 38.3583 24.5207 38.1147L40.5206 27.448C40.9589 27.1557 41.4739 26.9996 42.0007 26.9996C42.5274 26.9996 43.0424 27.1557 43.4806 27.448L58.0006 37.128L72.5206 27.448C72.9223 27.1799 73.3892 27.0259 73.8715 27.0024C74.3539 26.9789 74.8335 27.0869 75.2593 27.3147ZM28.6673 41.76V67.3494L40.5206 59.448C40.9589 59.1557 41.4739 58.9996 42.0007 58.9996C42.5274 58.9996 43.0424 59.1557 43.4806 59.448L58.0006 69.128L71.334 60.24V34.6507L59.4806 42.552C59.0424 42.8444 58.5274 43.0004 58.0006 43.0004C57.4739 43.0004 56.9589 42.8444 56.5206 42.552L42.0007 32.872L28.6673 41.76Z" fill="#B8FF4F"/>
</svg>
