<svg width="591" height="195" viewBox="0 0 591 195" fill="none" xmlns="http://www.w3.org/2000/svg">
<rect x="42.5" y="1.5" width="547" height="192" rx="85.5" fill="#F7F4EE" stroke="#0B2818" stroke-width="3"/>
<path d="M231.344 40.8C231.86 40.8 232.298 40.758 232.658 40.674C233.03 40.578 233.36 40.488 233.648 40.404C233.948 40.308 234.236 40.26 234.512 40.26C235.016 40.26 235.394 40.386 235.646 40.638C235.898 40.89 236.108 41.316 236.276 41.916L237.878 47.676C237.974 48.012 237.926 48.294 237.734 48.522C237.542 48.75 237.272 48.894 236.924 48.954C236.66 48.99 236.39 48.96 236.114 48.864C235.838 48.756 235.61 48.522 235.43 48.162C234.698 46.794 233.996 45.744 233.324 45.012C232.664 44.28 231.992 43.776 231.308 43.5C230.624 43.212 229.874 43.068 229.058 43.068H227.276V62.418C227.276 62.694 227.342 62.934 227.474 63.138C227.618 63.33 227.852 63.456 228.176 63.516L229.382 63.75C229.718 63.822 229.958 63.954 230.102 64.146C230.258 64.326 230.336 64.59 230.336 64.938C230.336 65.262 230.222 65.52 229.994 65.712C229.778 65.904 229.442 66 228.986 66H217.898C217.43 66 217.082 65.904 216.854 65.712C216.638 65.52 216.53 65.262 216.53 64.938C216.53 64.362 216.812 63.972 217.376 63.768L218.114 63.516C218.414 63.408 218.636 63.27 218.78 63.102C218.936 62.922 219.014 62.694 219.014 62.418V44.382C219.014 44.106 218.936 43.884 218.78 43.716C218.636 43.536 218.414 43.392 218.114 43.284L217.376 43.032C216.812 42.828 216.53 42.438 216.53 41.862C216.53 41.538 216.638 41.28 216.854 41.088C217.082 40.896 217.43 40.8 217.898 40.8H231.344ZM224.45 52.734H229.094C229.922 52.734 230.522 52.572 230.894 52.248C231.266 51.912 231.596 51.258 231.884 50.286C231.992 49.962 232.142 49.74 232.334 49.62C232.526 49.488 232.748 49.422 233 49.422C233.612 49.422 233.984 49.71 234.116 50.286L235.538 56.226C235.634 56.61 235.622 56.91 235.502 57.126C235.382 57.33 235.19 57.486 234.926 57.594C234.626 57.702 234.344 57.714 234.08 57.63C233.828 57.534 233.582 57.33 233.342 57.018C232.946 56.478 232.58 56.058 232.244 55.758C231.908 55.458 231.536 55.248 231.128 55.128C230.72 55.008 230.192 54.948 229.544 54.948H224.45V52.734ZM248.29 48.306C250.282 48.306 252.022 48.69 253.51 49.458C255.01 50.226 256.174 51.3 257.002 52.68C257.842 54.048 258.262 55.644 258.262 57.468C258.262 59.16 257.824 60.69 256.948 62.058C256.072 63.414 254.866 64.494 253.33 65.298C251.794 66.09 250.018 66.486 248.002 66.486C246.01 66.486 244.264 66.102 242.764 65.334C241.276 64.554 240.112 63.48 239.272 62.112C238.444 60.732 238.03 59.142 238.03 57.342C238.03 55.614 238.468 54.072 239.344 52.716C240.22 51.36 241.426 50.286 242.962 49.494C244.498 48.702 246.274 48.306 248.29 48.306ZM249.568 64.2C250.012 64.092 250.354 63.768 250.594 63.228C250.834 62.688 250.942 61.902 250.918 60.87C250.894 59.826 250.72 58.512 250.396 56.928C250.084 55.392 249.736 54.138 249.352 53.166C248.98 52.194 248.572 51.498 248.128 51.078C247.684 50.646 247.222 50.49 246.742 50.61C246.286 50.706 245.938 51.024 245.698 51.564C245.47 52.104 245.368 52.89 245.392 53.922C245.428 54.954 245.602 56.268 245.914 57.864C246.214 59.4 246.556 60.654 246.94 61.626C247.324 62.598 247.732 63.294 248.164 63.714C248.608 64.134 249.076 64.296 249.568 64.2ZM268.535 56.19C268.535 54.402 268.769 52.926 269.237 51.762C269.717 50.598 270.353 49.734 271.145 49.17C271.937 48.594 272.801 48.306 273.737 48.306C274.961 48.306 275.897 48.678 276.545 49.422C277.205 50.166 277.535 51.294 277.535 52.806C277.535 54.342 277.223 55.476 276.599 56.208C275.975 56.928 275.165 57.288 274.169 57.288C273.173 57.288 272.429 57.03 271.937 56.514C271.445 55.998 271.193 55.284 271.181 54.372V53.616C271.169 53.316 271.103 53.088 270.983 52.932C270.863 52.764 270.671 52.68 270.407 52.68C270.167 52.68 269.951 52.788 269.759 53.004C269.579 53.208 269.435 53.55 269.327 54.03C269.219 54.51 269.165 55.158 269.165 55.974L268.535 56.19ZM268.733 49.746L269.165 53.76V62.562C269.165 62.946 269.225 63.222 269.345 63.39C269.465 63.558 269.717 63.684 270.101 63.768L271.523 64.038C271.847 64.11 272.081 64.224 272.225 64.38C272.369 64.536 272.441 64.758 272.441 65.046C272.441 65.346 272.339 65.58 272.135 65.748C271.931 65.916 271.631 66 271.235 66H261.299C260.867 66 260.555 65.916 260.363 65.748C260.183 65.58 260.093 65.346 260.093 65.046C260.093 64.842 260.147 64.662 260.255 64.506C260.363 64.338 260.543 64.2 260.795 64.092L261.227 63.93C261.395 63.846 261.515 63.714 261.587 63.534C261.659 63.354 261.695 63.048 261.695 62.616V53.562C261.695 53.214 261.647 52.968 261.551 52.824C261.467 52.668 261.329 52.566 261.137 52.518L260.687 52.41C260.459 52.338 260.291 52.236 260.183 52.104C260.087 51.96 260.039 51.786 260.039 51.582C260.039 51.33 260.111 51.126 260.255 50.97C260.399 50.814 260.657 50.67 261.029 50.538L265.313 49.008C266.057 48.72 266.591 48.534 266.915 48.45C267.251 48.366 267.515 48.324 267.707 48.324C268.007 48.324 268.235 48.438 268.391 48.666C268.547 48.882 268.661 49.242 268.733 49.746ZM295.075 49.728V62.598C295.075 63.03 295.111 63.336 295.183 63.516C295.255 63.696 295.381 63.834 295.561 63.93L295.957 64.11C296.317 64.314 296.497 64.608 296.497 64.992C296.497 65.664 296.095 66 295.291 66H287.191C286.771 66 286.465 65.916 286.273 65.748C286.081 65.58 285.985 65.346 285.985 65.046C285.985 64.842 286.039 64.662 286.147 64.506C286.255 64.338 286.435 64.206 286.687 64.11L287.119 63.93C287.299 63.846 287.425 63.714 287.497 63.534C287.569 63.342 287.605 63.03 287.605 62.598V53.508C287.605 53.172 287.557 52.932 287.461 52.788C287.365 52.632 287.221 52.53 287.029 52.482L286.597 52.374C286.369 52.302 286.201 52.2 286.093 52.068C285.997 51.924 285.949 51.744 285.949 51.528C285.949 51.276 286.015 51.078 286.147 50.934C286.291 50.79 286.549 50.646 286.921 50.502L291.331 48.9C291.871 48.684 292.309 48.534 292.645 48.45C292.981 48.354 293.305 48.306 293.617 48.306C294.097 48.306 294.457 48.438 294.697 48.702C294.949 48.966 295.075 49.308 295.075 49.728ZM294.445 54.066L293.473 53.04L294.049 52.518C295.681 51.018 297.079 49.944 298.243 49.296C299.419 48.636 300.499 48.306 301.483 48.306C302.971 48.306 304.135 48.81 304.975 49.818C305.815 50.814 306.313 52.14 306.469 53.796L307.351 62.598C307.387 63.03 307.429 63.342 307.477 63.534C307.525 63.714 307.639 63.846 307.819 63.93L308.251 64.11C308.503 64.206 308.683 64.338 308.791 64.506C308.899 64.662 308.953 64.842 308.953 65.046C308.953 65.346 308.857 65.58 308.665 65.748C308.473 65.916 308.167 66 307.747 66H299.557C298.753 66 298.351 65.664 298.351 64.992C298.351 64.608 298.531 64.314 298.891 64.11L299.287 63.93C299.467 63.834 299.605 63.696 299.701 63.516C299.797 63.336 299.821 63.03 299.773 62.598L299.053 54.822C298.981 54.078 298.801 53.526 298.513 53.166C298.237 52.794 297.811 52.608 297.235 52.608C296.863 52.608 296.491 52.686 296.119 52.842C295.747 52.998 295.399 53.22 295.075 53.508L294.445 54.066ZM328.031 55.344C328.031 56.076 327.827 56.646 327.419 57.054C327.023 57.462 326.447 57.666 325.691 57.666H314.927V56.01H319.751C320.351 56.01 320.651 55.722 320.651 55.146C320.651 53.502 320.471 52.332 320.111 51.636C319.751 50.928 319.289 50.574 318.725 50.574C318.317 50.574 317.951 50.736 317.627 51.06C317.303 51.372 317.039 51.864 316.835 52.536C316.643 53.196 316.547 54.054 316.547 55.11C316.547 57.342 317.039 58.974 318.023 60.006C319.019 61.038 320.363 61.554 322.055 61.554C322.931 61.554 323.705 61.428 324.377 61.176C325.049 60.924 325.655 60.48 326.195 59.844C326.483 59.568 326.705 59.382 326.861 59.286C327.029 59.19 327.185 59.142 327.329 59.142C327.545 59.142 327.701 59.25 327.797 59.466C327.905 59.67 327.959 59.928 327.959 60.24C327.959 61.356 327.599 62.388 326.879 63.336C326.159 64.284 325.157 65.046 323.873 65.622C322.601 66.198 321.125 66.486 319.445 66.486C317.633 66.486 316.007 66.126 314.567 65.406C313.139 64.686 312.005 63.678 311.165 62.382C310.337 61.086 309.923 59.58 309.923 57.864C309.923 55.932 310.307 54.252 311.075 52.824C311.843 51.384 312.959 50.274 314.423 49.494C315.899 48.702 317.669 48.306 319.733 48.306C321.545 48.306 323.069 48.612 324.305 49.224C325.541 49.836 326.471 50.67 327.095 51.726C327.719 52.782 328.031 53.988 328.031 55.344ZM339.941 66H337.205C336.737 66 336.335 65.898 335.999 65.694C335.675 65.478 335.417 65.106 335.225 64.578L330.635 51.978C330.491 51.57 330.359 51.3 330.239 51.168C330.131 51.036 330.011 50.94 329.879 50.88L329.465 50.7C329.237 50.592 329.075 50.472 328.979 50.34C328.883 50.196 328.835 50.004 328.835 49.764C328.835 49.476 328.937 49.248 329.141 49.08C329.357 48.912 329.639 48.828 329.987 48.828H339.167C339.515 48.828 339.791 48.912 339.995 49.08C340.211 49.248 340.319 49.476 340.319 49.764C340.319 50.004 340.253 50.196 340.121 50.34C340.001 50.472 339.803 50.58 339.527 50.664L338.987 50.826C338.723 50.898 338.561 51.066 338.501 51.33C338.453 51.594 338.555 52.092 338.807 52.824L341.885 61.878L340.085 63.642L344.225 52.266L346.151 53.472L341.903 64.722C341.711 65.238 341.435 65.58 341.075 65.748C340.715 65.916 340.337 66 339.941 66ZM352.019 66H349.373C348.917 66 348.515 65.892 348.167 65.676C347.831 65.46 347.573 65.094 347.393 64.578L343.019 51.978C342.875 51.558 342.743 51.282 342.623 51.15C342.515 51.018 342.401 50.922 342.281 50.862L341.903 50.7C341.675 50.592 341.513 50.472 341.417 50.34C341.321 50.196 341.273 50.004 341.273 49.764C341.273 49.14 341.657 48.828 342.425 48.828H351.425C352.181 48.828 352.559 49.14 352.559 49.764C352.559 50.004 352.499 50.202 352.379 50.358C352.271 50.502 352.109 50.598 351.893 50.646L351.083 50.79C350.795 50.85 350.627 51.024 350.579 51.312C350.543 51.6 350.639 52.098 350.867 52.806L353.783 61.896L352.145 63.642L355.331 53.364C355.619 52.476 355.739 51.852 355.691 51.492C355.643 51.132 355.457 50.91 355.133 50.826L354.629 50.664C354.353 50.58 354.149 50.472 354.017 50.34C353.897 50.196 353.837 50.004 353.837 49.764C353.837 49.476 353.939 49.248 354.143 49.08C354.347 48.912 354.623 48.828 354.971 48.828H359.111C359.471 48.828 359.753 48.912 359.957 49.08C360.161 49.248 360.263 49.476 360.263 49.764C360.263 49.968 360.215 50.148 360.119 50.304C360.023 50.448 359.837 50.568 359.561 50.664L359.201 50.808C358.973 50.892 358.757 51.114 358.553 51.474C358.361 51.834 358.133 52.404 357.869 53.184L353.981 64.722C353.813 65.226 353.543 65.568 353.171 65.748C352.799 65.916 352.415 66 352.019 66ZM381.141 62.778V62.202L380.907 62.184V53.526C380.907 53.178 380.859 52.932 380.763 52.788C380.679 52.644 380.541 52.548 380.349 52.5L379.899 52.392C379.671 52.32 379.503 52.218 379.395 52.086C379.299 51.942 379.251 51.762 379.251 51.546C379.251 51.294 379.317 51.096 379.449 50.952C379.593 50.796 379.857 50.646 380.241 50.502L384.633 48.9C385.173 48.696 385.611 48.546 385.947 48.45C386.283 48.354 386.613 48.306 386.937 48.306C387.405 48.306 387.759 48.444 387.999 48.72C388.251 48.984 388.377 49.32 388.377 49.728V62.598C388.377 63.03 388.413 63.342 388.485 63.534C388.557 63.714 388.683 63.846 388.863 63.93L389.295 64.11C389.547 64.206 389.727 64.338 389.835 64.506C389.943 64.662 389.997 64.842 389.997 65.046C389.997 65.346 389.901 65.58 389.709 65.748C389.517 65.916 389.211 66 388.791 66H383.985C383.229 66 382.563 65.682 381.987 65.046C381.423 64.41 381.141 63.654 381.141 62.778ZM369.459 60.942V53.526C369.459 53.178 369.411 52.932 369.315 52.788C369.231 52.644 369.093 52.548 368.901 52.5L368.451 52.392C368.223 52.32 368.055 52.218 367.947 52.086C367.851 51.942 367.803 51.762 367.803 51.546C367.803 51.294 367.869 51.096 368.001 50.952C368.145 50.796 368.409 50.646 368.793 50.502L373.185 48.9C373.761 48.684 374.211 48.534 374.535 48.45C374.871 48.354 375.165 48.306 375.417 48.306C375.921 48.306 376.299 48.444 376.551 48.72C376.815 48.984 376.947 49.32 376.947 49.728V59.916C376.947 60.672 377.115 61.242 377.451 61.626C377.799 61.998 378.285 62.184 378.909 62.184C379.305 62.184 379.713 62.112 380.133 61.968C380.553 61.812 380.931 61.584 381.267 61.284L381.897 60.726L382.851 61.752L382.293 62.274C380.649 63.822 379.209 64.914 377.973 65.55C376.749 66.174 375.627 66.486 374.607 66.486C373.071 66.486 371.829 65.982 370.881 64.974C369.933 63.954 369.459 62.61 369.459 60.942ZM400.335 64.452C401.019 64.452 401.529 64.302 401.865 64.002C402.201 63.702 402.369 63.33 402.369 62.886C402.369 62.622 402.309 62.37 402.189 62.13C402.081 61.89 401.847 61.674 401.487 61.482C401.127 61.278 400.563 61.104 399.795 60.96C397.647 60.564 396.009 60.054 394.881 59.43C393.753 58.806 392.979 58.08 392.559 57.252C392.151 56.412 391.947 55.47 391.947 54.426C391.947 52.506 392.613 51.006 393.945 49.926C395.277 48.846 397.221 48.306 399.777 48.306C400.677 48.306 401.391 48.378 401.919 48.522C402.459 48.666 402.885 48.81 403.197 48.954C403.521 49.098 403.803 49.17 404.043 49.17C404.319 49.17 404.553 49.098 404.745 48.954C404.949 48.81 405.153 48.666 405.357 48.522C405.573 48.378 405.825 48.306 406.113 48.306C406.341 48.306 406.545 48.384 406.725 48.54C406.917 48.684 407.067 48.96 407.175 49.368L408.093 52.914C408.261 53.466 408.309 53.91 408.237 54.246C408.165 54.57 407.961 54.792 407.625 54.912C407.301 55.044 407.013 55.05 406.761 54.93C406.509 54.81 406.263 54.576 406.023 54.228C405.435 53.328 404.829 52.59 404.205 52.014C403.593 51.438 402.957 51.012 402.297 50.736C401.649 50.46 400.965 50.322 400.245 50.322C399.453 50.322 398.859 50.478 398.463 50.79C398.079 51.102 397.887 51.51 397.887 52.014C397.887 52.35 397.971 52.644 398.139 52.896C398.307 53.136 398.643 53.358 399.147 53.562C399.663 53.766 400.425 53.97 401.433 54.174C403.125 54.498 404.463 54.954 405.447 55.542C406.443 56.118 407.157 56.826 407.589 57.666C408.021 58.494 408.237 59.466 408.237 60.582C408.237 61.77 407.919 62.808 407.283 63.696C406.647 64.584 405.783 65.274 404.691 65.766C403.599 66.246 402.357 66.486 400.965 66.486C400.101 66.486 399.417 66.408 398.913 66.252C398.409 66.096 397.995 65.946 397.671 65.802C397.347 65.646 397.047 65.568 396.771 65.568C396.495 65.568 396.231 65.646 395.979 65.802C395.727 65.946 395.481 66.09 395.241 66.234C395.001 66.39 394.749 66.468 394.485 66.468C394.245 66.468 394.041 66.378 393.873 66.198C393.717 66.03 393.597 65.73 393.513 65.298L392.955 61.986C392.859 61.434 392.853 61.026 392.937 60.762C393.021 60.486 393.213 60.282 393.513 60.15C393.837 60.018 394.125 60.024 394.377 60.168C394.629 60.312 394.887 60.57 395.151 60.942C396.027 62.214 396.897 63.12 397.761 63.66C398.637 64.188 399.495 64.452 400.335 64.452ZM428.543 55.344C428.543 56.076 428.339 56.646 427.931 57.054C427.535 57.462 426.959 57.666 426.203 57.666H415.439V56.01H420.263C420.863 56.01 421.163 55.722 421.163 55.146C421.163 53.502 420.983 52.332 420.623 51.636C420.263 50.928 419.801 50.574 419.237 50.574C418.829 50.574 418.463 50.736 418.139 51.06C417.815 51.372 417.551 51.864 417.347 52.536C417.155 53.196 417.059 54.054 417.059 55.11C417.059 57.342 417.551 58.974 418.535 60.006C419.531 61.038 420.875 61.554 422.567 61.554C423.443 61.554 424.217 61.428 424.889 61.176C425.561 60.924 426.167 60.48 426.707 59.844C426.995 59.568 427.217 59.382 427.373 59.286C427.541 59.19 427.697 59.142 427.841 59.142C428.057 59.142 428.213 59.25 428.309 59.466C428.417 59.67 428.471 59.928 428.471 60.24C428.471 61.356 428.111 62.388 427.391 63.336C426.671 64.284 425.669 65.046 424.385 65.622C423.113 66.198 421.637 66.486 419.957 66.486C418.145 66.486 416.519 66.126 415.079 65.406C413.651 64.686 412.517 63.678 411.677 62.382C410.849 61.086 410.435 59.58 410.435 57.864C410.435 55.932 410.819 54.252 411.587 52.824C412.355 51.384 413.471 50.274 414.935 49.494C416.411 48.702 418.181 48.306 420.245 48.306C422.057 48.306 423.581 48.612 424.817 49.224C426.053 49.836 426.983 50.67 427.607 51.726C428.231 52.782 428.543 53.988 428.543 55.344ZM438.797 56.19C438.797 54.402 439.031 52.926 439.499 51.762C439.979 50.598 440.615 49.734 441.407 49.17C442.199 48.594 443.063 48.306 443.999 48.306C445.223 48.306 446.159 48.678 446.807 49.422C447.467 50.166 447.797 51.294 447.797 52.806C447.797 54.342 447.485 55.476 446.861 56.208C446.237 56.928 445.427 57.288 444.431 57.288C443.435 57.288 442.691 57.03 442.199 56.514C441.707 55.998 441.455 55.284 441.443 54.372V53.616C441.431 53.316 441.365 53.088 441.245 52.932C441.125 52.764 440.933 52.68 440.669 52.68C440.429 52.68 440.213 52.788 440.021 53.004C439.841 53.208 439.697 53.55 439.589 54.03C439.481 54.51 439.427 55.158 439.427 55.974L438.797 56.19ZM438.995 49.746L439.427 53.76V62.562C439.427 62.946 439.487 63.222 439.607 63.39C439.727 63.558 439.979 63.684 440.363 63.768L441.785 64.038C442.109 64.11 442.343 64.224 442.487 64.38C442.631 64.536 442.703 64.758 442.703 65.046C442.703 65.346 442.601 65.58 442.397 65.748C442.193 65.916 441.893 66 441.497 66H431.561C431.129 66 430.817 65.916 430.625 65.748C430.445 65.58 430.355 65.346 430.355 65.046C430.355 64.842 430.409 64.662 430.517 64.506C430.625 64.338 430.805 64.2 431.057 64.092L431.489 63.93C431.657 63.846 431.777 63.714 431.849 63.534C431.921 63.354 431.957 63.048 431.957 62.616V53.562C431.957 53.214 431.909 52.968 431.813 52.824C431.729 52.668 431.591 52.566 431.399 52.518L430.949 52.41C430.721 52.338 430.553 52.236 430.445 52.104C430.349 51.96 430.301 51.786 430.301 51.582C430.301 51.33 430.373 51.126 430.517 50.97C430.661 50.814 430.919 50.67 431.291 50.538L435.575 49.008C436.319 48.72 436.853 48.534 437.177 48.45C437.513 48.366 437.777 48.324 437.969 48.324C438.269 48.324 438.497 48.438 438.653 48.666C438.809 48.882 438.923 49.242 438.995 49.746ZM457.569 64.452C458.253 64.452 458.763 64.302 459.099 64.002C459.435 63.702 459.603 63.33 459.603 62.886C459.603 62.622 459.543 62.37 459.423 62.13C459.315 61.89 459.081 61.674 458.721 61.482C458.361 61.278 457.797 61.104 457.029 60.96C454.881 60.564 453.243 60.054 452.115 59.43C450.987 58.806 450.213 58.08 449.793 57.252C449.385 56.412 449.181 55.47 449.181 54.426C449.181 52.506 449.847 51.006 451.179 49.926C452.511 48.846 454.455 48.306 457.011 48.306C457.911 48.306 458.625 48.378 459.153 48.522C459.693 48.666 460.119 48.81 460.431 48.954C460.755 49.098 461.037 49.17 461.277 49.17C461.553 49.17 461.787 49.098 461.979 48.954C462.183 48.81 462.387 48.666 462.591 48.522C462.807 48.378 463.059 48.306 463.347 48.306C463.575 48.306 463.779 48.384 463.959 48.54C464.151 48.684 464.301 48.96 464.409 49.368L465.327 52.914C465.495 53.466 465.543 53.91 465.471 54.246C465.399 54.57 465.195 54.792 464.859 54.912C464.535 55.044 464.247 55.05 463.995 54.93C463.743 54.81 463.497 54.576 463.257 54.228C462.669 53.328 462.063 52.59 461.439 52.014C460.827 51.438 460.191 51.012 459.531 50.736C458.883 50.46 458.199 50.322 457.479 50.322C456.687 50.322 456.093 50.478 455.697 50.79C455.313 51.102 455.121 51.51 455.121 52.014C455.121 52.35 455.205 52.644 455.373 52.896C455.541 53.136 455.877 53.358 456.381 53.562C456.897 53.766 457.659 53.97 458.667 54.174C460.359 54.498 461.697 54.954 462.681 55.542C463.677 56.118 464.391 56.826 464.823 57.666C465.255 58.494 465.471 59.466 465.471 60.582C465.471 61.77 465.153 62.808 464.517 63.696C463.881 64.584 463.017 65.274 461.925 65.766C460.833 66.246 459.591 66.486 458.199 66.486C457.335 66.486 456.651 66.408 456.147 66.252C455.643 66.096 455.229 65.946 454.905 65.802C454.581 65.646 454.281 65.568 454.005 65.568C453.729 65.568 453.465 65.646 453.213 65.802C452.961 65.946 452.715 66.09 452.475 66.234C452.235 66.39 451.983 66.468 451.719 66.468C451.479 66.468 451.275 66.378 451.107 66.198C450.951 66.03 450.831 65.73 450.747 65.298L450.189 61.986C450.093 61.434 450.087 61.026 450.171 60.762C450.255 60.486 450.447 60.282 450.747 60.15C451.071 60.018 451.359 60.024 451.611 60.168C451.863 60.312 452.121 60.57 452.385 60.942C453.261 62.214 454.131 63.12 454.995 63.66C455.871 64.188 456.729 64.452 457.569 64.452Z" fill="#0B2818"/>
<path d="M222.98 99.18C222.007 99.18 221.1 99 220.26 98.64C219.42 98.28 218.687 97.78 218.06 97.14C217.433 96.5 216.947 95.7533 216.6 94.9C216.253 94.0333 216.08 93.1 216.08 92.1C216.08 91.1 216.253 90.1733 216.6 89.32C216.96 88.4667 217.453 87.72 218.08 87.08C218.707 86.4267 219.447 85.92 220.3 85.56C221.153 85.2 222.08 85.02 223.08 85.02C224.187 85.02 225.2 85.24 226.12 85.68C227.053 86.12 227.82 86.74 228.42 87.54L227.4 88.56C226.92 87.88 226.307 87.36 225.56 87C224.813 86.6267 223.987 86.44 223.08 86.44C222 86.44 221.047 86.6867 220.22 87.18C219.393 87.66 218.747 88.3267 218.28 89.18C217.827 90.0333 217.6 91.0133 217.6 92.12C217.6 93.2133 217.827 94.1867 218.28 95.04C218.747 95.8933 219.38 96.5667 220.18 97.06C220.993 97.54 221.913 97.78 222.94 97.78C223.967 97.78 224.853 97.5733 225.6 97.16C226.36 96.7467 226.94 96.1467 227.34 95.36C227.753 94.5733 227.967 93.6267 227.98 92.52L228.82 93.14H222.8V91.8H229.5V92.02C229.5 93.5667 229.22 94.8733 228.66 95.94C228.113 97.0067 227.353 97.8133 226.38 98.36C225.407 98.9067 224.273 99.18 222.98 99.18ZM236.229 99.2C235.282 99.2 234.435 98.9867 233.689 98.56C232.942 98.1333 232.349 97.5467 231.909 96.8C231.482 96.0533 231.269 95.2133 231.269 94.28C231.269 93.36 231.482 92.5333 231.909 91.8C232.335 91.0533 232.915 90.4667 233.649 90.04C234.382 89.6133 235.202 89.4 236.109 89.4C236.962 89.4 237.715 89.5933 238.369 89.98C239.035 90.3667 239.555 90.9067 239.929 91.6C240.315 92.28 240.509 93.0667 240.509 93.96C240.509 94.0667 240.502 94.1933 240.489 94.34C240.475 94.4733 240.449 94.6333 240.409 94.82H232.269V93.62H239.649L239.149 94.06C239.162 93.3667 239.042 92.7733 238.789 92.28C238.549 91.7733 238.195 91.3867 237.729 91.12C237.275 90.84 236.722 90.7 236.069 90.7C235.389 90.7 234.795 90.8467 234.289 91.14C233.782 91.4333 233.382 91.8467 233.089 92.38C232.809 92.9 232.669 93.52 232.669 94.24C232.669 94.96 232.815 95.5933 233.109 96.14C233.415 96.6867 233.835 97.1133 234.369 97.42C234.915 97.7267 235.542 97.88 236.249 97.88C236.822 97.88 237.349 97.78 237.829 97.58C238.309 97.3667 238.715 97.0533 239.049 96.64L239.949 97.56C239.509 98.08 238.962 98.4867 238.309 98.78C237.669 99.06 236.975 99.2 236.229 99.2ZM243.759 99V85.64H245.159V99H243.759ZM241.379 90.86V89.6H247.519V90.86H241.379ZM258.604 99.2C257.884 99.2 257.238 99.0533 256.664 98.76C256.091 98.4667 255.618 98.0667 255.244 97.56C254.884 97.04 254.664 96.44 254.584 95.76V92.82C254.664 92.1267 254.891 91.5267 255.264 91.02C255.638 90.5 256.111 90.1 256.684 89.82C257.271 89.54 257.911 89.4 258.604 89.4C259.471 89.4 260.251 89.62 260.944 90.06C261.638 90.4867 262.184 91.0733 262.584 91.82C262.998 92.5533 263.204 93.3867 263.204 94.32C263.204 95.24 263.004 96.0667 262.604 96.8C262.204 97.5333 261.651 98.12 260.944 98.56C260.251 98.9867 259.471 99.2 258.604 99.2ZM253.744 102.96V89.6H255.144V92L254.864 94.28L255.144 96.58V102.96H253.744ZM258.364 97.86C259.031 97.86 259.618 97.7133 260.124 97.42C260.631 97.1133 261.024 96.6933 261.304 96.16C261.598 95.6133 261.744 94.9933 261.744 94.3C261.744 93.5933 261.598 92.9733 261.304 92.44C261.024 91.9067 260.631 91.4867 260.124 91.18C259.618 90.8733 259.038 90.72 258.384 90.72C257.731 90.72 257.151 90.8733 256.644 91.18C256.151 91.4867 255.764 91.9067 255.484 92.44C255.204 92.9733 255.064 93.5933 255.064 94.3C255.064 94.9933 255.204 95.6133 255.484 96.16C255.764 96.6933 256.151 97.1133 256.644 97.42C257.138 97.7133 257.711 97.86 258.364 97.86ZM269.523 99.2C268.63 99.2 267.83 98.9867 267.123 98.56C266.417 98.12 265.857 97.5333 265.443 96.8C265.043 96.0667 264.843 95.24 264.843 94.32C264.843 93.3867 265.043 92.5533 265.443 91.82C265.857 91.0733 266.417 90.4867 267.123 90.06C267.83 89.62 268.623 89.4 269.503 89.4C270.223 89.4 270.863 89.5467 271.423 89.84C271.997 90.12 272.457 90.52 272.803 91.04C273.163 91.5467 273.383 92.14 273.463 92.82V95.76C273.383 96.44 273.163 97.04 272.803 97.56C272.457 98.08 271.997 98.4867 271.423 98.78C270.863 99.06 270.23 99.2 269.523 99.2ZM269.743 97.86C270.717 97.86 271.497 97.5333 272.083 96.88C272.683 96.2267 272.983 95.3667 272.983 94.3C272.983 93.5933 272.843 92.9733 272.563 92.44C272.297 91.8933 271.917 91.4733 271.423 91.18C270.943 90.8733 270.377 90.72 269.723 90.72C269.057 90.72 268.463 90.8733 267.943 91.18C267.437 91.4867 267.03 91.9133 266.723 92.46C266.43 92.9933 266.283 93.6067 266.283 94.3C266.283 94.9933 266.43 95.6067 266.723 96.14C267.03 96.6733 267.443 97.0933 267.963 97.4C268.483 97.7067 269.077 97.86 269.743 97.86ZM272.903 99V96.48L273.183 94.16L272.903 91.9V89.6H274.303V99H272.903ZM277.143 99V89.6H278.563V99H277.143ZM277.843 87.56C277.576 87.56 277.349 87.4667 277.163 87.28C276.976 87.08 276.883 86.8467 276.883 86.58C276.883 86.3 276.976 86.0667 277.163 85.88C277.349 85.6933 277.576 85.6 277.843 85.6C278.136 85.6 278.369 85.6933 278.543 85.88C278.729 86.0667 278.823 86.3 278.823 86.58C278.823 86.8467 278.729 87.08 278.543 87.28C278.369 87.4667 278.136 87.56 277.843 87.56ZM285.4 99.2C284.534 99.2 283.754 98.9867 283.06 98.56C282.367 98.1333 281.814 97.5533 281.4 96.82C281 96.0733 280.8 95.24 280.8 94.32C280.8 93.3867 281 92.5533 281.4 91.82C281.814 91.0733 282.367 90.4867 283.06 90.06C283.754 89.62 284.534 89.4 285.4 89.4C286.107 89.4 286.747 89.54 287.32 89.82C287.894 90.1 288.367 90.5 288.74 91.02C289.127 91.5267 289.354 92.1267 289.42 92.82V95.76C289.34 96.44 289.114 97.04 288.74 97.56C288.38 98.0667 287.914 98.4667 287.34 98.76C286.767 99.0533 286.12 99.2 285.4 99.2ZM285.64 97.86C286.294 97.86 286.867 97.7133 287.36 97.42C287.854 97.1133 288.24 96.6933 288.52 96.16C288.8 95.6133 288.94 94.9933 288.94 94.3C288.94 93.5933 288.794 92.9733 288.5 92.44C288.22 91.9067 287.834 91.4867 287.34 91.18C286.847 90.8733 286.274 90.72 285.62 90.72C284.967 90.72 284.387 90.8733 283.88 91.18C283.374 91.4867 282.974 91.9133 282.68 92.46C282.4 92.9933 282.26 93.6067 282.26 94.3C282.26 94.9933 282.4 95.6133 282.68 96.16C282.974 96.6933 283.374 97.1133 283.88 97.42C284.4 97.7133 284.987 97.86 285.64 97.86ZM290.26 99H288.86V96.48L289.14 94.16L288.86 91.9V84.84H290.26V99ZM300.017 99L296.397 89.6H297.857L300.717 97.4L300.197 97.42L303.037 89.6H303.857L306.697 97.42L306.177 97.4L309.017 89.6H310.497L306.857 99H306.037L303.137 91.3H303.737L300.857 99H300.017ZM312.162 99V89.6H313.582V99H312.162ZM312.862 87.56C312.596 87.56 312.369 87.4667 312.182 87.28C311.996 87.08 311.902 86.8467 311.902 86.58C311.902 86.3 311.996 86.0667 312.182 85.88C312.369 85.6933 312.596 85.6 312.862 85.6C313.156 85.6 313.389 85.6933 313.562 85.88C313.749 86.0667 313.842 86.3 313.842 86.58C313.842 86.8467 313.749 87.08 313.562 87.28C313.389 87.4667 313.156 87.56 312.862 87.56ZM317.88 99V85.64H319.28V99H317.88ZM315.5 90.86V89.6H321.64V90.86H315.5ZM330.408 99V93.48C330.408 92.6533 330.162 91.9867 329.668 91.48C329.188 90.96 328.548 90.7 327.748 90.7C327.202 90.7 326.722 90.82 326.308 91.06C325.895 91.3 325.568 91.6267 325.328 92.04C325.088 92.4533 324.968 92.9267 324.968 93.46L324.328 93.1C324.328 92.3933 324.495 91.76 324.828 91.2C325.162 90.64 325.608 90.2 326.168 89.88C326.742 89.56 327.395 89.4 328.128 89.4C328.848 89.4 329.488 89.5667 330.048 89.9C330.608 90.22 331.042 90.6667 331.348 91.24C331.668 91.8133 331.828 92.48 331.828 93.24V99H330.408ZM323.568 99V84.84H324.968V99H323.568ZM338.707 99.2C337.801 99.2 336.974 98.98 336.227 98.54C335.494 98.1 334.907 97.5067 334.467 96.76C334.041 96.0133 333.827 95.18 333.827 94.26C333.827 93.3533 334.041 92.5333 334.467 91.8C334.907 91.0667 335.494 90.4867 336.227 90.06C336.974 89.62 337.801 89.4 338.707 89.4C339.627 89.4 340.454 89.6133 341.187 90.04C341.921 90.4667 342.501 91.0533 342.927 91.8C343.367 92.5333 343.587 93.3533 343.587 94.26C343.587 95.1933 343.367 96.0333 342.927 96.78C342.501 97.5133 341.921 98.1 341.187 98.54C340.454 98.98 339.627 99.2 338.707 99.2ZM338.707 97.84C339.374 97.84 339.961 97.6867 340.467 97.38C340.987 97.0733 341.394 96.6467 341.687 96.1C341.994 95.5533 342.147 94.94 342.147 94.26C342.147 93.58 341.994 92.98 341.687 92.46C341.394 91.9267 340.987 91.5067 340.467 91.2C339.961 90.8933 339.374 90.74 338.707 90.74C338.054 90.74 337.467 90.8933 336.947 91.2C336.427 91.5067 336.021 91.9267 335.727 92.46C335.434 92.98 335.287 93.58 335.287 94.26C335.287 94.9533 335.434 95.5733 335.727 96.12C336.021 96.6533 336.427 97.0733 336.947 97.38C337.467 97.6867 338.054 97.84 338.707 97.84ZM349.535 99.2C348.775 99.2 348.095 99.0267 347.495 98.68C346.895 98.32 346.421 97.8333 346.075 97.22C345.741 96.6067 345.575 95.8867 345.575 95.06V89.6H346.995V95C346.995 95.5733 347.095 96.0733 347.295 96.5C347.508 96.9267 347.808 97.26 348.195 97.5C348.581 97.74 349.028 97.86 349.535 97.86C350.321 97.86 350.941 97.6 351.395 97.08C351.861 96.56 352.095 95.8667 352.095 95V89.6H353.495V95.06C353.495 95.8733 353.328 96.5933 352.995 97.22C352.661 97.8467 352.195 98.3333 351.595 98.68C350.995 99.0267 350.308 99.2 349.535 99.2ZM357.568 99V85.64H358.968V99H357.568ZM355.188 90.86V89.6H361.328V90.86H355.188ZM371.273 99.2C370.513 99.2 369.833 99.0267 369.233 98.68C368.633 98.32 368.159 97.8333 367.813 97.22C367.479 96.6067 367.313 95.8867 367.313 95.06V89.6H368.733V95C368.733 95.5733 368.833 96.0733 369.033 96.5C369.246 96.9267 369.546 97.26 369.933 97.5C370.319 97.74 370.766 97.86 371.273 97.86C372.059 97.86 372.679 97.6 373.133 97.08C373.599 96.56 373.833 95.8667 373.833 95V89.6H375.233V95.06C375.233 95.8733 375.066 96.5933 374.733 97.22C374.399 97.8467 373.933 98.3333 373.333 98.68C372.733 99.0267 372.046 99.2 371.273 99.2ZM384.686 99V93.48C384.686 92.6533 384.439 91.9867 383.946 91.48C383.466 90.96 382.826 90.7 382.026 90.7C381.479 90.7 380.999 90.82 380.586 91.06C380.172 91.3 379.846 91.6267 379.606 92.04C379.366 92.4533 379.246 92.9267 379.246 93.46L378.606 93.1C378.606 92.3933 378.772 91.76 379.106 91.2C379.439 90.64 379.886 90.2 380.446 89.88C381.019 89.56 381.672 89.4 382.406 89.4C383.126 89.4 383.766 89.5733 384.326 89.92C384.886 90.2667 385.319 90.7333 385.626 91.32C385.946 91.9067 386.106 92.5467 386.106 93.24V99H384.686ZM377.846 99V89.6H379.246V99H377.846ZM392.725 99.2C391.858 99.2 391.078 98.9867 390.385 98.56C389.691 98.1333 389.138 97.5533 388.725 96.82C388.325 96.0733 388.125 95.24 388.125 94.32C388.125 93.3867 388.325 92.5533 388.725 91.82C389.138 91.0733 389.691 90.4867 390.385 90.06C391.078 89.62 391.858 89.4 392.725 89.4C393.431 89.4 394.071 89.54 394.645 89.82C395.218 90.1 395.691 90.5 396.065 91.02C396.451 91.5267 396.678 92.1267 396.745 92.82V95.76C396.665 96.44 396.438 97.04 396.065 97.56C395.705 98.0667 395.238 98.4667 394.665 98.76C394.091 99.0533 393.445 99.2 392.725 99.2ZM392.965 97.86C393.618 97.86 394.191 97.7133 394.685 97.42C395.178 97.1133 395.565 96.6933 395.845 96.16C396.125 95.6133 396.265 94.9933 396.265 94.3C396.265 93.5933 396.118 92.9733 395.825 92.44C395.545 91.9067 395.158 91.4867 394.665 91.18C394.171 90.8733 393.598 90.72 392.945 90.72C392.291 90.72 391.711 90.8733 391.205 91.18C390.698 91.4867 390.298 91.9133 390.005 92.46C389.725 92.9933 389.585 93.6067 389.585 94.3C389.585 94.9933 389.725 95.6133 390.005 96.16C390.298 96.6933 390.698 97.1133 391.205 97.42C391.725 97.7133 392.311 97.86 392.965 97.86ZM397.585 99H396.185V96.48L396.465 94.16L396.185 91.9V84.84H397.585V99ZM404.764 99.2C403.817 99.2 402.971 98.9867 402.224 98.56C401.477 98.1333 400.884 97.5467 400.444 96.8C400.017 96.0533 399.804 95.2133 399.804 94.28C399.804 93.36 400.017 92.5333 400.444 91.8C400.871 91.0533 401.451 90.4667 402.184 90.04C402.917 89.6133 403.737 89.4 404.644 89.4C405.497 89.4 406.251 89.5933 406.904 89.98C407.571 90.3667 408.091 90.9067 408.464 91.6C408.851 92.28 409.044 93.0667 409.044 93.96C409.044 94.0667 409.037 94.1933 409.024 94.34C409.011 94.4733 408.984 94.6333 408.944 94.82H400.804V93.62H408.184L407.684 94.06C407.697 93.3667 407.577 92.7733 407.324 92.28C407.084 91.7733 406.731 91.3867 406.264 91.12C405.811 90.84 405.257 90.7 404.604 90.7C403.924 90.7 403.331 90.8467 402.824 91.14C402.317 91.4333 401.917 91.8467 401.624 92.38C401.344 92.9 401.204 93.52 401.204 94.24C401.204 94.96 401.351 95.5933 401.644 96.14C401.951 96.6867 402.371 97.1133 402.904 97.42C403.451 97.7267 404.077 97.88 404.784 97.88C405.357 97.88 405.884 97.78 406.364 97.58C406.844 97.3667 407.251 97.0533 407.584 96.64L408.484 97.56C408.044 98.08 407.497 98.4867 406.844 98.78C406.204 99.06 405.511 99.2 404.764 99.2ZM411.186 99V89.6H412.586V99H411.186ZM412.586 93.52L412.006 93.26C412.006 92.0733 412.292 91.1333 412.866 90.44C413.452 89.7467 414.252 89.4 415.266 89.4C415.732 89.4 416.159 89.4867 416.546 89.66C416.932 89.82 417.292 90.08 417.626 90.44L416.706 91.42C416.479 91.1667 416.226 90.9867 415.946 90.88C415.679 90.7733 415.372 90.72 415.026 90.72C414.306 90.72 413.719 90.96 413.266 91.44C412.812 91.9067 412.586 92.6 412.586 93.52ZM421.78 99.2C421.274 99.2 420.787 99.1333 420.32 99C419.854 98.8533 419.427 98.6533 419.04 98.4C418.667 98.1467 418.34 97.8467 418.06 97.5L418.96 96.58C419.334 97.0333 419.754 97.3733 420.22 97.6C420.7 97.8133 421.234 97.92 421.82 97.92C422.447 97.92 422.934 97.8 423.28 97.56C423.64 97.32 423.82 96.9867 423.82 96.56C423.82 96.16 423.694 95.8467 423.44 95.62C423.187 95.3933 422.86 95.2133 422.46 95.08C422.074 94.9467 421.66 94.82 421.22 94.7C420.78 94.5667 420.36 94.4067 419.96 94.22C419.56 94.02 419.234 93.7467 418.98 93.4C418.74 93.0533 418.62 92.6 418.62 92.04C418.62 91.5067 418.747 91.0467 419 90.66C419.267 90.26 419.64 89.9533 420.12 89.74C420.614 89.5133 421.194 89.4 421.86 89.4C422.567 89.4 423.207 89.5267 423.78 89.78C424.354 90.0333 424.814 90.4067 425.16 90.9L424.26 91.8C423.98 91.44 423.627 91.1667 423.2 90.98C422.787 90.78 422.32 90.68 421.8 90.68C421.2 90.68 420.74 90.8 420.42 91.04C420.114 91.2667 419.96 91.5667 419.96 91.94C419.96 92.3 420.087 92.5867 420.34 92.8C420.594 93 420.914 93.1667 421.3 93.3C421.7 93.42 422.12 93.5467 422.56 93.68C423 93.8 423.42 93.9667 423.82 94.18C424.22 94.38 424.54 94.66 424.78 95.02C425.034 95.3667 425.16 95.84 425.16 96.44C425.16 97.28 424.854 97.9533 424.24 98.46C423.64 98.9533 422.82 99.2 421.78 99.2ZM428.837 99V85.64H430.237V99H428.837ZM426.457 90.86V89.6H432.597V90.86H426.457ZM438.273 99.2C437.38 99.2 436.58 98.9867 435.873 98.56C435.167 98.12 434.607 97.5333 434.193 96.8C433.793 96.0667 433.593 95.24 433.593 94.32C433.593 93.3867 433.793 92.5533 434.193 91.82C434.607 91.0733 435.167 90.4867 435.873 90.06C436.58 89.62 437.373 89.4 438.253 89.4C438.973 89.4 439.613 89.5467 440.173 89.84C440.747 90.12 441.207 90.52 441.553 91.04C441.913 91.5467 442.133 92.14 442.213 92.82V95.76C442.133 96.44 441.913 97.04 441.553 97.56C441.207 98.08 440.747 98.4867 440.173 98.78C439.613 99.06 438.98 99.2 438.273 99.2ZM438.493 97.86C439.467 97.86 440.247 97.5333 440.833 96.88C441.433 96.2267 441.733 95.3667 441.733 94.3C441.733 93.5933 441.593 92.9733 441.313 92.44C441.047 91.8933 440.667 91.4733 440.173 91.18C439.693 90.8733 439.127 90.72 438.473 90.72C437.807 90.72 437.213 90.8733 436.693 91.18C436.187 91.4867 435.78 91.9133 435.473 92.46C435.18 92.9933 435.033 93.6067 435.033 94.3C435.033 94.9933 435.18 95.6067 435.473 96.14C435.78 96.6733 436.193 97.0933 436.713 97.4C437.233 97.7067 437.827 97.86 438.493 97.86ZM441.653 99V96.48L441.933 94.16L441.653 91.9V89.6H443.053V99H441.653ZM452.733 99V93.48C452.733 92.6533 452.486 91.9867 451.993 91.48C451.513 90.96 450.873 90.7 450.073 90.7C449.526 90.7 449.046 90.82 448.633 91.06C448.219 91.3 447.893 91.6267 447.653 92.04C447.413 92.4533 447.293 92.9267 447.293 93.46L446.653 93.1C446.653 92.3933 446.819 91.76 447.153 91.2C447.486 90.64 447.933 90.2 448.493 89.88C449.066 89.56 449.719 89.4 450.453 89.4C451.173 89.4 451.813 89.5733 452.373 89.92C452.933 90.2667 453.366 90.7333 453.673 91.32C453.993 91.9067 454.153 92.5467 454.153 93.24V99H452.733ZM445.893 99V89.6H447.293V99H445.893ZM460.772 99.2C459.905 99.2 459.125 98.9867 458.432 98.56C457.738 98.1333 457.185 97.5533 456.772 96.82C456.372 96.0733 456.172 95.24 456.172 94.32C456.172 93.3867 456.372 92.5533 456.772 91.82C457.185 91.0733 457.738 90.4867 458.432 90.06C459.125 89.62 459.905 89.4 460.772 89.4C461.478 89.4 462.118 89.54 462.692 89.82C463.265 90.1 463.738 90.5 464.112 91.02C464.498 91.5267 464.725 92.1267 464.792 92.82V95.76C464.712 96.44 464.485 97.04 464.112 97.56C463.752 98.0667 463.285 98.4667 462.712 98.76C462.138 99.0533 461.492 99.2 460.772 99.2ZM461.012 97.86C461.665 97.86 462.238 97.7133 462.732 97.42C463.225 97.1133 463.612 96.6933 463.892 96.16C464.172 95.6133 464.312 94.9933 464.312 94.3C464.312 93.5933 464.165 92.9733 463.872 92.44C463.592 91.9067 463.205 91.4867 462.712 91.18C462.218 90.8733 461.645 90.72 460.992 90.72C460.338 90.72 459.758 90.8733 459.252 91.18C458.745 91.4867 458.345 91.9133 458.052 92.46C457.772 92.9933 457.632 93.6067 457.632 94.3C457.632 94.9933 457.772 95.6133 458.052 96.16C458.345 96.6933 458.745 97.1133 459.252 97.42C459.772 97.7133 460.358 97.86 461.012 97.86ZM465.632 99H464.232V96.48L464.512 94.16L464.232 91.9V84.84H465.632V99ZM468.471 99V89.6H469.891V99H468.471ZM469.171 87.56C468.904 87.56 468.677 87.4667 468.491 87.28C468.304 87.08 468.211 86.8467 468.211 86.58C468.211 86.3 468.304 86.0667 468.491 85.88C468.677 85.6933 468.904 85.6 469.171 85.6C469.464 85.6 469.697 85.6933 469.871 85.88C470.057 86.0667 470.151 86.3 470.151 86.58C470.151 86.8467 470.057 87.08 469.871 87.28C469.697 87.4667 469.464 87.56 469.171 87.56ZM479.569 99V93.48C479.569 92.6533 479.322 91.9867 478.829 91.48C478.349 90.96 477.709 90.7 476.909 90.7C476.362 90.7 475.882 90.82 475.469 91.06C475.055 91.3 474.729 91.6267 474.489 92.04C474.249 92.4533 474.129 92.9267 474.129 93.46L473.489 93.1C473.489 92.3933 473.655 91.76 473.989 91.2C474.322 90.64 474.769 90.2 475.329 89.88C475.902 89.56 476.555 89.4 477.289 89.4C478.009 89.4 478.649 89.5733 479.209 89.92C479.769 90.2667 480.202 90.7333 480.509 91.32C480.829 91.9067 480.989 92.5467 480.989 93.24V99H479.569ZM472.729 99V89.6H474.129V99H472.729ZM487.488 103.16C486.541 103.16 485.694 102.98 484.948 102.62C484.214 102.273 483.621 101.78 483.168 101.14L484.088 100.22C484.461 100.727 484.934 101.12 485.508 101.4C486.081 101.68 486.754 101.82 487.528 101.82C488.594 101.82 489.441 101.533 490.068 100.96C490.708 100.387 491.028 99.6067 491.028 98.62V96.28L491.308 94.14L491.028 92.02V89.6H492.428V98.62C492.428 99.5267 492.221 100.32 491.808 101C491.394 101.68 490.814 102.207 490.068 102.58C489.334 102.967 488.474 103.16 487.488 103.16ZM487.588 98.9C486.721 98.9 485.941 98.6933 485.248 98.28C484.554 97.8667 484.008 97.3 483.608 96.58C483.208 95.86 483.008 95.0467 483.008 94.14C483.008 93.2333 483.201 92.4267 483.588 91.72C483.988 91 484.534 90.4333 485.228 90.02C485.921 89.6067 486.701 89.4 487.568 89.4C488.301 89.4 488.954 89.54 489.528 89.82C490.114 90.1 490.581 90.5 490.928 91.02C491.288 91.5267 491.508 92.1267 491.588 92.82V95.48C491.508 96.16 491.288 96.76 490.928 97.28C490.568 97.7867 490.101 98.1867 489.528 98.48C488.954 98.76 488.308 98.9 487.588 98.9ZM487.848 97.56C488.501 97.56 489.068 97.42 489.548 97.14C490.041 96.86 490.421 96.4667 490.688 95.96C490.968 95.44 491.108 94.8333 491.108 94.14C491.108 93.46 490.968 92.8667 490.688 92.36C490.421 91.8533 490.041 91.4533 489.548 91.16C489.054 90.8667 488.481 90.72 487.828 90.72C487.174 90.72 486.588 90.8667 486.068 91.16C485.561 91.4533 485.161 91.8533 484.868 92.36C484.588 92.8667 484.448 93.46 484.448 94.14C484.448 94.8067 484.594 95.4 484.888 95.92C485.181 96.44 485.581 96.8467 486.088 97.14C486.594 97.42 487.181 97.56 487.848 97.56ZM220.7 123.2C219.78 123.2 218.947 122.987 218.2 122.56C217.467 122.12 216.88 121.527 216.44 120.78C216.013 120.033 215.8 119.2 215.8 118.28C215.8 117.36 216.013 116.533 216.44 115.8C216.88 115.053 217.467 114.467 218.2 114.04C218.947 113.613 219.78 113.4 220.7 113.4C221.407 113.4 222.067 113.533 222.68 113.8C223.293 114.067 223.813 114.44 224.24 114.92L223.32 115.86C223 115.5 222.613 115.227 222.16 115.04C221.707 114.84 221.22 114.74 220.7 114.74C220.033 114.74 219.44 114.893 218.92 115.2C218.4 115.507 217.993 115.927 217.7 116.46C217.407 116.98 217.26 117.587 217.26 118.28C217.26 118.96 217.407 119.573 217.7 120.12C217.993 120.653 218.4 121.073 218.92 121.38C219.44 121.687 220.033 121.84 220.7 121.84C221.233 121.84 221.727 121.747 222.18 121.56C222.633 121.36 223.02 121.08 223.34 120.72L224.28 121.66C223.84 122.153 223.307 122.533 222.68 122.8C222.067 123.067 221.407 123.2 220.7 123.2ZM226.244 123V113.6H227.644V123H226.244ZM227.644 117.52L227.064 117.26C227.064 116.073 227.351 115.133 227.924 114.44C228.511 113.747 229.311 113.4 230.324 113.4C230.791 113.4 231.218 113.487 231.604 113.66C231.991 113.82 232.351 114.08 232.684 114.44L231.764 115.42C231.538 115.167 231.284 114.987 231.004 114.88C230.738 114.773 230.431 114.72 230.084 114.72C229.364 114.72 228.778 114.96 228.324 115.44C227.871 115.907 227.644 116.6 227.644 117.52ZM237.099 123.04L232.979 113.6H234.519L237.839 121.48H237.259L240.759 113.6H242.319L237.899 123.04H237.099ZM234.539 126.96L237.119 121.62L237.899 123.04L236.079 126.96H234.539ZM248.78 123.2C248.06 123.2 247.413 123.053 246.84 122.76C246.267 122.467 245.793 122.067 245.42 121.56C245.06 121.04 244.84 120.44 244.76 119.76V116.82C244.84 116.127 245.067 115.527 245.44 115.02C245.813 114.5 246.287 114.1 246.86 113.82C247.447 113.54 248.087 113.4 248.78 113.4C249.647 113.4 250.427 113.62 251.12 114.06C251.813 114.487 252.36 115.073 252.76 115.82C253.173 116.553 253.38 117.387 253.38 118.32C253.38 119.24 253.18 120.067 252.78 120.8C252.38 121.533 251.827 122.12 251.12 122.56C250.427 122.987 249.647 123.2 248.78 123.2ZM243.92 126.96V113.6H245.32V116L245.04 118.28L245.32 120.58V126.96H243.92ZM248.54 121.86C249.207 121.86 249.793 121.713 250.3 121.42C250.807 121.113 251.2 120.693 251.48 120.16C251.773 119.613 251.92 118.993 251.92 118.3C251.92 117.593 251.773 116.973 251.48 116.44C251.2 115.907 250.807 115.487 250.3 115.18C249.793 114.873 249.213 114.72 248.56 114.72C247.907 114.72 247.327 114.873 246.82 115.18C246.327 115.487 245.94 115.907 245.66 116.44C245.38 116.973 245.24 117.593 245.24 118.3C245.24 118.993 245.38 119.613 245.66 120.16C245.94 120.693 246.327 121.113 246.82 121.42C247.313 121.713 247.887 121.86 248.54 121.86ZM256.747 123V109.64H258.147V123H256.747ZM254.367 114.86V113.6H260.507V114.86H254.367ZM266.364 123.2C265.457 123.2 264.63 122.98 263.884 122.54C263.15 122.1 262.564 121.507 262.124 120.76C261.697 120.013 261.484 119.18 261.484 118.26C261.484 117.353 261.697 116.533 262.124 115.8C262.564 115.067 263.15 114.487 263.884 114.06C264.63 113.62 265.457 113.4 266.364 113.4C267.284 113.4 268.11 113.613 268.844 114.04C269.577 114.467 270.157 115.053 270.584 115.8C271.024 116.533 271.244 117.353 271.244 118.26C271.244 119.193 271.024 120.033 270.584 120.78C270.157 121.513 269.577 122.1 268.844 122.54C268.11 122.98 267.284 123.2 266.364 123.2ZM266.364 121.84C267.03 121.84 267.617 121.687 268.124 121.38C268.644 121.073 269.05 120.647 269.344 120.1C269.65 119.553 269.804 118.94 269.804 118.26C269.804 117.58 269.65 116.98 269.344 116.46C269.05 115.927 268.644 115.507 268.124 115.2C267.617 114.893 267.03 114.74 266.364 114.74C265.71 114.74 265.124 114.893 264.604 115.2C264.084 115.507 263.677 115.927 263.384 116.46C263.09 116.98 262.944 117.58 262.944 118.26C262.944 118.953 263.09 119.573 263.384 120.12C263.677 120.653 264.084 121.073 264.604 121.38C265.124 121.687 265.71 121.84 266.364 121.84ZM274.502 123.2C274.168 123.2 273.895 123.087 273.682 122.86C273.468 122.633 273.362 122.36 273.362 122.04C273.362 121.72 273.468 121.453 273.682 121.24C273.895 121.013 274.168 120.9 274.502 120.9C274.822 120.9 275.088 121.013 275.302 121.24C275.515 121.453 275.622 121.72 275.622 122.04C275.622 122.36 275.515 122.633 275.302 122.86C275.088 123.087 274.822 123.2 274.502 123.2ZM283.44 123V109.24H284.48L284.9 110.98V123H283.44ZM292.96 123L284.26 111.2L284.48 109.24L293.16 121.04L292.96 123ZM292.96 123L292.52 121.34V109.24H294V123H292.96ZM301.422 123.2C300.516 123.2 299.689 122.98 298.942 122.54C298.209 122.1 297.622 121.507 297.182 120.76C296.756 120.013 296.542 119.18 296.542 118.26C296.542 117.353 296.756 116.533 297.182 115.8C297.622 115.067 298.209 114.487 298.942 114.06C299.689 113.62 300.516 113.4 301.422 113.4C302.342 113.4 303.169 113.613 303.902 114.04C304.636 114.467 305.216 115.053 305.642 115.8C306.082 116.533 306.302 117.353 306.302 118.26C306.302 119.193 306.082 120.033 305.642 120.78C305.216 121.513 304.636 122.1 303.902 122.54C303.169 122.98 302.342 123.2 301.422 123.2ZM301.422 121.84C302.089 121.84 302.676 121.687 303.182 121.38C303.702 121.073 304.109 120.647 304.402 120.1C304.709 119.553 304.862 118.94 304.862 118.26C304.862 117.58 304.709 116.98 304.402 116.46C304.109 115.927 303.702 115.507 303.182 115.2C302.676 114.893 302.089 114.74 301.422 114.74C300.769 114.74 300.182 114.893 299.662 115.2C299.142 115.507 298.736 115.927 298.442 116.46C298.149 116.98 298.002 117.58 298.002 118.26C298.002 118.953 298.149 119.573 298.442 120.12C298.736 120.653 299.142 121.073 299.662 121.38C300.182 121.687 300.769 121.84 301.422 121.84ZM315.446 123L311.826 113.6H313.286L316.146 121.4L315.626 121.42L318.466 113.6H319.286L322.126 121.42L321.606 121.4L324.446 113.6H325.926L322.286 123H321.466L318.566 115.3H319.166L316.286 123H315.446ZM331.516 123.2C330.622 123.2 329.822 122.987 329.116 122.56C328.409 122.12 327.849 121.533 327.436 120.8C327.036 120.067 326.836 119.24 326.836 118.32C326.836 117.387 327.036 116.553 327.436 115.82C327.849 115.073 328.409 114.487 329.116 114.06C329.822 113.62 330.616 113.4 331.496 113.4C332.216 113.4 332.856 113.547 333.416 113.84C333.989 114.12 334.449 114.52 334.796 115.04C335.156 115.547 335.376 116.14 335.456 116.82V119.76C335.376 120.44 335.156 121.04 334.796 121.56C334.449 122.08 333.989 122.487 333.416 122.78C332.856 123.06 332.222 123.2 331.516 123.2ZM331.736 121.86C332.709 121.86 333.489 121.533 334.076 120.88C334.676 120.227 334.976 119.367 334.976 118.3C334.976 117.593 334.836 116.973 334.556 116.44C334.289 115.893 333.909 115.473 333.416 115.18C332.936 114.873 332.369 114.72 331.716 114.72C331.049 114.72 330.456 114.873 329.936 115.18C329.429 115.487 329.022 115.913 328.716 116.46C328.422 116.993 328.276 117.607 328.276 118.3C328.276 118.993 328.422 119.607 328.716 120.14C329.022 120.673 329.436 121.093 329.956 121.4C330.476 121.707 331.069 121.86 331.736 121.86ZM334.896 123V120.48L335.176 118.16L334.896 115.9V113.6H336.296V123H334.896ZM339.135 123V108.84H340.535V123H339.135ZM343.373 123V108.84H344.773V123H343.373ZM351.951 123.2C351.005 123.2 350.158 122.987 349.411 122.56C348.665 122.133 348.071 121.547 347.631 120.8C347.205 120.053 346.991 119.213 346.991 118.28C346.991 117.36 347.205 116.533 347.631 115.8C348.058 115.053 348.638 114.467 349.371 114.04C350.105 113.613 350.925 113.4 351.831 113.4C352.685 113.4 353.438 113.593 354.091 113.98C354.758 114.367 355.278 114.907 355.651 115.6C356.038 116.28 356.231 117.067 356.231 117.96C356.231 118.067 356.225 118.193 356.211 118.34C356.198 118.473 356.171 118.633 356.131 118.82H347.991V117.62H355.371L354.871 118.06C354.885 117.367 354.765 116.773 354.511 116.28C354.271 115.773 353.918 115.387 353.451 115.12C352.998 114.84 352.445 114.7 351.791 114.7C351.111 114.7 350.518 114.847 350.011 115.14C349.505 115.433 349.105 115.847 348.811 116.38C348.531 116.9 348.391 117.52 348.391 118.24C348.391 118.96 348.538 119.593 348.831 120.14C349.138 120.687 349.558 121.113 350.091 121.42C350.638 121.727 351.265 121.88 351.971 121.88C352.545 121.88 353.071 121.78 353.551 121.58C354.031 121.367 354.438 121.053 354.771 120.64L355.671 121.56C355.231 122.08 354.685 122.487 354.031 122.78C353.391 123.06 352.698 123.2 351.951 123.2ZM359.482 123V109.64H360.882V123H359.482ZM357.102 114.86V113.6H363.242V114.86H357.102ZM376.307 123V117.48C376.307 116.653 376.06 115.987 375.567 115.48C375.087 114.96 374.447 114.7 373.647 114.7C373.1 114.7 372.62 114.82 372.207 115.06C371.794 115.3 371.467 115.627 371.227 116.04C370.987 116.453 370.867 116.927 370.867 117.46L370.227 117.1C370.227 116.393 370.394 115.76 370.727 115.2C371.06 114.64 371.507 114.2 372.067 113.88C372.64 113.56 373.294 113.4 374.027 113.4C374.747 113.4 375.387 113.573 375.947 113.92C376.507 114.267 376.94 114.733 377.247 115.32C377.567 115.907 377.727 116.547 377.727 117.24V123H376.307ZM369.467 123V113.6H370.867V123H369.467ZM384.686 123.2C383.739 123.2 382.892 122.987 382.146 122.56C381.399 122.133 380.806 121.547 380.366 120.8C379.939 120.053 379.726 119.213 379.726 118.28C379.726 117.36 379.939 116.533 380.366 115.8C380.792 115.053 381.372 114.467 382.106 114.04C382.839 113.613 383.659 113.4 384.566 113.4C385.419 113.4 386.172 113.593 386.826 113.98C387.492 114.367 388.012 114.907 388.386 115.6C388.772 116.28 388.966 117.067 388.966 117.96C388.966 118.067 388.959 118.193 388.946 118.34C388.932 118.473 388.906 118.633 388.866 118.82H380.726V117.62H388.106L387.606 118.06C387.619 117.367 387.499 116.773 387.246 116.28C387.006 115.773 386.652 115.387 386.186 115.12C385.732 114.84 385.179 114.7 384.526 114.7C383.846 114.7 383.252 114.847 382.746 115.14C382.239 115.433 381.839 115.847 381.546 116.38C381.266 116.9 381.126 117.52 381.126 118.24C381.126 118.96 381.272 119.593 381.566 120.14C381.872 120.687 382.292 121.113 382.826 121.42C383.372 121.727 383.999 121.88 384.706 121.88C385.279 121.88 385.806 121.78 386.286 121.58C386.766 121.367 387.172 121.053 387.506 120.64L388.406 121.56C387.966 122.08 387.419 122.487 386.766 122.78C386.126 123.06 385.432 123.2 384.686 123.2ZM395.448 123.2C394.501 123.2 393.654 122.987 392.908 122.56C392.161 122.133 391.568 121.547 391.128 120.8C390.701 120.053 390.488 119.213 390.488 118.28C390.488 117.36 390.701 116.533 391.128 115.8C391.554 115.053 392.134 114.467 392.868 114.04C393.601 113.613 394.421 113.4 395.328 113.4C396.181 113.4 396.934 113.593 397.588 113.98C398.254 114.367 398.774 114.907 399.148 115.6C399.534 116.28 399.728 117.067 399.728 117.96C399.728 118.067 399.721 118.193 399.708 118.34C399.694 118.473 399.668 118.633 399.628 118.82H391.488V117.62H398.868L398.368 118.06C398.381 117.367 398.261 116.773 398.008 116.28C397.768 115.773 397.414 115.387 396.948 115.12C396.494 114.84 395.941 114.7 395.288 114.7C394.608 114.7 394.014 114.847 393.508 115.14C393.001 115.433 392.601 115.847 392.308 116.38C392.028 116.9 391.888 117.52 391.888 118.24C391.888 118.96 392.034 119.593 392.327 120.14C392.634 120.687 393.054 121.113 393.588 121.42C394.134 121.727 394.761 121.88 395.468 121.88C396.041 121.88 396.568 121.78 397.048 121.58C397.528 121.367 397.934 121.053 398.268 120.64L399.168 121.56C398.728 122.08 398.181 122.487 397.528 122.78C396.888 123.06 396.194 123.2 395.448 123.2ZM405.869 123.2C405.003 123.2 404.223 122.987 403.529 122.56C402.836 122.133 402.283 121.553 401.869 120.82C401.469 120.073 401.269 119.24 401.269 118.32C401.269 117.387 401.469 116.553 401.869 115.82C402.283 115.073 402.836 114.487 403.529 114.06C404.223 113.62 405.003 113.4 405.869 113.4C406.576 113.4 407.216 113.54 407.789 113.82C408.363 114.1 408.836 114.5 409.209 115.02C409.596 115.527 409.823 116.127 409.889 116.82V119.76C409.809 120.44 409.583 121.04 409.209 121.56C408.849 122.067 408.383 122.467 407.809 122.76C407.236 123.053 406.589 123.2 405.869 123.2ZM406.109 121.86C406.763 121.86 407.336 121.713 407.829 121.42C408.323 121.113 408.709 120.693 408.989 120.16C409.269 119.613 409.409 118.993 409.409 118.3C409.409 117.593 409.263 116.973 408.969 116.44C408.689 115.907 408.303 115.487 407.809 115.18C407.316 114.873 406.743 114.72 406.089 114.72C405.436 114.72 404.856 114.873 404.349 115.18C403.843 115.487 403.443 115.913 403.149 116.46C402.869 116.993 402.729 117.607 402.729 118.3C402.729 118.993 402.869 119.613 403.149 120.16C403.443 120.693 403.843 121.113 404.349 121.42C404.869 121.713 405.456 121.86 406.109 121.86ZM410.729 123H409.329V120.48L409.609 118.16L409.329 115.9V108.84H410.729V123ZM417.908 123.2C416.962 123.2 416.115 122.987 415.368 122.56C414.622 122.133 414.028 121.547 413.588 120.8C413.162 120.053 412.948 119.213 412.948 118.28C412.948 117.36 413.162 116.533 413.588 115.8C414.015 115.053 414.595 114.467 415.328 114.04C416.062 113.613 416.882 113.4 417.788 113.4C418.642 113.4 419.395 113.593 420.048 113.98C420.715 114.367 421.235 114.907 421.608 115.6C421.995 116.28 422.188 117.067 422.188 117.96C422.188 118.067 422.182 118.193 422.168 118.34C422.155 118.473 422.128 118.633 422.088 118.82H413.948V117.62H421.328L420.828 118.06C420.842 117.367 420.722 116.773 420.468 116.28C420.228 115.773 419.875 115.387 419.408 115.12C418.955 114.84 418.402 114.7 417.748 114.7C417.068 114.7 416.475 114.847 415.968 115.14C415.462 115.433 415.062 115.847 414.768 116.38C414.488 116.9 414.348 117.52 414.348 118.24C414.348 118.96 414.495 119.593 414.788 120.14C415.095 120.687 415.515 121.113 416.048 121.42C416.595 121.727 417.222 121.88 417.928 121.88C418.502 121.88 419.028 121.78 419.508 121.58C419.988 121.367 420.395 121.053 420.728 120.64L421.628 121.56C421.188 122.08 420.642 122.487 419.988 122.78C419.348 123.06 418.655 123.2 417.908 123.2ZM428.33 123.2C427.463 123.2 426.683 122.987 425.99 122.56C425.297 122.133 424.743 121.553 424.33 120.82C423.93 120.073 423.73 119.24 423.73 118.32C423.73 117.387 423.93 116.553 424.33 115.82C424.743 115.073 425.297 114.487 425.99 114.06C426.683 113.62 427.463 113.4 428.33 113.4C429.037 113.4 429.677 113.54 430.25 113.82C430.823 114.1 431.297 114.5 431.67 115.02C432.057 115.527 432.283 116.127 432.35 116.82V119.76C432.27 120.44 432.043 121.04 431.67 121.56C431.31 122.067 430.843 122.467 430.27 122.76C429.697 123.053 429.05 123.2 428.33 123.2ZM428.57 121.86C429.223 121.86 429.797 121.713 430.29 121.42C430.783 121.113 431.17 120.693 431.45 120.16C431.73 119.613 431.87 118.993 431.87 118.3C431.87 117.593 431.723 116.973 431.43 116.44C431.15 115.907 430.763 115.487 430.27 115.18C429.777 114.873 429.203 114.72 428.55 114.72C427.897 114.72 427.317 114.873 426.81 115.18C426.303 115.487 425.903 115.913 425.61 116.46C425.33 116.993 425.19 117.607 425.19 118.3C425.19 118.993 425.33 119.613 425.61 120.16C425.903 120.693 426.303 121.113 426.81 121.42C427.33 121.713 427.917 121.86 428.57 121.86ZM433.19 123H431.79V120.48L432.07 118.16L431.79 115.9V108.84H433.19V123ZM436.229 125.06L437.369 122.84L437.869 122.72C437.816 122.84 437.743 122.94 437.649 123.02C437.556 123.113 437.443 123.16 437.309 123.16C437.056 123.16 436.823 123.06 436.609 122.86C436.409 122.647 436.309 122.387 436.309 122.08C436.309 121.76 436.423 121.487 436.649 121.26C436.876 121.02 437.149 120.9 437.469 120.9C437.776 120.9 438.043 121.02 438.269 121.26C438.509 121.487 438.629 121.76 438.629 122.08C438.629 122.213 438.603 122.373 438.549 122.56C438.509 122.733 438.416 122.967 438.269 123.26L437.069 125.52L436.229 125.06ZM448.695 123.2C448.188 123.2 447.701 123.133 447.235 123C446.768 122.853 446.341 122.653 445.955 122.4C445.581 122.147 445.255 121.847 444.975 121.5L445.875 120.58C446.248 121.033 446.668 121.373 447.135 121.6C447.615 121.813 448.148 121.92 448.735 121.92C449.361 121.92 449.848 121.8 450.195 121.56C450.555 121.32 450.735 120.987 450.735 120.56C450.735 120.16 450.608 119.847 450.355 119.62C450.101 119.393 449.775 119.213 449.375 119.08C448.988 118.947 448.575 118.82 448.135 118.7C447.695 118.567 447.275 118.407 446.875 118.22C446.475 118.02 446.148 117.747 445.895 117.4C445.655 117.053 445.535 116.6 445.535 116.04C445.535 115.507 445.661 115.047 445.915 114.66C446.181 114.26 446.555 113.953 447.035 113.74C447.528 113.513 448.108 113.4 448.775 113.4C449.481 113.4 450.121 113.527 450.695 113.78C451.268 114.033 451.728 114.407 452.075 114.9L451.175 115.8C450.895 115.44 450.541 115.167 450.115 114.98C449.701 114.78 449.235 114.68 448.715 114.68C448.115 114.68 447.655 114.8 447.335 115.04C447.028 115.267 446.875 115.567 446.875 115.94C446.875 116.3 447.001 116.587 447.255 116.8C447.508 117 447.828 117.167 448.215 117.3C448.615 117.42 449.035 117.547 449.475 117.68C449.915 117.8 450.335 117.967 450.735 118.18C451.135 118.38 451.455 118.66 451.695 119.02C451.948 119.367 452.075 119.84 452.075 120.44C452.075 121.28 451.768 121.953 451.155 122.46C450.555 122.953 449.735 123.2 448.695 123.2ZM454.291 123V113.6H455.711V123H454.291ZM454.991 111.56C454.724 111.56 454.498 111.467 454.311 111.28C454.124 111.08 454.031 110.847 454.031 110.58C454.031 110.3 454.124 110.067 454.311 109.88C454.498 109.693 454.724 109.6 454.991 109.6C455.284 109.6 455.518 109.693 455.691 109.88C455.878 110.067 455.971 110.3 455.971 110.58C455.971 110.847 455.878 111.08 455.691 111.28C455.518 111.467 455.284 111.56 454.991 111.56ZM458.549 123V113.6H459.949V123H458.549ZM465.009 123V117.24C465.009 116.467 464.776 115.853 464.309 115.4C463.842 114.933 463.256 114.7 462.549 114.7C462.069 114.7 461.629 114.807 461.229 115.02C460.842 115.22 460.529 115.507 460.289 115.88C460.062 116.253 459.949 116.7 459.949 117.22L459.309 116.96C459.309 116.24 459.469 115.613 459.789 115.08C460.109 114.547 460.536 114.133 461.069 113.84C461.616 113.547 462.229 113.4 462.909 113.4C463.576 113.4 464.169 113.547 464.689 113.84C465.222 114.133 465.642 114.547 465.949 115.08C466.269 115.613 466.429 116.247 466.429 116.98V123H465.009ZM471.489 123V117.24C471.489 116.467 471.256 115.853 470.789 115.4C470.322 114.933 469.729 114.7 469.009 114.7C468.542 114.7 468.109 114.807 467.709 115.02C467.322 115.22 467.009 115.507 466.769 115.88C466.542 116.253 466.429 116.7 466.429 117.22L465.589 116.96C465.629 116.24 465.816 115.613 466.149 115.08C466.496 114.547 466.942 114.133 467.489 113.84C468.049 113.547 468.662 113.4 469.329 113.4C469.996 113.4 470.596 113.547 471.129 113.84C471.676 114.133 472.102 114.547 472.409 115.08C472.729 115.613 472.889 116.247 472.889 116.98V123H471.489ZM480.382 123.2C479.662 123.2 479.015 123.053 478.442 122.76C477.868 122.467 477.395 122.067 477.022 121.56C476.662 121.04 476.442 120.44 476.362 119.76V116.82C476.442 116.127 476.668 115.527 477.042 115.02C477.415 114.5 477.888 114.1 478.462 113.82C479.048 113.54 479.688 113.4 480.382 113.4C481.248 113.4 482.028 113.62 482.722 114.06C483.415 114.487 483.962 115.073 484.362 115.82C484.775 116.553 484.982 117.387 484.982 118.32C484.982 119.24 484.782 120.067 484.382 120.8C483.982 121.533 483.428 122.12 482.722 122.56C482.028 122.987 481.248 123.2 480.382 123.2ZM475.522 126.96V113.6H476.922V116L476.642 118.28L476.922 120.58V126.96H475.522ZM480.142 121.86C480.808 121.86 481.395 121.713 481.902 121.42C482.408 121.113 482.802 120.693 483.082 120.16C483.375 119.613 483.522 118.993 483.522 118.3C483.522 117.593 483.375 116.973 483.082 116.44C482.802 115.907 482.408 115.487 481.902 115.18C481.395 114.873 480.815 114.72 480.162 114.72C479.508 114.72 478.928 114.873 478.422 115.18C477.928 115.487 477.542 115.907 477.262 116.44C476.982 116.973 476.842 117.593 476.842 118.3C476.842 118.993 476.982 119.613 477.262 120.16C477.542 120.693 477.928 121.113 478.422 121.42C478.915 121.713 479.488 121.86 480.142 121.86ZM487.221 123V108.84H488.621V123H487.221ZM495.799 123.2C494.852 123.2 494.006 122.987 493.259 122.56C492.512 122.133 491.919 121.547 491.479 120.8C491.052 120.053 490.839 119.213 490.839 118.28C490.839 117.36 491.052 116.533 491.479 115.8C491.906 115.053 492.486 114.467 493.219 114.04C493.952 113.613 494.772 113.4 495.679 113.4C496.532 113.4 497.286 113.593 497.939 113.98C498.606 114.367 499.126 114.907 499.499 115.6C499.886 116.28 500.079 117.067 500.079 117.96C500.079 118.067 500.072 118.193 500.059 118.34C500.046 118.473 500.019 118.633 499.979 118.82H491.839V117.62H499.219L498.719 118.06C498.732 117.367 498.612 116.773 498.359 116.28C498.119 115.773 497.766 115.387 497.299 115.12C496.846 114.84 496.292 114.7 495.639 114.7C494.959 114.7 494.366 114.847 493.859 115.14C493.352 115.433 492.952 115.847 492.659 116.38C492.379 116.9 492.239 117.52 492.239 118.24C492.239 118.96 492.386 119.593 492.679 120.14C492.986 120.687 493.406 121.113 493.939 121.42C494.486 121.727 495.112 121.88 495.819 121.88C496.392 121.88 496.919 121.78 497.399 121.58C497.879 121.367 498.286 121.053 498.619 120.64L499.519 121.56C499.079 122.08 498.532 122.487 497.879 122.78C497.239 123.06 496.546 123.2 495.799 123.2ZM220.3 151.16C219.353 151.16 218.507 150.98 217.76 150.62C217.027 150.273 216.433 149.78 215.98 149.14L216.9 148.22C217.273 148.727 217.747 149.12 218.32 149.4C218.893 149.68 219.567 149.82 220.34 149.82C221.407 149.82 222.253 149.533 222.88 148.96C223.52 148.387 223.84 147.607 223.84 146.62V144.28L224.12 142.14L223.84 140.02V137.6H225.24V146.62C225.24 147.527 225.033 148.32 224.62 149C224.207 149.68 223.627 150.207 222.88 150.58C222.147 150.967 221.287 151.16 220.3 151.16ZM220.4 146.9C219.533 146.9 218.753 146.693 218.06 146.28C217.367 145.867 216.82 145.3 216.42 144.58C216.02 143.86 215.82 143.047 215.82 142.14C215.82 141.233 216.013 140.427 216.4 139.72C216.8 139 217.347 138.433 218.04 138.02C218.733 137.607 219.513 137.4 220.38 137.4C221.113 137.4 221.767 137.54 222.34 137.82C222.927 138.1 223.393 138.5 223.74 139.02C224.1 139.527 224.32 140.127 224.4 140.82V143.48C224.32 144.16 224.1 144.76 223.74 145.28C223.38 145.787 222.913 146.187 222.34 146.48C221.767 146.76 221.12 146.9 220.4 146.9ZM220.66 145.56C221.313 145.56 221.88 145.42 222.36 145.14C222.853 144.86 223.233 144.467 223.5 143.96C223.78 143.44 223.92 142.833 223.92 142.14C223.92 141.46 223.78 140.867 223.5 140.36C223.233 139.853 222.853 139.453 222.36 139.16C221.867 138.867 221.293 138.72 220.64 138.72C219.987 138.72 219.4 138.867 218.88 139.16C218.373 139.453 217.973 139.853 217.68 140.36C217.4 140.867 217.26 141.46 217.26 142.14C217.26 142.807 217.407 143.4 217.7 143.92C217.993 144.44 218.393 144.847 218.9 145.14C219.407 145.42 219.993 145.56 220.66 145.56ZM231.781 147.2C231.021 147.2 230.341 147.027 229.741 146.68C229.141 146.32 228.667 145.833 228.321 145.22C227.987 144.607 227.821 143.887 227.821 143.06V137.6H229.241V143C229.241 143.573 229.341 144.073 229.541 144.5C229.754 144.927 230.054 145.26 230.441 145.5C230.827 145.74 231.274 145.86 231.781 145.86C232.567 145.86 233.187 145.6 233.641 145.08C234.107 144.56 234.341 143.867 234.341 143V137.6H235.741V143.06C235.741 143.873 235.574 144.593 235.241 145.22C234.907 145.847 234.441 146.333 233.841 146.68C233.241 147.027 232.554 147.2 231.781 147.2ZM238.354 147V137.6H239.774V147H238.354ZM239.054 135.56C238.787 135.56 238.56 135.467 238.374 135.28C238.187 135.08 238.094 134.847 238.094 134.58C238.094 134.3 238.187 134.067 238.374 133.88C238.56 133.693 238.787 133.6 239.054 133.6C239.347 133.6 239.58 133.693 239.754 133.88C239.94 134.067 240.034 134.3 240.034 134.58C240.034 134.847 239.94 135.08 239.754 135.28C239.58 135.467 239.347 135.56 239.054 135.56ZM246.611 147.2C245.745 147.2 244.965 146.987 244.271 146.56C243.578 146.133 243.025 145.553 242.611 144.82C242.211 144.073 242.011 143.24 242.011 142.32C242.011 141.387 242.211 140.553 242.611 139.82C243.025 139.073 243.578 138.487 244.271 138.06C244.965 137.62 245.745 137.4 246.611 137.4C247.318 137.4 247.958 137.54 248.531 137.82C249.105 138.1 249.578 138.5 249.951 139.02C250.338 139.527 250.565 140.127 250.631 140.82V143.76C250.551 144.44 250.325 145.04 249.951 145.56C249.591 146.067 249.125 146.467 248.551 146.76C247.978 147.053 247.331 147.2 246.611 147.2ZM246.851 145.86C247.505 145.86 248.078 145.713 248.571 145.42C249.065 145.113 249.451 144.693 249.731 144.16C250.011 143.613 250.151 142.993 250.151 142.3C250.151 141.593 250.005 140.973 249.711 140.44C249.431 139.907 249.045 139.487 248.551 139.18C248.058 138.873 247.485 138.72 246.831 138.72C246.178 138.72 245.598 138.873 245.091 139.18C244.585 139.487 244.185 139.913 243.891 140.46C243.611 140.993 243.471 141.607 243.471 142.3C243.471 142.993 243.611 143.613 243.891 144.16C244.185 144.693 244.585 145.113 245.091 145.42C245.611 145.713 246.198 145.86 246.851 145.86ZM251.471 147H250.071V144.48L250.351 142.16L250.071 139.9V132.84H251.471V147ZM258.651 147.2C257.704 147.2 256.857 146.987 256.111 146.56C255.364 146.133 254.771 145.547 254.331 144.8C253.904 144.053 253.691 143.213 253.691 142.28C253.691 141.36 253.904 140.533 254.331 139.8C254.757 139.053 255.337 138.467 256.071 138.04C256.804 137.613 257.624 137.4 258.531 137.4C259.384 137.4 260.137 137.593 260.791 137.98C261.457 138.367 261.977 138.907 262.351 139.6C262.737 140.28 262.931 141.067 262.931 141.96C262.931 142.067 262.924 142.193 262.911 142.34C262.897 142.473 262.871 142.633 262.831 142.82H254.691V141.62H262.071L261.571 142.06C261.584 141.367 261.464 140.773 261.211 140.28C260.971 139.773 260.617 139.387 260.151 139.12C259.697 138.84 259.144 138.7 258.491 138.7C257.811 138.7 257.217 138.847 256.711 139.14C256.204 139.433 255.804 139.847 255.511 140.38C255.231 140.9 255.091 141.52 255.091 142.24C255.091 142.96 255.237 143.593 255.531 144.14C255.837 144.687 256.257 145.113 256.791 145.42C257.337 145.727 257.964 145.88 258.671 145.88C259.244 145.88 259.771 145.78 260.251 145.58C260.731 145.367 261.137 145.053 261.471 144.64L262.371 145.56C261.931 146.08 261.384 146.487 260.731 146.78C260.091 147.06 259.397 147.2 258.651 147.2ZM269.072 147.2C268.206 147.2 267.426 146.987 266.732 146.56C266.039 146.133 265.486 145.553 265.072 144.82C264.672 144.073 264.472 143.24 264.472 142.32C264.472 141.387 264.672 140.553 265.072 139.82C265.486 139.073 266.039 138.487 266.732 138.06C267.426 137.62 268.206 137.4 269.072 137.4C269.779 137.4 270.419 137.54 270.992 137.82C271.566 138.1 272.039 138.5 272.412 139.02C272.799 139.527 273.026 140.127 273.092 140.82V143.76C273.012 144.44 272.786 145.04 272.412 145.56C272.052 146.067 271.586 146.467 271.012 146.76C270.439 147.053 269.792 147.2 269.072 147.2ZM269.312 145.86C269.966 145.86 270.539 145.713 271.032 145.42C271.526 145.113 271.912 144.693 272.192 144.16C272.472 143.613 272.612 142.993 272.612 142.3C272.612 141.593 272.466 140.973 272.172 140.44C271.892 139.907 271.506 139.487 271.012 139.18C270.519 138.873 269.946 138.72 269.292 138.72C268.639 138.72 268.059 138.873 267.552 139.18C267.046 139.487 266.646 139.913 266.352 140.46C266.072 140.993 265.932 141.607 265.932 142.3C265.932 142.993 266.072 143.613 266.352 144.16C266.646 144.693 267.046 145.113 267.552 145.42C268.072 145.713 268.659 145.86 269.312 145.86ZM273.932 147H272.532V144.48L272.812 142.16L272.532 139.9V132.84H273.932V147ZM285.348 147.2C284.428 147.2 283.595 146.987 282.848 146.56C282.115 146.12 281.528 145.527 281.088 144.78C280.662 144.033 280.448 143.2 280.448 142.28C280.448 141.36 280.662 140.533 281.088 139.8C281.528 139.053 282.115 138.467 282.848 138.04C283.595 137.613 284.428 137.4 285.348 137.4C286.055 137.4 286.715 137.533 287.328 137.8C287.942 138.067 288.462 138.44 288.888 138.92L287.968 139.86C287.648 139.5 287.262 139.227 286.808 139.04C286.355 138.84 285.868 138.74 285.348 138.74C284.682 138.74 284.088 138.893 283.568 139.2C283.048 139.507 282.642 139.927 282.348 140.46C282.055 140.98 281.908 141.587 281.908 142.28C281.908 142.96 282.055 143.573 282.348 144.12C282.642 144.653 283.048 145.073 283.568 145.38C284.088 145.687 284.682 145.84 285.348 145.84C285.882 145.84 286.375 145.747 286.828 145.56C287.282 145.36 287.668 145.08 287.988 144.72L288.928 145.66C288.488 146.153 287.955 146.533 287.328 146.8C286.715 147.067 286.055 147.2 285.348 147.2ZM290.893 147V132.84H292.293V147H290.893ZM299.211 147.2C298.318 147.2 297.518 146.987 296.811 146.56C296.104 146.12 295.544 145.533 295.131 144.8C294.731 144.067 294.531 143.24 294.531 142.32C294.531 141.387 294.731 140.553 295.131 139.82C295.544 139.073 296.104 138.487 296.811 138.06C297.518 137.62 298.311 137.4 299.191 137.4C299.911 137.4 300.551 137.547 301.111 137.84C301.684 138.12 302.144 138.52 302.491 139.04C302.851 139.547 303.071 140.14 303.151 140.82V143.76C303.071 144.44 302.851 145.04 302.491 145.56C302.144 146.08 301.684 146.487 301.111 146.78C300.551 147.06 299.918 147.2 299.211 147.2ZM299.431 145.86C300.404 145.86 301.184 145.533 301.771 144.88C302.371 144.227 302.671 143.367 302.671 142.3C302.671 141.593 302.531 140.973 302.251 140.44C301.984 139.893 301.604 139.473 301.111 139.18C300.631 138.873 300.064 138.72 299.411 138.72C298.744 138.72 298.151 138.873 297.631 139.18C297.124 139.487 296.718 139.913 296.411 140.46C296.118 140.993 295.971 141.607 295.971 142.3C295.971 142.993 296.118 143.607 296.411 144.14C296.718 144.673 297.131 145.093 297.651 145.4C298.171 145.707 298.764 145.86 299.431 145.86ZM302.591 147V144.48L302.871 142.16L302.591 139.9V137.6H303.991V147H302.591ZM306.83 147V137.6H308.25V147H306.83ZM307.53 135.56C307.263 135.56 307.037 135.467 306.85 135.28C306.663 135.08 306.57 134.847 306.57 134.58C306.57 134.3 306.663 134.067 306.85 133.88C307.037 133.693 307.263 133.6 307.53 133.6C307.823 133.6 308.057 133.693 308.23 133.88C308.417 134.067 308.51 134.3 308.51 134.58C308.51 134.847 308.417 135.08 308.23 135.28C308.057 135.467 307.823 135.56 307.53 135.56ZM311.088 147V137.6H312.488V147H311.088ZM317.548 147V141.24C317.548 140.467 317.315 139.853 316.848 139.4C316.381 138.933 315.795 138.7 315.088 138.7C314.608 138.7 314.168 138.807 313.768 139.02C313.381 139.22 313.068 139.507 312.828 139.88C312.601 140.253 312.488 140.7 312.488 141.22L311.848 140.96C311.848 140.24 312.008 139.613 312.328 139.08C312.648 138.547 313.075 138.133 313.608 137.84C314.155 137.547 314.768 137.4 315.448 137.4C316.115 137.4 316.708 137.547 317.228 137.84C317.761 138.133 318.181 138.547 318.488 139.08C318.808 139.613 318.968 140.247 318.968 140.98V147H317.548ZM324.028 147V141.24C324.028 140.467 323.795 139.853 323.328 139.4C322.861 138.933 322.268 138.7 321.548 138.7C321.081 138.7 320.648 138.807 320.248 139.02C319.861 139.22 319.548 139.507 319.308 139.88C319.081 140.253 318.968 140.7 318.968 141.22L318.128 140.96C318.168 140.24 318.355 139.613 318.688 139.08C319.035 138.547 319.481 138.133 320.028 137.84C320.588 137.547 321.201 137.4 321.868 137.4C322.535 137.4 323.135 137.547 323.668 137.84C324.215 138.133 324.641 138.547 324.948 139.08C325.268 139.613 325.428 140.247 325.428 140.98V147H324.028ZM329.541 147.2C329.207 147.2 328.934 147.087 328.721 146.86C328.507 146.633 328.401 146.36 328.401 146.04C328.401 145.72 328.507 145.453 328.721 145.24C328.934 145.013 329.207 144.9 329.541 144.9C329.861 144.9 330.127 145.013 330.341 145.24C330.554 145.453 330.661 145.72 330.661 146.04C330.661 146.36 330.554 146.633 330.341 146.86C330.127 147.087 329.861 147.2 329.541 147.2Z" fill="#0B2818"/>
<circle cx="82" cy="98" r="81.1214" fill="#0B2818" stroke="#F7F4EE" stroke-width="1.75714"/>
<path d="M64.8978 62C66.1811 62.0026 68.4439 62.4213 69.6959 62.7367C74.5801 63.9737 78.7698 67.1053 81.3382 71.4384C83.9159 75.7341 84.6616 80.8843 83.4079 85.7343C82.2664 90.0625 79.3698 94.4155 75.4666 96.6979C80.1189 98.5937 83.1271 100.287 86.6829 103.893C86.703 104.86 86.7778 105.355 86.9376 106.317C84.4512 105.081 81.3858 102.13 78.4721 100.633C71.6689 97.1391 71.1755 99.875 64.4336 100.055C62.0345 100.119 58.4157 98.7944 57.3863 98.7965C53.3694 98.8049 45.8202 102.794 42.7973 105.304C37.656 109.575 35.8711 114.401 35.2744 120.842C37.6133 120.783 40.4612 120.89 42.8617 120.892L60.8371 120.896L86.7398 120.884C86.7421 121.623 86.834 122.384 86.908 123.122L51.415 123.139L40.5028 123.137C38.2159 123.137 35.4724 123.209 33.23 122.989C31.2435 109.754 42.4562 100.166 54.1157 96.8687C53.4411 96.3637 52.7922 95.8663 52.1413 95.325C44.2091 88.7293 43.2089 76.5301 50.07 68.7695C54.2505 64.0407 58.7282 62.4411 64.8978 62ZM66.1777 97.5625C75.3645 96.7669 82.1521 88.6546 81.3119 79.4749C80.4715 70.295 72.3237 63.549 63.145 64.4336C54.029 65.3121 47.3367 73.3895 48.1714 82.5066C49.006 91.6236 57.0536 98.3527 66.1777 97.5625Z" fill="#F7F4EE"/>
<path d="M56.6685 81.6032C57.1381 81.5889 57.9154 81.6162 58.0588 82.1297C59.2823 86.5113 62.2621 88.1031 66.7299 87.2504C69.371 86.7463 70.1196 85.3725 71.1354 82.9175C71.3764 82.3352 71.6862 81.4451 72.5382 81.6383C74.1101 82.0151 73.7055 83.1551 73.3771 84.2066C71.2176 90.6509 62.1062 91.6743 57.716 86.9037C56.5454 85.6317 54.941 83.0702 56.6685 81.6032Z" fill="#F7F4EE"/>
<path d="M122.075 93.4131C126.178 92.9781 125.68 96.9778 125.643 99.7126C129.663 100.668 128.725 104.22 128.603 107.556C130.548 107.887 131.331 108.802 131.369 110.795C131.413 113.087 131.693 115.86 130.842 118.017C129.952 118.555 129.695 118.666 128.704 118.984C128.592 121.275 129.309 125.246 127.613 126.968C126.636 127.959 124.972 127.823 123.666 127.79L121.334 125.627C122.751 125.506 124.781 125.52 126.302 125.444C126.395 123.439 126.34 120.968 126.388 118.902C124.803 118.83 123.163 118.923 121.574 118.841C116.51 118.581 114.961 115.778 115.812 111.137C117.907 106.649 122.074 107.66 126.328 107.703C126.35 106.483 126.483 103.604 126.192 102.516C125.535 101.995 123.061 102.125 122.136 102.107C113.659 101.944 105.014 102.339 96.5538 102.07C95.8698 101.589 94.8025 100.895 94.6221 100.084C95.323 99.3016 118.547 94.2517 122.075 93.4131ZM117.961 111.808C117.851 113.069 117.68 114.478 118.606 115.474C120.157 117.144 124.356 116.631 126.516 116.611C127.317 116.577 128.288 116.563 129.073 116.494C129.159 115.473 129.375 110.845 128.865 110.185C127.613 109.724 122.009 109.858 120.45 109.945C119.117 110.331 118.815 110.661 117.961 111.808ZM106.291 99.885C111.935 99.7322 117.698 99.9438 123.392 99.8224C123.29 98.6931 123.504 96.3747 123.003 95.7462C122.731 95.7012 122.608 95.6658 122.331 95.6845L110.916 98.373C109.352 98.7439 106.872 99.2414 105.42 99.736L105.386 99.8472C105.787 99.8995 105.888 99.9052 106.291 99.885Z" fill="#F7F4EE"/>
<path d="M120.94 111.625C121.532 111.473 122.159 111.664 122.566 112.119C122.973 112.574 123.093 113.217 122.877 113.789C122.661 114.36 122.144 114.763 121.538 114.834C120.682 114.935 119.896 114.355 119.738 113.509C119.58 112.663 120.106 111.839 120.94 111.625Z" fill="#F7F4EE"/>
<path d="M84.3979 94.7656C85.0626 94.7758 85.4803 94.7543 86.0065 95.1873C87.5434 96.4525 89.0368 97.9288 90.4833 99.2969L99.3553 107.715L113.82 121.342C117.194 124.493 120.628 127.585 123.908 130.836C125.05 131.969 125.942 132.607 124.462 134C124.337 134.001 124.213 134 124.088 133.996C123.424 133.977 123.115 133.924 122.604 133.452C120.433 131.453 118.321 129.356 116.155 127.353L96.0866 108.451L88.0061 100.837C86.6419 99.5735 85.1617 98.2464 83.8424 96.924C83.6018 96.6828 83.5668 96.2913 83.5868 95.959C83.6242 95.3419 83.946 95.1275 84.3979 94.7656Z" fill="#F7F4EE"/>
<path d="M89.9228 105.387C90.7763 105.516 91.4691 106.36 92.1333 106.988C92.3898 112.874 92.1316 119.409 92.2641 125.416C96.608 125.807 101.255 125.401 105.626 125.505C107.77 125.556 112.814 124.812 113.33 127.655C111.301 127.914 105.134 127.796 102.879 127.773C99.8352 127.741 94.6691 127.965 91.8144 127.721C91.1935 127.328 90.8737 127.045 90.3165 126.562C89.5982 124.581 89.875 120.263 89.8789 117.992C89.8676 113.79 89.8822 109.589 89.9228 105.387Z" fill="#F7F4EE"/>
</svg>
