<svg width="28" height="28" viewBox="0 0 28 28" fill="none" xmlns="http://www.w3.org/2000/svg">
<circle cx="14" cy="14" r="14" fill="#0B2818"/>
<path d="M11.69 10.5878C11.4847 10.5878 11.333 10.5388 11.235 10.4408C11.1417 10.3382 11.095 10.2075 11.095 10.0488C11.095 9.89483 11.151 9.7665 11.263 9.66383C11.3797 9.56116 11.536 9.50983 11.732 9.50983H12.362C12.8333 9.50983 13.2277 9.46083 13.545 9.36283C13.867 9.26483 14.2193 9.1225 14.602 8.93583C14.728 8.8705 14.8423 8.82616 14.945 8.80283C15.0477 8.77483 15.155 8.76083 15.267 8.76083C15.6357 8.76083 15.82 8.94283 15.82 9.30683V17.0418C15.82 17.2285 15.855 17.3708 15.925 17.4688C15.995 17.5622 16.093 17.6252 16.219 17.6578L16.842 17.8188C17.0987 17.8842 17.227 18.0475 17.227 18.3088C17.227 18.4535 17.1827 18.5678 17.094 18.6518C17.0053 18.7358 16.8723 18.7778 16.695 18.7778H11.606C11.4007 18.7778 11.249 18.7358 11.151 18.6518C11.053 18.5678 11.004 18.4535 11.004 18.3088C11.004 18.0522 11.1557 17.8865 11.459 17.8118L12.159 17.6578C12.2943 17.6252 12.397 17.5622 12.467 17.4688C12.5417 17.3708 12.579 17.2285 12.579 17.0418V11.1828C12.579 10.9495 12.544 10.7932 12.474 10.7138C12.404 10.6298 12.2873 10.5878 12.124 10.5878H11.69Z" fill="white"/>
</svg>
