<svg width="20" height="20" viewBox="0 0 20 20" fill="none" xmlns="http://www.w3.org/2000/svg">
<g clip-path="url(#clip0_349_803)">
<path d="M18.3243 14.094V16.5929C18.3252 16.8249 18.2777 17.0545 18.1848 17.2671C18.0918 17.4796 17.9555 17.6705 17.7846 17.8273C17.6136 17.9841 17.4118 18.1035 17.192 18.1778C16.9723 18.2522 16.7394 18.2798 16.5084 18.2589C13.9452 17.9804 11.483 17.1045 9.31973 15.7016C7.3071 14.4227 5.60074 12.7164 4.32183 10.7037C2.91407 8.53064 2.03799 6.0565 1.76457 3.48176C1.74376 3.25141 1.77113 3.01925 1.84496 2.80006C1.91878 2.58087 2.03743 2.37946 2.19337 2.20864C2.3493 2.03782 2.53909 1.90134 2.75065 1.80789C2.96222 1.71444 3.19092 1.66607 3.42221 1.66585H5.92116C6.32541 1.66187 6.71732 1.80503 7.02383 2.06863C7.33034 2.33223 7.53055 2.69829 7.58713 3.09858C7.6926 3.8983 7.88821 4.68352 8.17022 5.43927C8.28229 5.73741 8.30654 6.06143 8.24011 6.37294C8.17367 6.68445 8.01933 6.97038 7.79537 7.19686L6.73748 8.25475C7.92328 10.3402 9.64997 12.0669 11.7354 13.2527L12.7933 12.1948C13.0198 11.9708 13.3057 11.8165 13.6172 11.75C13.9287 11.6836 14.2527 11.7078 14.5509 11.8199C15.3066 12.1019 16.0918 12.2975 16.8916 12.403C17.2962 12.4601 17.6657 12.6639 17.9299 12.9757C18.1941 13.2875 18.3344 13.6854 18.3243 14.094Z" stroke="#192FFD" stroke-width="1.66597" stroke-linecap="round" stroke-linejoin="round"/>
</g>
<defs>
<clipPath id="clip0_349_803">
<rect width="19.9916" height="19.9916" fill="white"/>
</clipPath>
</defs>
</svg>
