<svg width="100" height="100" viewBox="0 0 100 100" fill="none" xmlns="http://www.w3.org/2000/svg">
<circle cx="50" cy="50" r="50" fill="#0B2818"/>
<path d="M37 38C37 32.475 41.475 28 47 28C52.525 28 57 32.475 57 38C57 43.525 52.525 48 47 48C41.475 48 37 43.525 37 38ZM52 63.5C52 61.1 53.25 58.85 55 57.35V56.75C55 55.775 55.175 54.85 55.45 53.95C52.875 53.35 50.025 53 47 53C35.95 53 27 57.475 27 63V68H52V63.5ZM77 63.75V72.5C77 74 75.5 75.5 73.75 75.5H60C58.5 75.5 57 74 57 72.25V63.5C57 62 58.5 60.5 60 60.5V56.75C60 53.25 63.5 50.5 67 50.5C70.5 50.5 74 53.25 74 56.75V60.5C75.5 60.5 77 62 77 63.75ZM70.75 56.75C70.75 54.75 69 53.5 67 53.5C65 53.5 63.25 54.75 63.25 56.75V60.5H70.75V56.75Z" fill="#B8FF4F"/>
</svg>
