<svg width="374" height="246" viewBox="0 0 374 246" fill="none" xmlns="http://www.w3.org/2000/svg">
<rect x="0.17565" y="0.17565" width="347.649" height="214.649" rx="18.4433" fill="#E6F8AF" stroke="#0B2818" stroke-width="0.351301"/>
<path d="M28.6829 42.4878V43.0732H31.6098V42.4878H32.1951V40.7317H31.6098V40.1463H27.5122V39.561H26.3415V38.9756H25.7561V37.8049H25.1707V33.7073H25.7561V32.5366H26.3415V31.9512H27.5122V31.3659H32.7805V31.9512H33.9512V32.5366H34.5366V33.7073H35.122V35.4634H32.1951V34.878H31.6098V34.2927H28.6829V34.878H28.0976V36.6341H28.6829V37.2195H32.7805V37.8049H33.9512V38.3902H34.5366V39.561H35.122V43.6585H34.5366V44.8293H33.9512V45.4146H32.7805V46H27.5122V45.4146H26.3415V44.8293H25.7561V43.6585H25.1707V41.3171H28.0976V42.4878H28.6829ZM40.3788 43.0732V43.6585H42.7203V43.0732H43.3056V42.4878H46.2325V43.6585H45.6471V44.8293H45.0617V45.4146H43.891V46H39.2081V45.4146H38.0373V44.8293H37.452V43.6585H36.8666V37.2195H37.452V36.0488H38.0373V35.4634H39.2081V34.878H43.891V35.4634H45.0617V36.0488H45.6471V37.2195H46.2325V41.3171H39.7934V43.0732H40.3788ZM39.7934 37.8049V39.561H43.3056V37.8049H42.7203V37.2195H40.3788V37.8049H39.7934ZM50.9257 43.0732V43.6585H53.2671V43.0732H53.8525V41.9024H56.7793V43.6585H56.194V44.8293H55.6086V45.4146H54.4379V46H49.755V45.4146H48.5842V44.8293H47.9989V43.6585H47.4135V37.2195H47.9989V36.0488H48.5842V35.4634H49.755V34.878H54.4379V35.4634H55.6086V36.0488H56.194V37.2195H56.7793V38.9756H53.8525V37.8049H53.2671V37.2195H50.9257V37.8049H50.3403V43.0732H50.9257ZM58.5457 44.8293V43.6585H57.9604V34.878H60.8872V43.0732H61.4726V43.6585H63.814V43.0732H64.3994V34.878H67.3262V46H64.3994V45.4146H63.814V46H60.3018V45.4146H59.1311V44.8293H58.5457ZM73.1907 37.2195V37.8049H72.6054V46H69.6785V34.878H72.6054V35.4634H73.1907V34.878H76.7029V35.4634H77.2883V36.0488H77.8737V36.6341H77.2883V37.2195H76.7029V37.8049H76.1176V38.3902H75.5322V37.8049H74.9468V37.2195H73.1907ZM81.9804 31.3659V33.7073H79.0535V31.3659H81.9804ZM81.9804 35.4634V46H79.0535V35.4634H81.9804ZM87.8392 43.0732V43.6585H89.5953V46H86.6684V45.4146H85.4977V44.8293H84.9123V43.6585H84.327V37.8049H83.1562V35.4634H84.327V34.2927H84.9123V33.7073H85.4977V33.122H86.0831V32.5366H86.6684V31.9512H87.2538V35.4634H89.5953V37.8049H87.2538V43.0732H87.8392ZM92.529 47.1707V46.5854H93.1143V46H93.6997V45.4146H94.2851V44.8293H93.6997V44.2439H93.1143V43.6585H92.529V43.0732H91.9436V42.4878H91.3582V34.878H94.2851V41.9024H94.8704V42.4878H95.4558V43.0732H96.6265V42.4878H97.2119V41.9024H97.7973V34.878H100.724V42.4878H100.139V43.0732H99.5534V43.6585H98.968V44.2439H98.3826V44.8293H97.7973V45.4146H97.2119V46H96.6265V46.5854H96.0412V47.1707H95.4558V47.7561H94.8704V48.3415H94.2851V48.9268H93.6997V49.5122H91.9436V47.1707H92.529ZM106.004 43.0732V46.5854H105.418V47.1707H104.833V47.7561H104.248V48.3415H103.077V47.7561H103.662V47.1707H104.248V46H103.077V43.0732H106.004ZM117.722 41.9024V42.4878H118.307V43.0732H118.893V42.4878H119.478V41.9024H120.063V34.878H122.99V41.9024H123.576V42.4878H124.161V43.0732H124.746V42.4878H125.332V41.9024H125.917V34.878H128.844V42.4878H128.259V43.0732H127.673V43.6585H127.088V44.2439H126.502V44.8293H125.917V45.4146H125.332V46H123.576V45.4146H122.99V44.8293H122.405V44.2439H121.82V43.6585H121.234V44.2439H120.649V44.8293H120.063V45.4146H119.478V46H117.722V45.4146H117.137V44.8293H116.551V44.2439H115.966V43.6585H115.381V43.0732H114.795V42.4878H114.21V34.878H117.137V41.9024H117.722ZM134.105 31.3659V33.7073H131.179V31.3659H134.105ZM134.105 35.4634V46H131.179V35.4634H134.105ZM139.964 43.0732V43.6585H141.72V46H138.793V45.4146H137.623V44.8293H137.037V43.6585H136.452V37.8049H135.281V35.4634H136.452V34.2927H137.037V33.7073H137.623V33.122H138.208V32.5366H138.793V31.9512H139.379V35.4634H141.72V37.8049H139.379V43.0732H139.964ZM146.995 37.2195V37.8049H146.41V46H143.483V31.3659H146.41V35.4634H146.995V34.878H150.508V35.4634H151.678V36.0488H152.264V37.2195H152.849V46H149.922V37.8049H149.337V37.2195H146.995ZM161.055 45.4146V46H156.372V45.4146H155.201V44.8293H154.616V43.6585H154.031V37.2195H154.616V36.0488H155.201V35.4634H156.372V34.878H161.055V35.4634H162.226V36.0488H162.811V37.2195H163.397V43.6585H162.811V44.8293H162.226V45.4146H161.055ZM157.543 43.0732V43.6585H159.884V43.0732H160.47V37.8049H159.884V37.2195H157.543V37.8049H156.958V43.0732H157.543ZM165.163 44.8293V43.6585H164.578V34.878H167.504V43.0732H168.09V43.6585H170.431V43.0732H171.017V34.878H173.943V46H171.017V45.4146H170.431V46H166.919V45.4146H165.748V44.8293H165.163ZM179.808 43.0732V43.6585H181.564V46H178.637V45.4146H177.466V44.8293H176.881V43.6585H176.296V37.8049H175.125V35.4634H176.296V34.2927H176.881V33.7073H177.466V33.122H178.052V32.5366H178.637V31.9512H179.223V35.4634H181.564V37.8049H179.223V43.0732H179.808ZM28.0976 64.0732V64.6585H30.439V64.0732H31.0244V62.9024H33.9512V64.6585H33.3659V65.8293H32.7805V66.4146H31.6098V67H26.9268V66.4146H25.7561V65.8293H25.1707V64.6585H24.5854V58.2195H25.1707V57.0488H25.7561V56.4634H26.9268V55.878H31.6098V56.4634H32.7805V57.0488H33.3659V58.2195H33.9512V59.9756H31.0244V58.8049H30.439V58.2195H28.0976V58.8049H27.5122V64.0732H28.0976ZM42.1566 66.4146V67H37.4737V66.4146H36.303V65.8293H35.7176V64.6585H35.1322V58.2195H35.7176V57.0488H36.303V56.4634H37.4737V55.878H42.1566V56.4634H43.3274V57.0488H43.9127V58.2195H44.4981V64.6585H43.9127V65.8293H43.3274V66.4146H42.1566ZM38.6444 64.0732V64.6585H40.9859V64.0732H41.5713V58.8049H40.9859V58.2195H38.6444V58.8049H38.0591V64.0732H38.6444ZM49.7767 58.2195V58.8049H49.1913V67H46.2645V55.878H49.1913V56.4634H49.7767V55.878H52.7035V56.4634H53.2889V57.0488H53.8742V56.4634H54.4596V55.878H57.3864V56.4634H58.5572V57.0488H59.1425V58.2195H59.7279V67H56.8011V58.8049H56.2157V58.2195H55.045V58.8049H54.4596V67H51.5328V58.8049H50.9474V58.2195H49.7767ZM61.4754 55.878H64.4022V56.4634H64.9876V55.878H68.4998V56.4634H69.6705V57.0488H70.2559V58.2195H70.8413V64.6585H70.2559V65.8293H69.6705V66.4146H68.4998V67H64.4022V70.5122H61.4754V55.878ZM67.3291 64.0732H67.9144V58.8049H67.3291V58.2195H64.9876V58.8049H64.4022V64.6585H67.3291V64.0732ZM76.1204 58.2195V58.8049H75.5351V67H72.6082V55.878H75.5351V56.4634H76.1204V55.878H79.6326V56.4634H80.218V57.0488H80.8034V57.6341H80.218V58.2195H79.6326V58.8049H79.0473V59.3902H78.4619V58.8049H77.8765V58.2195H76.1204ZM88.4223 66.4146V67H83.7393V66.4146H82.5686V65.8293H81.9832V64.6585H81.3979V58.2195H81.9832V57.0488H82.5686V56.4634H83.7393V55.878H88.4223V56.4634H89.593V57.0488H90.1784V58.2195H90.7637V64.6585H90.1784V65.8293H89.593V66.4146H88.4223ZM84.9101 64.0732V64.6585H87.2515V64.0732H87.8369V58.8049H87.2515V58.2195H84.9101V58.8049H84.3247V64.0732H84.9101ZM96.0423 58.2195V58.8049H95.4569V67H92.5301V55.878H95.4569V56.4634H96.0423V55.878H98.9691V56.4634H99.5545V57.0488H100.14V56.4634H100.725V55.878H103.652V56.4634H104.823V57.0488H105.408V58.2195H105.994V67H103.067V58.8049H102.481V58.2195H101.311V58.8049H100.725V67H97.7984V58.8049H97.213V58.2195H96.0423ZM110.668 52.3659V54.7073H107.741V52.3659H110.668ZM110.668 56.4634V67H107.741V56.4634H110.668ZM115.356 63.4878V64.0732H115.941V64.6585H118.283V64.0732H118.868V62.9024H118.283V62.3171H114.771V61.7317H113.6V61.1463H113.014V59.9756H112.429V58.2195H113.014V57.0488H113.6V56.4634H114.771V55.878H119.454V56.4634H120.624V57.0488H121.21V58.8049H118.283V58.2195H115.941V58.8049H115.356V59.3902H115.941V59.9756H119.454V60.561H120.624V61.1463H121.21V62.3171H121.795V64.6585H121.21V65.8293H120.624V66.4146H119.454V67H114.771V66.4146H113.6V65.8293H113.014V64.6585H112.429V63.4878H115.356ZM126.488 64.0732V64.6585H128.83V64.0732H129.415V63.4878H132.342V64.6585H131.756V65.8293H131.171V66.4146H130V67H125.317V66.4146H124.147V65.8293H123.561V64.6585H122.976V58.2195H123.561V57.0488H124.147V56.4634H125.317V55.878H130V56.4634H131.171V57.0488H131.756V58.2195H132.342V62.3171H125.903V64.0732H126.488ZM125.903 58.8049V60.561H129.415V58.8049H128.83V58.2195H126.488V58.8049H125.903Z" fill="#0B2818"/>
<path d="M24.602 100.314L30.23 92.054H31.448L25.82 100.314H24.602ZM24.602 101V100.314L25.484 100.062H31.336V101H24.602ZM24.868 92.306V91.368H31.448V92.054L30.552 92.306H24.868ZM33.0741 101V94.42H34.0681V101H33.0741ZM33.5641 92.992C33.3774 92.992 33.2187 92.9267 33.0881 92.796C32.9574 92.656 32.8921 92.4927 32.8921 92.306C32.8921 92.11 32.9574 91.9467 33.0881 91.816C33.2187 91.6853 33.3774 91.62 33.5641 91.62C33.7694 91.62 33.9327 91.6853 34.0541 91.816C34.1847 91.9467 34.2501 92.11 34.2501 92.306C34.2501 92.4927 34.1847 92.656 34.0541 92.796C33.9327 92.9267 33.7694 92.992 33.5641 92.992ZM40.8425 101V97.136C40.8425 96.5573 40.6699 96.0907 40.3245 95.736C39.9885 95.372 39.5405 95.19 38.9805 95.19C38.5979 95.19 38.2619 95.274 37.9725 95.442C37.6832 95.61 37.4545 95.8387 37.2865 96.128C37.1185 96.4173 37.0345 96.7487 37.0345 97.122L36.5865 96.87C36.5865 96.3753 36.7032 95.932 36.9365 95.54C37.1699 95.148 37.4825 94.84 37.8745 94.616C38.2759 94.392 38.7332 94.28 39.2465 94.28C39.7505 94.28 40.1985 94.4013 40.5905 94.644C40.9825 94.8867 41.2859 95.2133 41.5005 95.624C41.7245 96.0347 41.8365 96.4827 41.8365 96.968V101H40.8425ZM36.0545 101V94.42H37.0345V101H36.0545ZM46.3858 103.912C45.7231 103.912 45.1304 103.786 44.6078 103.534C44.0944 103.291 43.6791 102.946 43.3618 102.498L44.0058 101.854C44.2671 102.209 44.5984 102.484 44.9998 102.68C45.4011 102.876 45.8724 102.974 46.4138 102.974C47.1604 102.974 47.7531 102.773 48.1918 102.372C48.6398 101.971 48.8638 101.425 48.8638 100.734V99.096L49.0598 97.598L48.8638 96.114V94.42H49.8438V100.734C49.8438 101.369 49.6991 101.924 49.4098 102.4C49.1204 102.876 48.7144 103.245 48.1918 103.506C47.6784 103.777 47.0764 103.912 46.3858 103.912ZM46.4558 100.93C45.8491 100.93 45.3031 100.785 44.8178 100.496C44.3324 100.207 43.9498 99.81 43.6698 99.306C43.3898 98.802 43.2498 98.2327 43.2498 97.598C43.2498 96.9633 43.3851 96.3987 43.6558 95.904C43.9358 95.4 44.3184 95.0033 44.8038 94.714C45.2891 94.4247 45.8351 94.28 46.4418 94.28C46.9551 94.28 47.4124 94.378 47.8138 94.574C48.2244 94.77 48.5511 95.05 48.7938 95.414C49.0458 95.7687 49.1998 96.1887 49.2558 96.674V98.536C49.1998 99.012 49.0458 99.432 48.7938 99.796C48.5418 100.151 48.2151 100.431 47.8138 100.636C47.4124 100.832 46.9598 100.93 46.4558 100.93ZM46.6378 99.992C47.0951 99.992 47.4918 99.894 47.8278 99.698C48.1731 99.502 48.4391 99.2267 48.6258 98.872C48.8218 98.508 48.9198 98.0833 48.9198 97.598C48.9198 97.122 48.8218 96.7067 48.6258 96.352C48.4391 95.9973 48.1731 95.7173 47.8278 95.512C47.4824 95.3067 47.0811 95.204 46.6238 95.204C46.1664 95.204 45.7558 95.3067 45.3918 95.512C45.0371 95.7173 44.7571 95.9973 44.5518 96.352C44.3558 96.7067 44.2578 97.122 44.2578 97.598C44.2578 98.0647 44.3604 98.48 44.5658 98.844C44.7711 99.208 45.0511 99.4927 45.4058 99.698C45.7604 99.894 46.1711 99.992 46.6378 99.992ZM55.2202 101.14C54.7162 101.14 54.2636 101.037 53.8622 100.832C53.4609 100.627 53.1296 100.347 52.8682 99.992C52.6162 99.628 52.4622 99.208 52.4062 98.732V96.674C52.4622 96.1887 52.6209 95.7687 52.8822 95.414C53.1436 95.05 53.4749 94.77 53.8762 94.574C54.2869 94.378 54.7349 94.28 55.2202 94.28C55.8269 94.28 56.3729 94.434 56.8582 94.742C57.3436 95.0407 57.7262 95.4513 58.0062 95.974C58.2956 96.4873 58.4402 97.0707 58.4402 97.724C58.4402 98.368 58.3002 98.9467 58.0202 99.46C57.7402 99.9733 57.3529 100.384 56.8582 100.692C56.3729 100.991 55.8269 101.14 55.2202 101.14ZM51.8182 103.772V94.42H52.7982V96.1L52.6022 97.696L52.7982 99.306V103.772H51.8182ZM55.0522 100.202C55.5189 100.202 55.9296 100.099 56.2842 99.894C56.6389 99.6793 56.9142 99.3853 57.1102 99.012C57.3156 98.6293 57.4182 98.1953 57.4182 97.71C57.4182 97.2153 57.3156 96.7813 57.1102 96.408C56.9142 96.0347 56.6389 95.7407 56.2842 95.526C55.9296 95.3113 55.5236 95.204 55.0662 95.204C54.6089 95.204 54.2029 95.3113 53.8482 95.526C53.5029 95.7407 53.2322 96.0347 53.0362 96.408C52.8402 96.7813 52.7422 97.2153 52.7422 97.71C52.7422 98.1953 52.8402 98.6293 53.0362 99.012C53.2322 99.3853 53.5029 99.6793 53.8482 99.894C54.1936 100.099 54.5949 100.202 55.0522 100.202ZM62.8637 101.14C62.2383 101.14 61.6783 100.991 61.1837 100.692C60.689 100.384 60.297 99.9733 60.0077 99.46C59.7277 98.9467 59.5877 98.368 59.5877 97.724C59.5877 97.0707 59.7277 96.4873 60.0077 95.974C60.297 95.4513 60.689 95.0407 61.1837 94.742C61.6783 94.434 62.2337 94.28 62.8497 94.28C63.3537 94.28 63.8017 94.3827 64.1937 94.588C64.595 94.784 64.917 95.064 65.1597 95.428C65.4117 95.7827 65.5657 96.198 65.6217 96.674V98.732C65.5657 99.208 65.4117 99.628 65.1597 99.992C64.917 100.356 64.595 100.641 64.1937 100.846C63.8017 101.042 63.3583 101.14 62.8637 101.14ZM63.0177 100.202C63.699 100.202 64.245 99.9733 64.6557 99.516C65.0757 99.0587 65.2857 98.4567 65.2857 97.71C65.2857 97.2153 65.1877 96.7813 64.9917 96.408C64.805 96.0253 64.539 95.7313 64.1937 95.526C63.8577 95.3113 63.461 95.204 63.0037 95.204C62.537 95.204 62.1217 95.3113 61.7577 95.526C61.403 95.7407 61.1183 96.0393 60.9037 96.422C60.6983 96.7953 60.5957 97.2247 60.5957 97.71C60.5957 98.1953 60.6983 98.6247 60.9037 98.998C61.1183 99.3713 61.4077 99.6653 61.7717 99.88C62.1357 100.095 62.551 100.202 63.0177 100.202ZM65.2297 101V99.236L65.4257 97.612L65.2297 96.03V94.42H66.2097V101H65.2297ZM70.3951 101.028L67.5111 94.42H68.5891L70.9131 99.936H70.5071L72.9571 94.42H74.0491L70.9551 101.028H70.3951ZM68.6031 103.772L70.4091 100.034L70.9551 101.028L69.6811 103.772H68.6031ZM83.632 101V94.42H84.626V101H83.632ZM84.122 92.992C83.9354 92.992 83.7767 92.9267 83.646 92.796C83.5154 92.656 83.45 92.4927 83.45 92.306C83.45 92.11 83.5154 91.9467 83.646 91.816C83.7767 91.6853 83.9354 91.62 84.122 91.62C84.3274 91.62 84.4907 91.6853 84.612 91.816C84.7427 91.9467 84.808 92.11 84.808 92.306C84.808 92.4927 84.7427 92.656 84.612 92.796C84.4907 92.9267 84.3274 92.992 84.122 92.992ZM88.6285 101.14C88.2738 101.14 87.9332 101.093 87.6065 101C87.2798 100.897 86.9812 100.757 86.7105 100.58C86.4492 100.403 86.2205 100.193 86.0245 99.95L86.6545 99.306C86.9158 99.6233 87.2098 99.8613 87.5365 100.02C87.8725 100.169 88.2458 100.244 88.6565 100.244C89.0952 100.244 89.4358 100.16 89.6785 99.992C89.9305 99.824 90.0565 99.5907 90.0565 99.292C90.0565 99.012 89.9678 98.7927 89.7905 98.634C89.6132 98.4753 89.3845 98.3493 89.1045 98.256C88.8338 98.1627 88.5445 98.074 88.2365 97.99C87.9285 97.8967 87.6345 97.7847 87.3545 97.654C87.0745 97.514 86.8458 97.3227 86.6685 97.08C86.5005 96.8373 86.4165 96.52 86.4165 96.128C86.4165 95.7547 86.5052 95.4327 86.6825 95.162C86.8692 94.882 87.1305 94.6673 87.4665 94.518C87.8118 94.3593 88.2178 94.28 88.6845 94.28C89.1792 94.28 89.6272 94.3687 90.0285 94.546C90.4298 94.7233 90.7518 94.9847 90.9945 95.33L90.3645 95.96C90.1685 95.708 89.9212 95.5167 89.6225 95.386C89.3332 95.246 89.0065 95.176 88.6425 95.176C88.2225 95.176 87.9005 95.26 87.6765 95.428C87.4618 95.5867 87.3545 95.7967 87.3545 96.058C87.3545 96.31 87.4432 96.5107 87.6205 96.66C87.7978 96.8 88.0218 96.9167 88.2925 97.01C88.5725 97.094 88.8665 97.1827 89.1745 97.276C89.4825 97.36 89.7765 97.4767 90.0565 97.626C90.3365 97.766 90.5605 97.962 90.7285 98.214C90.9058 98.4567 90.9945 98.788 90.9945 99.208C90.9945 99.796 90.7798 100.267 90.3505 100.622C89.9305 100.967 89.3565 101.14 88.6285 101.14ZM103.644 101.14C103.038 101.14 102.492 100.991 102.006 100.692C101.521 100.393 101.134 99.9873 100.844 99.474C100.564 98.9513 100.424 98.368 100.424 97.724C100.424 97.0707 100.564 96.4873 100.844 95.974C101.134 95.4513 101.521 95.0407 102.006 94.742C102.492 94.434 103.038 94.28 103.644 94.28C104.139 94.28 104.587 94.378 104.988 94.574C105.39 94.77 105.721 95.05 105.982 95.414C106.253 95.7687 106.412 96.1887 106.458 96.674V98.732C106.402 99.208 106.244 99.628 105.982 99.992C105.73 100.347 105.404 100.627 105.002 100.832C104.601 101.037 104.148 101.14 103.644 101.14ZM103.812 100.202C104.27 100.202 104.671 100.099 105.016 99.894C105.362 99.6793 105.632 99.3853 105.828 99.012C106.024 98.6293 106.122 98.1953 106.122 97.71C106.122 97.2153 106.02 96.7813 105.814 96.408C105.618 96.0347 105.348 95.7407 105.002 95.526C104.657 95.3113 104.256 95.204 103.798 95.204C103.341 95.204 102.935 95.3113 102.58 95.526C102.226 95.7407 101.946 96.0393 101.74 96.422C101.544 96.7953 101.446 97.2247 101.446 97.71C101.446 98.1953 101.544 98.6293 101.74 99.012C101.946 99.3853 102.226 99.6793 102.58 99.894C102.944 100.099 103.355 100.202 103.812 100.202ZM107.046 101H106.066V99.236L106.262 97.612L106.066 96.03V91.088H107.046V101ZM112.072 101.14C111.409 101.14 110.816 100.991 110.294 100.692C109.771 100.393 109.356 99.9827 109.048 99.46C108.749 98.9373 108.6 98.3493 108.6 97.696C108.6 97.052 108.749 96.4733 109.048 95.96C109.346 95.4373 109.752 95.0267 110.266 94.728C110.779 94.4293 111.353 94.28 111.988 94.28C112.585 94.28 113.112 94.4153 113.57 94.686C114.036 94.9567 114.4 95.3347 114.662 95.82C114.932 96.296 115.068 96.8467 115.068 97.472C115.068 97.5467 115.063 97.6353 115.054 97.738C115.044 97.8313 115.026 97.9433 114.998 98.074H109.3V97.234H114.466L114.116 97.542C114.125 97.0567 114.041 96.6413 113.864 96.296C113.696 95.9413 113.448 95.6707 113.122 95.484C112.804 95.288 112.417 95.19 111.96 95.19C111.484 95.19 111.068 95.2927 110.714 95.498C110.359 95.7033 110.079 95.9927 109.874 96.366C109.678 96.73 109.58 97.164 109.58 97.668C109.58 98.172 109.682 98.6153 109.888 98.998C110.102 99.3807 110.396 99.6793 110.77 99.894C111.152 100.109 111.591 100.216 112.086 100.216C112.487 100.216 112.856 100.146 113.192 100.006C113.528 99.8567 113.812 99.6373 114.046 99.348L114.676 99.992C114.368 100.356 113.985 100.641 113.528 100.846C113.08 101.042 112.594 101.14 112.072 101.14ZM118.583 101.14C118.228 101.14 117.888 101.093 117.561 101C117.234 100.897 116.936 100.757 116.665 100.58C116.404 100.403 116.175 100.193 115.979 99.95L116.609 99.306C116.87 99.6233 117.164 99.8613 117.491 100.02C117.827 100.169 118.2 100.244 118.611 100.244C119.05 100.244 119.39 100.16 119.633 99.992C119.885 99.824 120.011 99.5907 120.011 99.292C120.011 99.012 119.922 98.7927 119.745 98.634C119.568 98.4753 119.339 98.3493 119.059 98.256C118.788 98.1627 118.499 98.074 118.191 97.99C117.883 97.8967 117.589 97.7847 117.309 97.654C117.029 97.514 116.8 97.3227 116.623 97.08C116.455 96.8373 116.371 96.52 116.371 96.128C116.371 95.7547 116.46 95.4327 116.637 95.162C116.824 94.882 117.085 94.6673 117.421 94.518C117.766 94.3593 118.172 94.28 118.639 94.28C119.134 94.28 119.582 94.3687 119.983 94.546C120.384 94.7233 120.706 94.9847 120.949 95.33L120.319 95.96C120.123 95.708 119.876 95.5167 119.577 95.386C119.288 95.246 118.961 95.176 118.597 95.176C118.177 95.176 117.855 95.26 117.631 95.428C117.416 95.5867 117.309 95.7967 117.309 96.058C117.309 96.31 117.398 96.5107 117.575 96.66C117.752 96.8 117.976 96.9167 118.247 97.01C118.527 97.094 118.821 97.1827 119.129 97.276C119.437 97.36 119.731 97.4767 120.011 97.626C120.291 97.766 120.515 97.962 120.683 98.214C120.86 98.4567 120.949 98.788 120.949 99.208C120.949 99.796 120.734 100.267 120.305 100.622C119.885 100.967 119.311 101.14 118.583 101.14ZM122.501 101V94.42H123.495V101H122.501ZM122.991 92.992C122.804 92.992 122.645 92.9267 122.515 92.796C122.384 92.656 122.319 92.4927 122.319 92.306C122.319 92.11 122.384 91.9467 122.515 91.816C122.645 91.6853 122.804 91.62 122.991 91.62C123.196 91.62 123.359 91.6853 123.481 91.816C123.611 91.9467 123.677 92.11 123.677 92.306C123.677 92.4927 123.611 92.656 123.481 92.796C123.359 92.9267 123.196 92.992 122.991 92.992ZM128.197 103.912C127.534 103.912 126.942 103.786 126.419 103.534C125.906 103.291 125.49 102.946 125.173 102.498L125.817 101.854C126.078 102.209 126.41 102.484 126.811 102.68C127.212 102.876 127.684 102.974 128.225 102.974C128.972 102.974 129.564 102.773 130.003 102.372C130.451 101.971 130.675 101.425 130.675 100.734V99.096L130.871 97.598L130.675 96.114V94.42H131.655V100.734C131.655 101.369 131.51 101.924 131.221 102.4C130.932 102.876 130.526 103.245 130.003 103.506C129.49 103.777 128.888 103.912 128.197 103.912ZM128.267 100.93C127.66 100.93 127.114 100.785 126.629 100.496C126.144 100.207 125.761 99.81 125.481 99.306C125.201 98.802 125.061 98.2327 125.061 97.598C125.061 96.9633 125.196 96.3987 125.467 95.904C125.747 95.4 126.13 95.0033 126.615 94.714C127.1 94.4247 127.646 94.28 128.253 94.28C128.766 94.28 129.224 94.378 129.625 94.574C130.036 94.77 130.362 95.05 130.605 95.414C130.857 95.7687 131.011 96.1887 131.067 96.674V98.536C131.011 99.012 130.857 99.432 130.605 99.796C130.353 100.151 130.026 100.431 129.625 100.636C129.224 100.832 128.771 100.93 128.267 100.93ZM128.449 99.992C128.906 99.992 129.303 99.894 129.639 99.698C129.984 99.502 130.25 99.2267 130.437 98.872C130.633 98.508 130.731 98.0833 130.731 97.598C130.731 97.122 130.633 96.7067 130.437 96.352C130.25 95.9973 129.984 95.7173 129.639 95.512C129.294 95.3067 128.892 95.204 128.435 95.204C127.978 95.204 127.567 95.3067 127.203 95.512C126.848 95.7173 126.568 95.9973 126.363 96.352C126.167 96.7067 126.069 97.122 126.069 97.598C126.069 98.0647 126.172 98.48 126.377 98.844C126.582 99.208 126.862 99.4927 127.217 99.698C127.572 99.894 127.982 99.992 128.449 99.992ZM138.417 101V97.136C138.417 96.5573 138.245 96.0907 137.899 95.736C137.563 95.372 137.115 95.19 136.555 95.19C136.173 95.19 135.837 95.274 135.547 95.442C135.258 95.61 135.029 95.8387 134.861 96.128C134.693 96.4173 134.609 96.7487 134.609 97.122L134.161 96.87C134.161 96.3753 134.278 95.932 134.511 95.54C134.745 95.148 135.057 94.84 135.449 94.616C135.851 94.392 136.308 94.28 136.821 94.28C137.325 94.28 137.773 94.4013 138.165 94.644C138.557 94.8867 138.861 95.2133 139.075 95.624C139.299 96.0347 139.411 96.4827 139.411 96.968V101H138.417ZM133.629 101V94.42H134.609V101H133.629ZM144.283 101.14C143.62 101.14 143.027 100.991 142.505 100.692C141.982 100.393 141.567 99.9827 141.259 99.46C140.96 98.9373 140.811 98.3493 140.811 97.696C140.811 97.052 140.96 96.4733 141.259 95.96C141.557 95.4373 141.963 95.0267 142.477 94.728C142.99 94.4293 143.564 94.28 144.199 94.28C144.796 94.28 145.323 94.4153 145.781 94.686C146.247 94.9567 146.611 95.3347 146.873 95.82C147.143 96.296 147.279 96.8467 147.279 97.472C147.279 97.5467 147.274 97.6353 147.265 97.738C147.255 97.8313 147.237 97.9433 147.209 98.074H141.511V97.234H146.677L146.327 97.542C146.336 97.0567 146.252 96.6413 146.075 96.296C145.907 95.9413 145.659 95.6707 145.333 95.484C145.015 95.288 144.628 95.19 144.171 95.19C143.695 95.19 143.279 95.2927 142.925 95.498C142.57 95.7033 142.29 95.9927 142.085 96.366C141.889 96.73 141.791 97.164 141.791 97.668C141.791 98.172 141.893 98.6153 142.099 98.998C142.313 99.3807 142.607 99.6793 142.981 99.894C143.363 100.109 143.802 100.216 144.297 100.216C144.698 100.216 145.067 100.146 145.403 100.006C145.739 99.8567 146.023 99.6373 146.257 99.348L146.887 99.992C146.579 100.356 146.196 100.641 145.739 100.846C145.291 101.042 144.805 101.14 144.283 101.14ZM151.578 101.14C150.971 101.14 150.425 100.991 149.94 100.692C149.455 100.393 149.067 99.9873 148.778 99.474C148.498 98.9513 148.358 98.368 148.358 97.724C148.358 97.0707 148.498 96.4873 148.778 95.974C149.067 95.4513 149.455 95.0407 149.94 94.742C150.425 94.434 150.971 94.28 151.578 94.28C152.073 94.28 152.521 94.378 152.922 94.574C153.323 94.77 153.655 95.05 153.916 95.414C154.187 95.7687 154.345 96.1887 154.392 96.674V98.732C154.336 99.208 154.177 99.628 153.916 99.992C153.664 100.347 153.337 100.627 152.936 100.832C152.535 101.037 152.082 101.14 151.578 101.14ZM151.746 100.202C152.203 100.202 152.605 100.099 152.95 99.894C153.295 99.6793 153.566 99.3853 153.762 99.012C153.958 98.6293 154.056 98.1953 154.056 97.71C154.056 97.2153 153.953 96.7813 153.748 96.408C153.552 96.0347 153.281 95.7407 152.936 95.526C152.591 95.3113 152.189 95.204 151.732 95.204C151.275 95.204 150.869 95.3113 150.514 95.526C150.159 95.7407 149.879 96.0393 149.674 96.422C149.478 96.7953 149.38 97.2247 149.38 97.71C149.38 98.1953 149.478 98.6293 149.674 99.012C149.879 99.3853 150.159 99.6793 150.514 99.894C150.878 100.099 151.289 100.202 151.746 100.202ZM154.98 101H154V99.236L154.196 97.612L154 96.03V91.088H154.98V101ZM166.287 101V91.648H167.267V101H166.287ZM164.621 95.302V94.42H168.919V95.302H164.621ZM173.019 101.14C172.384 101.14 171.806 100.986 171.283 100.678C170.77 100.37 170.359 99.9547 170.051 99.432C169.752 98.9093 169.603 98.326 169.603 97.682C169.603 97.0473 169.752 96.4733 170.051 95.96C170.359 95.4467 170.77 95.0407 171.283 94.742C171.806 94.434 172.384 94.28 173.019 94.28C173.663 94.28 174.242 94.4293 174.755 94.728C175.268 95.0267 175.674 95.4373 175.973 95.96C176.281 96.4733 176.435 97.0473 176.435 97.682C176.435 98.3353 176.281 98.9233 175.973 99.446C175.674 99.9593 175.268 100.37 174.755 100.678C174.242 100.986 173.663 101.14 173.019 101.14ZM173.019 100.188C173.486 100.188 173.896 100.081 174.251 99.866C174.615 99.6513 174.9 99.3527 175.105 98.97C175.32 98.5873 175.427 98.158 175.427 97.682C175.427 97.206 175.32 96.786 175.105 96.422C174.9 96.0487 174.615 95.7547 174.251 95.54C173.896 95.3253 173.486 95.218 173.019 95.218C172.562 95.218 172.151 95.3253 171.787 95.54C171.423 95.7547 171.138 96.0487 170.933 96.422C170.728 96.786 170.625 97.206 170.625 97.682C170.625 98.1673 170.728 98.6013 170.933 98.984C171.138 99.3573 171.423 99.6513 171.787 99.866C172.151 100.081 172.562 100.188 173.019 100.188ZM24.994 116V109.42H25.974V116H24.994ZM25.974 112.164L25.568 111.982C25.568 111.151 25.7687 110.493 26.17 110.008C26.5807 109.523 27.1407 109.28 27.85 109.28C28.1767 109.28 28.4753 109.341 28.746 109.462C29.0167 109.574 29.2687 109.756 29.502 110.008L28.858 110.694C28.6993 110.517 28.522 110.391 28.326 110.316C28.1393 110.241 27.9247 110.204 27.682 110.204C27.178 110.204 26.7673 110.372 26.45 110.708C26.1327 111.035 25.974 111.52 25.974 112.164ZM33.3504 116.14C32.6877 116.14 32.095 115.991 31.5724 115.692C31.0497 115.393 30.6344 114.983 30.3264 114.46C30.0277 113.937 29.8784 113.349 29.8784 112.696C29.8784 112.052 30.0277 111.473 30.3264 110.96C30.625 110.437 31.031 110.027 31.5444 109.728C32.0577 109.429 32.6317 109.28 33.2664 109.28C33.8637 109.28 34.391 109.415 34.8484 109.686C35.315 109.957 35.679 110.335 35.9404 110.82C36.211 111.296 36.3464 111.847 36.3464 112.472C36.3464 112.547 36.3417 112.635 36.3324 112.738C36.323 112.831 36.3044 112.943 36.2764 113.074H30.5784V112.234H35.7444L35.3944 112.542C35.4037 112.057 35.3197 111.641 35.1424 111.296C34.9744 110.941 34.727 110.671 34.4004 110.484C34.083 110.288 33.6957 110.19 33.2384 110.19C32.7624 110.19 32.347 110.293 31.9924 110.498C31.6377 110.703 31.3577 110.993 31.1524 111.366C30.9564 111.73 30.8584 112.164 30.8584 112.668C30.8584 113.172 30.961 113.615 31.1664 113.998C31.381 114.381 31.675 114.679 32.0484 114.894C32.431 115.109 32.8697 115.216 33.3644 115.216C33.7657 115.216 34.1344 115.146 34.4704 115.006C34.8064 114.857 35.091 114.637 35.3244 114.348L35.9544 114.992C35.6464 115.356 35.2637 115.641 34.8064 115.846C34.3584 116.042 33.873 116.14 33.3504 116.14ZM37.8456 116V109.42H38.8256V116H37.8456ZM42.3676 116V111.968C42.3676 111.427 42.2042 110.997 41.8776 110.68C41.5509 110.353 41.1402 110.19 40.6456 110.19C40.3096 110.19 40.0016 110.265 39.7216 110.414C39.4509 110.554 39.2316 110.755 39.0636 111.016C38.9049 111.277 38.8256 111.59 38.8256 111.954L38.3776 111.772C38.3776 111.268 38.4896 110.829 38.7136 110.456C38.9376 110.083 39.2362 109.793 39.6096 109.588C39.9922 109.383 40.4216 109.28 40.8976 109.28C41.3642 109.28 41.7796 109.383 42.1436 109.588C42.5169 109.793 42.8109 110.083 43.0256 110.456C43.2496 110.829 43.3616 111.273 43.3616 111.786V116H42.3676ZM46.9036 116V111.968C46.9036 111.427 46.7402 110.997 46.4136 110.68C46.0869 110.353 45.6716 110.19 45.1676 110.19C44.8409 110.19 44.5376 110.265 44.2576 110.414C43.9869 110.554 43.7676 110.755 43.5996 111.016C43.4409 111.277 43.3616 111.59 43.3616 111.954L42.7736 111.772C42.8016 111.268 42.9322 110.829 43.1656 110.456C43.4082 110.083 43.7209 109.793 44.1036 109.588C44.4956 109.383 44.9249 109.28 45.3916 109.28C45.8582 109.28 46.2782 109.383 46.6516 109.588C47.0342 109.793 47.3329 110.083 47.5476 110.456C47.7716 110.829 47.8836 111.273 47.8836 111.786V116H46.9036ZM52.7084 116.14C52.0738 116.14 51.4951 115.986 50.9724 115.678C50.4591 115.37 50.0484 114.955 49.7404 114.432C49.4418 113.909 49.2924 113.326 49.2924 112.682C49.2924 112.047 49.4418 111.473 49.7404 110.96C50.0484 110.447 50.4591 110.041 50.9724 109.742C51.4951 109.434 52.0738 109.28 52.7084 109.28C53.3524 109.28 53.9311 109.429 54.4444 109.728C54.9578 110.027 55.3638 110.437 55.6624 110.96C55.9704 111.473 56.1244 112.047 56.1244 112.682C56.1244 113.335 55.9704 113.923 55.6624 114.446C55.3638 114.959 54.9578 115.37 54.4444 115.678C53.9311 115.986 53.3524 116.14 52.7084 116.14ZM52.7084 115.188C53.1751 115.188 53.5858 115.081 53.9404 114.866C54.3044 114.651 54.5891 114.353 54.7944 113.97C55.0091 113.587 55.1164 113.158 55.1164 112.682C55.1164 112.206 55.0091 111.786 54.7944 111.422C54.5891 111.049 54.3044 110.755 53.9404 110.54C53.5858 110.325 53.1751 110.218 52.7084 110.218C52.2511 110.218 51.8404 110.325 51.4764 110.54C51.1124 110.755 50.8278 111.049 50.6224 111.422C50.4171 111.786 50.3144 112.206 50.3144 112.682C50.3144 113.167 50.4171 113.601 50.6224 113.984C50.8278 114.357 51.1124 114.651 51.4764 114.866C51.8404 115.081 52.2511 115.188 52.7084 115.188ZM59.6923 116L56.6543 109.42H57.7463L60.3083 115.174H59.6923L62.2683 109.42H63.3323L60.2663 116H59.6923ZM67.3113 116.14C66.6486 116.14 66.056 115.991 65.5333 115.692C65.0106 115.393 64.5953 114.983 64.2873 114.46C63.9886 113.937 63.8393 113.349 63.8393 112.696C63.8393 112.052 63.9886 111.473 64.2873 110.96C64.586 110.437 64.992 110.027 65.5053 109.728C66.0186 109.429 66.5926 109.28 67.2273 109.28C67.8246 109.28 68.352 109.415 68.8093 109.686C69.276 109.957 69.64 110.335 69.9013 110.82C70.172 111.296 70.3073 111.847 70.3073 112.472C70.3073 112.547 70.3026 112.635 70.2933 112.738C70.284 112.831 70.2653 112.943 70.2373 113.074H64.5393V112.234H69.7053L69.3553 112.542C69.3646 112.057 69.2806 111.641 69.1033 111.296C68.9353 110.941 68.688 110.671 68.3613 110.484C68.044 110.288 67.6566 110.19 67.1993 110.19C66.7233 110.19 66.308 110.293 65.9533 110.498C65.5986 110.703 65.3186 110.993 65.1133 111.366C64.9173 111.73 64.8193 112.164 64.8193 112.668C64.8193 113.172 64.922 113.615 65.1273 113.998C65.342 114.381 65.636 114.679 66.0093 114.894C66.392 115.109 66.8306 115.216 67.3253 115.216C67.7266 115.216 68.0953 115.146 68.4313 115.006C68.7673 114.857 69.052 114.637 69.2853 114.348L69.9153 114.992C69.6073 115.356 69.2246 115.641 68.7673 115.846C68.3193 116.042 67.834 116.14 67.3113 116.14ZM80.7217 116V108.3C80.7217 107.843 80.8197 107.437 81.0157 107.082C81.2211 106.727 81.5011 106.452 81.8557 106.256C82.2197 106.051 82.6304 105.948 83.0877 105.948C83.4424 105.948 83.7551 106.013 84.0257 106.144C84.2964 106.265 84.5437 106.438 84.7677 106.662L84.1237 107.306C83.9744 107.157 83.8157 107.049 83.6477 106.984C83.4891 106.909 83.3024 106.872 83.0877 106.872C82.6491 106.872 82.3084 107.003 82.0657 107.264C81.8324 107.516 81.7157 107.871 81.7157 108.328V116H80.7217ZM79.0697 110.302V109.42H83.9137V110.302H79.0697ZM85.0331 116V109.42H86.0131V116H85.0331ZM86.0131 112.164L85.6071 111.982C85.6071 111.151 85.8077 110.493 86.2091 110.008C86.6197 109.523 87.1797 109.28 87.8891 109.28C88.2157 109.28 88.5144 109.341 88.7851 109.462C89.0557 109.574 89.3077 109.756 89.5411 110.008L88.8971 110.694C88.7384 110.517 88.5611 110.391 88.3651 110.316C88.1784 110.241 87.9637 110.204 87.7211 110.204C87.2171 110.204 86.8064 110.372 86.4891 110.708C86.1717 111.035 86.0131 111.52 86.0131 112.164ZM90.5838 116V109.42H91.5778V116H90.5838ZM91.0738 107.992C90.8872 107.992 90.7285 107.927 90.5978 107.796C90.4672 107.656 90.4018 107.493 90.4018 107.306C90.4018 107.11 90.4672 106.947 90.5978 106.816C90.7285 106.685 90.8872 106.62 91.0738 106.62C91.2792 106.62 91.4425 106.685 91.5638 106.816C91.6945 106.947 91.7598 107.11 91.7598 107.306C91.7598 107.493 91.6945 107.656 91.5638 107.796C91.4425 107.927 91.2792 107.992 91.0738 107.992ZM96.5603 116.14C95.9163 116.14 95.333 115.991 94.8103 115.692C94.297 115.384 93.8863 114.969 93.5783 114.446C93.2796 113.923 93.1303 113.34 93.1303 112.696C93.1303 112.052 93.2796 111.473 93.5783 110.96C93.8863 110.437 94.297 110.027 94.8103 109.728C95.333 109.429 95.9163 109.28 96.5603 109.28C97.055 109.28 97.517 109.373 97.9463 109.56C98.3756 109.747 98.7396 110.008 99.0383 110.344L98.3943 111.002C98.1703 110.75 97.8996 110.559 97.5823 110.428C97.265 110.288 96.9243 110.218 96.5603 110.218C96.0936 110.218 95.6783 110.325 95.3143 110.54C94.9503 110.755 94.6656 111.049 94.4603 111.422C94.255 111.786 94.1523 112.211 94.1523 112.696C94.1523 113.172 94.255 113.601 94.4603 113.984C94.6656 114.357 94.9503 114.651 95.3143 114.866C95.6783 115.081 96.0936 115.188 96.5603 115.188C96.9336 115.188 97.279 115.123 97.5963 114.992C97.9136 114.852 98.1843 114.656 98.4083 114.404L99.0663 115.062C98.7583 115.407 98.385 115.673 97.9463 115.86C97.517 116.047 97.055 116.14 96.5603 116.14ZM101.409 116V106.648H102.389V116H101.409ZM99.7426 110.302V109.42H104.041V110.302H99.7426ZM105.39 116V109.42H106.384V116H105.39ZM105.88 107.992C105.694 107.992 105.535 107.927 105.404 107.796C105.274 107.656 105.208 107.493 105.208 107.306C105.208 107.11 105.274 106.947 105.404 106.816C105.535 106.685 105.694 106.62 105.88 106.62C106.086 106.62 106.249 106.685 106.37 106.816C106.501 106.947 106.566 107.11 106.566 107.306C106.566 107.493 106.501 107.656 106.37 107.796C106.249 107.927 106.086 107.992 105.88 107.992ZM111.353 116.14C110.718 116.14 110.14 115.986 109.617 115.678C109.104 115.37 108.693 114.955 108.385 114.432C108.086 113.909 107.937 113.326 107.937 112.682C107.937 112.047 108.086 111.473 108.385 110.96C108.693 110.447 109.104 110.041 109.617 109.742C110.14 109.434 110.718 109.28 111.353 109.28C111.997 109.28 112.576 109.429 113.089 109.728C113.602 110.027 114.008 110.437 114.307 110.96C114.615 111.473 114.769 112.047 114.769 112.682C114.769 113.335 114.615 113.923 114.307 114.446C114.008 114.959 113.602 115.37 113.089 115.678C112.576 115.986 111.997 116.14 111.353 116.14ZM111.353 115.188C111.82 115.188 112.23 115.081 112.585 114.866C112.949 114.651 113.234 114.353 113.439 113.97C113.654 113.587 113.761 113.158 113.761 112.682C113.761 112.206 113.654 111.786 113.439 111.422C113.234 111.049 112.949 110.755 112.585 110.54C112.23 110.325 111.82 110.218 111.353 110.218C110.896 110.218 110.485 110.325 110.121 110.54C109.757 110.755 109.472 111.049 109.267 111.422C109.062 111.786 108.959 112.206 108.959 112.682C108.959 113.167 109.062 113.601 109.267 113.984C109.472 114.357 109.757 114.651 110.121 114.866C110.485 115.081 110.896 115.188 111.353 115.188ZM121.116 116V112.136C121.116 111.557 120.943 111.091 120.598 110.736C120.262 110.372 119.814 110.19 119.254 110.19C118.871 110.19 118.535 110.274 118.246 110.442C117.957 110.61 117.728 110.839 117.56 111.128C117.392 111.417 117.308 111.749 117.308 112.122L116.86 111.87C116.86 111.375 116.977 110.932 117.21 110.54C117.443 110.148 117.756 109.84 118.148 109.616C118.549 109.392 119.007 109.28 119.52 109.28C120.024 109.28 120.472 109.401 120.864 109.644C121.256 109.887 121.559 110.213 121.774 110.624C121.998 111.035 122.11 111.483 122.11 111.968V116H121.116ZM116.328 116V109.42H117.308V116H116.328ZM133.726 116L131.192 109.42H132.214L134.216 114.88L133.852 114.894L135.84 109.42H136.414L138.402 114.894L138.038 114.88L140.026 109.42H141.062L138.514 116H137.94L135.91 110.61H136.33L134.314 116H133.726ZM142.228 116V109.42H143.222V116H142.228ZM142.718 107.992C142.532 107.992 142.373 107.927 142.242 107.796C142.112 107.656 142.046 107.493 142.046 107.306C142.046 107.11 142.112 106.947 142.242 106.816C142.373 106.685 142.532 106.62 142.718 106.62C142.924 106.62 143.087 106.685 143.208 106.816C143.339 106.947 143.404 107.11 143.404 107.306C143.404 107.493 143.339 107.656 143.208 107.796C143.087 107.927 142.924 107.992 142.718 107.992ZM146.231 116V106.648H147.211V116H146.231ZM144.565 110.302V109.42H148.863V110.302H144.565ZM155.001 116V112.136C155.001 111.557 154.828 111.091 154.483 110.736C154.147 110.372 153.699 110.19 153.139 110.19C152.756 110.19 152.42 110.274 152.131 110.442C151.841 110.61 151.613 110.839 151.445 111.128C151.277 111.417 151.193 111.749 151.193 112.122L150.745 111.87C150.745 111.375 150.861 110.932 151.095 110.54C151.328 110.148 151.641 109.84 152.033 109.616C152.434 109.392 152.891 109.28 153.405 109.28C153.909 109.28 154.357 109.397 154.749 109.63C155.141 109.854 155.444 110.167 155.659 110.568C155.883 110.969 155.995 111.436 155.995 111.968V116H155.001ZM150.213 116V106.088H151.193V116H150.213ZM160.81 116.14C160.175 116.14 159.597 115.986 159.074 115.678C158.561 115.37 158.15 114.955 157.842 114.432C157.543 113.909 157.394 113.326 157.394 112.682C157.394 112.047 157.543 111.473 157.842 110.96C158.15 110.447 158.561 110.041 159.074 109.742C159.597 109.434 160.175 109.28 160.81 109.28C161.454 109.28 162.033 109.429 162.546 109.728C163.059 110.027 163.465 110.437 163.764 110.96C164.072 111.473 164.226 112.047 164.226 112.682C164.226 113.335 164.072 113.923 163.764 114.446C163.465 114.959 163.059 115.37 162.546 115.678C162.033 115.986 161.454 116.14 160.81 116.14ZM160.81 115.188C161.277 115.188 161.687 115.081 162.042 114.866C162.406 114.651 162.691 114.353 162.896 113.97C163.111 113.587 163.218 113.158 163.218 112.682C163.218 112.206 163.111 111.786 162.896 111.422C162.691 111.049 162.406 110.755 162.042 110.54C161.687 110.325 161.277 110.218 160.81 110.218C160.353 110.218 159.942 110.325 159.578 110.54C159.214 110.755 158.929 111.049 158.724 111.422C158.519 111.786 158.416 112.206 158.416 112.682C158.416 113.167 158.519 113.601 158.724 113.984C158.929 114.357 159.214 114.651 159.578 114.866C159.942 115.081 160.353 115.188 160.81 115.188ZM168.389 116.14C167.857 116.14 167.381 116.019 166.961 115.776C166.541 115.524 166.21 115.183 165.967 114.754C165.734 114.325 165.617 113.821 165.617 113.242V109.42H166.611V113.2C166.611 113.601 166.681 113.951 166.821 114.25C166.97 114.549 167.18 114.782 167.451 114.95C167.722 115.118 168.034 115.202 168.389 115.202C168.94 115.202 169.374 115.02 169.691 114.656C170.018 114.292 170.181 113.807 170.181 113.2V109.42H171.161V113.242C171.161 113.811 171.044 114.315 170.811 114.754C170.578 115.193 170.251 115.533 169.831 115.776C169.411 116.019 168.93 116.14 168.389 116.14ZM174.012 116V106.648H174.992V116H174.012ZM172.346 110.302V109.42H176.644V110.302H172.346ZM24.994 131V124.42H25.988V131H24.994ZM25.484 122.992C25.2973 122.992 25.1387 122.927 25.008 122.796C24.8773 122.656 24.812 122.493 24.812 122.306C24.812 122.11 24.8773 121.947 25.008 121.816C25.1387 121.685 25.2973 121.62 25.484 121.62C25.6893 121.62 25.8527 121.685 25.974 121.816C26.1047 121.947 26.17 122.11 26.17 122.306C26.17 122.493 26.1047 122.656 25.974 122.796C25.8527 122.927 25.6893 122.992 25.484 122.992ZM32.7625 131V127.136C32.7625 126.557 32.5898 126.091 32.2445 125.736C31.9085 125.372 31.4605 125.19 30.9005 125.19C30.5178 125.19 30.1818 125.274 29.8925 125.442C29.6031 125.61 29.3745 125.839 29.2065 126.128C29.0385 126.417 28.9545 126.749 28.9545 127.122L28.5065 126.87C28.5065 126.375 28.6231 125.932 28.8565 125.54C29.0898 125.148 29.4025 124.84 29.7945 124.616C30.1958 124.392 30.6531 124.28 31.1665 124.28C31.6705 124.28 32.1185 124.401 32.5105 124.644C32.9025 124.887 33.2058 125.213 33.4205 125.624C33.6445 126.035 33.7565 126.483 33.7565 126.968V131H32.7625ZM27.9745 131V124.42H28.9545V131H27.9745ZM36.5297 131V121.648H37.5097V131H36.5297ZM34.8637 125.302V124.42H39.1617V125.302H34.8637ZM40.5116 131V124.42H41.4916V131H40.5116ZM41.4916 127.164L41.0856 126.982C41.0856 126.151 41.2862 125.493 41.6876 125.008C42.0982 124.523 42.6582 124.28 43.3676 124.28C43.6942 124.28 43.9929 124.341 44.2636 124.462C44.5342 124.574 44.7862 124.756 45.0196 125.008L44.3756 125.694C44.2169 125.517 44.0396 125.391 43.8436 125.316C43.6569 125.241 43.4422 125.204 43.1996 125.204C42.6956 125.204 42.2849 125.372 41.9676 125.708C41.6502 126.035 41.4916 126.52 41.4916 127.164ZM48.8119 131.14C48.1773 131.14 47.5986 130.986 47.0759 130.678C46.5626 130.37 46.1519 129.955 45.8439 129.432C45.5453 128.909 45.3959 128.326 45.3959 127.682C45.3959 127.047 45.5453 126.473 45.8439 125.96C46.1519 125.447 46.5626 125.041 47.0759 124.742C47.5986 124.434 48.1773 124.28 48.8119 124.28C49.4559 124.28 50.0346 124.429 50.5479 124.728C51.0613 125.027 51.4673 125.437 51.7659 125.96C52.0739 126.473 52.2279 127.047 52.2279 127.682C52.2279 128.335 52.0739 128.923 51.7659 129.446C51.4673 129.959 51.0613 130.37 50.5479 130.678C50.0346 130.986 49.4559 131.14 48.8119 131.14ZM48.8119 130.188C49.2786 130.188 49.6893 130.081 50.0439 129.866C50.4079 129.651 50.6926 129.353 50.8979 128.97C51.1126 128.587 51.2199 128.158 51.2199 127.682C51.2199 127.206 51.1126 126.786 50.8979 126.422C50.6926 126.049 50.4079 125.755 50.0439 125.54C49.6893 125.325 49.2786 125.218 48.8119 125.218C48.3546 125.218 47.9439 125.325 47.5799 125.54C47.2159 125.755 46.9313 126.049 46.7259 126.422C46.5206 126.786 46.4179 127.206 46.4179 127.682C46.4179 128.167 46.5206 128.601 46.7259 128.984C46.9313 129.357 47.2159 129.651 47.5799 129.866C47.9439 130.081 48.3546 130.188 48.8119 130.188ZM56.587 131.14C55.9803 131.14 55.4343 130.991 54.949 130.692C54.4636 130.393 54.0763 129.987 53.787 129.474C53.507 128.951 53.367 128.368 53.367 127.724C53.367 127.071 53.507 126.487 53.787 125.974C54.0763 125.451 54.4636 125.041 54.949 124.742C55.4343 124.434 55.9803 124.28 56.587 124.28C57.0816 124.28 57.5296 124.378 57.931 124.574C58.3323 124.77 58.6636 125.05 58.925 125.414C59.1956 125.769 59.3543 126.189 59.401 126.674V128.732C59.345 129.208 59.1863 129.628 58.925 129.992C58.673 130.347 58.3463 130.627 57.945 130.832C57.5436 131.037 57.091 131.14 56.587 131.14ZM56.755 130.202C57.2123 130.202 57.6136 130.099 57.959 129.894C58.3043 129.679 58.575 129.385 58.771 129.012C58.967 128.629 59.065 128.195 59.065 127.71C59.065 127.215 58.9623 126.781 58.757 126.408C58.561 126.035 58.2903 125.741 57.945 125.526C57.5996 125.311 57.1983 125.204 56.741 125.204C56.2836 125.204 55.8776 125.311 55.523 125.526C55.1683 125.741 54.8883 126.039 54.683 126.422C54.487 126.795 54.389 127.225 54.389 127.71C54.389 128.195 54.487 128.629 54.683 129.012C54.8883 129.385 55.1683 129.679 55.523 129.894C55.887 130.099 56.2976 130.202 56.755 130.202ZM59.989 131H59.009V129.236L59.205 127.612L59.009 126.03V121.088H59.989V131ZM64.5804 131.14C64.0484 131.14 63.5724 131.019 63.1524 130.776C62.7324 130.524 62.4011 130.183 62.1584 129.754C61.9251 129.325 61.8084 128.821 61.8084 128.242V124.42H62.8024V128.2C62.8024 128.601 62.8724 128.951 63.0124 129.25C63.1618 129.549 63.3718 129.782 63.6424 129.95C63.9131 130.118 64.2258 130.202 64.5804 130.202C65.1311 130.202 65.5651 130.02 65.8824 129.656C66.2091 129.292 66.3724 128.807 66.3724 128.2V124.42H67.3524V128.242C67.3524 128.811 67.2358 129.315 67.0024 129.754C66.7691 130.193 66.4424 130.533 66.0224 130.776C65.6024 131.019 65.1218 131.14 64.5804 131.14ZM72.1775 131.14C71.5335 131.14 70.9502 130.991 70.4275 130.692C69.9142 130.384 69.5035 129.969 69.1955 129.446C68.8968 128.923 68.7475 128.34 68.7475 127.696C68.7475 127.052 68.8968 126.473 69.1955 125.96C69.5035 125.437 69.9142 125.027 70.4275 124.728C70.9502 124.429 71.5335 124.28 72.1775 124.28C72.6722 124.28 73.1342 124.373 73.5635 124.56C73.9928 124.747 74.3568 125.008 74.6555 125.344L74.0115 126.002C73.7875 125.75 73.5168 125.559 73.1995 125.428C72.8822 125.288 72.5415 125.218 72.1775 125.218C71.7108 125.218 71.2955 125.325 70.9315 125.54C70.5675 125.755 70.2828 126.049 70.0775 126.422C69.8722 126.786 69.7695 127.211 69.7695 127.696C69.7695 128.172 69.8722 128.601 70.0775 128.984C70.2828 129.357 70.5675 129.651 70.9315 129.866C71.2955 130.081 71.7108 130.188 72.1775 130.188C72.5508 130.188 72.8962 130.123 73.2135 129.992C73.5308 129.852 73.8015 129.656 74.0255 129.404L74.6835 130.062C74.3755 130.407 74.0022 130.673 73.5635 130.86C73.1342 131.047 72.6722 131.14 72.1775 131.14ZM76.0585 131V124.42H77.0525V131H76.0585ZM76.5485 122.992C76.3618 122.992 76.2031 122.927 76.0725 122.796C75.9418 122.656 75.8765 122.493 75.8765 122.306C75.8765 122.11 75.9418 121.947 76.0725 121.816C76.2031 121.685 76.3618 121.62 76.5485 121.62C76.7538 121.62 76.9171 121.685 77.0385 121.816C77.1691 121.947 77.2345 122.11 77.2345 122.306C77.2345 122.493 77.1691 122.656 77.0385 122.796C76.9171 122.927 76.7538 122.992 76.5485 122.992ZM83.8269 131V127.136C83.8269 126.557 83.6543 126.091 83.3089 125.736C82.9729 125.372 82.5249 125.19 81.9649 125.19C81.5823 125.19 81.2463 125.274 80.9569 125.442C80.6676 125.61 80.4389 125.839 80.2709 126.128C80.1029 126.417 80.0189 126.749 80.0189 127.122L79.5709 126.87C79.5709 126.375 79.6876 125.932 79.9209 125.54C80.1543 125.148 80.4669 124.84 80.8589 124.616C81.2603 124.392 81.7176 124.28 82.2309 124.28C82.7349 124.28 83.1829 124.401 83.5749 124.644C83.9669 124.887 84.2703 125.213 84.4849 125.624C84.7089 126.035 84.8209 126.483 84.8209 126.968V131H83.8269ZM79.0389 131V124.42H80.0189V131H79.0389ZM89.3702 133.912C88.7075 133.912 88.1148 133.786 87.5922 133.534C87.0788 133.291 86.6635 132.946 86.3462 132.498L86.9902 131.854C87.2515 132.209 87.5828 132.484 87.9842 132.68C88.3855 132.876 88.8568 132.974 89.3982 132.974C90.1448 132.974 90.7375 132.773 91.1762 132.372C91.6242 131.971 91.8482 131.425 91.8482 130.734V129.096L92.0442 127.598L91.8482 126.114V124.42H92.8282V130.734C92.8282 131.369 92.6835 131.924 92.3942 132.4C92.1048 132.876 91.6988 133.245 91.1762 133.506C90.6628 133.777 90.0608 133.912 89.3702 133.912ZM89.4402 130.93C88.8335 130.93 88.2875 130.785 87.8022 130.496C87.3168 130.207 86.9342 129.81 86.6542 129.306C86.3742 128.802 86.2342 128.233 86.2342 127.598C86.2342 126.963 86.3695 126.399 86.6402 125.904C86.9202 125.4 87.3028 125.003 87.7882 124.714C88.2735 124.425 88.8195 124.28 89.4262 124.28C89.9395 124.28 90.3968 124.378 90.7982 124.574C91.2088 124.77 91.5355 125.05 91.7782 125.414C92.0302 125.769 92.1842 126.189 92.2402 126.674V128.536C92.1842 129.012 92.0302 129.432 91.7782 129.796C91.5262 130.151 91.1995 130.431 90.7982 130.636C90.3968 130.832 89.9442 130.93 89.4402 130.93ZM89.6222 129.992C90.0795 129.992 90.4762 129.894 90.8122 129.698C91.1575 129.502 91.4235 129.227 91.6102 128.872C91.8062 128.508 91.9042 128.083 91.9042 127.598C91.9042 127.122 91.8062 126.707 91.6102 126.352C91.4235 125.997 91.1575 125.717 90.8122 125.512C90.4668 125.307 90.0655 125.204 89.6082 125.204C89.1508 125.204 88.7402 125.307 88.3762 125.512C88.0215 125.717 87.7415 125.997 87.5362 126.352C87.3402 126.707 87.2422 127.122 87.2422 127.598C87.2422 128.065 87.3448 128.48 87.5502 128.844C87.7555 129.208 88.0355 129.493 88.3902 129.698C88.7448 129.894 89.1555 129.992 89.6222 129.992ZM98.8324 131V121.648H99.8124V131H98.8324ZM97.1664 125.302V124.42H101.464V125.302H97.1664ZM102.814 131V124.42H103.794V131H102.814ZM103.794 127.164L103.388 126.982C103.388 126.151 103.589 125.493 103.99 125.008C104.401 124.523 104.961 124.28 105.67 124.28C105.997 124.28 106.296 124.341 106.566 124.462C106.837 124.574 107.089 124.756 107.322 125.008L106.678 125.694C106.52 125.517 106.342 125.391 106.146 125.316C105.96 125.241 105.745 125.204 105.502 125.204C104.998 125.204 104.588 125.372 104.27 125.708C103.953 126.035 103.794 126.52 103.794 127.164ZM110.969 131.14C110.437 131.14 109.961 131.019 109.541 130.776C109.121 130.524 108.79 130.183 108.547 129.754C108.314 129.325 108.197 128.821 108.197 128.242V124.42H109.191V128.2C109.191 128.601 109.261 128.951 109.401 129.25C109.55 129.549 109.76 129.782 110.031 129.95C110.302 130.118 110.614 130.202 110.969 130.202C111.52 130.202 111.954 130.02 112.271 129.656C112.598 129.292 112.761 128.807 112.761 128.2V124.42H113.741V128.242C113.741 128.811 113.624 129.315 113.391 129.754C113.158 130.193 112.831 130.533 112.411 130.776C111.991 131.019 111.51 131.14 110.969 131.14ZM117.586 131.14C117.232 131.14 116.891 131.093 116.564 131C116.238 130.897 115.939 130.757 115.668 130.58C115.407 130.403 115.178 130.193 114.982 129.95L115.612 129.306C115.874 129.623 116.168 129.861 116.494 130.02C116.83 130.169 117.204 130.244 117.614 130.244C118.053 130.244 118.394 130.16 118.636 129.992C118.888 129.824 119.014 129.591 119.014 129.292C119.014 129.012 118.926 128.793 118.748 128.634C118.571 128.475 118.342 128.349 118.062 128.256C117.792 128.163 117.502 128.074 117.194 127.99C116.886 127.897 116.592 127.785 116.312 127.654C116.032 127.514 115.804 127.323 115.626 127.08C115.458 126.837 115.374 126.52 115.374 126.128C115.374 125.755 115.463 125.433 115.64 125.162C115.827 124.882 116.088 124.667 116.424 124.518C116.77 124.359 117.176 124.28 117.642 124.28C118.137 124.28 118.585 124.369 118.986 124.546C119.388 124.723 119.71 124.985 119.952 125.33L119.322 125.96C119.126 125.708 118.879 125.517 118.58 125.386C118.291 125.246 117.964 125.176 117.6 125.176C117.18 125.176 116.858 125.26 116.634 125.428C116.42 125.587 116.312 125.797 116.312 126.058C116.312 126.31 116.401 126.511 116.578 126.66C116.756 126.8 116.98 126.917 117.25 127.01C117.53 127.094 117.824 127.183 118.132 127.276C118.44 127.36 118.734 127.477 119.014 127.626C119.294 127.766 119.518 127.962 119.686 128.214C119.864 128.457 119.952 128.788 119.952 129.208C119.952 129.796 119.738 130.267 119.308 130.622C118.888 130.967 118.314 131.14 117.586 131.14ZM122.526 131V121.648H123.506V131H122.526ZM120.86 125.302V124.42H125.158V125.302H120.86ZM129.515 131V124.42H130.495V131H129.515ZM130.495 127.164L130.089 126.982C130.089 126.151 130.29 125.493 130.691 125.008C131.102 124.523 131.662 124.28 132.371 124.28C132.698 124.28 132.997 124.341 133.267 124.462C133.538 124.574 133.79 124.756 134.023 125.008L133.379 125.694C133.221 125.517 133.043 125.391 132.847 125.316C132.661 125.241 132.446 125.204 132.203 125.204C131.699 125.204 131.289 125.372 130.971 125.708C130.654 126.035 130.495 126.52 130.495 127.164ZM135.066 131V124.42H136.06V131H135.066ZM135.556 122.992C135.37 122.992 135.211 122.927 135.08 122.796C134.95 122.656 134.884 122.493 134.884 122.306C134.884 122.11 134.95 121.947 135.08 121.816C135.211 121.685 135.37 121.62 135.556 121.62C135.762 121.62 135.925 121.685 136.046 121.816C136.177 121.947 136.242 122.11 136.242 122.306C136.242 122.493 136.177 122.656 136.046 122.796C135.925 122.927 135.762 122.992 135.556 122.992ZM140.063 131.14C139.708 131.14 139.367 131.093 139.041 131C138.714 130.897 138.415 130.757 138.145 130.58C137.883 130.403 137.655 130.193 137.459 129.95L138.089 129.306C138.35 129.623 138.644 129.861 138.971 130.02C139.307 130.169 139.68 130.244 140.091 130.244C140.529 130.244 140.87 130.16 141.113 129.992C141.365 129.824 141.491 129.591 141.491 129.292C141.491 129.012 141.402 128.793 141.225 128.634C141.047 128.475 140.819 128.349 140.539 128.256C140.268 128.163 139.979 128.074 139.671 127.99C139.363 127.897 139.069 127.785 138.789 127.654C138.509 127.514 138.28 127.323 138.103 127.08C137.935 126.837 137.851 126.52 137.851 126.128C137.851 125.755 137.939 125.433 138.117 125.162C138.303 124.882 138.565 124.667 138.901 124.518C139.246 124.359 139.652 124.28 140.119 124.28C140.613 124.28 141.061 124.369 141.463 124.546C141.864 124.723 142.186 124.985 142.429 125.33L141.799 125.96C141.603 125.708 141.355 125.517 141.057 125.386C140.767 125.246 140.441 125.176 140.077 125.176C139.657 125.176 139.335 125.26 139.111 125.428C138.896 125.587 138.789 125.797 138.789 126.058C138.789 126.31 138.877 126.511 139.055 126.66C139.232 126.8 139.456 126.917 139.727 127.01C140.007 127.094 140.301 127.183 140.609 127.276C140.917 127.36 141.211 127.477 141.491 127.626C141.771 127.766 141.995 127.962 142.163 128.214C142.34 128.457 142.429 128.788 142.429 129.208C142.429 129.796 142.214 130.267 141.785 130.622C141.365 130.967 140.791 131.14 140.063 131.14ZM148.222 131L144.862 127.626L148.166 124.42H149.384L145.786 127.878L145.828 127.318L149.524 131H148.222ZM143.98 131V121.088H144.96V131H143.98ZM152.381 131.14C152.026 131.14 151.686 131.093 151.359 131C151.032 130.897 150.734 130.757 150.463 130.58C150.202 130.403 149.973 130.193 149.777 129.95L150.407 129.306C150.668 129.623 150.962 129.861 151.289 130.02C151.625 130.169 151.998 130.244 152.409 130.244C152.848 130.244 153.188 130.16 153.431 129.992C153.683 129.824 153.809 129.591 153.809 129.292C153.809 129.012 153.72 128.793 153.543 128.634C153.366 128.475 153.137 128.349 152.857 128.256C152.586 128.163 152.297 128.074 151.989 127.99C151.681 127.897 151.387 127.785 151.107 127.654C150.827 127.514 150.598 127.323 150.421 127.08C150.253 126.837 150.169 126.52 150.169 126.128C150.169 125.755 150.258 125.433 150.435 125.162C150.622 124.882 150.883 124.667 151.219 124.518C151.564 124.359 151.97 124.28 152.437 124.28C152.932 124.28 153.38 124.369 153.781 124.546C154.182 124.723 154.504 124.985 154.747 125.33L154.117 125.96C153.921 125.708 153.674 125.517 153.375 125.386C153.086 125.246 152.759 125.176 152.395 125.176C151.975 125.176 151.653 125.26 151.429 125.428C151.214 125.587 151.107 125.797 151.107 126.058C151.107 126.31 151.196 126.511 151.373 126.66C151.55 126.8 151.774 126.917 152.045 127.01C152.325 127.094 152.619 127.183 152.927 127.276C153.235 127.36 153.529 127.477 153.809 127.626C154.089 127.766 154.313 127.962 154.481 128.214C154.658 128.457 154.747 128.788 154.747 129.208C154.747 129.796 154.532 130.267 154.103 130.622C153.683 130.967 153.109 131.14 152.381 131.14ZM157.335 131.14C157.101 131.14 156.91 131.061 156.761 130.902C156.611 130.743 156.537 130.552 156.537 130.328C156.537 130.104 156.611 129.917 156.761 129.768C156.91 129.609 157.101 129.53 157.335 129.53C157.559 129.53 157.745 129.609 157.895 129.768C158.044 129.917 158.119 130.104 158.119 130.328C158.119 130.552 158.044 130.743 157.895 130.902C157.745 131.061 157.559 131.14 157.335 131.14Z" fill="#0B2818"/>
<path d="M221.768 112.637C221.835 112.827 221.992 112.972 222.187 113.023C222.382 113.073 222.589 113.023 222.74 112.889L239.993 97.5608L230.704 117.148C230.611 117.345 230.631 117.576 230.755 117.754C230.88 117.932 231.09 118.03 231.306 118.009L247.482 116.501L234.205 125.154C234.013 125.279 233.909 125.501 233.934 125.728C233.96 125.955 234.111 126.148 234.325 126.227L248.797 131.582L232.707 132.989C232.497 133.007 232.312 133.133 232.218 133.322C232.124 133.511 232.136 133.735 232.248 133.913L241.069 147.926L225.935 140.179C225.747 140.082 225.522 140.091 225.342 140.202C225.163 140.312 225.054 140.508 225.054 140.719L225.147 160.796L217.038 142.889C216.945 142.684 216.746 142.547 216.521 142.535C216.325 142.524 216.136 142.609 216.015 142.76L215.968 142.829L206.449 158.847L208.442 138.709C208.464 138.491 208.366 138.278 208.185 138.153C208.005 138.028 207.77 138.011 207.573 138.108L189.221 147.147L203.361 131.373C203.495 131.224 203.546 131.018 203.498 130.824C203.449 130.629 203.307 130.471 203.119 130.402L184.744 123.67L204.797 122.929C205.011 122.921 205.205 122.8 205.306 122.611C205.408 122.423 205.402 122.195 205.291 122.011L194.389 104.06L212.588 115.439C212.768 115.552 212.994 115.562 213.184 115.465C213.373 115.369 213.497 115.179 213.511 114.967L214.967 93.2871L221.768 112.637Z" fill="#192FFD" stroke="#B8FF4F" stroke-width="1.209" stroke-linejoin="round"/>
<path d="M213.753 119.966C214.962 119.895 216.136 120.762 217.05 122.276C217.961 123.785 218.598 125.913 218.738 128.303C218.879 130.692 218.495 132.88 217.766 134.485C217.034 136.095 215.97 137.094 214.761 137.165C213.551 137.236 212.377 136.368 211.463 134.855C210.551 133.346 209.914 131.217 209.774 128.828C209.634 126.439 210.018 124.251 210.747 122.645C211.478 121.035 212.543 120.037 213.753 119.966Z" fill="white" stroke="black" stroke-width="0.2015"/>
<mask id="mask0_312_701" style="mask-type:alpha" maskUnits="userSpaceOnUse" x="209" y="119" width="10" height="19">
<ellipse cx="214.257" cy="128.565" rx="4.59058" ry="8.71491" transform="rotate(-3.35415 214.257 128.565)" fill="white"/>
</mask>
<g mask="url(#mask0_312_701)">
<path d="M213.47 137.737C212.244 131.023 213.631 128.858 219.207 127.408L219.572 131.865L217.736 135.219L216.38 137.682L213.47 137.737Z" fill="#0B2818"/>
</g>
<path d="M223.499 118.578C224.706 118.687 225.738 119.718 226.419 121.35C227.098 122.977 227.414 125.176 227.199 127.56C226.985 129.944 226.283 132.051 225.325 133.531C224.364 135.016 223.164 135.846 221.957 135.738C220.751 135.629 219.717 134.598 219.036 132.966C218.358 131.339 218.042 129.14 218.256 126.756C218.47 124.372 219.173 122.265 220.131 120.785C221.092 119.3 222.292 118.47 223.499 118.578Z" fill="white" stroke="black" stroke-width="0.2015"/>
<mask id="mask1_312_701" style="mask-type:alpha" maskUnits="userSpaceOnUse" x="218" y="118" width="10" height="18">
<ellipse cx="222.73" cy="127.158" rx="4.59058" ry="8.71491" transform="rotate(5.13344 222.73 127.158)" fill="white"/>
</mask>
<g mask="url(#mask1_312_701)">
<path d="M220.599 136.114C220.377 129.292 222.069 127.355 227.798 126.744L227.501 131.207L225.19 134.252L223.485 136.489L220.599 136.114Z" fill="#0B2818"/>
</g>
<path d="M291.205 125.693C310.298 124.414 320.702 120.964 338.975 112.245C343.842 131.668 365.004 148.356 371.28 146.818C373.677 146.231 357.915 174.343 354.911 180.785C351.908 187.227 348.482 193.561 335.166 206.825C324.513 217.436 297.525 226.675 285.362 229.968C266.157 200.555 267.985 184.046 271.461 169.312C274.242 157.524 285.783 135.321 291.205 125.693Z" fill="#0B2818" stroke="black" stroke-width="0.291081"/>
<path d="M288.949 125.115C308.043 123.836 318.446 120.387 336.719 111.667C341.586 131.09 362.748 147.779 369.024 146.241C371.421 145.653 355.659 173.765 352.655 180.207C349.652 186.649 346.226 192.983 332.91 206.247C322.257 216.858 295.269 226.097 283.106 229.39C263.901 199.978 265.729 183.469 269.205 168.734C271.986 156.946 283.527 134.743 288.949 125.115Z" fill="#0B2818" stroke="black" stroke-width="0.291081"/>
<path d="M286.414 124.465C305.507 123.185 315.911 119.736 334.184 111.017C339.051 130.44 360.213 147.128 366.489 145.59C368.886 145.003 353.124 173.115 350.12 179.557C347.117 185.999 343.691 192.332 330.375 205.596C319.722 216.208 292.734 225.447 280.571 228.74C261.366 199.327 263.194 182.818 266.67 168.083C269.451 156.296 280.992 134.093 286.414 124.465Z" fill="#0B2818" stroke="black" stroke-width="0.291081"/>
<path d="M283.592 123.742C302.685 122.462 313.088 119.013 331.361 110.294C336.228 129.717 357.391 146.405 363.667 144.867C366.064 144.279 350.301 172.392 347.298 178.834C344.295 185.276 340.868 191.609 327.552 204.873C316.899 215.485 289.911 224.723 277.749 228.016C258.544 198.604 260.372 182.095 263.848 167.36C266.629 155.573 278.169 133.37 283.592 123.742Z" fill="#0B2818" stroke="black" stroke-width="0.291081"/>
<path d="M280.211 122.875C299.304 121.595 309.707 118.146 327.98 109.427C332.847 128.85 354.01 145.538 360.286 144C362.683 143.412 346.92 171.525 343.917 177.967C340.914 184.409 337.487 190.742 324.171 204.006C313.519 214.618 286.53 223.857 274.368 227.15C255.163 197.737 256.991 181.228 260.467 166.493C263.248 154.706 274.789 132.503 280.211 122.875Z" fill="#B8FF4F" stroke="black" stroke-width="0.291081"/>
<path d="M296.496 153.69C293.781 159.125 295.288 164.85 296.381 167.033L284.382 184.541L299.604 189.044L305.122 169.273L310.682 166.341C312.619 165.035 316.587 161.004 316.96 155.33C317.426 148.237 313.695 146.38 309.675 145.65C305.655 144.92 299.89 146.898 296.496 153.69Z" fill="#0B2818" stroke="black" stroke-width="0.291081"/>
<g filter="url(#filter0_d_312_701)">
<path d="M264.272 154.548C253.118 152.54 232.234 151.054 237.935 161.169C245.061 173.813 339.228 205.612 353.994 203.687C365.807 202.148 356.147 193.922 349.84 190.002" stroke="#0B2818" stroke-width="1.45541"/>
</g>
<path d="M308.39 100.397C315.802 95.4282 329.765 81.7174 326.323 66.6263C322.882 51.5351 287.421 57.2456 270.121 61.9871" stroke="#0B2818" stroke-width="2.015" stroke-linecap="round" stroke-dasharray="4.03 4.03"/>
<rect x="219.96" y="59.7033" width="83.4622" height="25.792" rx="3.4255" transform="rotate(7.17066 219.96 59.7033)" fill="#F7F2EC" stroke="black" stroke-width="0.403"/>
<rect x="214.428" y="52.627" width="49.2815" height="11.3871" rx="5.69355" transform="rotate(7.78016 214.428 52.627)" fill="black"/>
<path d="M221.432 62.9745L221.819 62.8649C222.631 62.6375 223.364 62.1924 223.941 61.5779C224.517 60.9633 224.915 60.2027 225.09 59.3784L225.574 57.1051C225.59 57.0104 225.573 56.9131 225.525 56.8297C225.478 56.7463 225.403 56.6817 225.313 56.6468L222.427 55.4841L219.34 55.836C219.245 55.8464 219.156 55.8892 219.088 55.9573C219.02 56.0253 218.978 56.1146 218.968 56.2101L218.842 58.5309C218.796 59.3724 218.981 60.2104 219.377 60.9543C219.773 61.6982 220.365 62.3196 221.089 62.751L221.432 62.9745Z" fill="#C5EE2E" stroke="black" stroke-width="0.403" stroke-linecap="round" stroke-linejoin="round"/>
<path d="M220.739 58.647L221.461 59.5898L223.346 58.1465" fill="#C5EE2E"/>
<path d="M220.739 58.647L221.461 59.5898L223.346 58.1465" stroke="black" stroke-width="0.403" stroke-linecap="round" stroke-linejoin="round"/>
<path d="M228.981 62.3224C228.742 62.2897 228.524 62.2145 228.329 62.0967C228.133 61.979 227.968 61.8312 227.833 61.6533C227.698 61.4723 227.6 61.2718 227.539 61.052C227.481 60.8294 227.469 60.5983 227.502 60.3587C227.534 60.1191 227.608 59.9014 227.722 59.7055C227.84 59.5101 227.986 59.3445 228.161 59.2089C228.339 59.0705 228.536 58.9721 228.753 58.9138C228.973 58.8526 229.202 58.8384 229.442 58.871C229.681 58.9037 229.897 58.9787 230.09 59.096C230.285 59.2105 230.451 59.3583 230.586 59.5394C230.721 59.7173 230.817 59.9175 230.875 60.1401C230.936 60.3599 230.95 60.5896 230.917 60.8292C230.885 61.0688 230.809 61.2879 230.691 61.4865C230.577 61.6824 230.43 61.848 230.252 61.9832C230.078 62.1188 229.881 62.2172 229.661 62.2783C229.444 62.3399 229.218 62.3546 228.981 62.3224ZM229.043 61.794C229.27 61.8249 229.475 61.8008 229.658 61.7216C229.845 61.6429 229.998 61.5206 230.118 61.3548C230.242 61.1862 230.32 60.9837 230.353 60.7473C230.377 60.5716 230.37 60.408 230.332 60.2564C230.297 60.1021 230.236 59.9652 230.148 59.8459C230.061 59.7233 229.951 59.6237 229.818 59.5471C229.689 59.4708 229.539 59.4212 229.37 59.3981C229.146 59.3676 228.941 59.3917 228.755 59.4705C228.572 59.5464 228.419 59.6671 228.296 59.8325C228.175 59.9983 228.099 60.1994 228.067 60.4358C228.043 60.6115 228.048 60.7781 228.082 60.9357C228.119 61.0904 228.18 61.2273 228.265 61.3462C228.353 61.4656 228.463 61.5652 228.595 61.645C228.728 61.7217 228.877 61.7713 229.043 61.794ZM231.868 62.667L232.312 59.4087L232.863 59.4838L232.419 62.7421L231.868 62.667ZM231.164 59.667L231.233 59.1639L233.969 59.5368L233.9 60.04L231.164 59.667ZM234.542 61.743L234.608 61.2639L235.446 61.3782C235.561 61.3938 235.665 61.3852 235.757 61.3522C235.853 61.3165 235.932 61.2606 235.995 61.1845C236.058 61.1052 236.097 61.0081 236.112 60.8931C236.128 60.7781 236.116 60.6756 236.076 60.5855C236.037 60.4923 235.976 60.4172 235.892 60.3603C235.813 60.3007 235.715 60.263 235.6 60.2473L234.762 60.133L234.827 59.6538L235.694 59.7721C235.905 59.8008 236.088 59.8696 236.242 59.9785C236.4 60.0878 236.516 60.2273 236.59 60.3969C236.668 60.5669 236.692 60.7573 236.664 60.9682C236.635 61.179 236.56 61.3559 236.44 61.499C236.323 61.6424 236.174 61.7458 235.993 61.8089C235.815 61.8725 235.62 61.89 235.409 61.8612L234.542 61.743ZM233.991 62.9564L234.448 59.6022L234.999 59.6774L234.542 63.0315L233.991 62.9564ZM238.432 63.6105C238.304 63.5931 238.183 63.5604 238.07 63.5123C237.956 63.4611 237.854 63.3984 237.763 63.3242C237.673 63.2468 237.597 63.1584 237.536 63.0589L237.917 62.7692C237.984 62.8727 238.066 62.9554 238.161 63.0173C238.261 63.0764 238.376 63.1148 238.507 63.1327C238.625 63.1488 238.717 63.1434 238.782 63.1165C238.848 63.0897 238.885 63.0427 238.894 62.9756C238.904 62.9053 238.883 62.8471 238.83 62.8009C238.778 62.7548 238.707 62.7126 238.618 62.6744C238.533 62.6335 238.441 62.5917 238.342 62.549C238.247 62.5067 238.157 62.4553 238.071 62.3948C237.988 62.3315 237.924 62.2528 237.878 62.1587C237.833 62.0646 237.819 61.9489 237.838 61.8115C237.858 61.6646 237.909 61.543 237.99 61.4467C238.075 61.3509 238.183 61.2827 238.316 61.2422C238.451 61.2021 238.607 61.194 238.783 61.218C238.968 61.2432 239.126 61.299 239.258 61.3852C239.393 61.4687 239.499 61.5824 239.577 61.7265L239.196 62.0162C239.14 61.924 239.072 61.8512 238.991 61.798C238.911 61.7447 238.815 61.7104 238.703 61.6952C238.597 61.6808 238.514 61.6857 238.452 61.7098C238.39 61.7339 238.355 61.7763 238.347 61.837C238.338 61.9009 238.36 61.9543 238.413 61.9973C238.465 62.0403 238.535 62.0806 238.621 62.1184C238.71 62.1565 238.802 62.1984 238.897 62.2438C238.995 62.2865 239.085 62.3411 239.167 62.4076C239.253 62.4713 239.318 62.5518 239.364 62.6491C239.409 62.7432 239.423 62.8605 239.403 63.0011C239.373 63.2247 239.27 63.3913 239.096 63.5009C238.922 63.6106 238.7 63.6471 238.432 63.6105ZM240.807 63.9343C240.577 63.9029 240.377 63.8235 240.205 63.696C240.037 63.5658 239.912 63.4022 239.828 63.2054C239.747 63.0089 239.722 62.7973 239.753 62.5705C239.784 62.3437 239.865 62.148 239.994 61.9835C240.125 61.8158 240.286 61.6914 240.48 61.6103C240.676 61.5297 240.885 61.5045 241.105 61.5345C241.319 61.5637 241.501 61.6389 241.65 61.7601C241.803 61.8818 241.914 62.0352 241.983 62.2203C242.055 62.4059 242.076 62.6089 242.046 62.8293C242.041 62.8676 242.032 62.9071 242.02 62.9478C242.012 62.9857 242 63.0279 241.984 63.0745L240.096 62.8172L240.154 62.386L241.769 62.6061L241.549 62.7518C241.562 62.6104 241.551 62.4885 241.516 62.3861C241.481 62.2837 241.423 62.2009 241.34 62.1376C241.261 62.0747 241.157 62.0346 241.029 62.0172C240.895 61.9989 240.775 62.0117 240.668 62.0557C240.561 62.0997 240.473 62.1708 240.405 62.2688C240.336 62.3636 240.292 62.4829 240.273 62.6266C240.253 62.7704 240.265 62.9005 240.308 63.0169C240.35 63.1334 240.42 63.2291 240.517 63.3042C240.615 63.3761 240.732 63.4214 240.87 63.4401C240.988 63.4562 241.099 63.4502 241.204 63.4222C241.312 63.3946 241.406 63.3457 241.488 63.2754L241.777 63.6613C241.647 63.7771 241.498 63.8576 241.329 63.9029C241.16 63.9482 240.986 63.9587 240.807 63.9343ZM243.357 64.2819C243.13 64.2509 242.932 64.1702 242.761 64.0395C242.593 63.9092 242.469 63.7459 242.388 63.5494C242.308 63.353 242.283 63.143 242.313 62.9193C242.344 62.6925 242.424 62.4969 242.554 62.3324C242.684 62.1646 242.848 62.0405 243.044 61.9599C243.244 61.8797 243.457 61.8551 243.684 61.886C243.863 61.9104 244.024 61.9682 244.168 62.0594C244.315 62.1478 244.434 62.2633 244.526 62.4059L244.133 62.7086C244.077 62.6196 244.003 62.5494 243.913 62.498C243.826 62.4439 243.726 62.4092 243.615 62.3939C243.484 62.3761 243.363 62.3905 243.252 62.4373C243.146 62.4813 243.056 62.5505 242.985 62.6449C242.917 62.7397 242.873 62.8558 242.854 62.9932C242.836 63.1273 242.847 63.2508 242.887 63.3636C242.931 63.4737 242.998 63.5658 243.088 63.64C243.183 63.7114 243.296 63.7561 243.426 63.7739C243.538 63.7892 243.643 63.7839 243.741 63.7582C243.842 63.7298 243.932 63.6802 244.01 63.6095L244.308 64.0063C244.181 64.1193 244.035 64.2002 243.869 64.2492C243.707 64.2953 243.536 64.3062 243.357 64.2819ZM245.577 64.5845C245.382 64.5579 245.214 64.491 245.073 64.3839C244.934 64.2772 244.832 64.1429 244.766 63.981C244.704 63.8163 244.687 63.635 244.714 63.4369L244.896 62.1L245.423 62.1719L245.244 63.4848C245.229 63.5966 245.233 63.6948 245.257 63.7795C245.285 63.8614 245.332 63.9279 245.396 63.979C245.464 64.0305 245.547 64.063 245.646 64.0765C245.8 64.0974 245.923 64.0686 246.015 63.99C246.11 63.9087 246.17 63.7834 246.193 63.6141L246.372 62.3012L246.899 62.373L246.717 63.7099C246.689 63.9112 246.622 64.0826 246.515 64.2242C246.411 64.363 246.278 64.4653 246.117 64.5311C245.955 64.5937 245.775 64.6115 245.577 64.5845ZM247.115 64.7453L247.429 62.4453L247.956 62.5171L247.642 64.8171L247.115 64.7453ZM247.817 63.5377L247.647 63.4219C247.687 63.1312 247.783 62.9051 247.935 62.7436C248.09 62.5794 248.299 62.5151 248.561 62.5508C248.676 62.5665 248.777 62.6014 248.864 62.6556C248.951 62.7097 249.028 62.7886 249.096 62.8921L248.702 63.1997C248.667 63.1493 248.625 63.111 248.576 63.0849C248.528 63.0587 248.47 63.0411 248.403 63.032C248.256 63.0119 248.128 63.0417 248.02 63.1213C247.911 63.2009 247.844 63.3397 247.817 63.5377ZM250.058 65.1952C249.828 65.1639 249.628 65.0845 249.456 64.957C249.289 64.8268 249.163 64.6632 249.079 64.4663C248.998 64.2699 248.974 64.0582 249.005 63.8314C249.035 63.6046 249.116 63.409 249.246 63.2444C249.376 63.0767 249.538 62.9523 249.731 62.8713C249.927 62.7907 250.136 62.7654 250.356 62.7955C250.57 62.8246 250.752 62.8999 250.901 63.0211C251.054 63.1428 251.165 63.2962 251.234 63.4813C251.306 63.6668 251.327 63.8698 251.297 64.0903C251.292 64.1286 251.284 64.1681 251.271 64.2087C251.263 64.2466 251.251 64.2889 251.235 64.3355L249.347 64.0782L249.406 63.6469L251.02 63.867L250.8 64.0127C250.813 63.8713 250.802 63.7494 250.767 63.6471C250.732 63.5447 250.674 63.4619 250.591 63.3986C250.512 63.3357 250.408 63.2955 250.281 63.2781C250.146 63.2598 250.026 63.2727 249.919 63.3167C249.812 63.3607 249.724 63.4317 249.656 63.5297C249.588 63.6246 249.544 63.7438 249.524 63.8876C249.504 64.0313 249.516 64.1614 249.559 64.2779C249.601 64.3943 249.671 64.4901 249.768 64.5652C249.866 64.637 249.983 64.6823 250.121 64.701C250.239 64.7172 250.35 64.7112 250.455 64.6832C250.563 64.6556 250.658 64.6066 250.739 64.5364L251.028 64.9223C250.898 65.038 250.749 65.1185 250.58 65.1638C250.411 65.2092 250.237 65.2196 250.058 65.1952ZM252.513 65.5298C252.305 65.5015 252.124 65.4231 251.969 65.2946C251.817 65.1665 251.704 65.0063 251.629 64.8139C251.558 64.6187 251.538 64.4094 251.568 64.1858C251.599 63.9589 251.675 63.7626 251.795 63.5968C251.919 63.4282 252.071 63.3025 252.252 63.2198C252.436 63.1342 252.631 63.1056 252.839 63.1339C253.015 63.1579 253.165 63.2173 253.288 63.3123C253.416 63.4045 253.51 63.5215 253.572 63.6633C253.634 63.8052 253.654 63.9592 253.631 64.1253L253.541 64.7866C253.519 64.9527 253.458 65.0958 253.361 65.2159C253.266 65.3364 253.145 65.4256 252.997 65.4836C252.85 65.5383 252.688 65.5537 252.513 65.5298ZM252.667 65.0432C252.798 65.061 252.915 65.0477 253.019 65.0033C253.126 64.9561 253.214 64.8835 253.283 64.7855C253.351 64.6875 253.395 64.5698 253.414 64.4324C253.432 64.2951 253.422 64.17 253.382 64.0571C253.342 63.9443 253.276 63.8524 253.185 63.7814C253.098 63.7077 252.988 63.6619 252.857 63.644C252.73 63.6266 252.612 63.6415 252.505 63.6887C252.401 63.7331 252.313 63.8041 252.242 63.9017C252.173 63.9997 252.129 64.1174 252.11 64.2548C252.092 64.3921 252.102 64.5172 252.142 64.63C252.185 64.7433 252.251 64.8368 252.338 64.9106C252.429 64.9816 252.539 65.0258 252.667 65.0432ZM253.751 65.6497L253.223 65.5779L253.308 64.9597L253.475 64.4115L253.46 63.8433L253.694 62.1278L254.221 62.1997L253.751 65.6497Z" fill="#F7F2EC"/>
<path d="M293.27 81.4365L292.754 81.3778L292.919 79.9314C292.919 79.9314 293.193 77.5208 290.783 77.2463C288.372 76.9718 288.098 79.3824 288.098 79.3824L287.933 80.8288L287.417 80.77C287.17 80.7419 286.922 80.813 286.728 80.9677C286.534 81.1223 286.409 81.3478 286.381 81.5946L285.933 85.5239C285.906 85.77 285.978 86.0166 286.133 86.2099C286.287 86.4032 286.512 86.5275 286.758 86.5555L292.611 87.222C292.858 87.2501 293.106 87.179 293.3 87.0244C293.495 86.8697 293.62 86.6442 293.648 86.3974L294.095 82.473C294.123 82.2262 294.052 81.9784 293.897 81.784C293.742 81.5896 293.517 81.4646 293.27 81.4365ZM289.034 79.7333C289.117 79.0101 289.227 78.0459 290.673 78.2106C292.119 78.3753 292.01 79.3395 291.927 80.0627L291.79 81.268L288.897 80.9386L289.034 79.7333ZM289.904 84.9602C289.714 84.9385 289.534 84.8608 289.387 84.7367C289.241 84.6127 289.134 84.4481 289.081 84.2636C289.028 84.0791 289.031 83.883 289.09 83.7002C289.148 83.5174 289.26 83.356 289.41 83.2365C289.56 83.1171 289.742 83.0448 289.934 83.0289C290.125 83.013 290.317 83.0541 290.485 83.1472C290.652 83.2402 290.789 83.381 290.877 83.5516C290.965 83.7222 291 83.9151 290.978 84.1058C290.949 84.3615 290.82 84.5952 290.618 84.7555C290.417 84.9157 290.16 84.9894 289.904 84.9602Z" fill="#192FFD"/>
<path d="M277.294 84.3576C276.847 84.2966 276.458 84.1396 276.128 83.8863C275.799 83.6267 275.553 83.3069 275.39 82.9267C275.234 82.5475 275.185 82.1438 275.243 81.7158C275.327 81.1024 275.625 80.5119 276.139 79.9441L278.327 77.5678L279.602 77.7415L277.272 80.2254L276.837 80.4102C276.92 80.2719 277.017 80.1582 277.127 80.0691C277.244 79.9744 277.386 79.9092 277.554 79.8735C277.728 79.8386 277.936 79.8377 278.179 79.8708C278.569 79.9239 278.908 80.0645 279.195 80.2924C279.49 80.5148 279.712 80.802 279.859 81.154C280.007 81.4996 280.051 81.8896 279.992 82.324C279.933 82.7585 279.774 83.1402 279.514 83.4693C279.254 83.7983 278.928 84.0434 278.535 84.2046C278.149 84.3667 277.735 84.4177 277.294 84.3576ZM277.435 83.3226C277.678 83.3557 277.903 83.3278 278.11 83.2389C278.318 83.15 278.489 83.014 278.625 82.8307C278.768 82.642 278.856 82.423 278.89 82.1738C278.924 81.9246 278.897 81.6932 278.809 81.4795C278.727 81.2666 278.598 81.0928 278.421 80.9581C278.245 80.8169 278.036 80.7298 277.793 80.6967C277.55 80.6637 277.325 80.6915 277.118 80.7804C276.911 80.8693 276.739 81.0054 276.604 81.1886C276.469 81.3655 276.384 81.5785 276.351 81.8277C276.317 82.0768 276.34 82.311 276.421 82.5303C276.502 82.7431 276.631 82.9201 276.807 83.0613C276.983 83.2024 277.192 83.2895 277.435 83.3226Z" fill="black"/>
<circle cx="266.439" cy="79.2528" r="1.8135" transform="rotate(9.15478 266.439 79.2528)" fill="black"/>
<circle cx="256.492" cy="77.65" r="1.8135" transform="rotate(9.15478 256.492 77.65)" fill="black"/>
<circle cx="246.547" cy="76.0472" r="1.8135" transform="rotate(9.15478 246.547 76.0472)" fill="black"/>
<circle cx="236.6" cy="74.4439" r="1.8135" transform="rotate(9.15478 236.6 74.4439)" fill="black"/>
<circle cx="226.654" cy="72.8411" r="1.8135" transform="rotate(9.15478 226.654 72.8411)" fill="black"/>
<path d="M267.015 107.91L277.765 94.4208L281.285 108.495L293.893 92.4649L297.901 108.494L303.374 102.972" stroke="#0B2818" stroke-width="2.015" stroke-linecap="round"/>
<path d="M376.302 105.017L350.309 122.548L374.489 102.196L376.302 105.017Z" fill="#0B2818"/>
<path d="M361.624 101.831L349.769 117.055L360.024 100.527L361.624 101.831Z" fill="#0B2818"/>
<path d="M372.702 121.123L353.936 125.611L372.266 119.106L372.702 121.123Z" fill="#0B2818"/>
<defs>
<filter id="filter0_d_312_701" x="235.076" y="152.365" width="126.391" height="54.462" filterUnits="userSpaceOnUse" color-interpolation-filters="sRGB">
<feFlood flood-opacity="0" result="BackgroundImageFix"/>
<feColorMatrix in="SourceAlpha" type="matrix" values="0 0 0 0 0 0 0 0 0 0 0 0 0 0 0 0 0 0 127 0" result="hardAlpha"/>
<feOffset dy="1.16433"/>
<feGaussianBlur stdDeviation="0.582163"/>
<feComposite in2="hardAlpha" operator="out"/>
<feColorMatrix type="matrix" values="0 0 0 0 0.0980392 0 0 0 0 0.184314 0 0 0 0 0.992157 0 0 0 0.2 0"/>
<feBlend mode="normal" in2="BackgroundImageFix" result="effect1_dropShadow_312_701"/>
<feBlend mode="normal" in="SourceGraphic" in2="effect1_dropShadow_312_701" result="shape"/>
</filter>
</defs>
</svg>
