<svg width="301" height="304" viewBox="0 0 301 304" fill="none" xmlns="http://www.w3.org/2000/svg">
<ellipse cx="62.0895" cy="89.9423" rx="62.0895" ry="89.9423" transform="matrix(-0.438871 0.89855 0.902376 0.43095 91.7773 65.2366)" fill="#192FFD"/>
<path d="M74.6628 104.741C67.2438 119.931 69.4569 138.015 79.1505 155.016C88.8429 172.014 105.991 187.875 128.312 198.535C150.633 209.195 173.857 212.615 193.347 209.553C212.839 206.491 228.54 196.961 235.959 181.772C243.378 166.582 241.165 148.497 231.472 131.496C221.779 114.498 204.632 98.6371 182.31 87.9771C159.989 77.3171 136.765 73.8972 117.275 76.9588C97.7824 80.0209 82.0819 89.551 74.6628 104.741Z" fill="black" stroke="black" stroke-width="1.13927"/>
<path d="M164.101 200.246C164.365 200.295 165.426 200.46 165.883 200.53C165.371 200.427 163.151 200.074 164.101 200.246ZM211.61 197.588C211.246 197.754 210.88 197.917 210.511 198.075C211.555 197.601 212.902 196.938 213.831 196.423C213.982 196.34 213.578 196.534 213.936 196.338C214.294 196.141 214.24 196.206 214.757 195.918C215.342 195.617 217.918 193.981 218.761 193.346C221.975 191.062 224.93 188.317 227.344 185.171C224.74 188.325 227.37 185.153 228.021 184.208C228.138 183.982 228.314 184.146 230.38 180.598C231.222 179.04 230.921 179.496 231.287 178.744C231.452 178.386 231.77 177.758 232.308 176.48C231.014 179.555 232.437 176.593 233.242 174.093C233.42 173.676 234.379 170.156 234.593 168.561C234.685 168.017 234.833 167.196 234.913 166.471C234.968 165.973 234.991 165.59 235.045 164.85C235.288 161.386 235.086 157.975 234.516 154.572C234.765 156.58 234.226 153.003 234.165 152.862C234 152.056 234.66 155.716 234.389 154.269C234.042 152.247 233.568 150.251 232.985 148.285C233.475 149.896 232.408 146.138 232.11 145.477C232.422 145.684 228.494 136.9 227.634 135.687C227.474 135.422 228.54 137.129 226.184 133.133C225.922 132.706 226.004 132.879 225.869 132.656C225.789 132.522 225.347 131.683 224.76 130.848C224.533 130.56 225.852 132.505 222.927 128.223C224.228 129.834 218.669 122.412 217.428 121.214C217.657 121.465 217.883 121.714 218.114 121.971C217 120.706 216.809 120.476 216.556 120.191C215.525 119.04 214.078 117.542 213.064 116.521C211.887 115.34 211.921 115.312 210.493 113.977C210.837 114.289 211.178 114.602 211.516 114.916C210.546 113.981 209.562 113.069 208.562 112.175C210.825 114.301 208.069 111.724 207.871 111.563C207.572 111.298 207.989 111.693 207.489 111.25C207.438 111.206 207.523 111.248 206.754 110.584C205.132 109.198 205.364 109.44 204.669 108.866C204.607 108.817 204.837 108.971 203.637 108.003C199.76 104.956 203.66 108.023 203.793 108.149C203.983 108.318 202.626 107.276 205.885 109.934C204.801 109.038 204.662 108.978 204.54 108.877C204.427 108.778 202.539 107.27 202.426 107.188C201.484 106.445 202.334 107.072 202.152 106.926C202.003 106.796 199.645 105.063 199.12 104.611C197.936 103.847 199.755 105.113 201.618 106.549C201.883 106.761 199.813 105.223 199.699 105.148C196.99 103.195 198.518 104.235 197.943 103.781C197.641 103.546 196.507 102.806 197.561 103.479C195.076 101.763 196.568 102.825 196.407 102.716C196.16 102.555 195.286 101.952 195.173 101.881C195.008 101.775 195.566 102.164 194.919 101.744C194.812 101.674 193.787 100.967 195.135 101.837C193.347 100.668 193.509 100.757 192.872 100.409C191.677 99.5501 191.937 99.89 191.441 99.59C190.118 98.8001 190.54 98.9761 190.472 98.9293C190.02 98.6108 186.304 96.5112 185.376 96.0228C185.722 96.2584 188.327 97.6498 188.894 98.0014C190.789 99.135 186.175 96.4751 187.536 97.3304C186.958 96.9839 186.387 96.6466 185.805 96.3099C184.699 95.766 186.241 96.5919 183.308 95.0385C182.843 94.7514 185.385 96.1332 184.884 95.8392C184.592 95.6597 182.885 94.7691 182.857 94.7484C182.828 94.7186 184.363 95.5295 184.129 95.3901C183.63 95.0547 177.931 92.2861 182.247 94.4423C181.203 93.9171 180.569 93.668 179.732 93.2665C179.607 93.2065 179.476 93.1432 179.34 93.0753C179.086 92.9495 179.472 93.1126 179.752 93.2263C179.991 93.3235 180.153 93.3828 179.771 93.1876C179.404 93.003 178.54 92.5769 176.764 91.787C176.627 91.7559 179.076 92.8502 179.137 92.8894C179.224 92.9345 178.751 92.7952 178.673 92.7633C178.412 92.6136 172.474 89.9763 171.161 89.5531C171.688 89.6887 166.568 87.8126 165.993 87.6358C165.844 87.5809 166.413 87.748 166.254 87.6904C165.266 87.3238 162.526 86.4875 161.256 86.1203C159.839 85.704 160.021 85.7392 159.942 85.7151C159.31 85.5371 159.81 85.6949 159.424 85.5861C158.842 85.4025 154.833 84.3819 154.621 84.3464C154.562 84.3315 155.228 84.4614 154.348 84.2493C154.193 84.2178 154.293 84.2476 151.676 83.6762C148.508 83.0104 153.885 84.0981 152.574 83.7945C150.528 83.4059 150.604 83.3883 150.051 83.2815C149.859 83.2455 148.438 83.01 146.876 82.7534C147.994 82.9427 149.105 83.1484 150.208 83.3698C149.126 83.1604 146.992 82.781 146.089 82.653C145.648 82.5891 146.005 82.6739 145.051 82.5315C144.85 82.5056 144.055 82.2947 146.553 82.718C146.758 82.7219 145.562 82.5502 145.013 82.4641C144.93 82.4512 144.606 82.3552 143.887 82.2869C143.718 82.2852 145.549 82.6094 140.778 81.9579C140.623 81.9383 141.164 81.9788 141.013 81.9591C140.911 81.9438 139.674 81.8263 139.54 81.8133C139.401 81.7975 139.997 81.8354 139.832 81.8161C138.984 81.7164 137.865 81.6944 139.614 81.8448C139.028 81.7989 138.444 81.7582 137.861 81.7228C138.488 81.7156 136.951 81.6347 136.132 81.5879C130.944 81.3347 134.42 81.4618 133.529 81.4026C132.081 81.3339 133.179 81.4452 131.043 81.3905C130.843 81.3998 133.435 81.3203 128.381 81.3915C129.126 81.3762 129.884 81.3702 130.619 81.3732C130.202 81.4182 127.92 81.397 127.751 81.4082C125.777 81.4767 127.113 81.4168 124.165 81.5718C123.902 81.5877 123.334 81.6433 122.776 81.6858C120.442 81.8586 125.834 81.4179 125.993 81.4278C126.052 81.3688 120.244 81.8489 120.055 81.928C119.213 82.0423 122.68 81.6481 122.023 81.7516C121.771 81.6873 113.536 82.8758 111.936 83.4017C110.057 83.8629 109.259 84.1846 109.219 84.1069C108.712 84.3322 108.236 84.4171 108 84.4892C105.167 85.3885 105.153 85.4073 102.764 86.3354C102.237 86.5477 101.808 86.7584 101.623 86.8339C101.516 86.8781 101.703 86.7664 101.18 86.9878C100.422 87.2459 96.1879 89.4747 95.9207 89.7138C95.616 89.8977 97.6761 88.7229 97.3197 88.9552C95.8163 89.7793 94.3996 90.6415 92.9876 91.624C92.3959 92.0396 92.71 91.8402 92.4559 92.0211C92.3344 92.0867 90.3635 93.5791 90.4468 93.5239C90.5314 93.2296 96.9482 89.0154 95.249 90.1081C94.9069 90.3032 93.7722 91.0828 93.9315 90.9261C88.2069 94.6758 83.314 99.844 80.2335 105.987C82.0296 102.479 84.6695 98.8426 87.6538 95.9822C88.0534 95.5766 89.4773 94.3039 89.3221 94.479C86.6522 96.7572 83.7588 100.081 81.9971 102.958C81.9398 103.05 82.1696 102.726 81.9565 103.069C81.5375 103.703 80.3242 105.832 80.1632 106.22C80.1287 106.28 80.8006 105.052 80.6194 105.437C80.3826 105.934 80.2171 106.236 80.0556 106.521C79.8976 106.801 79.7441 107.065 79.5523 107.49C79.1777 108.121 77.5851 112.726 77.3555 113.92C76.9786 115.155 78.2898 110.458 78.2129 110.81C77.1202 113.931 76.5269 117.246 76.3094 120.347C76.3058 120.401 76.3169 119.927 76.2671 120.616C76.1905 121.819 76.2227 122.139 76.2167 122.727C76.197 123.358 76.2639 125.592 76.3074 125.892C76.3108 125.931 76.3141 125.475 76.3122 125.406C76.2775 124.43 76.2409 124.088 76.2371 123.999C76.2297 123.667 76.2427 123.341 76.2433 123.039C76.2455 122.539 76.2354 122.26 76.2589 121.6C76.2774 121.144 76.2838 121.585 76.3035 121.146C76.3015 120.986 76.3744 119.246 76.4617 119.09C76.4724 119.065 76.0871 122.605 76.3892 126.316C76.6336 130.035 77.5363 133.811 77.7097 134.506C77.4077 133.319 77.1535 132.154 76.9373 130.951C77.355 133.376 78.1076 136.237 78.2412 136.415C80.7815 145.178 85.3798 153.189 90.9556 160.299C91.9709 161.563 91.4282 160.843 93.1261 162.9C92.6686 162.382 92.219 161.862 91.7773 161.339C92.5992 162.425 96.6425 166.928 97.3409 167.597C97.4296 167.688 97.513 167.848 98.5806 168.927C99.5205 169.868 99.7018 169.994 100.222 170.486C100.659 170.899 101.149 171.37 101.282 171.491C101.383 171.582 101.435 171.605 101.677 171.825C102.446 172.517 101.79 171.991 102.594 172.637C102.41 172.467 102.226 172.297 102.043 172.126C102.969 172.964 104.282 174.078 102.906 172.839C102.671 172.625 102.862 172.821 102.686 172.663C95.9406 166.3 101.296 171.429 103.727 173.575C104.353 174.124 107.954 177.12 108.086 177.19C108.26 177.317 107.648 176.805 108.481 177.439C108.633 177.605 113.649 181.328 111.859 179.965C111.486 179.695 109.086 177.897 108.526 177.441C109.891 178.465 113.049 180.87 113.434 181.121C114.92 182.158 110.622 179.068 113.958 181.417C116.531 183.181 114.093 181.555 115.075 182.247C115.622 182.648 118.619 184.54 118.512 184.525C119.539 185.178 118.952 184.774 119.08 184.852C119.204 184.933 121.239 186.197 121.914 186.572C121.995 186.618 121.755 186.443 121.84 186.491C122.001 186.587 124.003 187.743 124.087 187.788C124.138 187.818 123.643 187.569 123.838 187.686C124.065 187.827 126.003 188.886 126.112 188.948C126.255 189.044 123.863 187.72 124.25 187.963C125.346 188.573 127.16 189.562 127.895 189.963C127.717 189.866 126.625 189.292 126.251 189.092C126.404 189.229 128.745 190.445 127.961 190.001C128.459 190.277 128.109 190.108 128.387 190.269C128.459 190.311 129.182 190.679 129.319 190.755C129.337 190.766 128.582 190.402 128.728 190.485C128.987 190.64 131.204 191.729 131.393 191.809C131.912 192.047 130.099 191.156 129.96 191.064C129.938 191.053 131.495 191.773 131.522 191.779C131.624 191.796 129.898 190.982 130.109 191.05C130.534 191.253 130.961 191.454 131.389 191.653C129.751 190.847 126.779 189.324 126.032 188.872C128.405 190.169 130.919 191.383 130.955 191.315C130.966 191.287 129.932 190.759 129.977 190.771C130.141 190.823 131.578 191.556 131.635 191.579C131.68 191.598 131.701 191.607 131.701 191.605C131.701 191.605 131.701 191.605 131.701 191.605C131.705 191.593 129.645 190.574 129.55 190.512C129.384 190.414 130.323 190.818 130.327 190.805C130.295 190.789 128.844 190.047 129.346 190.274C129.85 190.506 131.135 191.134 131.183 191.153C131.431 191.264 129.195 190.148 129.137 190.104C129.103 190.084 130.311 190.661 130.35 190.67C130.383 190.68 129.478 190.213 129.132 190.012C128.873 189.863 129.654 190.243 129.519 190.172C129.42 190.126 127.332 189.052 127.229 188.988C127.078 188.903 127.577 189.144 127.508 189.102C127.41 189.043 126.733 188.693 126.824 188.732C126.892 188.772 129.538 190.063 129.532 190.031C129.512 189.992 126.717 188.638 129.346 189.846C129.364 189.855 129.991 190.179 130.009 190.187C130.41 190.36 128.397 189.324 130.876 190.558C126.295 188.222 130.32 190.235 129.664 189.847C129.408 189.701 127.648 188.784 127.638 188.772C127.822 188.84 128.379 189.152 128.574 189.238C128.685 189.29 127.112 188.438 127.477 188.609C127.667 188.703 129.342 189.57 129.414 189.601C130.088 189.922 129.278 189.494 129.43 189.558C129.53 189.601 130.551 190.11 130.579 190.121C130.622 190.141 129.251 189.42 128.973 189.262C128.759 189.144 129.583 189.548 129.432 189.467C128.529 188.989 126.552 188.012 128.469 188.924C128.584 188.979 129.292 189.343 129.314 189.352C129.762 189.555 128.458 188.889 128.234 188.749C127.85 188.515 129.713 189.498 128.166 188.672C129.344 189.26 129.993 189.591 131.382 190.275C127.558 188.364 126.285 187.582 130.493 189.731C129.144 189.059 129.319 189.089 128.919 188.885C128.676 188.765 126.709 187.779 127.648 188.158C127.766 188.207 128.938 188.835 128.581 188.619C125.75 187.141 128.528 188.577 128.534 188.572C128.492 188.541 121.674 184.816 120.576 184.054C119.254 183.233 118.134 182.446 117.854 182.264C116.924 181.654 117.682 182.18 117.469 182.052C117.244 181.927 114.669 180.12 114.549 180.027C114.043 179.684 114.534 180.065 114.481 180.029C113.831 179.618 110.451 177.101 109.525 176.355C109.56 176.366 111.451 177.816 110.29 176.886C108.946 175.8 108.827 175.798 108.787 175.774C102.605 170.84 96.9326 165.262 92.0888 159.048C92.1608 159.127 95.4227 163.115 95.526 163.172C95.9535 163.729 90.4311 156.976 89.8978 156.049C90.3801 156.71 90.8625 157.351 91.3579 157.991C90.5624 156.873 88.7354 154.418 87.6827 152.701C87.3418 152.153 88.0256 153.187 88.0149 153.165C87.6332 152.543 87.0095 151.568 87.4468 152.317C86.539 150.81 86.6478 151.034 85.9586 149.862C85.9243 149.802 86.2305 150.297 85.7052 149.361C85.453 148.938 84.1829 146.555 84.0536 146.227C83.9918 146.093 84.6801 147.264 84.7018 147.445C86.1226 150.001 85.1165 148.282 85.6667 149.271C85.7612 149.418 85.558 149.067 87.0224 151.529C86.7784 151.036 85.1029 148.223 84.8578 147.703C84.3106 146.681 86.646 150.852 87.1013 151.61C86.9354 151.234 87.2775 151.894 87.8568 152.794C88.4958 153.777 88.232 153.339 88.5829 153.871C89.5455 155.299 89.1106 154.729 89.9589 155.879C89.0628 154.806 91.3645 157.88 92.0925 158.733C90.983 157.292 89.9146 155.809 88.908 154.308C88.9704 154.391 89.0329 154.473 89.0957 154.555C88.8279 154.163 88.5619 153.767 88.2969 153.363C88.3346 153.431 88.3725 153.498 88.4105 153.565C87.0848 151.47 86.7805 150.978 86.6664 150.801C85.3227 148.577 83.9382 145.951 82.87 143.552C82.7206 143.19 82.818 143.45 81.7267 140.805C81.3932 139.964 81.6707 140.771 81.315 139.812C80.9388 138.566 80.903 138.609 80.7773 138.246C80.4278 137.207 80.2586 136.56 80.2277 136.46C79.8332 135.156 79.3408 133.232 79.0606 131.775C79.0555 131.748 79.2285 132.498 79.0344 131.557C78.9601 131.23 78.3069 128.235 78.2098 125.581C78.2557 126.269 78.3182 126.953 78.3976 127.643C78.1973 126.839 78.1577 121.151 78.2087 122.541C78.1937 123.392 78.206 125.472 78.291 125.701C77.7711 123.791 79.1221 113.413 79.7039 112.711C79.7328 112.602 79.5219 113.261 79.5628 113.111C79.5753 112.988 80.3137 110.719 80.4392 110.425C80.4987 110.245 80.1269 111.235 80.1517 111.153C80.1432 111.069 81.2423 108.292 81.3655 108.158C81.0355 108.817 80.2972 110.737 80.7112 109.739C80.7629 109.611 81.0235 108.941 81.0955 108.788C81.7243 107.353 79.9219 111.675 79.7906 112.394C80.2459 110.956 80.9183 109.144 81.7945 107.351C82.618 105.652 83.6106 103.998 84.5725 102.647C85.343 101.503 83.3943 104.317 84.2583 103.018C86.1114 100.359 84.777 102.33 84.8354 102.248C85.2963 101.589 86.9653 99.4078 87.0459 99.4738C87.826 98.593 87.5502 98.8532 88.7239 97.6798C88.5727 97.8378 88.423 97.9969 88.2749 98.1571C89.5523 96.8279 92.5252 94.2663 92.3016 94.4616C91.6542 94.9117 90.1228 96.2765 90.0043 96.3977C89.8288 96.5776 89.1721 96.9459 87.3132 99.0635C86.4521 99.8411 90.4163 95.8458 88.577 97.63C89.6913 96.2768 95.3962 91.9642 96.3864 91.5664C96.4961 91.5094 96.0235 91.8358 97.5357 90.9293C98.2579 90.5024 96.503 91.5059 96.8306 91.3055C97.5548 90.1227 112.742 84.4632 115.942 84.4703C116.14 84.4346 116.064 84.4305 116.259 84.3961C116.843 84.2855 119.025 83.9716 120.095 83.8404C117.891 84.1524 122.177 83.6062 123.293 83.542C124.955 83.4055 124.855 83.392 125.58 83.3414C128.362 83.1376 132.71 83.2389 134.872 83.2943C134.751 83.3432 138.62 83.472 140.384 83.6771C141.757 83.8153 143.734 84.1163 141.884 83.9151C144.256 84.1906 146.729 84.5869 148.929 85.0021C149.291 85.0705 148.796 84.9569 149.414 85.0755C149.47 85.0868 149.543 85.1196 150.074 85.2258C154.459 86.1494 152.323 85.6769 153.146 85.838C153.603 85.9342 153.94 86.0096 154.187 86.0667C151.666 85.4588 148.697 84.8943 147.911 84.7609C148.595 84.8087 153.574 85.8761 155.021 86.2506C155.072 86.2624 154.902 86.1966 154.953 86.2089C154.954 86.2091 154.955 86.2094 154.956 86.2097C155.517 86.3286 158.934 87.2474 158.223 87.0899C158.025 87.0441 156.467 86.6137 154.563 86.1566C155.075 86.285 154.686 86.2188 154.776 86.2417C155.883 86.5137 158.528 87.1875 159.481 87.4644C159.698 87.5256 159.676 87.5375 159.712 87.5476C160.561 87.7902 160.227 87.6409 161.084 87.9491C162.643 88.3471 158.198 87.0915 158.513 87.1565C158.798 87.0932 168.571 90.2959 168.485 90.4214C168.52 90.429 168.654 90.4719 168.928 90.5669C169.536 90.7689 172.201 91.8286 172.646 92.0307C172.722 92.064 172.673 92.0943 172.768 92.1341C173.009 92.2237 176.238 93.5701 177.402 94.1538C176.759 93.8642 176.116 93.5808 175.472 93.3036C179.342 95.0468 178.734 94.8217 177.442 94.2247C177.377 94.1951 177.314 94.1678 177.252 94.1397C176.249 93.6872 174.965 93.1356 174.941 93.1299C174.896 93.1163 177.299 94.1813 178.909 94.9521C179.949 95.4447 180.65 95.7855 180.169 95.5288C180.094 95.489 179.474 95.1879 178.922 94.9255C178.213 94.5887 177.625 94.3132 178.477 94.6942C178.543 94.7238 178.712 94.8033 178.93 94.9078C179.594 95.2228 180.699 95.7727 180.775 95.8088C181.167 95.9899 179.966 95.371 178.949 94.8688C178.193 94.4932 177.549 94.1819 177.777 94.2724C178.139 94.4526 178.54 94.6467 178.959 94.8494C179.722 95.2182 180.54 95.6134 181.288 95.9954C181.815 96.2648 181.933 96.3523 181.998 96.3857C182.963 96.888 182.431 96.5875 182.753 96.7547C182.932 96.8425 184.812 97.9029 184.486 97.6487C190.648 101.158 186.219 98.5796 182.344 96.5762C183.562 97.2243 185.932 98.4964 186.98 99.1072C187.357 99.3249 187.122 99.2169 187.756 99.5878C189.076 100.298 195.192 104.138 196.684 105.249C195.75 104.588 196.04 104.757 196.764 105.265C197.494 105.781 196.859 105.377 197 105.48C197.168 105.583 200.524 108.023 201.067 108.475C198.572 106.561 199.151 106.959 201.277 108.585C200.977 108.343 200.676 108.101 200.372 107.861C201.624 108.809 204.193 110.84 204.869 111.442C204.976 111.534 204.573 111.224 204.633 111.276C205.236 111.781 207.277 113.542 207.36 113.636C207.436 113.711 206.565 112.96 206.878 113.251C206.944 113.311 207.793 114.026 208.581 114.768C208.873 115.043 208.682 114.893 208.755 114.963C209.369 115.553 209.034 115.181 210.15 116.26C210.962 117.053 211.536 117.665 212.64 118.79C208.976 115.157 212.076 118.2 213.528 119.779C213.76 120.034 213.537 119.827 214.941 121.348C212.018 118.058 215.837 122.239 216.548 123.127C216.589 123.175 216.624 123.175 216.99 123.609C217.021 123.646 216.965 123.604 217.301 124.008C220.417 127.875 218.432 125.399 219.038 126.125C219.305 126.441 220.729 128.371 221.107 128.915C221.195 129.038 221.17 128.971 221.506 129.446C222.099 130.289 222.585 131.044 222.962 131.619C223.003 131.686 223.038 131.672 223.72 132.758C223.91 133.064 224.115 133.411 223.837 132.983C222.923 131.55 221.13 128.863 219.947 127.361C218.888 125.966 222.166 130.414 222.286 130.671C222.345 130.758 221.752 129.865 222.368 130.763C222.892 131.528 223.794 133 224.512 134.176C224.57 134.267 225.173 135.208 225.148 135.163C225.131 135.121 224.253 133.64 224.392 133.852C224.407 133.87 224.972 134.813 225.049 134.93C225.147 135.075 225.472 135.429 225.589 135.629C225.888 136.142 225.677 135.818 225.866 136.151C226.283 136.852 227.63 139.402 227.622 139.497C227.414 139.077 227.2 138.657 226.981 138.238C228.16 140.578 227.635 139.594 227.796 139.929C227.964 140.296 227.948 140.18 228.324 140.985C228.429 141.146 229.862 144.572 229.8 144.519C229.066 142.608 229.3 143.329 229.268 143.241C229.128 142.909 228.967 142.472 228.776 142.037C227.377 138.956 228.759 142.079 228.42 141.355C228.305 141.106 228.09 140.599 228.039 140.493C227.873 140.15 227.848 140.155 227.739 139.924C227.483 139.385 227.818 139.996 227.799 139.953C227.595 139.461 226.632 137.64 227.182 138.801C226.82 138.12 226.817 138.018 226.512 137.482C225.899 136.417 226.781 138.034 226.995 138.476C227.766 140.057 228.04 140.54 229.022 142.834C229.377 143.674 229.742 144.676 229.886 145.065C229.989 145.301 230.883 147.646 230.774 147.749C231.082 148.656 231.583 150.111 231.813 151.067C232.025 151.942 231.912 151.674 231.931 151.756C231.961 151.882 232.2 152.937 232.262 153.294C232.338 153.714 232.282 153.504 232.4 154.174C232.678 155.848 232.69 155.794 232.722 155.966C233.018 157.951 232.834 157.093 232.883 157.536C233.018 157.942 233.244 163.766 233.015 164.976C233.062 164.483 233.099 163.987 233.126 163.489C233.122 164.382 232.997 165.316 233.044 165.339C232.96 165.516 232.808 167.346 232.708 167.89C232.673 168.105 232.662 168.086 232.617 168.355C232.459 169.409 231.907 171.742 231.721 172.291C231.026 174.684 232.657 168.524 232.594 167.998C232.553 169.019 231.005 174.479 231.674 171.959C231.778 171.57 231.988 170.886 232.04 170.666C232.389 169.175 232.092 170.343 232.116 170.225C232.16 170.026 232.392 169.045 232.433 168.782C232.444 168.693 232.329 169.254 232.565 167.811C232.49 168.532 231.57 172.527 231.342 173.024C231.259 173.2 231.666 172.065 230.504 175.38C230.513 175.34 230.523 175.3 230.533 175.26C230.19 176.133 229.812 176.992 229.396 177.841C228.947 178.759 228.462 179.647 227.937 180.516C228.059 180.34 228.638 179.406 227.928 180.595C227.508 181.275 227.793 180.756 227.754 180.818C227.569 181.12 225.807 183.984 223.329 186.571C220.895 189.198 217.808 191.448 216.774 192.131C216.094 192.616 214.067 193.824 213.91 193.899C213.003 194.469 209.592 196.168 208.885 196.432C208.451 196.617 208.854 196.419 208.466 196.585C208.105 196.74 208.489 196.602 208.382 196.648C207.527 197.15 200.517 199.443 198.785 199.747C199.85 199.555 204.96 198.056 204.862 198.054C204.841 198.066 203.609 198.495 203.354 198.562C202.945 198.716 201.457 199.096 200.664 199.314C200.573 199.337 200.943 199.285 199.514 199.652C199.02 199.777 197.711 200.061 196.404 200.348C194.525 200.902 184.32 201.922 183.609 201.758C183.589 201.759 185.022 201.692 184.053 201.714C182.762 201.735 183.926 201.771 182.414 201.811C182.173 201.84 177.989 201.798 177.838 201.766C176.565 201.694 180.251 201.777 180.194 201.756C180.072 201.756 177.006 201.674 176.892 201.659C176.774 201.658 179.247 201.806 176.273 201.664C176.615 201.675 176.956 201.684 177.297 201.691C175.899 201.623 175.759 201.642 175.419 201.626C174.349 201.57 173.227 201.443 171.524 201.343C171.073 201.316 171.816 201.408 171.76 201.405C171.22 201.377 170.532 201.245 169.729 201.199C169.667 201.191 171.537 201.45 168.264 201.051C168.49 201.076 168.716 201.1 168.942 201.124C168.479 201.071 165.17 200.591 164.729 200.507C163.428 200.297 164.557 200.521 163.249 200.29C164.083 200.405 160.155 199.661 160.37 199.727C159.816 199.578 156.494 198.878 154.936 198.465C153.961 198.221 151.972 197.647 151.66 197.556C151.285 197.451 151.39 197.516 150.712 197.324C150.523 197.272 148.498 196.642 146.745 196.087C146.404 195.98 145.675 195.789 146.3 196.015C147.363 196.405 149.445 197.012 149.408 197.031C149.364 197.061 146.6 196.156 145.865 195.899C142.441 194.723 144.401 195.444 144.31 195.428C144.064 195.373 142.226 194.695 142.146 194.664C141.823 194.554 143.124 195.064 143.138 195.085C143.154 195.117 141.36 194.482 141.762 194.641C142.339 194.876 143.982 195.442 144.092 195.481C145.454 195.987 143.557 195.367 143.045 195.2C142.888 195.15 143.5 195.388 143.371 195.343C141.4 194.649 142.982 195.129 141.678 194.644C140.513 194.204 141.997 194.808 141.952 194.792C141.894 194.774 140.503 194.239 140.282 194.161C140.172 194.139 143.762 195.565 143.602 195.523C142.451 195.099 141.299 194.656 140.149 194.193C140.044 194.194 141.714 194.815 141.884 194.88C142.226 195.018 141.256 194.669 141.293 194.695C141.313 194.711 142.434 195.167 141.408 194.787C141.059 194.656 140.317 194.346 139.05 193.86C143.467 195.646 140.39 194.452 140.25 194.413C140.117 194.375 142.23 195.239 139.654 194.217C139.517 194.239 139.698 194.261 140.428 194.562C141.321 194.922 139.234 194.156 142.528 195.387C142.33 195.358 139.684 194.332 139.549 194.272C139.428 194.227 140.004 194.475 139.794 194.397C137.322 193.467 139.014 194.12 138.29 193.869C138.225 193.851 135.907 192.886 137.665 193.636C140.855 194.976 142.269 195.417 142.77 195.717C140.337 194.876 137.486 193.616 136.767 193.301C135.664 192.825 136.799 193.336 136.661 193.283C136.613 193.266 135.66 192.85 135.651 192.846C134.943 192.638 139.863 194.658 141.451 195.242C141.026 195.092 140.601 194.94 140.177 194.785C140.747 195.01 141.317 195.23 141.888 195.446C139.161 194.425 141.788 195.425 142.444 195.731C142.592 195.801 140.813 195.112 142.838 195.907C141.331 195.357 141.806 195.549 140.451 195.006C140.481 195.054 143.515 196.236 144.751 196.668C140.438 195.142 142.922 195.968 139.219 194.572C138.553 194.272 140.296 194.977 140.158 194.914C139.643 194.692 138.447 194.248 137.033 193.577C136.804 193.467 137.806 193.861 136.341 193.235C136.177 193.166 135.24 192.785 135.253 192.793C135.364 192.867 136.287 193.261 136.323 193.285C136.354 193.309 135.33 192.856 135.328 192.857C135.284 192.868 136.176 193.24 136.045 193.192C135.758 193.089 132.056 191.524 136.872 193.614C132.885 191.839 136.362 193.382 137.931 194.039C138.329 194.208 138.424 194.265 138.992 194.501C139.717 194.804 140.597 195.14 140.978 195.289C141.39 195.448 139.028 194.594 142.428 195.87C140.677 195.271 137.669 194.014 135.988 193.303C132.613 191.88 138.308 194.395 138.915 194.609C139.074 194.675 138.531 194.479 138.636 194.523C138.797 194.604 142.106 195.885 142.425 196.009C142.744 196.148 141.216 195.555 141.107 195.531C141.032 195.532 145.012 197.012 142.85 196.232C141.358 195.703 138.641 194.563 138.173 194.422C140.327 195.315 142.514 196.153 144.73 196.929C143.504 196.524 142.304 196.108 141.098 195.668C143.542 196.61 145.707 197.339 148.075 198.122C142.35 196.321 149.91 198.79 150.004 198.78C150.032 198.799 147.753 198.155 147.385 198.04C149.37 198.749 155.517 200.426 151.898 199.504C152.557 199.676 154.13 200.131 154.108 200.126C153.902 200.118 150.446 199.135 151.005 199.315C151.648 199.533 152.578 199.75 153.581 200.019C158.756 201.333 157.294 201.17 162.559 202.17C162.454 202.157 162.349 202.143 162.243 202.129C167.974 203.172 173.822 203.777 179.671 203.84C181.954 203.965 188.053 203.747 191.043 203.326C191.628 203.271 194.59 202.809 194.796 202.755C195.204 202.683 192.958 203.039 193.971 202.863C194.183 202.869 199.121 201.885 198.769 201.955C198.217 202.09 196.498 202.428 196.209 202.483C194.289 203.213 209.292 199.147 209.86 198.375C209.549 198.521 209.235 198.664 208.919 198.805C209.827 198.423 210.716 198.022 211.61 197.588ZM167.91 200.898C167.34 200.798 165.925 200.615 165.091 200.471C163.933 200.28 161.995 199.816 162.817 200.072C164.518 200.389 166.194 200.662 167.91 200.898ZM192.924 200.872C191.784 201.05 192.682 200.986 193.608 200.816C193.71 200.796 194.458 200.618 192.924 200.872ZM180.903 201.761C180.948 201.763 181.946 201.755 181.982 201.752C182.875 201.722 179.875 201.746 180.903 201.761ZM229.783 177.135C229.248 178.261 229.596 177.426 229.93 176.73C229.952 176.686 229.818 177.061 229.783 177.135ZM229.404 177.937C229.027 178.837 227.984 180.477 228.743 179.134C228.82 179.006 229.425 177.899 229.404 177.937ZM188.856 201.386C188.988 201.394 190.172 201.265 190.671 201.199C190.656 201.187 189.356 201.344 188.856 201.386ZM216.968 192.026C217.047 192.041 213.581 194.211 213.306 194.289C213.892 194.018 216.947 192.066 216.968 192.026ZM224.711 185.087C224.652 185.172 223.721 186.219 223.735 186.177C224.19 185.665 225 184.727 224.711 185.087ZM232.753 166.438C232.755 166.361 232.755 167.417 232.927 164.938C232.949 164.574 232.821 165.87 232.826 165.74C232.847 165.47 232.862 165.256 232.875 165.084C232.781 166.238 232.607 167.42 232.594 167.535C232.541 168.075 232.756 166.473 232.753 166.438ZM232.581 155.636C232.565 155.401 232.297 153.882 232.22 153.552C232.206 153.494 232.226 153.755 232.092 153.084C231.98 152.545 232.189 153.343 231.953 152.293C231.705 151.232 232.006 152.657 231.98 152.564C231.959 152.442 231.579 150.79 231.568 150.854C231.567 150.885 231.999 152.652 232.075 153.084C232.184 153.64 232.027 152.972 232.213 153.899C232.326 154.488 232.308 154.153 232.333 154.277C232.366 154.384 232.659 156.452 232.58 155.633C232.58 155.634 232.58 155.635 232.581 155.636ZM232.901 164.774C232.893 164.86 232.885 164.96 232.875 165.084C232.884 164.979 232.893 164.876 232.901 164.774ZM171.214 201.303C171.814 201.35 170.039 201.154 169.376 201.089C169.362 201.105 171.113 201.299 171.214 201.303ZM232.998 163.709C233.036 161.99 233.014 163.26 232.901 164.774C232.942 164.293 232.975 164.284 232.998 163.709ZM203.354 198.562C203.423 198.537 203.466 198.518 203.469 198.509C203.288 198.575 203.273 198.585 203.354 198.562ZM207.177 197.195C208.486 196.705 205.849 197.741 205.857 197.703C205.866 197.696 207.12 197.221 207.177 197.195ZM230.413 175.673C230.364 175.789 231.183 174.021 230.042 176.607C230.628 175.216 229.997 176.677 229.996 176.651C230.022 176.596 230.984 174.251 231.13 173.707C231.312 173.304 230.578 175.295 230.414 175.67C230.414 175.671 230.413 175.672 230.413 175.673ZM226.129 137.171C226.28 137.489 226.803 138.464 227.133 139.125C226.999 138.807 226.49 137.83 226.129 137.171ZM78.8708 130.632C78.1553 125.624 78.101 124.965 78.666 129.563C78.6753 129.652 78.9128 130.937 78.8708 130.632ZM94.5978 92.8974C94.9761 92.5991 93.6498 93.4776 92.828 94.1236C92.6404 94.2673 91.9738 94.8255 92.767 94.2284C92.7089 94.2114 93.9504 93.2747 94.5978 92.8974ZM233.051 162.738C233.092 162.233 233.061 160.705 233.007 159.887C233.021 160.389 233.066 162.017 233.051 162.738ZM79.2677 114.16C79.3945 113.643 79.5235 113.306 79.5011 113.395C79.4004 113.793 79.1401 114.752 79.2677 114.16ZM232.643 167.683C232.659 167.757 232.926 165.738 232.89 165.59C232.862 166.027 232.649 167.633 232.643 167.683ZM226.797 138.411C226.953 138.693 226.196 137.213 225.942 136.779C225.95 136.816 226.703 138.228 226.797 138.411ZM82.3565 106.186C82.5742 105.761 83.1694 104.734 83.2538 104.628C83.3438 104.493 82.4665 105.997 82.3565 106.186ZM116.205 181.004C116.254 181.033 114.741 179.948 114.049 179.464C112.74 178.565 116.138 180.984 116.205 181.004ZM78.3736 119.111C78.2564 120.612 78.3881 118.945 78.4168 119.015C78.2867 120.023 78.1772 122.53 78.235 120.804C78.2472 120.47 78.3226 119.58 78.3736 119.111ZM78.5361 117.735C78.5664 117.578 78.7714 116.511 78.6215 117.437C78.5541 117.864 78.4265 118.549 78.5361 117.735ZM106.922 174.002C105.837 173.165 110.722 177.111 110.901 177.187C110.979 177.244 111.031 177.28 111.06 177.3C111.243 177.451 112.185 178.157 112.311 178.22C112.022 178.011 111.253 177.432 111.158 177.362C111.119 177.333 111.089 177.312 111.068 177.298C110.724 177.042 107.117 174.189 106.922 174.002ZM99.2582 166.977C100.337 168.13 100.58 168.256 100.487 168.164C99.3053 166.95 100.052 167.765 100.013 167.73C99.9288 167.654 99.0868 166.767 99.2616 166.98C99.2605 166.979 99.2593 166.978 99.2582 166.977ZM105.296 172.631C105.343 172.676 106.337 173.527 106.381 173.56C107.214 174.242 104.392 171.827 105.296 172.631ZM230.732 147.647C230.436 146.766 230.701 147.641 230.891 148.224C230.905 148.272 230.987 148.424 230.732 147.647ZM78.6567 117.005C78.5842 116.77 79.9252 111.437 79.9467 111.789C79.6593 112.195 78.3938 118.309 78.6567 117.005ZM104.847 87.6134C103.935 87.962 104.94 87.6134 105.429 87.4229C105.61 87.3516 105.077 87.5258 104.847 87.6134ZM232.164 170.387C231.911 171.36 232.028 171.175 232.204 170.32C232.211 170.286 232.173 170.349 232.164 170.387ZM97.7379 90.9283C100.749 89.3679 99.9193 89.538 96.1474 91.7992C96.2678 91.7314 96.3901 91.663 96.5098 91.5971C92.2404 94.3506 96.192 91.7403 97.2852 91.1576C97.6956 90.9256 97.3616 91.138 97.7351 90.93C97.736 90.9294 97.737 90.9288 97.7379 90.9283ZM109.771 86.0019C112.906 85.0601 106.89 86.7353 105.219 87.4305C106.86 86.8634 109.025 86.1696 106.108 87.1788C110.378 85.7743 108.602 86.3607 108.767 86.2878C108.969 86.223 109.636 86.0424 109.771 86.0019ZM101.665 88.9229C101.49 88.994 100.202 89.6161 99.7497 89.8464C100.391 89.5351 102.812 88.4263 101.665 88.9229ZM92.1058 158.776C92.1598 158.88 92.3302 159.135 93.0321 159.999C92.8263 159.726 92.3863 159.155 92.1058 158.776ZM166.811 200.864C166.047 200.759 164.515 200.521 164.988 200.573C165.041 200.583 166.812 200.854 166.811 200.864ZM84.6805 102.352C84.7253 102.182 87.3897 98.9252 86.485 100.063C86.1661 100.369 83.906 103.456 84.6805 102.352ZM78.1407 122.721C78.1374 122.366 78.2019 120.941 78.2146 120.912C78.2302 120.816 78.1498 122.564 78.1407 122.721ZM162.931 200.258C162.832 200.249 160.502 199.795 160.76 199.831C161.252 199.915 163.277 200.316 162.931 200.258ZM229.641 144.431C229.571 144.249 229.453 144.016 229.427 143.953C229.39 143.793 227.956 140.502 228.48 141.769C228.611 141.947 230.524 146.769 230.676 147.421C230.797 147.659 230.051 145.571 229.855 145.075C229.822 144.987 229.829 144.921 229.642 144.433C229.642 144.432 229.642 144.432 229.641 144.431ZM95.8175 163.291C95.8894 163.439 98.773 166.565 98.7725 166.498C97.7651 165.452 96.7782 164.382 95.8175 163.291ZM94.4055 161.661C93.8065 160.974 95.1795 162.611 95.5967 163.065C95.6094 163.064 94.4923 161.767 94.4055 161.661ZM78.9909 114.826C79.0879 114.416 78.8366 115.687 78.9058 115.405C78.9448 115.224 79.1447 114.304 79.2316 114.016C79.2534 113.934 79.0525 114.873 78.9955 115.144C78.9105 115.528 78.968 115.15 78.8792 115.571C78.5902 116.971 78.4242 118.227 78.2956 119.561C78.2838 119.682 78.3581 118.745 78.2601 119.774C78.2464 119.936 78.1812 120.886 78.1437 122.123C78.0189 124.846 78.1819 126.869 78.696 130.295C78.6494 130.166 78.2866 127.603 78.2888 127.444C77.9118 124.563 78.0447 119.339 78.6747 116.366C78.8192 115.601 78.7648 115.975 78.8308 115.647C78.8863 115.388 78.7869 115.689 78.9909 114.826ZM167.221 200.938C166.84 200.916 165.571 200.711 164.747 200.576C165.043 200.6 166.41 200.834 167.221 200.938ZM83.8789 145.86C83.6979 145.5 83.1361 144.334 83.1041 144.237C83.0509 144.107 83.8562 145.785 83.8789 145.86ZM219.556 126.874C219.534 126.841 218.921 126.052 218.895 126.024C218.33 125.332 220.166 127.699 219.556 126.874ZM202.851 109.921C202.268 109.445 201.672 108.967 201.457 108.829C201.842 109.122 202.91 109.988 202.851 109.921ZM174.616 92.9806C174.774 93.0109 172.656 92.1321 172.256 91.9778C172.399 92.0453 174.501 92.9495 174.616 92.9806ZM91.9285 158.705C92.7881 159.807 92.5713 159.601 93.1374 160.273C93.2321 160.381 93.5924 160.683 92.6177 159.52C92.4426 159.307 93.0882 160.173 91.9285 158.705ZM95.5383 92.1812C95.226 92.3529 94.3178 92.957 93.7103 93.3941C93.8567 93.3015 95.0838 92.4598 95.5383 92.1812ZM158.718 199.437C158.075 199.337 155.122 198.598 155.859 198.756C155.964 198.786 158.305 199.355 158.718 199.437ZM233.059 159.251C232.997 158.029 233.185 160.561 233.154 161.363C233.159 161.004 233.071 159.327 233.059 159.251ZM181.815 96.3487C181.764 96.3197 180.583 95.7297 180.528 95.7057C179.551 95.2418 182.89 96.9123 181.815 96.3487ZM208.808 115.035C208.49 114.697 206.151 112.614 205.603 112.184C206.111 112.627 209.234 115.445 208.808 115.035ZM88.6066 154.067C89.1508 154.883 89.692 155.651 90.2334 156.389C90.1228 156.226 88.6635 154.149 88.6066 154.067ZM177.442 94.2247C177.377 94.1951 177.314 94.1678 177.252 94.1397C177.317 94.1686 177.38 94.1969 177.442 94.2247ZM79.4472 134.087C79.2436 133.282 79.3158 133.443 79.3273 133.493C79.4794 134.102 79.6821 134.983 79.4472 134.087ZM166.269 200.844C165.981 200.829 164.596 200.594 163.793 200.459C164.03 200.482 165.629 200.75 166.269 200.844ZM113.165 85.0941C114.177 84.824 110.022 85.7666 109.164 86.0763C109.107 86.081 112.996 85.1051 113.165 85.0941ZM233.176 163.051C233.204 163.136 233.087 164.893 233.096 164.518C233.111 164.283 233.169 163.003 233.176 163.051ZM107.127 86.7196C106.739 86.8382 105.863 87.1648 106.178 87.0681C106.581 86.943 107.226 86.6884 107.127 86.7196ZM80.8133 109.097C80.8589 108.931 81.8625 106.832 81.473 107.711C81.2033 108.32 81.1383 108.406 81.0741 108.549C80.9761 108.697 79.6599 112.176 80.8133 109.097ZM136.957 83.4903C136.061 83.4201 134.982 83.3703 134.056 83.3343C134.43 83.355 136.572 83.474 136.957 83.4903ZM232.801 156.266C232.921 156.469 233.309 162.25 233.072 158.969C233.086 158.78 232.706 155.623 232.801 156.266ZM91.9285 158.705C91.8209 158.566 91.6967 158.406 91.5531 158.221C91.6948 158.406 91.8195 158.566 91.9285 158.705ZM83.5892 145.383C83.7134 145.679 83.0117 144.223 82.831 143.789C82.7817 143.649 83.5647 145.343 83.5892 145.383ZM133.986 83.3111C133.46 83.2816 132.468 83.2624 131.804 83.2528C131.914 83.2636 133.763 83.3117 133.986 83.3111ZM170.713 91.2903C169.713 90.9032 168.486 90.4419 168.473 90.4199C168.452 90.4146 168.402 90.3992 168.321 90.3721C168.239 90.3434 167.174 89.9458 166.698 89.7847C163.924 88.7284 177.407 93.9297 169.619 90.8322C169.984 90.9829 170.349 91.1357 170.713 91.2903ZM211.864 117.95C212.309 118.366 213.454 119.603 213.146 119.292C212.939 119.073 211.425 117.532 211.864 117.95ZM193.899 103.284C194.056 103.379 195.422 104.314 195.448 104.348C194.661 103.821 193.198 102.843 193.899 103.284ZM215.06 121.309C215.316 121.589 215.609 121.971 215.579 121.939C215.318 121.659 214.621 120.848 215.06 121.309ZM90.1377 156.453C89.7935 156.001 88.7959 154.517 88.6047 154.183C88.5618 154.127 88.4474 153.967 88.2431 153.669C88.2437 153.67 88.2443 153.671 88.2449 153.671C87.7291 153.41 80.9369 140.658 85.5322 149.184C85.6837 149.447 85.4558 149.098 86.0778 150.165C86.1193 150.236 86.1534 150.263 86.2826 150.48C86.5732 151.002 88.2132 153.589 88.5702 154.117C88.5756 154.12 88.6 154.151 88.6494 154.22C89.0781 154.836 90.3951 156.806 90.1377 156.453ZM191.142 101.516C191.43 101.686 192.317 102.253 192.4 102.324C191.96 102.048 190.477 101.119 191.142 101.516ZM232.882 156.435C232.991 157.095 233.124 158.79 233.065 158.28C233.046 157.967 232.773 155.672 232.882 156.435ZM199.838 107.469C196.714 105.181 199.097 106.918 198.633 106.549C199.038 106.854 199.439 107.161 199.838 107.469ZM102.018 169.84C101.563 169.416 102.066 169.951 102.58 170.398C102.741 170.538 102.274 170.079 102.018 169.84ZM124.531 186.324C124.052 186.1 126.315 187.337 125.449 186.827C125.409 186.804 124.566 186.344 124.531 186.324ZM108.345 175.39C108.037 175.108 107.818 174.932 106.903 174.179C108.252 175.303 106.979 174.288 108.345 175.39ZM168.485 90.4214C168.478 90.4199 168.473 90.4186 168.473 90.4199C168.481 90.4217 168.484 90.422 168.485 90.4214ZM217.434 124.069C217.763 124.428 218.609 125.481 218.34 125.181C218.316 125.151 217.551 124.231 217.434 124.069ZM88.6047 154.183C88.6433 154.234 88.6272 154.206 88.5702 154.117C88.5651 154.114 88.5781 154.138 88.6047 154.183ZM212.575 118.628C212.602 118.672 211.135 117.194 211.079 117.143C210.256 116.292 211.982 118.002 212.575 118.628ZM232.459 169.885C232.436 169.988 232.537 169.316 232.627 168.909C232.698 168.594 232.551 169.501 232.459 169.885ZM111.514 177.865C112.035 178.257 112.781 178.802 112.931 178.887C112.571 178.632 111.51 177.846 111.514 177.865ZM123.635 185.843C122.965 185.435 121.455 184.542 120.479 183.941C120.447 183.965 122.997 185.48 123.635 185.843ZM91.1963 157.873C91.159 157.832 90.1873 156.526 90.3342 156.69C90.548 156.942 91.4801 158.235 91.1963 157.873ZM232.961 166.777C233.063 166.059 232.906 167.719 232.733 168.47C232.658 168.856 232.957 166.899 232.961 166.777ZM220.083 127.377C220.655 128.156 219.198 126.256 218.997 125.98C219.277 126.332 219.882 127.1 220.083 127.377ZM196.196 104.771C198.739 106.483 197.311 105.614 196.869 105.288C196.806 105.241 196.135 104.729 196.196 104.771ZM151.3 197.667C150.884 197.538 152.454 197.958 152.653 198.031C152.776 198.079 151.56 197.749 151.3 197.667ZM154.187 86.0667C154.314 86.0967 154.439 86.1267 154.563 86.1566C154.471 86.1333 154.348 86.1038 154.187 86.0667ZM225.04 134.624C223.86 132.821 224.022 133 223.925 132.838C223.711 132.498 223.185 131.719 222.762 131.082C223.241 131.815 223.706 132.555 224.154 133.294C223.841 132.688 220.413 127.777 220.315 127.707C220.226 127.548 221.33 129.068 221.361 129.117C221.409 129.18 221.623 129.389 221.725 129.531C221.924 129.743 224.656 133.914 225.04 134.624ZM201.358 108.57C200.965 108.272 200.84 108.204 200.661 108.06C200.599 108.011 200.602 107.987 200.392 107.821C200.717 108.069 201.038 108.319 201.358 108.57ZM226.842 138.016C227.153 138.541 225.856 136.135 225.804 136.074C225.565 135.675 226.601 137.578 226.842 138.016ZM213.302 119.361C213.374 119.426 214.804 120.96 214.78 120.962C214.4 120.543 212.482 118.521 213.302 119.361ZM200.13 107.62C199.542 107.176 198.407 106.371 198.553 106.44C198.554 106.441 198.555 106.442 198.556 106.442C199.086 106.832 199.607 107.222 200.13 107.62ZM233.252 164.307C233.207 165.653 233.203 165.014 233.248 163.822C233.286 163.461 233.258 164.086 233.252 164.307ZM232.79 168.602C232.788 168.986 231.849 172.744 231.95 172.159C232.016 171.96 232.563 169.801 232.565 169.697C232.593 169.544 232.428 170.235 232.663 169.072C232.661 169.142 232.81 168.475 232.79 168.602ZM233.202 165.423C233.112 166.766 232.993 167.055 233.109 166.053C233.151 165.661 233.213 165.231 233.202 165.423ZM233.293 159.941C233.328 160.428 233.375 161.711 233.333 162.599C233.349 161.415 233.312 160.222 233.226 159.039C233.229 158.903 233.267 159.514 233.293 159.945C233.293 159.943 233.293 159.942 233.293 159.941ZM130.777 189.853C129.794 189.39 132.037 190.501 132.14 190.539C132.431 190.661 131.215 190.061 130.777 189.853ZM143.04 195.609C142.755 195.512 142.561 195.469 141.943 195.222C142.577 195.441 143.206 195.653 143.844 195.862C144.321 196.079 143.35 195.715 143.04 195.609ZM140.59 194.85C140.679 194.885 140.17 194.761 141.331 195.161C142.109 195.439 137.936 193.768 137.185 193.457C138.009 193.825 139.822 194.545 140.59 194.85ZM133.225 192.022C133.175 192.007 134.729 192.724 134.911 192.798C135.866 193.203 133.492 192.122 133.225 192.022ZM138.233 194.199C137.487 193.905 139.125 194.591 139.618 194.776C139.669 194.785 138.348 194.247 138.233 194.199ZM120.654 185.403C119.884 184.987 119.273 184.496 120.406 185.214C120.46 185.248 120.687 185.42 120.654 185.403ZM134.719 192.775C135.455 193.09 133.84 192.36 133.355 192.14C133.305 192.133 134.607 192.73 134.719 192.775ZM120.073 185.174C119.069 184.594 119.476 184.715 119.6 184.788C120.117 185.093 121.833 186.174 122.189 186.39C119.586 184.826 120.547 185.44 120.073 185.174ZM115.631 182.24C114.747 181.632 117.036 183.145 117.46 183.445C117.018 183.16 115.878 182.414 115.631 182.24ZM110.332 178.498C109.865 178.154 108.508 177.109 108.297 176.917C108.782 177.31 110.145 178.338 110.332 178.498ZM109.262 177.743C108.537 177.209 108.411 177.023 109.216 177.676C109.247 177.702 109.289 177.763 109.262 177.743ZM105.32 174.578C104.854 174.218 104.39 173.731 105.113 174.349C105.329 174.532 105.37 174.616 105.32 174.578ZM118.779 184.509C118.057 184.068 117.168 183.443 118.692 184.406C118.159 184.062 117.631 183.714 117.107 183.364C119.097 184.62 118.929 184.572 119.506 184.932C120.318 185.429 120.284 185.342 120.129 185.228C120.77 185.67 123.62 187.357 125.292 188.266C123.82 187.482 121.437 186.128 120.027 185.267C119.62 185.02 119.237 184.765 118.894 184.552C118.345 184.21 118.82 184.534 118.782 184.511C118.781 184.51 118.78 184.51 118.779 184.509ZM100.386 170.126C99.1209 168.941 99.9493 169.659 100.65 170.346C100.68 170.376 100.418 170.155 100.386 170.126ZM132.54 191.998C134.671 192.94 133.113 192.247 137.566 194.216C135.699 193.385 137.473 194.147 137.112 193.977C136.822 193.843 135.714 193.376 136.366 193.629C135.502 193.307 131.908 191.648 131.744 191.559C131.745 191.56 131.747 191.56 131.748 191.561C131.65 191.517 131.863 191.689 132.54 191.998ZM110.22 178.63C109.707 178.341 109.601 178.103 108.663 177.455C107.52 176.457 111.982 180.01 112.613 180.317C107.61 176.679 115.981 182.649 112.401 180.215C115.339 182.249 113.346 180.905 113.787 181.238C114.252 181.589 115.93 182.705 115.83 182.671C115.83 182.67 115.829 182.669 115.828 182.669C114.8 181.978 113.803 181.286 112.791 180.56C113.814 181.211 111.744 179.761 111.036 179.291C110.763 179.071 110.496 178.855 110.22 178.63ZM115.932 182.62C115.823 182.558 113.626 181.038 113.78 181.122C114.062 181.328 117.217 183.459 115.932 182.62ZM126.026 188.711C125.177 188.255 123.881 187.544 123.433 187.258C124.278 187.743 125.573 188.44 126.026 188.711ZM88.7286 156.776C88.0276 155.768 90.2454 158.83 89.5858 157.958C89.5546 157.922 88.7599 156.827 88.7286 156.776ZM108.021 176.908C107.038 176.152 107.542 176.459 108.25 177.047C108.291 177.081 108.067 176.943 108.021 176.908ZM134.247 192.793C134.307 192.852 137.407 194.19 137.963 194.407C137.651 194.275 134.16 192.744 134.247 192.793ZM127.493 189.57C125.747 188.743 123.536 187.405 123.282 187.258C123.034 187.118 123.407 187.365 123.35 187.334C123.213 187.268 120.615 185.737 120.499 185.654C120.411 185.598 120.9 185.846 120.373 185.511C121.373 186.187 126.197 188.884 126.459 188.998C126.655 189.105 125.15 188.36 127.49 189.569C127.491 189.569 127.492 189.57 127.493 189.57ZM122.658 186.909C123.32 187.273 121.49 186.209 121.054 185.949C120.074 185.381 122.567 186.868 122.658 186.909ZM118.301 184.285C118.093 184.164 116.267 182.981 116.123 182.855C117.003 183.417 118.764 184.57 118.301 184.285ZM99.3186 169.275C98.9213 168.885 97.8101 167.778 97.7634 167.701C98.1556 168.114 99.2681 169.204 99.3186 169.275ZM144.878 197.189C143.981 196.893 146.047 197.616 146.652 197.802C146.688 197.805 144.955 197.218 144.878 197.189ZM107.753 176.905C107.46 176.741 102.248 172.282 101.598 171.589C102.249 172.252 107.417 176.66 107.683 176.818C107.751 176.875 107.787 176.93 107.753 176.905ZM119.862 185.4C120.388 185.752 120.753 185.935 120.821 185.975C121.482 186.372 122.872 187.186 122.58 186.987C121.385 186.319 118.823 184.702 119.862 185.4ZM98.8939 169.015C97.259 167.371 100.433 170.49 100.006 170.093C99.9763 170.069 99.0601 169.185 98.8939 169.015ZM108.346 177.384C108.703 177.755 114.24 181.81 115.17 182.376C114.376 181.79 113.717 181.372 112.634 180.595C112.343 180.386 112.43 180.429 112.399 180.407C111.898 180.044 112.262 180.33 111.954 180.106C111.746 179.988 107.784 176.929 108.346 177.384ZM120.16 185.603C120.467 185.829 124.164 187.986 124.325 188.052C125.458 188.672 120.424 185.797 120.16 185.603ZM107.834 177.021C108.369 177.519 111.103 179.568 109.261 178.131C109.085 177.994 108.33 177.43 107.834 177.021ZM99.0392 169.219C98.9588 169.151 97.2416 167.417 97.2295 167.374C97.4654 167.635 99.9702 170.126 99.0392 169.219ZM99.9013 170.129C99.8602 170.088 100.285 170.464 99.4696 169.675C99.4019 169.607 99.254 169.516 98.2532 168.493C98.0494 168.284 97.7491 167.947 97.7728 167.97C98.8345 169.025 102.012 172.168 99.9013 170.129ZM120.215 185.664C120.01 185.554 120.468 185.879 120.905 186.118C121.092 186.22 120.764 185.999 120.215 185.664ZM93.7844 163.617C94.6821 164.706 91.8025 161.33 91.691 161.14C91.7773 161.244 93.6883 163.52 93.7844 163.617ZM146.911 198.059C146.91 198.059 146.909 198.059 146.908 198.058C148.039 198.42 147.346 198.175 147.398 198.191C149.831 198.934 149.174 198.761 149.552 198.885C150.362 199.138 150.238 199.051 151.613 199.467C149.349 198.782 151.407 199.39 151.483 199.391C151.749 199.396 148.459 198.548 147.33 198.151C147.173 198.1 148.343 198.447 147.942 198.312C146.637 197.885 142.593 196.626 146.911 198.059ZM121.234 186.318C121.68 186.632 125.335 188.673 124.378 188.11C124.218 188.037 120.547 185.885 121.234 186.318ZM168.731 88.7164C167.799 88.352 169.984 89.1335 170.382 89.3088C170.58 89.3912 169.141 88.8734 168.731 88.7164ZM183.686 95.243C184.749 95.8003 185.816 96.4692 184.511 95.7578C184.373 95.6819 183.559 95.1891 183.686 95.243ZM107.552 84.7389C108.748 84.3434 108.693 84.4193 107.807 84.6852C107.496 84.7808 107.515 84.7516 107.552 84.7389ZM154.867 84.48C154.988 84.5046 156.399 84.8556 156.341 84.8558C155.821 84.7282 154.075 84.3049 154.867 84.48ZM107.17 84.8512C107.88 84.6386 106.68 85.0495 105.792 85.3184C106.235 85.1668 107.098 84.8717 107.17 84.8512ZM105.764 175.487C105.3 175.074 103.977 173.954 103.223 173.275C103.121 173.232 105.21 175.031 105.764 175.487ZM179.129 93.0216C180.146 93.5233 177.941 92.5043 178.154 92.5777C178.183 92.5884 179.089 93.0008 179.129 93.0216ZM78.2304 110.964C78.5027 110.176 77.7177 112.705 77.9104 112.002C77.9167 111.966 78.2116 111.007 78.2304 110.964ZM76.2959 122.309C76.2794 121.674 76.4852 118.996 76.4226 120.041C76.399 120.202 76.3004 122.259 76.2959 122.309ZM149.613 198.924C149.284 198.859 151.146 199.403 151.422 199.472C151.523 199.501 150.043 199.017 149.613 198.924ZM115.496 82.7921C116.149 82.6707 117.793 82.4001 118.095 82.3753C117.304 82.48 115.296 82.8556 115.496 82.7921ZM174.425 90.9163C175.35 91.2701 176.882 91.9552 176.485 91.8248C174.792 91.0787 176.718 91.8752 174.425 90.9163ZM103.196 86.2318C103.689 86.0333 104.072 85.9323 104.019 85.9543C103.502 86.1682 102.713 86.4419 103.196 86.2318ZM141.729 82.1402C141.76 82.1233 143.41 82.3343 143.188 82.3193C143.114 82.3112 141.703 82.1489 141.729 82.1402ZM90.6599 159.986C90.1787 159.395 91.5976 161.24 92.048 161.749C92.2737 161.993 90.718 160.072 90.6599 159.986ZM90.5937 93.4524C90.5065 93.4677 92.6179 91.8917 91.8001 92.5325C91.5906 92.689 90.62 93.4372 90.5937 93.4524ZM77.2181 114.359C77.441 113.504 77.1008 114.876 76.8653 116.245C76.6224 117.617 76.478 118.968 76.575 118.001C76.5533 117.862 77.1439 114.5 77.2181 114.359ZM76.3565 126.366C76.3352 126.066 76.2454 126.221 76.3937 127.467C76.4129 127.631 76.3647 126.862 76.3826 126.995C76.3728 127.075 76.7053 129.784 76.7408 129.902C76.7587 130.035 76.7077 129.882 76.7252 130.018C76.7391 130.169 77.0424 131.831 77.2291 132.677C77.5766 134.29 77.6206 134.472 77.6486 134.603C77.7432 134.983 77.9227 135.616 78.1433 136.386C79.1856 140.281 81.6473 145.951 83.2356 148.694C81.8849 146.209 80.7696 143.751 79.7639 141.112C79.9897 141.916 78.3959 137.185 79.3161 139.958C78.5683 138.793 76.0866 127.422 76.3568 126.369C76.3567 126.368 76.3566 126.367 76.3565 126.366ZM187.837 97.4723C187.218 97.0777 190.477 98.9694 190.719 99.1717C190.301 98.9151 187.921 97.5156 187.837 97.4723ZM172.232 89.8735C171.914 89.7427 171.621 89.5531 169.895 88.9258C169.893 88.9253 169.891 88.9247 169.89 88.9241C169.385 88.7424 169.952 88.9712 169.858 88.9412C169.824 88.9285 168.249 88.3721 169.547 88.8611C171.525 89.6211 169.749 88.8901 170.806 89.2956C170.938 89.342 172.914 90.1637 172.792 90.1257C172.78 90.1212 172.189 89.875 172.09 89.8388C171.715 89.7004 171.888 89.7888 171.835 89.7687C171.662 89.6903 168.511 88.4554 168.042 88.327C167.889 88.252 173.075 90.2657 173.257 90.3681C173.384 90.4176 173.35 90.3501 173.482 90.3997C173.551 90.4205 175.602 91.3112 175.87 91.4293C175.947 91.4616 176.007 91.486 176.05 91.5038C175.737 91.3798 177.576 92.1981 177.527 92.1607C177.498 92.1381 176.23 91.5748 176.184 91.5578C176.164 91.5495 176.147 91.5425 176.13 91.5359C176.412 91.6193 172.061 89.7886 173.011 90.1613C171.756 89.635 173.174 90.27 172.232 89.8735ZM166.082 87.5539C166.214 87.6045 166.346 87.6554 166.478 87.7066C164.226 86.9121 161.581 86.1023 158.918 85.37C158.241 85.1849 159.028 85.3657 158.139 85.1344C157.427 84.95 156.636 84.779 157.019 84.8841C157.113 84.908 158.562 85.2695 159.286 85.4764C161.42 86.0869 160.862 85.9652 160.989 86.0002C161.125 86.0395 162.46 86.42 163.187 86.6526C165.015 87.2389 165.822 87.5164 168.295 88.3831C166.884 87.857 167.672 88.0929 166.082 87.5539ZM82.8959 101.502C82.8225 101.564 81.9451 102.897 81.6478 103.397C81.7043 103.324 82.5525 101.969 82.8959 101.502ZM218.252 193.695C217.851 193.973 220.802 191.786 220.037 192.379C219.876 192.518 218.639 193.437 218.252 193.695ZM229.598 181.854C229.868 181.442 228.827 183.13 228.801 183.108C228.802 183.105 229.569 181.912 229.598 181.854ZM135.779 81.5021C135.687 81.4938 134.357 81.4365 134.317 81.4385C133.432 81.4186 137.815 81.634 135.779 81.5021ZM235.115 162.845C235.088 164.546 235.08 159.429 235.109 160.992C235.12 161.071 235.126 162.759 235.115 162.845ZM234.684 155.758C234.749 156.151 234.957 157.958 234.942 157.981C234.942 158.019 234.7 155.956 234.684 155.758ZM102.826 86.2663C102.988 86.158 100.806 87.0969 100.045 87.4677C99.881 87.57 102.042 86.562 102.826 86.2663ZM117.327 82.3118C107.468 84.2369 109.649 83.7483 117.92 82.2365C117.929 82.2151 117.952 82.2161 117.327 82.3118ZM104.858 85.4674C105.205 85.3611 106.3 84.9736 107.028 84.7423C106.898 84.7643 105.379 85.2762 104.858 85.4674ZM214.576 196.043C215.15 195.777 217.523 194.252 217.089 194.506C217.001 194.59 214.376 196.163 214.576 196.043ZM134.944 81.4322C135.181 81.4032 132.181 81.3107 131.947 81.326C131.018 81.3297 134.71 81.3964 134.944 81.4322ZM90.4262 93.4038C89.9848 93.7211 88.8279 94.7166 88.1135 95.3946C88.4517 95.0945 89.7648 93.9234 90.4262 93.4038ZM96.2634 89.4C96.207 89.426 95.0388 90.1253 94.986 90.1649C94.0369 90.7592 97.3547 88.7782 96.2634 89.4ZM145.275 197.757C145.317 197.774 146.281 198.096 146.315 198.105C147.182 198.373 144.29 197.403 145.275 197.757Z" fill="#B8FF4F"/>
<path d="M70.4806 171.674L79.8911 161.436L85.0232 167.78C86.3918 169.471 90.2267 173.482 91.9731 175.276L79.6756 185.226L74.5434 178.882C73.1749 177.191 71.2647 173.372 70.4806 171.674Z" fill="white"/>
<path d="M185.649 225.442L192.066 211.504C190.568 211.84 186.89 212.542 184.153 212.658C181.415 212.774 175.527 212.931 173.46 212.563L170.358 227.317L172.817 227.077C174.361 226.926 182.013 226.051 185.649 225.442Z" fill="#B8FF4F"/>
<path d="M174.52 224.819L176.018 215.735L175.055 215.639L173.558 224.723L174.52 224.819Z" fill="white"/>
<path d="M169.386 227.22L172.488 212.466C171.718 212.389 169.957 211.889 169.173 211.649L165.537 226.836C166.649 227.336 168.566 227.301 169.386 227.22Z" fill="#B8FF4F"/>
<path d="M119.932 136.861C119.885 136.308 120.082 135.787 120.496 135.422L159.176 101.359C159.883 100.737 161.263 101.256 161.365 102.182L162.924 116.348C162.984 116.891 162.787 117.411 162.361 117.786L123.681 151.85C122.974 152.472 121.594 151.953 121.492 151.027L119.932 136.861Z" fill="url(#paint0_linear_251_1989)"/>
<path d="M169.719 121.842C169.075 121.815 168.467 122.003 168.041 122.378L129.361 156.442C128.654 157.064 129.328 158.206 130.429 158.252L147.27 158.96C147.915 158.988 148.522 158.8 148.949 158.424L187.629 124.36C188.335 123.738 187.662 122.596 186.56 122.55L169.719 121.842Z" fill="url(#paint1_linear_251_1989)"/>
<path d="M154.288 164.631C154.228 164.088 154.425 163.568 154.852 163.193L193.531 129.129C194.238 128.507 195.619 129.026 195.721 129.952L197.28 144.119C197.339 144.661 197.143 145.181 196.716 145.557L158.036 179.62C157.33 180.242 155.949 179.723 155.847 178.797L154.288 164.631Z" fill="url(#paint2_linear_251_1989)"/>
<defs>
<linearGradient id="paint0_linear_251_1989" x1="130.919" y1="104.533" x2="148.631" y2="181.962" gradientUnits="userSpaceOnUse">
<stop stop-color="#00FFA3"/>
<stop offset="1" stop-color="#DC1FFF"/>
</linearGradient>
<linearGradient id="paint1_linear_251_1989" x1="140.394" y1="102.365" x2="158.103" y2="179.796" gradientUnits="userSpaceOnUse">
<stop stop-color="#00FFA3"/>
<stop offset="1" stop-color="#DC1FFF"/>
</linearGradient>
<linearGradient id="paint2_linear_251_1989" x1="149.987" y1="100.164" x2="167.697" y2="177.605" gradientUnits="userSpaceOnUse">
<stop stop-color="#00FFA3"/>
<stop offset="1" stop-color="#DC1FFF"/>
</linearGradient>
</defs>
</svg>
