<svg width="28" height="28" viewBox="0 0 28 28" fill="none" xmlns="http://www.w3.org/2000/svg">
<circle cx="13.626" cy="13.626" r="13.626" fill="#0B2818"/>
<path d="M13.5578 13.7064L13.3262 13.4815C13.417 13.4543 13.5147 13.4338 13.6192 13.4202C13.7236 13.402 13.8326 13.3884 13.9462 13.3793C14.0643 13.3657 14.1869 13.3589 14.3141 13.3589C14.9681 13.3589 15.5404 13.4588 16.031 13.6587C16.526 13.854 16.9121 14.1378 17.1892 14.5103C17.4662 14.8782 17.6048 15.3188 17.6048 15.832C17.6048 16.4588 17.4435 17.0038 17.121 17.4671C16.8031 17.9304 16.3466 18.2892 15.7516 18.5436C15.1612 18.7979 14.4549 18.9251 13.6328 18.9251C12.8425 18.9251 12.1839 18.8297 11.657 18.639C11.1301 18.4437 10.735 18.1779 10.4716 17.8418C10.2127 17.5057 10.0832 17.1242 10.0832 16.6973C10.0832 16.2612 10.2263 15.9047 10.5124 15.6276C10.7986 15.346 11.1506 15.2052 11.5684 15.2052C12.0226 15.2052 12.3633 15.3256 12.5904 15.5663C12.822 15.8025 12.9379 16.1159 12.9379 16.5065V17.2423C12.9379 17.5103 12.9969 17.7396 13.115 17.9304C13.2331 18.1166 13.4011 18.2097 13.6192 18.2097C13.8326 18.2097 14.0143 18.1462 14.1642 18.019C14.3141 17.8873 14.4299 17.6783 14.5117 17.3922C14.5934 17.106 14.6343 16.7291 14.6343 16.2612C14.6343 15.5663 14.5253 15.0712 14.3073 14.776C14.0893 14.4762 13.7918 14.3263 13.4148 14.3263H12.931C12.7494 14.3263 12.6131 14.2855 12.5223 14.2037C12.4314 14.122 12.386 14.0039 12.386 13.8494C12.386 13.7359 12.411 13.636 12.4609 13.5497C12.5155 13.4588 12.6086 13.3544 12.7403 13.2363L15.7584 10.6064L15.8402 11.4376H12.2225C12.0363 11.4376 11.8909 11.4717 11.7865 11.5398C11.682 11.6034 11.6116 11.7079 11.5753 11.8532L11.4322 12.4051C11.4049 12.5323 11.3459 12.6344 11.2551 12.7117C11.1688 12.7889 11.0438 12.8275 10.8803 12.8275C10.7214 12.8275 10.5896 12.7843 10.4852 12.698C10.3853 12.6117 10.3444 12.48 10.3625 12.3029L10.6078 9.7412C10.626 9.54589 10.7032 9.39374 10.8395 9.28473C10.9803 9.17118 11.1665 9.1144 11.3981 9.1144H16.9575C17.2255 9.1144 17.4163 9.14847 17.5298 9.2166C17.6479 9.28019 17.707 9.38692 17.707 9.53681C17.707 9.63219 17.6706 9.74347 17.5979 9.87065C17.5253 9.99328 17.3708 10.1636 17.1347 10.3816L13.5578 13.7064Z" fill="white"/>
</svg>
