<svg width="1440" height="653" viewBox="0 0 1440 653" fill="none" xmlns="http://www.w3.org/2000/svg">
<g clip-path="url(#clip0_29_483)">
<rect width="1440" height="653" rx="40" fill="#0B2818"/>
<g opacity="0.05">
<path d="M1949.91 399.205L-704.702 3053.82" stroke="#B8FF4F" stroke-width="4.98398"/>
<path d="M660.048 -890.656L-1994.56 1763.96" stroke="#B8FF4F" stroke-width="4.98398"/>
<path d="M767.537 -783.167L-1887.07 1871.44" stroke="#B8FF4F" stroke-width="4.98398"/>
<path d="M875.024 -675.679L-1779.59 1978.93" stroke="#B8FF4F" stroke-width="4.98398"/>
<path d="M982.512 -568.191L-1672.1 2086.42" stroke="#B8FF4F" stroke-width="4.98398"/>
<path d="M1090 -460.701L-1564.61 2193.91" stroke="#B8FF4F" stroke-width="4.98398"/>
<path d="M1197.49 -353.214L-1457.12 2301.4" stroke="#B8FF4F" stroke-width="4.98398"/>
<path d="M1304.98 -245.725L-1349.63 2408.89" stroke="#B8FF4F" stroke-width="4.98398"/>
<path d="M1412.47 -138.237L-1242.14 2516.37" stroke="#B8FF4F" stroke-width="4.98398"/>
<path d="M1519.96 -30.749L-1134.66 2623.86" stroke="#B8FF4F" stroke-width="4.98398"/>
<path d="M1627.44 76.7398L-1027.17 2731.35" stroke="#B8FF4F" stroke-width="4.98398"/>
<path d="M1734.93 184.228L-919.681 2838.84" stroke="#B8FF4F" stroke-width="4.98398"/>
<path d="M1842.42 291.717L-812.19 2946.33" stroke="#B8FF4F" stroke-width="4.98398"/>
<path d="M1266.2 2293.47L-1388.41 -361.138" stroke="#B8FF4F" stroke-width="4.98398"/>
<path d="M2556.06 1003.61L-98.5508 -1651" stroke="#B8FF4F" stroke-width="4.98398"/>
<path d="M2448.57 1111.1L-206.041 -1543.51" stroke="#B8FF4F" stroke-width="4.98398"/>
<path d="M2341.08 1218.59L-313.527 -1436.02" stroke="#B8FF4F" stroke-width="4.98398"/>
<path d="M2233.59 1326.08L-421.016 -1328.53" stroke="#B8FF4F" stroke-width="4.98398"/>
<path d="M2126.1 1433.57L-528.506 -1221.04" stroke="#B8FF4F" stroke-width="4.98398"/>
<path d="M2018.62 1541.05L-635.994 -1113.56" stroke="#B8FF4F" stroke-width="4.98398"/>
<path d="M1911.13 1648.54L-743.481 -1006.07" stroke="#B8FF4F" stroke-width="4.98398"/>
<path d="M1803.64 1756.03L-850.971 -898.58" stroke="#B8FF4F" stroke-width="4.98398"/>
<path d="M1696.15 1863.52L-958.459 -791.091" stroke="#B8FF4F" stroke-width="4.98398"/>
<path d="M1588.66 1971.01L-1065.95 -683.603" stroke="#B8FF4F" stroke-width="4.98398"/>
<path d="M1481.18 2078.5L-1173.43 -576.114" stroke="#B8FF4F" stroke-width="4.98398"/>
<path d="M1373.69 2185.98L-1280.92 -468.626" stroke="#B8FF4F" stroke-width="4.98398"/>
<path d="M1171.04 2409.77L-1483.57 -244.839" stroke="#B8FF4F" stroke-width="4.98398"/>
<path d="M1063.56 2517.26L-1591.05 -137.35" stroke="#B8FF4F" stroke-width="4.98398"/>
<path d="M956.069 2624.75L-1698.54 -29.8618" stroke="#B8FF4F" stroke-width="4.98398"/>
<path d="M848.58 2732.24L-1806.03 77.6265" stroke="#B8FF4F" stroke-width="4.98398"/>
<path d="M741.091 2839.73L-1913.52 185.115" stroke="#B8FF4F" stroke-width="4.98398"/>
<path d="M633.603 2947.21L-2021.01 292.603" stroke="#B8FF4F" stroke-width="4.98398"/>
<path d="M526.115 3054.7L-2128.5 400.091" stroke="#B8FF4F" stroke-width="4.98398"/>
<path d="M418.625 3162.19L-2235.99 507.58" stroke="#B8FF4F" stroke-width="4.98398"/>
<path d="M311.137 3269.68L-2343.47 615.068" stroke="#B8FF4F" stroke-width="4.98398"/>
</g>
</g>
<defs>
<clipPath id="clip0_29_483">
<rect width="1440" height="653" rx="40" fill="white"/>
</clipPath>
</defs>
</svg>
