<svg width="1405" height="1365" viewBox="0 0 1405 1365" fill="none" xmlns="http://www.w3.org/2000/svg">
<g clip-path="url(#clip0_52_396)">
<rect width="1405" height="1365" fill="#F7F4EE"/>
<g opacity="0.13">
<path d="M1464.5 721H-42" stroke="#0B2818" stroke-width="2"/>
<path d="M1464.5 50H-42" stroke="#0B2818" stroke-width="2"/>
<path d="M1464.5 111H-42" stroke="#0B2818" stroke-width="2"/>
<path d="M1464.5 172H-42" stroke="#0B2818" stroke-width="2"/>
<path d="M1464.5 233H-42" stroke="#0B2818" stroke-width="2"/>
<path d="M1464.5 294H-42" stroke="#0B2818" stroke-width="2"/>
<path d="M1464.5 355H-42" stroke="#0B2818" stroke-width="2"/>
<path d="M1464.5 416H-42" stroke="#0B2818" stroke-width="2"/>
<path d="M1464.5 477H-42" stroke="#0B2818" stroke-width="2"/>
<path d="M1464.5 538H-42" stroke="#0B2818" stroke-width="2"/>
<path d="M1464.5 599H-42" stroke="#0B2818" stroke-width="2"/>
<path d="M1464.5 660H-42" stroke="#0B2818" stroke-width="2"/>
<path d="M1464.5 773H-42" stroke="#0B2818" stroke-width="2"/>
<path d="M1464.5 834H-42" stroke="#0B2818" stroke-width="2"/>
<path d="M1464.5 895H-42" stroke="#0B2818" stroke-width="2"/>
<path d="M1464.5 956H-42" stroke="#0B2818" stroke-width="2"/>
<path d="M1464.5 1017H-42" stroke="#0B2818" stroke-width="2"/>
<path d="M1464.5 1078H-42" stroke="#0B2818" stroke-width="2"/>
<path d="M1464.5 1139H-42" stroke="#0B2818" stroke-width="2"/>
<path d="M1464.5 1200H-42" stroke="#0B2818" stroke-width="2"/>
<path d="M1464.5 1261H-42" stroke="#0B2818" stroke-width="2"/>
<path d="M1464.5 1322H-42" stroke="#0B2818" stroke-width="2"/>
<path d="M733 1408.5L733 -98" stroke="#0B2818" stroke-width="2"/>
<path d="M1404 1408.5L1404 -98" stroke="#0B2818" stroke-width="2"/>
<path d="M1343 1408.5L1343 -98" stroke="#0B2818" stroke-width="2"/>
<path d="M1282 1408.5L1282 -98" stroke="#0B2818" stroke-width="2"/>
<path d="M1221 1408.5L1221 -98" stroke="#0B2818" stroke-width="2"/>
<path d="M1160 1408.5L1160 -98" stroke="#0B2818" stroke-width="2"/>
<path d="M1099 1408.5L1099 -98" stroke="#0B2818" stroke-width="2"/>
<path d="M1038 1408.5L1038 -98" stroke="#0B2818" stroke-width="2"/>
<path d="M977 1408.5L977 -98" stroke="#0B2818" stroke-width="2"/>
<path d="M916 1408.5L916 -98" stroke="#0B2818" stroke-width="2"/>
<path d="M855 1408.5L855 -98" stroke="#0B2818" stroke-width="2"/>
<path d="M794 1408.5L794 -98" stroke="#0B2818" stroke-width="2"/>
<path d="M673 1414.5L673 -92" stroke="#0B2818" stroke-width="2"/>
<path d="M612 1414.5L612 -92" stroke="#0B2818" stroke-width="2"/>
<path d="M551 1414.5L551 -92" stroke="#0B2818" stroke-width="2"/>
<path d="M490 1414.5L490 -92" stroke="#0B2818" stroke-width="2"/>
<path d="M429 1414.5L429 -92" stroke="#0B2818" stroke-width="2"/>
<path d="M368 1414.5L368 -92" stroke="#0B2818" stroke-width="2"/>
<path d="M307 1414.5L307 -92" stroke="#0B2818" stroke-width="2"/>
<path d="M246 1414.5L246 -92" stroke="#0B2818" stroke-width="2"/>
<path d="M185 1414.5L185 -92" stroke="#0B2818" stroke-width="2"/>
<path d="M124 1414.5L124 -92" stroke="#0B2818" stroke-width="2"/>
<path d="M62.9999 1414.5L63 -92" stroke="#0B2818" stroke-width="2"/>
<path d="M1.99993 1414.5L2 -92" stroke="#0B2818" stroke-width="2"/>
</g>
</g>
<defs>
<clipPath id="clip0_52_396">
<rect width="1405" height="1365" fill="white"/>
</clipPath>
</defs>
</svg>
