<svg width="76" height="27" viewBox="0 0 76 27" fill="none" xmlns="http://www.w3.org/2000/svg">
<path d="M19.6005 6.02505V8.26104H16.8055V6.02505H19.6005ZM19.6005 9.93804V20H16.8055V9.93804H19.6005ZM25.1954 11.615V12.174H24.6364V20H21.8414V9.37904H24.6364V9.93804H25.1954V9.37904H28.5494V9.93804H29.6674V10.497H30.2264V11.615H30.7854V20H27.9904V12.174H27.4314V11.615H25.1954ZM35.2677 16.087V16.646H37.5037V16.087H38.0627V11.615H35.2677V12.174H34.7087V16.087H35.2677ZM34.7087 20V20.559H35.2677V21.118H37.5037V20.559H38.0627V18.323H37.5037V18.882H34.1497V18.323H33.0317V17.764H32.4727V16.646H31.9137V11.615H32.4727V10.497H33.0317V9.93804H34.1497V9.37904H40.8577V21.118H40.2987V22.236H39.7397V22.795H38.6217V23.354H34.1497V22.795H33.0317V22.236H32.4727V21.118H31.9137V20H34.7087Z" fill="white"/>
<path d="M48.694 9.37904V8.82004H45.899V12.733H48.694V12.174H49.253V9.37904H48.694ZM50.371 14.969V15.528H45.899V20H43.1041V6.02505H49.812V6.58405H50.93V7.14305H51.489V8.26104H52.048V13.292H51.489V13.851H50.93V14.969H50.371ZM57.0899 15.528V16.087H56.5309V17.205H57.0899V17.764H59.3259V17.205H59.8849V15.528H57.0899ZM54.2949 18.882V17.764H53.7359V16.087H54.2949V14.969H54.8539V14.41H55.9719V13.851H59.8849V12.174H59.3259V11.615H57.0899V12.174H56.5309V12.733H53.7359V11.615H54.2949V10.497H54.8539V9.93804H55.9719V9.37904H60.4439V9.93804H61.5619V10.497H62.1209V11.615H62.6799V20H59.8849V19.441H59.3259V20H55.4129V19.441H54.8539V18.882H54.2949ZM66.0443 21.118V20.559H66.6033V20H67.1623V19.441H67.7213V18.882H67.1623V18.323H66.6033V17.764H66.0443V17.205H65.4853V16.646H64.9263V9.37904H67.7213V16.087H68.2803V16.646H68.8393V17.205H69.9573V16.646H70.5162V16.087H71.0752V9.37904H73.8702V16.646H73.3112V17.205H72.7522V17.764H72.1932V18.323H71.6342V18.882H71.0752V19.441H70.5162V20H69.9573V20.559H69.3983V21.118H68.8393V21.677H68.2803V22.236H67.7213V22.795H67.1623V23.354H65.4853V21.118H66.0443Z" fill="#B8FF4F"/>
<path d="M9.40591 6.00882L5.85766 6.00882C5.35673 6.00882 4.91843 6.08163 4.54272 6.22718C4.17536 6.36466 5.88901 9.20913 5.58844 9.55685L4.42178 11.4402C4.42876 11.4498 3.72905 12.5101 3.71659 12.5082C3.49933 12.4757 0.994344 9.52643 0.885809 9.38088C0.777288 9.23533 0.748086 9.03322 0.798168 8.77448L1.46183 5.23254C1.53697 4.88482 1.65811 4.63411 1.8251 4.48046C1.99208 4.32682 2.22588 4.25 2.52644 4.25C2.7101 4.25001 2.88957 4.28641 3.06488 4.35918C3.2402 4.42387 3.44058 4.49258 3.66599 4.56535C3.89977 4.63004 4.17539 4.66243 4.49266 4.66243L14.236 4.66244C14.4865 4.66244 14.6744 4.71498 14.7996 4.82011C14.9332 4.92524 15 5.07889 15 5.28104C15 5.39424 14.9665 5.52764 14.8998 5.68127C14.8413 5.82683 14.7495 5.99671 14.6242 6.19079L10.2317 13.1351L4.88678 13.1351L9.40591 6.00882Z" fill="white"/>
<path d="M0.112409 21.0854C0.110396 21.0621 0.109313 21.0381 0.109313 21.0135C0.109313 20.9919 0.110554 20.9699 0.112409 20.9476V21.0854Z" fill="white"/>
<path d="M5.59409 20.4912H9.14234C9.64327 20.4912 10.0816 20.4184 10.4573 20.2728C10.8246 20.1353 9.11099 17.2909 9.41156 16.9431L10.5782 15.0598C10.5712 15.0502 11.2709 13.9899 11.2834 13.9918C11.5007 14.0243 14.0057 16.9736 14.1142 17.1191C14.2227 17.2647 14.2519 17.4668 14.2018 17.7255L13.5382 21.2675C13.463 21.6152 13.3419 21.8659 13.1749 22.0195C13.0079 22.1732 12.7741 22.25 12.4736 22.25C12.2899 22.25 12.1104 22.2136 11.9351 22.1408C11.7598 22.0761 11.5594 22.0074 11.334 21.9347C11.1002 21.87 10.8246 21.8376 10.5073 21.8376L0.764005 21.8376C0.513532 21.8376 0.325605 21.785 0.200369 21.6799C0.0668078 21.5748 -1.82458e-08 21.4211 0 21.219C4.18908e-06 21.1058 0.0334543 20.9724 0.100238 20.8187C0.158681 20.6732 0.250521 20.5033 0.375758 20.3092L4.88678 13.1351L10.2317 13.1351L5.59409 20.4912Z" fill="white"/>
<path d="M14.8876 5.41462C14.8896 5.43792 14.8907 5.46187 14.8907 5.48648C14.8907 5.50808 14.8894 5.53006 14.8876 5.55244V5.41462Z" fill="white"/>
</svg>
