<svg width="387" height="529" viewBox="0 0 387 529" fill="none" xmlns="http://www.w3.org/2000/svg">
<rect x="0.5" y="0.5" width="386" height="365" rx="64.5" fill="#0B2818" stroke="black"/>
<path d="M70.1504 55.8232C72.0095 53.3985 74.6596 51.8333 78.1943 52.0146C82.2503 52.2229 85.2543 54.2025 87.4004 57.0752C89.4931 59.8765 90.7837 63.5299 91.6279 67.2725C93.197 74.2286 93.3721 82.3515 93.7363 87.2021L93.8125 88.1279V88.1309C95.3201 105.199 96.3673 122.304 96.9521 139.428L97.0635 142.853V142.859C97.1025 144.298 97.0813 146.417 97.0615 148.774C97.0416 151.154 97.0226 153.817 97.0615 156.41C97.1005 159.01 97.1975 161.498 97.4043 163.531C97.5078 164.548 97.6354 165.418 97.7871 166.112C97.946 166.839 98.1033 167.239 98.2012 167.407C102.428 174.685 108.76 182.499 115.558 190.208C118.949 194.053 122.435 197.85 125.812 201.524C128.524 204.475 131.169 207.351 133.624 210.096C152.635 180.538 172.133 151.273 193.076 122.761C200.442 112.733 209.302 99.946 220.058 92.0391C225.48 88.0531 231.495 85.2163 238.156 84.6191C244.843 84.0197 251.985 85.6954 259.604 90.3975C274.745 99.7406 280.903 117.039 286.108 132.484L287.139 135.546L287.141 135.55C292.928 152.836 298.134 170.311 302.753 187.945L303.648 191.301C305.695 199.083 307.795 207.718 310.057 214.829C310.395 215.123 310.837 215.502 311.358 215.95C312.102 216.589 312.975 217.344 313.831 218.119C314.683 218.89 315.543 219.703 316.254 220.454C316.787 221.017 317.362 221.679 317.754 222.332C325.441 229.173 336.283 238.428 345.414 248.649C354.588 258.919 362.401 270.551 363.281 282.073C364.38 296.452 354.781 310.299 344.229 318.438C346.324 318.093 348.535 318.286 351.047 319.707H351.046C353.285 320.96 354.865 323.125 355.378 325.639H355.379C356.655 331.746 354.273 336.991 350.444 340.837C347.031 344.265 342.393 346.678 337.82 347.827C337.318 354.137 335.621 359.153 332.928 363.104C330.017 367.374 326.042 370.257 321.499 372.202C313.115 375.791 302.56 376.263 292.604 376.381C293.123 389.269 294.875 404.644 295.651 417.911V417.912C297.357 447.201 298.14 476.534 298 505.871C298.993 506.523 300.267 507.29 301.738 508.201C303.607 509.358 305.71 510.701 307.604 512.17C309.477 513.622 311.281 515.297 312.442 517.16C313.632 519.069 314.247 521.361 313.319 523.771L313.191 524.104L312.956 524.371C312.639 524.733 312.171 525.232 311.599 525.654C311.045 526.063 310.205 526.541 309.164 526.571H309.161C283.393 527.274 257.338 526.661 231.639 526.834H231.638C229.988 526.844 228.544 526.759 227.34 526.472C226.11 526.178 224.97 525.636 224.144 524.616C223.33 523.612 223.027 522.399 222.938 521.19C222.849 519.993 222.958 518.602 223.147 517.062V517.062C227.807 479.182 228.858 440.922 227.089 402.789V402.788C226.58 391.668 225.429 380.849 224.693 369.615C217.073 368.296 209.474 366.86 201.898 365.312C198.318 375.064 194.085 385.319 190.34 394.872L168.767 450.144L152.865 490.872L152.864 490.875C149.764 498.778 146.795 507.168 143.084 515.005L143.085 515.006C142.452 516.343 141.486 518.343 140.32 520.21C139.205 521.996 137.704 524.004 135.893 525.016L135.892 525.017C133.319 526.452 130.157 526.768 127.75 526.906H127.747C124.714 527.076 108.529 527.009 92.7471 526.745C84.8318 526.613 76.9753 526.43 70.8613 526.199C67.8065 526.084 65.1713 525.956 63.1758 525.815C62.1799 525.745 61.3245 525.671 60.6475 525.591C60.0397 525.519 59.3839 525.423 58.917 525.261L58.9082 525.258C58.4233 525.086 57.8582 524.835 57.3555 524.364C56.8436 523.885 56.5501 523.323 56.3447 522.792L56.3438 522.791C55.5282 520.681 55.9349 518.557 56.7637 516.712C57.5872 514.879 58.9157 513.112 60.3105 511.521C61.7156 509.917 63.2854 508.385 64.6494 507.052C66.06 505.673 67.1851 504.567 67.875 503.701L68.2393 503.231C70.0215 500.873 71.2417 498.321 72.4512 495.394C76.0558 486.656 79.8294 477.989 83.5918 469.341C87.357 460.686 91.1111 452.051 94.6914 443.349C107.291 412.555 119.365 381.553 130.91 350.353C128.058 349.855 124.988 349.377 121.782 348.873C117.696 348.231 113.403 347.547 109.15 346.731C100.682 345.108 92.1797 342.931 85.5879 339.381V339.38C79.7101 336.214 76.0741 332.295 74.249 327.813C72.4335 323.355 72.5125 318.593 73.585 313.916C75.7012 304.688 81.8832 295.09 86.373 287.553L86.374 287.551L96.9658 269.811C87.7277 262.798 78.6682 255.557 69.7959 248.089V248.088C64.6899 243.846 58.7674 239.126 53.6572 233.823C48.5369 228.51 44.0767 222.46 41.9785 215.456C39.2218 206.253 38.8739 195.829 39.4326 185.544C39.9503 176.015 41.2608 166.402 42.2354 157.904C42.0052 157.859 41.77 157.807 41.5303 157.742C33.0982 155.469 27.4306 151.927 23.8779 147.312C20.3228 142.695 19.0729 137.248 19.0029 131.538C18.9334 125.859 20.0305 119.769 21.3018 113.746C22.589 107.647 24.0465 101.648 24.835 95.8477L24.9014 95.4043C25.2701 93.1449 26.1796 90.2792 27.4062 87.6963C28.6703 85.0347 30.4882 82.2036 32.7852 80.8896C34.6108 79.8454 37.3896 79.3533 40.2812 79.1191C43.267 78.8774 46.7156 78.8897 50.1182 79.0547C55.7963 79.33 61.5743 80.045 65.0508 80.8037C65.2622 77.0158 65.357 70.2115 66.6172 64.4033C67.2982 61.2644 68.3659 58.1508 70.1504 55.8232ZM308.669 214.672C308.613 214.672 308.53 214.677 308.429 214.692L308.319 215.967L308.334 215.95L309.167 214.992C309.11 214.915 309.06 214.855 309.023 214.817C308.962 214.754 308.908 214.711 308.877 214.688C308.836 214.681 308.764 214.672 308.669 214.672Z" fill="#B8FF4F" stroke="#0B2818" stroke-width="4"/>
<path d="M44.4472 156.158C43.6193 156.099 42.8598 156.029 42.0506 155.811C9.44179 147.021 23.6104 119.706 26.8167 96.1173C27.382 91.9599 30.3208 84.6043 33.7786 82.6263C39.4158 79.4018 60.657 81.4816 66.1759 83.1476L66.9967 81.7473C72.2152 80.2915 74.6798 83.6244 75.9597 88.2492C78.2861 96.6563 76.5939 104.414 71.7611 111.518C76.2592 120.315 75.394 125.637 69.3173 133.355C74.0373 140.162 73.1134 148.594 66.4021 153.926C61.2365 158.031 50.8492 156.933 44.4472 156.158Z" fill="#B8FF4F"/>
<path d="M66.9943 81.7472C72.2128 80.2914 74.6774 83.6243 75.9573 88.2492C78.2837 96.6562 76.5914 104.414 71.7586 111.518C76.2568 120.314 75.3916 125.637 69.3149 133.355C74.0348 140.162 73.1109 148.594 66.3997 153.926C61.234 158.031 50.8467 156.933 44.4448 156.158C42.7574 154.528 42.3428 152.794 43.5605 150.712C47.5844 147.567 61.0012 153.257 64.3386 146.194C67.0014 140.559 65.0621 137.886 59.8773 135.69C54.5939 133.451 49.3691 132.308 43.6276 131.738C39.3871 131.117 30.3059 132.064 27.284 130.378C26.5032 129.263 26.2913 128.761 26.453 127.337C26.9023 123.623 32.5088 124.45 35.1445 124.417C45.2056 124.288 53.7224 126.007 63.1125 129.53C64.7208 127.867 66.6908 125.564 67.3574 123.295C72.6737 105.2 33.0185 113.976 29.6242 105.585C30.6237 100.04 38.1802 102.283 42.3073 102.836C50.1686 103.89 59.2312 104.207 66.5846 107.132C75.7169 90.0503 65.4371 90.7764 66.1735 83.1475L66.9943 81.7472Z" fill="#0B2818"/>
<path d="M316.172 223.603C331.672 237.417 359.634 260.592 361.287 282.225C362.345 296.064 352.732 309.72 342.102 317.537C340.365 318.883 338.68 319.999 338.325 322.23C338.343 317.999 336.205 306.329 335.339 301.583C332.121 283.887 328.126 266.343 323.362 249.002C321.314 241.372 317.656 230.657 316.172 223.603Z" fill="#B8FF4F"/>
<path d="M209.92 204.291C216.68 203.504 235.865 214.841 245.334 214.924C270.828 215.146 265.258 232.83 252.272 246.043C251.6 246.634 250.898 247.194 250.17 247.714C243.637 252.385 236.076 254.433 228.158 253.033C210.63 249.949 205.453 231.153 205.469 215.727C205.474 210.55 205.31 207.339 209.92 204.291Z" fill="#0B2818"/>
<path d="M216.01 229.297C226.333 228.862 232.845 232.65 238.228 241.728C239.033 243.083 239.466 244.208 239.016 245.714L237.69 246.101C228.734 247.416 221.8 245.127 216.823 237.177C215.698 235.381 214.163 231.971 214.673 229.866L216.01 229.297Z" fill="#B8FF4F"/>
<path d="M222.947 134.615C227.019 134.22 232.948 133.425 234.084 138.254C232.535 143.124 223.192 140.156 216.764 144.596L216.263 144.945C213.984 147.142 210.64 150.664 208.184 146.588C207.376 139.491 217.621 135.947 222.947 134.615Z" fill="#0B2818"/>
<path d="M259.542 157.952C265.409 158.173 278.357 166.215 271.724 172.12C271.153 172.193 269.717 172.36 269.352 171.911C267.248 169.326 258.522 164.265 257.748 161.64C257.947 159.901 258.518 159.378 259.542 157.952Z" fill="#0B2818"/>
<path d="M259.441 185.88C260.544 186.048 262.421 186.224 263.035 187.103C265.333 190.396 264.04 200.311 261.297 202.528C260.111 202.471 258.436 202.54 257.754 201.59C255.117 197.92 256.608 188.534 259.441 185.88Z" fill="#0B2818"/>
<path d="M218.002 176.662C219.646 176.609 220.651 176.358 221.911 177.32C224.577 180.668 223.213 190.094 220.353 193.025C219.16 193.047 217.824 193.114 216.953 192.228C214.203 189.429 215.921 179.131 218.002 176.662Z" fill="#0B2818"/>
<path d="M309 215.5C313.815 232.96 321.322 264.456 326 282.5C329.5 296 334.29 329.341 337.5 347.5" stroke="#0B2818" stroke-width="4" stroke-linecap="round"/>
</svg>
