<svg width="341" height="325" viewBox="0 0 341 325" fill="none" xmlns="http://www.w3.org/2000/svg">
<path d="M248.617 232.582C248.619 232.574 248.626 232.533 248.612 232.446C248.577 232.239 248.442 231.903 248.126 231.423C247.501 230.473 246.363 229.25 244.816 227.808C241.736 224.94 237.259 221.416 232.665 217.785C228.094 214.172 223.412 210.458 219.994 207.256C218.288 205.657 216.858 204.15 215.91 202.819C215.436 202.154 215.057 201.497 214.832 200.867C214.622 200.276 214.524 199.638 214.683 199.017L218.928 168.556C218.928 168.537 218.927 168.522 218.927 168.511C218.93 168.442 218.936 168.365 218.944 168.293C218.959 168.144 218.985 167.939 219.019 167.693C219.088 167.199 219.193 166.502 219.323 165.675C219.583 164.018 219.947 161.818 220.32 159.621C220.693 157.424 221.076 155.226 221.378 153.571C221.528 152.745 221.66 152.05 221.759 151.557C221.809 151.312 221.853 151.107 221.888 150.959C221.905 150.888 221.925 150.813 221.945 150.747C221.954 150.718 221.971 150.663 221.998 150.603C222.01 150.576 222.038 150.515 222.084 150.446C222.108 150.411 222.15 150.352 222.214 150.29C222.272 150.233 222.396 150.125 222.589 150.063L222.589 150.063C222.854 149.977 223.139 149.973 223.356 149.983C223.595 149.995 223.867 150.029 224.159 150.079C224.743 150.179 225.48 150.351 226.335 150.582C228.049 151.044 230.314 151.756 232.932 152.635C238.173 154.396 244.888 156.845 251.57 159.357C264.911 164.37 278.216 169.667 279.411 170.231C282.069 171.483 283.784 174.079 284.699 177.727L296.968 225.406L296.974 225.433C298.07 230.282 297.989 234.366 296.575 237.584C295.155 240.816 292.303 243.401 288.19 245.396C285.658 246.625 282.961 247.362 280.103 247.611L278.017 247.881C275.872 248.171 273.526 248.523 270.981 248.938C267.597 249.629 263.83 250.972 259.678 252.987L130.544 315.647C127.149 317.295 124.125 317.955 121.547 317.42L121.548 317.421C118.807 316.929 116.773 315.247 115.457 312.535C114.699 310.973 114.338 308.967 114.309 306.578C114.217 304.337 114.433 301.605 114.942 298.399L131.8 183.269L131.793 183.273L132.036 181.653L132.063 181.475L132.137 180.972L132.14 180.971L149.308 66.871L103.92 88.8949C97.3557 92.0801 92.0776 95.7321 88.0579 99.8361L88.0509 99.8439C88.048 99.8467 88.0449 99.8481 88.0438 99.8495C88.0421 99.8562 88.0344 99.8966 88.0496 99.9867C88.0846 100.194 88.2199 100.529 88.5358 101.009C89.1614 101.959 90.2976 103.183 91.8454 104.624C94.9255 107.492 99.4028 111.016 103.997 114.647C108.568 118.26 113.25 121.975 116.668 125.178C118.374 126.776 119.804 128.282 120.752 129.613C121.226 130.278 121.605 130.935 121.83 131.566C122.041 132.156 122.137 132.794 121.979 133.415L117.733 163.872C117.733 163.892 117.735 163.91 117.735 163.922C117.733 163.99 117.726 164.067 117.719 164.138C117.703 164.288 117.677 164.494 117.643 164.739C117.575 165.234 117.469 165.93 117.338 166.758C117.078 168.414 116.715 170.614 116.342 172.811C115.969 175.008 115.585 177.207 115.283 178.861C115.133 179.687 115.002 180.383 114.902 180.876C114.853 181.121 114.809 181.325 114.774 181.473C114.757 181.545 114.738 181.62 114.717 181.686C114.708 181.715 114.69 181.769 114.664 181.829C114.652 181.856 114.624 181.917 114.578 181.987C114.555 182.022 114.512 182.08 114.449 182.143C114.39 182.199 114.266 182.306 114.073 182.369L114.072 182.37C113.807 182.456 113.523 182.458 113.306 182.448C113.067 182.437 112.795 182.403 112.504 182.354C111.92 182.254 111.182 182.08 110.327 181.85C108.613 181.388 106.348 180.676 103.73 179.797C98.4888 178.036 91.7736 175.586 85.0918 173.075C71.751 168.061 58.4461 162.766 57.2503 162.202C54.5911 160.949 52.8749 158.35 51.9603 154.698L39.694 107.028L39.6903 107.013L39.6878 106.999C38.5923 102.15 38.673 98.0663 40.0873 94.8479L40.2245 94.5469C41.6868 91.4555 44.4874 88.9691 48.4711 87.036C51.0107 85.8038 53.7175 85.0646 56.5846 84.8184C59.268 84.4864 62.3067 84.0437 65.7016 83.4902C69.0797 82.7983 72.8398 81.4561 76.9836 79.4453L206.118 16.7844C209.512 15.1374 212.536 14.4765 215.114 15.0114L215.115 15.011C217.855 15.5024 219.889 17.1853 221.205 19.8969C221.963 21.4589 222.324 23.4661 222.353 25.8549C222.445 28.0938 222.228 30.8221 221.72 34.024L204.802 147.382L187.349 265.563L232.742 243.537C239.306 240.352 244.584 236.7 248.604 232.596L248.612 232.589C248.614 232.586 248.616 232.583 248.617 232.582Z" fill="#B8FF4F" stroke="black" stroke-width="1.91992"/>
<path d="M201.423 142.873L184.235 259.259L183.704 262.853L234 238.448C240.789 235.153 246.36 231.323 250.662 226.931L250.66 226.93C251.434 226.147 251.598 225.151 251.452 224.287C251.32 223.505 250.938 222.777 250.532 222.16C249.707 220.907 248.356 219.49 246.778 218.021C243.592 215.054 239.004 211.444 234.451 207.846C229.852 204.211 225.274 200.576 221.963 197.473C220.301 195.916 219.036 194.564 218.255 193.468C217.865 192.919 217.647 192.506 217.544 192.219C217.503 192.105 217.489 192.034 217.484 192L217.509 191.923L217.53 191.77L221.793 161.186L221.985 159.809L221.959 159.798C222.017 159.413 222.087 158.956 222.168 158.442C222.426 156.801 222.788 154.614 223.159 152.424C223.531 150.233 223.913 148.047 224.212 146.408C224.28 146.035 224.343 145.692 224.401 145.386C224.741 145.463 225.136 145.561 225.586 145.682C227.215 146.122 229.416 146.812 232.016 147.686C237.208 149.43 243.885 151.865 250.557 154.373C263.946 159.405 277.119 164.654 278.184 165.155C279.777 165.906 281.112 167.577 281.908 170.753L281.91 170.765L294.165 218.387C295.19 222.923 295.008 226.311 293.938 228.745C292.88 231.152 290.658 233.317 286.933 235.125C284.715 236.201 282.349 236.849 279.822 237.065L279.787 237.068L279.751 237.072L277.63 237.346C275.445 237.642 273.062 238.002 270.484 238.422L270.446 238.427L270.409 238.436L269.716 238.584C266.228 239.369 262.459 240.756 258.421 242.715L129.287 305.376C126.143 306.902 123.802 307.275 122.114 306.918L122.085 306.912L122.056 306.906L121.741 306.841C120.186 306.473 118.961 305.48 118.048 303.597C117.544 302.559 117.215 301.021 117.188 298.862L117.188 298.834L117.187 298.805C117.103 296.819 117.293 294.283 117.787 291.171L117.788 291.159L117.79 291.148L134.766 175.217L201.423 142.873ZM49.7284 81.9468C51.9459 80.8708 54.3119 80.2234 56.8392 80.0073L56.8759 80.0047L56.9118 80.0003C59.6503 79.6619 62.7398 79.2114 66.178 78.6507L66.2161 78.6442L66.2529 78.6372C69.9335 77.8863 73.9338 76.446 78.2409 74.3561L207.375 11.6952C210.519 10.1696 212.861 9.79769 214.548 10.1543L214.606 10.1655C216.311 10.4712 217.64 11.4656 218.614 13.474C218.837 13.933 219.024 14.4903 219.167 15.1551L217.919 15.8347L218.738 17.5234L219.434 17.2228C219.453 17.5364 219.469 17.8652 219.473 18.21L219.474 18.2379L219.475 18.2668C219.558 20.2532 219.37 22.7891 218.875 25.9017L218.874 25.91L218.873 25.9191L202.104 138.275L135.455 170.615L152.426 57.8175L152.969 54.2133L102.662 78.6238C96.0852 81.8154 90.6512 85.5101 86.407 89.731L86.0003 90.1411C85.227 90.9242 85.0644 91.9217 85.2102 92.7855C85.3421 93.5669 85.7243 94.2955 86.1305 94.9126C86.9555 96.1657 88.3057 97.5822 89.8829 99.0509C93.0691 102.018 97.6579 105.628 102.212 109.227C106.81 112.861 111.388 116.495 114.699 119.598C116.361 121.155 117.626 122.508 118.407 123.604C118.797 124.152 119.015 124.566 119.118 124.852C119.158 124.965 119.171 125.035 119.176 125.071L119.153 125.148L119.131 125.302L114.868 155.886L114.677 157.263L114.7 157.275C114.643 157.659 114.575 158.116 114.494 158.629C114.236 160.27 113.875 162.458 113.503 164.649C113.131 166.839 112.749 169.025 112.45 170.664C112.382 171.036 112.317 171.379 112.26 171.685C111.92 171.608 111.525 171.51 111.076 171.389C109.447 170.95 107.247 170.26 104.647 169.387C99.4544 167.643 92.7767 165.208 86.1048 162.7C72.7172 157.669 59.5453 152.42 58.4784 151.917C56.8851 151.166 55.5503 149.495 54.7547 146.319L54.7509 146.307L42.4893 98.6521C41.4727 94.1325 41.6567 90.7545 42.7238 88.3263C43.7816 85.9193 46.0033 83.7544 49.7284 81.9468Z" fill="black" stroke="#192FFD" stroke-width="3.83985"/>
<path d="M119.399 311.693C119.734 311.858 120.072 312.001 120.418 312.118C121.636 312.53 122.827 312.598 124.038 312.436L124.041 313.231C122.544 313.482 121.65 313.425 120.98 313.133C120.503 312.926 119.983 312.525 119.399 311.693Z" stroke="black" stroke-width="3.83985"/>
<path d="M286.265 243.766L285.305 238.966C288.191 238.78 294.879 233.679 294.904 232.262V232.246C294.904 232.251 294.904 232.257 294.904 232.262V237.046C293.976 239.481 288.51 243.081 286.265 243.766Z" fill="black"/>
<path d="M66.0869 226.24C66.1116 226.547 66.2871 226.822 66.5557 226.972C66.8241 227.123 67.1501 227.13 67.4248 226.991L98.9199 211.062L77.5381 236.397C77.3238 236.651 77.2623 237 77.377 237.312C77.4916 237.624 77.7642 237.85 78.0918 237.905L102.594 241.989L79.5879 249.599C79.2564 249.709 79.0149 249.996 78.9639 250.341C78.9129 250.687 79.061 251.032 79.3467 251.233L98.6533 264.799L74.3154 260.597C73.998 260.542 73.6751 260.658 73.4629 260.9C73.2508 261.142 73.1801 261.477 73.2764 261.785L80.8496 285.947L61.4961 268.584C61.256 268.368 60.9211 268.293 60.6123 268.386C60.3034 268.479 60.0653 268.727 59.9844 269.04L52.2852 298.761L47.2861 269.118C47.2288 268.778 46.9868 268.498 46.6592 268.392C46.3317 268.286 45.9722 268.371 45.7266 268.612L25.4023 288.579L36.209 259.584C36.326 259.269 36.2637 258.916 36.0459 258.661C35.8279 258.405 35.4882 258.288 35.1592 258.355L4.49707 264.558L31.5605 246.754C31.8167 246.586 31.9724 246.301 31.9766 245.995C31.9807 245.688 31.8324 245.4 31.5811 245.224L7.04199 228.099L36.9785 234.831C37.2983 234.902 37.6325 234.799 37.8564 234.56C38.0802 234.321 38.1603 233.981 38.0674 233.667L28.9561 202.872L51.4209 226.798C51.6433 227.035 51.9735 227.138 52.291 227.069C52.6085 227 52.8668 226.769 52.9707 226.461L63.585 194.974L66.0869 226.24Z" fill="#192FFD" stroke="#B8FF4F" stroke-width="1.84868" stroke-linejoin="round"/>
<path d="M51.3808 233.947C53.1968 234.315 54.5939 236.054 55.3548 238.649C56.1134 241.236 56.224 244.631 55.4983 248.219C54.7727 251.806 53.3512 254.891 51.6469 256.98C49.9374 259.075 47.9739 260.135 46.1579 259.768C44.3419 259.401 42.9451 257.66 42.1842 255.066C41.4257 252.479 41.3149 249.084 42.0404 245.497C42.7661 241.909 44.1877 238.823 45.8921 236.735C47.6015 234.64 49.5649 233.58 51.3808 233.947Z" fill="white" stroke="black" stroke-width="0.308113"/>
<mask id="mask0_242_806" style="mask-type:alpha" maskUnits="userSpaceOnUse" x="41" y="233" width="16" height="27">
<ellipse cx="48.7694" cy="246.857" rx="7.01945" ry="13.326" transform="rotate(11.4352 48.7694 246.857)" fill="white"/>
</mask>
<g mask="url(#mask0_242_806)">
<path d="M44.0294 260.111C44.8369 249.706 47.7334 247.045 56.5434 247.078L55.3425 253.811L51.3192 258.052L48.3528 261.165L44.0294 260.111Z" fill="#0B2818"/>
</g>
<path d="M66.332 235.7C68.0738 236.331 69.1989 238.258 69.5685 240.936C69.9369 243.607 69.5452 246.982 68.298 250.423C67.0509 253.863 65.1896 256.705 63.1956 258.519C61.1957 260.339 59.0972 261.098 57.3553 260.467C55.6134 259.835 54.4887 257.908 54.1191 255.229C53.7507 252.559 54.1422 249.185 55.3893 245.744C56.6364 242.303 58.4979 239.461 60.492 237.646C62.4918 235.827 64.5902 235.068 66.332 235.7Z" fill="white" stroke="black" stroke-width="0.308113"/>
<mask id="mask1_242_806" style="mask-type:alpha" maskUnits="userSpaceOnUse" x="53" y="235" width="17" height="26">
<ellipse cx="61.8436" cy="248.083" rx="7.01945" ry="13.326" transform="rotate(19.9228 61.8436 248.083)" fill="white"/>
</mask>
<g mask="url(#mask1_242_806)">
<path d="M55.1953 260.492C57.5297 250.32 60.7871 248.116 69.4958 249.449L67.3144 255.931L62.7091 259.532L59.3158 262.172L55.1953 260.492Z" fill="#0B2818"/>
</g>
<ellipse cx="24.7067" cy="35.7899" rx="24.7067" ry="35.7899" transform="matrix(-0.438871 0.89855 0.902376 0.43095 257.746 66.6306)" fill="#192FFD"/>
<path d="M250.935 82.3502C247.983 88.3945 248.864 95.5905 252.721 102.355C256.578 109.119 263.402 115.43 272.284 119.672C281.166 123.914 290.407 125.275 298.163 124.057C305.919 122.838 312.166 119.046 315.119 113.002C318.071 106.958 317.191 99.7612 313.333 92.9963C309.477 86.2323 302.653 79.9211 293.771 75.6793C284.889 71.4375 275.647 70.0765 267.892 71.2948C260.135 72.5133 253.888 76.3058 250.935 82.3502Z" fill="black" stroke="black" stroke-width="0.453338"/>
<path d="M286.525 120.353C286.63 120.373 287.052 120.439 287.233 120.467C287.03 120.426 286.147 120.285 286.525 120.353ZM305.429 119.296C305.285 119.362 305.139 119.427 304.992 119.49C305.407 119.301 305.943 119.037 306.313 118.832C306.373 118.799 306.212 118.876 306.355 118.799C306.497 118.72 306.476 118.746 306.682 118.631C306.914 118.512 307.94 117.861 308.275 117.608C309.554 116.699 310.73 115.607 311.69 114.355C310.654 115.61 311.701 114.348 311.959 113.972C312.006 113.882 312.076 113.947 312.898 112.535C313.233 111.915 313.113 112.097 313.259 111.798C313.325 111.655 313.451 111.405 313.666 110.896C313.15 112.12 313.717 110.942 314.037 109.947C314.108 109.781 314.489 108.38 314.574 107.745C314.611 107.529 314.67 107.202 314.702 106.914C314.724 106.715 314.733 106.563 314.754 106.269C314.851 104.891 314.771 103.533 314.544 102.179C314.643 102.978 314.429 101.555 314.404 101.499C314.339 101.178 314.601 102.634 314.494 102.058C314.355 101.254 314.167 100.459 313.935 99.6773C314.13 100.318 313.705 98.8231 313.586 98.5599C313.711 98.6422 312.148 95.1469 311.806 94.6642C311.742 94.5589 312.166 95.2378 311.228 93.648C311.124 93.4779 311.157 93.5471 311.103 93.458C311.071 93.4049 310.895 93.0709 310.662 92.7389C310.572 92.6241 311.096 93.3983 309.933 91.6943C310.45 92.3351 308.238 89.3818 307.744 88.9053C307.835 89.0048 307.925 89.104 308.017 89.2065C307.574 88.7031 307.498 88.6114 307.397 88.4979C306.987 88.0402 306.411 87.4441 306.008 87.0377C305.539 86.5679 305.553 86.5565 304.985 86.0253C305.122 86.1494 305.257 86.274 305.392 86.3991C305.006 86.0269 304.614 85.6641 304.216 85.3083C305.117 86.1541 304.02 85.129 303.941 85.0648C303.823 84.9593 303.989 85.1164 303.789 84.9403C303.769 84.9228 303.803 84.9396 303.497 84.6751C302.851 84.1235 302.944 84.2199 302.667 83.9915C302.642 83.972 302.734 84.0334 302.257 83.6484C300.714 82.4356 302.266 83.6562 302.319 83.7064C302.394 83.7735 301.854 83.3591 303.151 84.4167C302.72 84.06 302.665 84.0362 302.616 83.9961C302.571 83.9566 301.82 83.3564 301.775 83.324C301.4 83.0283 301.738 83.2779 301.666 83.2197C301.607 83.1681 300.668 82.4783 300.459 82.2984C299.988 81.9942 300.712 82.498 301.453 83.0695C301.559 83.154 300.735 82.5419 300.69 82.5123C299.612 81.7348 300.22 82.1488 299.991 81.9684C299.87 81.8745 299.419 81.5803 299.839 81.848C298.85 81.165 299.444 81.5876 299.38 81.5445C299.282 81.4802 298.933 81.2406 298.888 81.2121C298.823 81.1701 299.045 81.3248 298.788 81.1575C298.745 81.1297 298.337 80.8486 298.874 81.1947C298.162 80.7293 298.226 80.765 297.973 80.6262C297.497 80.2846 297.601 80.4199 297.404 80.3005C296.877 79.9862 297.045 80.0562 297.018 80.0376C296.838 79.9108 295.359 79.0754 294.99 78.881C295.128 78.9748 296.164 79.5285 296.39 79.6684C297.144 80.1194 295.308 79.061 295.85 79.4013C295.62 79.2635 295.392 79.1292 295.161 78.9953C294.721 78.7788 295.335 79.1075 294.167 78.4893C293.982 78.3751 294.994 78.925 294.794 78.808C294.678 78.7366 293.999 78.3822 293.988 78.3739C293.976 78.3621 294.587 78.6847 294.494 78.6293C294.295 78.4958 292.028 77.3941 293.745 78.2521C293.33 78.0431 293.077 77.944 292.744 77.7842C292.694 77.7604 292.643 77.7352 292.588 77.7082C292.487 77.6581 292.641 77.723 292.752 77.7682C292.847 77.8069 292.912 77.8305 292.76 77.7528C292.614 77.6794 292.27 77.5098 291.563 77.1955C291.509 77.1831 292.483 77.6186 292.508 77.6342C292.542 77.6521 292.354 77.5967 292.323 77.584C292.219 77.5244 289.856 76.475 289.334 76.3066C289.543 76.3605 287.506 75.614 287.277 75.5437C287.218 75.5218 287.445 75.5883 287.381 75.5654C286.988 75.4195 285.898 75.0867 285.392 74.9406C284.828 74.775 284.901 74.789 284.869 74.7794C284.618 74.7086 284.817 74.7714 284.663 74.7281C284.432 74.655 282.837 74.2489 282.752 74.2348C282.729 74.2288 282.994 74.2805 282.644 74.1961C282.582 74.1836 282.622 74.1955 281.58 73.9681C280.32 73.7031 282.459 74.136 281.938 74.0151C281.124 73.8605 281.154 73.8535 280.934 73.811C280.857 73.7967 280.292 73.703 279.67 73.6009C280.115 73.6762 280.557 73.7581 280.996 73.8461C280.565 73.7628 279.716 73.6118 279.357 73.5609C279.182 73.5355 279.324 73.5692 278.944 73.5125C278.864 73.5022 278.548 73.4183 279.542 73.5868C279.623 73.5883 279.148 73.52 278.929 73.4858C278.896 73.4806 278.767 73.4424 278.481 73.4152C278.414 73.4146 279.142 73.5436 277.244 73.2843C277.182 73.2765 277.398 73.2926 277.337 73.2848C277.297 73.2787 276.805 73.232 276.751 73.2268C276.696 73.2205 276.933 73.2356 276.867 73.2279C276.53 73.1882 276.085 73.1795 276.781 73.2393C276.547 73.2211 276.315 73.2049 276.083 73.1908C276.333 73.1879 275.721 73.1557 275.395 73.1371C273.331 73.0363 274.714 73.0869 274.359 73.0633C273.783 73.036 274.22 73.0803 273.37 73.0585C273.29 73.0622 274.322 73.0306 272.311 73.059C272.607 73.0529 272.909 73.0505 273.201 73.0517C273.035 73.0696 272.127 73.0611 272.06 73.0656C271.274 73.0928 271.806 73.069 270.633 73.1307C270.528 73.137 270.302 73.1591 270.08 73.176C269.151 73.2448 271.297 73.0694 271.36 73.0734C271.384 73.0499 269.073 73.2409 268.998 73.2724C268.662 73.3179 270.042 73.161 269.781 73.2022C269.681 73.1767 266.404 73.6496 265.767 73.8588C265.019 74.0424 264.702 74.1704 264.686 74.1394C264.484 74.2291 264.295 74.2629 264.201 74.2916C263.073 74.6494 263.068 74.6569 262.117 75.0262C261.907 75.1107 261.737 75.1945 261.663 75.2246C261.62 75.2422 261.695 75.1977 261.487 75.2858C261.185 75.3885 259.5 76.2754 259.394 76.3706C259.273 76.4437 260.093 75.9763 259.951 76.0687C259.353 76.3966 258.789 76.7397 258.227 77.1307C257.991 77.296 258.116 77.2167 258.015 77.2887C257.967 77.3148 257.183 77.9086 257.216 77.8867C257.25 77.7695 259.803 76.0926 259.127 76.5274C258.991 76.6051 258.539 76.9153 258.603 76.853C256.325 78.345 254.378 80.4016 253.152 82.8462C253.867 81.4499 254.917 80.0031 256.105 78.8649C256.264 78.7035 256.83 78.1971 256.768 78.2667C255.706 79.1733 254.555 80.4959 253.854 81.6408C253.831 81.6772 253.922 81.5485 253.837 81.685C253.671 81.9371 253.188 82.7842 253.124 82.9385C253.11 82.9628 253.377 82.4738 253.305 82.6273C253.211 82.8249 253.145 82.9449 253.081 83.0583C253.018 83.1699 252.957 83.2749 252.881 83.4439C252.732 83.6952 252.098 85.5277 252.007 86.0028C251.857 86.494 252.378 84.6251 252.348 84.7653C251.913 86.0073 251.677 87.3261 251.59 88.56C251.589 88.5817 251.593 88.3929 251.574 88.6674C251.543 89.1458 251.556 89.2731 251.553 89.5072C251.546 89.7581 251.572 90.6472 251.59 90.7665C251.591 90.7821 251.592 90.6005 251.591 90.5732C251.578 90.185 251.563 90.0486 251.562 90.0133C251.559 89.8811 251.564 89.7514 251.564 89.6313C251.565 89.4322 251.561 89.3214 251.57 89.0586C251.578 88.8774 251.58 89.0526 251.588 88.8782C251.587 88.8146 251.616 88.1222 251.651 88.0599C251.655 88.05 251.502 89.4587 251.622 90.9354C251.719 92.4151 252.079 93.9178 252.148 94.1945C252.027 93.7221 251.926 93.2585 251.84 92.7797C252.006 93.7447 252.306 94.883 252.359 94.954C253.37 98.441 255.2 101.629 257.418 104.458C257.822 104.961 257.606 104.674 258.282 105.493C258.1 105.287 257.921 105.08 257.745 104.872C258.072 105.304 259.681 107.096 259.959 107.362C259.994 107.398 260.028 107.462 260.453 107.891C260.826 108.266 260.899 108.316 261.105 108.512C261.28 108.676 261.475 108.863 261.527 108.911C261.567 108.948 261.588 108.957 261.685 109.044C261.991 109.32 261.729 109.11 262.05 109.367C261.976 109.3 261.903 109.232 261.83 109.164C262.199 109.497 262.721 109.941 262.174 109.448C262.08 109.363 262.156 109.441 262.086 109.378C259.402 106.846 261.533 108.887 262.5 109.741C262.75 109.959 264.182 111.151 264.235 111.179C264.304 111.23 264.06 111.026 264.392 111.278C264.453 111.344 266.449 112.826 265.736 112.283C265.588 112.176 264.633 111.46 264.41 111.279C264.953 111.687 266.21 112.643 266.363 112.743C266.954 113.156 265.244 111.927 266.571 112.861C267.595 113.563 266.625 112.916 267.016 113.191C267.234 113.351 268.426 114.104 268.384 114.098C268.792 114.358 268.559 114.197 268.61 114.228C268.659 114.26 269.469 114.763 269.737 114.912C269.77 114.931 269.674 114.861 269.708 114.88C269.772 114.918 270.568 115.379 270.602 115.396C270.622 115.408 270.426 115.309 270.503 115.356C270.593 115.412 271.365 115.833 271.408 115.858C271.465 115.896 270.513 115.369 270.667 115.466C271.103 115.709 271.825 116.102 272.117 116.262C272.047 116.223 271.612 115.995 271.463 115.915C271.524 115.97 272.456 116.454 272.144 116.277C272.342 116.387 272.203 116.319 272.313 116.383C272.342 116.4 272.63 116.547 272.684 116.577C272.691 116.581 272.391 116.436 272.449 116.469C272.552 116.531 273.434 116.964 273.509 116.996C273.716 117.091 272.994 116.737 272.939 116.7C272.93 116.695 273.55 116.982 273.56 116.984C273.601 116.991 272.914 116.667 272.998 116.694C273.167 116.775 273.337 116.855 273.508 116.934C272.856 116.614 271.673 116.007 271.376 115.828C272.32 116.344 273.321 116.827 273.335 116.8C273.339 116.789 272.928 116.578 272.946 116.583C273.011 116.604 273.583 116.896 273.605 116.905C273.623 116.913 273.632 116.916 273.632 116.915C273.632 116.915 273.632 116.915 273.632 116.915C273.633 116.91 272.814 116.505 272.776 116.48C272.71 116.441 273.083 116.602 273.085 116.597C273.072 116.59 272.495 116.295 272.695 116.386C272.895 116.478 273.407 116.728 273.426 116.735C273.524 116.779 272.635 116.336 272.611 116.318C272.598 116.31 273.079 116.539 273.094 116.543C273.107 116.547 272.747 116.361 272.61 116.281C272.507 116.222 272.817 116.373 272.764 116.345C272.724 116.327 271.893 115.899 271.852 115.874C271.792 115.84 271.991 115.936 271.963 115.919C271.924 115.896 271.655 115.756 271.691 115.772C271.718 115.788 272.771 116.302 272.769 116.289C272.761 116.273 271.649 115.735 272.695 116.215C272.702 116.219 272.951 116.348 272.959 116.351C273.118 116.42 272.317 116.007 273.303 116.499C271.481 115.569 273.082 116.37 272.821 116.216C272.719 116.158 272.019 115.793 272.015 115.788C272.088 115.815 272.31 115.939 272.388 115.973C272.432 115.994 271.806 115.655 271.951 115.723C272.027 115.76 272.693 116.105 272.722 116.118C272.99 116.246 272.668 116.075 272.728 116.1C272.768 116.118 273.174 116.32 273.185 116.325C273.203 116.332 272.657 116.046 272.546 115.983C272.461 115.936 272.789 116.097 272.729 116.065C272.37 115.874 271.583 115.485 272.346 115.848C272.392 115.87 272.673 116.015 272.682 116.019C272.86 116.1 272.342 115.834 272.252 115.779C272.099 115.685 272.841 116.077 272.225 115.748C272.694 115.982 272.952 116.114 273.505 116.386C271.983 115.625 271.477 115.314 273.151 116.169C272.614 115.902 272.684 115.914 272.525 115.833C272.428 115.785 271.645 115.393 272.019 115.543C272.066 115.563 272.532 115.813 272.39 115.727C271.264 115.139 272.369 115.71 272.372 115.708C272.355 115.696 269.642 114.214 269.205 113.91C268.679 113.584 268.233 113.271 268.122 113.198C267.752 112.955 268.053 113.165 267.969 113.114C267.879 113.064 266.854 112.345 266.807 112.308C266.605 112.171 266.801 112.323 266.78 112.309C266.521 112.145 265.176 111.144 264.807 110.847C264.822 110.851 265.574 111.428 265.112 111.058C264.577 110.626 264.53 110.625 264.514 110.615C262.054 108.652 259.797 106.433 257.869 103.96C257.898 103.991 259.196 105.579 259.237 105.601C259.407 105.823 257.21 103.136 256.997 102.767C257.189 103.03 257.381 103.285 257.578 103.539C257.262 103.094 256.535 102.118 256.116 101.434C255.98 101.216 256.252 101.628 256.248 101.619C256.096 101.372 255.848 100.984 256.022 101.282C255.661 100.682 255.704 100.771 255.43 100.305C255.416 100.281 255.538 100.478 255.329 100.106C255.229 99.9369 254.723 98.9889 254.672 98.8583C254.647 98.805 254.921 99.271 254.93 99.3428C255.495 100.36 255.095 99.6759 255.314 100.07C255.351 100.128 255.271 99.9884 255.853 100.968C255.756 100.772 255.089 99.6526 254.992 99.4456C254.774 99.0392 255.703 100.699 255.885 101C255.819 100.851 255.955 101.113 256.185 101.471C256.44 101.863 256.335 101.688 256.474 101.9C256.857 102.468 256.684 102.241 257.022 102.699C256.665 102.272 257.581 103.495 257.871 103.835C257.429 103.261 257.004 102.671 256.604 102.074C256.628 102.107 256.653 102.14 256.678 102.172C256.572 102.016 256.466 101.858 256.36 101.698C256.375 101.725 256.39 101.752 256.406 101.778C255.878 100.945 255.757 100.749 255.712 100.678C255.177 99.7933 254.626 98.7487 254.201 97.794C254.142 97.6497 254.18 97.7532 253.746 96.7009C253.613 96.366 253.724 96.6872 253.582 96.3055C253.432 95.81 253.418 95.8271 253.368 95.6827C253.229 95.2692 253.162 95.0117 253.15 94.9719C252.993 94.4529 252.797 93.6875 252.685 93.1076C252.683 93.0968 252.752 93.3953 252.675 93.021C252.645 92.8907 252.385 91.6988 252.347 90.6428C252.365 90.9164 252.39 91.1889 252.421 91.4632C252.342 91.1432 252.326 88.88 252.346 89.4333C252.34 89.7718 252.345 90.5995 252.379 90.6906C252.172 89.9306 252.71 85.8011 252.941 85.5216C252.953 85.4783 252.869 85.7404 252.885 85.6809C252.89 85.632 253.184 84.7289 253.234 84.6119C253.257 84.5404 253.109 84.9343 253.119 84.9015C253.116 84.8681 253.553 83.7632 253.602 83.7099C253.471 83.9721 253.177 84.7363 253.342 84.339C253.362 84.2881 253.466 84.0216 253.495 83.9606C253.745 83.3897 253.028 85.1092 252.976 85.3954C253.157 84.8232 253.424 84.1021 253.773 83.3888C254.101 82.7126 254.496 82.0545 254.878 81.5169C255.185 81.0616 254.41 82.1815 254.753 81.6648C255.491 80.6065 254.96 81.3908 254.983 81.358C255.166 81.096 255.831 80.228 255.863 80.2542C256.173 79.9038 256.063 80.0073 256.53 79.5404C256.47 79.6032 256.411 79.6666 256.352 79.7303C256.86 79.2014 258.043 78.1821 257.954 78.2598C257.696 78.4389 257.087 78.982 257.04 79.0302C256.97 79.1018 256.709 79.2484 255.969 80.091C255.626 80.4004 257.204 78.8106 256.472 79.5206C256.915 78.9821 259.185 77.266 259.579 77.1077C259.623 77.085 259.435 77.2149 260.037 76.8542C260.324 76.6844 259.626 77.0837 259.756 77.0039C260.044 76.5333 266.088 74.2812 267.361 74.284C267.44 74.2699 267.41 74.2682 267.487 74.2545C267.72 74.2105 268.588 74.0856 269.014 74.0334C268.137 74.1575 269.842 73.9402 270.286 73.9147C270.947 73.8604 270.908 73.855 271.196 73.8349C272.303 73.7537 274.033 73.7941 274.893 73.8161C274.845 73.8356 276.385 73.8868 277.087 73.9684C277.633 74.0234 278.42 74.1432 277.684 74.0631C278.628 74.1728 279.612 74.3305 280.487 74.4957C280.631 74.5229 280.434 74.4777 280.68 74.5249C280.702 74.5294 280.731 74.5424 280.943 74.5847C282.688 74.9522 281.838 74.7642 282.165 74.8283C282.347 74.8666 282.481 74.8966 282.58 74.9193C281.576 74.6774 280.395 74.4528 280.082 74.3997C280.354 74.4187 282.335 74.8434 282.911 74.9925C282.931 74.9972 282.864 74.971 282.884 74.9759C282.885 74.976 282.885 74.9761 282.885 74.9762C283.109 75.0235 284.468 75.3891 284.185 75.3264C284.107 75.3082 283.487 75.137 282.729 74.9551C282.933 75.0062 282.778 74.9798 282.814 74.9889C283.254 75.0972 284.307 75.3653 284.686 75.4755C284.772 75.4998 284.764 75.5046 284.778 75.5086C285.116 75.6051 284.983 75.5457 285.324 75.6683C285.944 75.8267 284.176 75.3271 284.301 75.3529C284.414 75.3278 288.303 76.6022 288.269 76.6521C288.283 76.6551 288.336 76.6722 288.445 76.71C288.687 76.7904 289.748 77.2121 289.924 77.2925C289.955 77.3058 289.935 77.3178 289.973 77.3336C290.069 77.3693 291.354 77.905 291.817 78.1373C291.561 78.0221 291.305 77.9093 291.049 77.799C292.589 78.4927 292.347 78.4031 291.833 78.1655C291.807 78.1537 291.782 78.1429 291.758 78.1317C291.358 77.9516 290.847 77.7322 290.838 77.7299C290.82 77.7245 291.776 78.1483 292.417 78.455C292.83 78.651 293.109 78.7866 292.918 78.6845C292.888 78.6686 292.642 78.5488 292.422 78.4444C292.14 78.3104 291.906 78.2008 292.245 78.3524C292.271 78.3641 292.338 78.3958 292.425 78.4373C292.689 78.5627 293.129 78.7815 293.159 78.7959C293.315 78.868 292.837 78.6217 292.433 78.4218C292.132 78.2724 291.876 78.1485 291.966 78.1845C292.11 78.2562 292.27 78.3335 292.437 78.4141C292.74 78.5608 293.066 78.7181 293.363 78.8701C293.573 78.9773 293.62 79.0121 293.646 79.0254C294.03 79.2253 293.818 79.1057 293.947 79.1723C294.018 79.2072 294.766 79.6292 294.636 79.528C297.088 80.9246 295.326 79.8984 293.784 79.1013C294.268 79.3591 295.212 79.8653 295.628 80.1084C295.779 80.195 295.685 80.152 295.937 80.2996C296.463 80.5823 298.896 82.1101 299.49 82.5523C299.118 82.2892 299.234 82.3565 299.522 82.5585C299.812 82.764 299.56 82.6031 299.615 82.6443C299.682 82.685 301.018 83.6563 301.234 83.8358C300.241 83.0746 300.472 83.2326 301.318 83.8798C301.198 83.7834 301.078 83.6874 300.957 83.5918C301.455 83.969 302.478 84.7771 302.747 85.0165C302.789 85.0533 302.629 84.9298 302.653 84.9505C302.893 85.1516 303.705 85.8521 303.738 85.8899C303.768 85.9197 303.422 85.6208 303.546 85.7364C303.572 85.7605 303.91 86.0449 304.224 86.34C304.34 86.4494 304.264 86.39 304.293 86.4177C304.537 86.6526 304.404 86.5045 304.848 86.9339C305.171 87.2495 305.4 87.493 305.839 87.9405C304.381 86.4947 305.615 87.7057 306.193 88.334C306.285 88.4357 306.196 88.3532 306.755 88.9586C305.591 87.6495 307.111 89.3131 307.394 89.6662C307.411 89.6855 307.424 89.6855 307.57 89.8582C307.582 89.8728 307.56 89.856 307.694 90.0171C308.934 91.5557 308.144 90.5706 308.385 90.8594C308.491 90.9852 309.058 91.7531 309.208 91.9697C309.243 92.0184 309.233 91.9919 309.367 92.1808C309.603 92.5163 309.796 92.8168 309.946 93.0457C309.963 93.0722 309.977 93.0668 310.248 93.4989C310.324 93.6205 310.405 93.7585 310.295 93.5882C309.931 93.0181 309.218 91.9489 308.747 91.351C308.325 90.7962 309.63 92.5658 309.677 92.6684C309.701 92.7029 309.465 92.3474 309.71 92.7049C309.919 93.0093 310.278 93.5951 310.563 94.063C310.586 94.0991 310.826 94.4736 310.816 94.4556C310.81 94.439 310.46 93.8497 310.516 93.9341C310.521 93.9413 310.746 94.3164 310.777 94.3632C310.816 94.4207 310.945 94.5614 310.992 94.6411C311.111 94.8454 311.027 94.7162 311.102 94.8489C311.268 95.1278 311.804 96.1424 311.801 96.1803C311.718 96.0132 311.633 95.8462 311.546 95.6794C312.015 96.6103 311.806 96.2188 311.87 96.3522C311.937 96.4984 311.93 96.4521 312.08 96.7723C312.122 96.8366 312.692 98.1996 312.667 98.1788C312.375 97.4184 312.468 97.7051 312.456 97.6702C312.4 97.5382 312.336 97.3642 312.26 97.1911C311.703 95.9649 312.253 97.2076 312.118 96.9195C312.072 96.8204 311.987 96.6189 311.967 96.5768C311.901 96.44 311.891 96.442 311.847 96.3501C311.745 96.1358 311.879 96.3791 311.871 96.3619C311.79 96.1658 311.407 95.4414 311.626 95.9034C311.482 95.6323 311.481 95.5919 311.359 95.3785C311.115 94.9548 311.466 95.598 311.551 95.7742C311.858 96.4031 311.967 96.5955 312.358 97.5083C312.499 97.8425 312.644 98.2412 312.701 98.3961C312.743 98.4897 313.098 99.4228 313.055 99.4641C313.178 99.825 313.377 100.404 313.469 100.784C313.553 101.132 313.508 101.026 313.515 101.058C313.527 101.108 313.622 101.528 313.647 101.67C313.677 101.838 313.655 101.754 313.702 102.021C313.813 102.687 313.817 102.665 313.83 102.734C313.948 103.524 313.875 103.182 313.894 103.358C313.948 103.52 314.038 105.837 313.947 106.319C313.965 106.123 313.98 105.925 313.991 105.727C313.989 106.083 313.94 106.454 313.958 106.463C313.925 106.534 313.864 107.262 313.824 107.478C313.811 107.564 313.806 107.556 313.788 107.663C313.726 108.083 313.506 109.011 313.432 109.23C313.155 110.182 313.804 107.731 313.779 107.522C313.763 107.928 313.147 110.1 313.413 109.097C313.455 108.943 313.538 108.671 313.559 108.583C313.698 107.99 313.58 108.454 313.589 108.408C313.606 108.328 313.699 107.938 313.715 107.833C313.719 107.798 313.674 108.021 313.768 107.447C313.738 107.734 313.372 109.324 313.281 109.521C313.248 109.591 313.41 109.14 312.947 110.459C312.951 110.443 312.955 110.427 312.959 110.411C312.823 110.758 312.672 111.1 312.507 111.438C312.328 111.803 312.135 112.157 311.926 112.503C311.975 112.433 312.205 112.061 311.922 112.534C311.755 112.804 311.869 112.598 311.853 112.623C311.779 112.743 311.078 113.883 310.092 114.912C309.124 115.958 307.896 116.853 307.484 117.125C307.214 117.317 306.407 117.798 306.344 117.828C305.983 118.055 304.626 118.731 304.345 118.836C304.172 118.91 304.333 118.831 304.178 118.897C304.034 118.958 304.187 118.904 304.145 118.922C303.804 119.121 301.015 120.034 300.326 120.155C300.75 120.079 302.783 119.482 302.744 119.481C302.736 119.486 302.245 119.657 302.144 119.684C301.981 119.745 301.389 119.896 301.074 119.983C301.037 119.992 301.185 119.971 300.616 120.117C300.419 120.167 299.898 120.28 299.379 120.394C298.631 120.615 294.57 121.021 294.287 120.955C294.279 120.956 294.849 120.929 294.464 120.938C293.95 120.946 294.413 120.96 293.811 120.976C293.716 120.988 292.051 120.971 291.991 120.959C291.484 120.93 292.951 120.963 292.928 120.954C292.879 120.955 291.66 120.922 291.614 120.916C291.567 120.915 292.551 120.974 291.368 120.918C291.504 120.922 291.64 120.926 291.775 120.929C291.219 120.902 291.164 120.909 291.028 120.903C290.602 120.88 290.156 120.83 289.478 120.79C289.299 120.78 289.595 120.816 289.572 120.815C289.357 120.803 289.083 120.751 288.764 120.733C288.739 120.73 289.483 120.832 288.181 120.674C288.271 120.684 288.361 120.694 288.451 120.703C288.266 120.682 286.95 120.491 286.774 120.458C286.257 120.374 286.706 120.463 286.185 120.371C286.517 120.417 284.954 120.121 285.04 120.147C284.819 120.088 283.497 119.809 282.878 119.645C282.49 119.548 281.698 119.32 281.574 119.283C281.425 119.241 281.466 119.267 281.197 119.191C281.121 119.17 280.316 118.919 279.618 118.698C279.483 118.656 279.192 118.58 279.441 118.67C279.864 118.825 280.693 119.067 280.678 119.074C280.66 119.086 279.56 118.726 279.268 118.624C277.905 118.156 278.685 118.443 278.649 118.436C278.551 118.415 277.82 118.145 277.788 118.132C277.66 118.089 278.177 118.292 278.183 118.3C278.189 118.313 277.475 118.06 277.635 118.123C277.865 118.217 278.519 118.442 278.562 118.457C279.104 118.659 278.349 118.412 278.146 118.346C278.083 118.326 278.327 118.421 278.275 118.403C277.491 118.127 278.121 118.318 277.602 118.125C277.138 117.949 277.729 118.19 277.711 118.183C277.688 118.176 277.134 117.963 277.046 117.932C277.002 117.923 278.431 118.491 278.367 118.474C277.909 118.305 277.451 118.129 276.993 117.945C276.952 117.945 277.616 118.192 277.684 118.218C277.82 118.273 277.434 118.134 277.449 118.145C277.457 118.151 277.903 118.332 277.495 118.181C277.356 118.129 277.06 118.006 276.556 117.812C278.314 118.523 277.089 118.048 277.033 118.032C276.981 118.017 277.821 118.361 276.796 117.955C276.742 117.963 276.814 117.972 277.104 118.092C277.46 118.235 276.629 117.93 277.94 118.42C277.861 118.409 276.808 118 276.755 117.977C276.707 117.958 276.936 118.057 276.852 118.026C275.869 117.656 276.542 117.916 276.254 117.816C276.228 117.809 275.306 117.425 276.005 117.723C277.274 118.256 277.837 118.432 278.036 118.551C277.068 118.217 275.934 117.715 275.648 117.59C275.209 117.401 275.66 117.604 275.605 117.583C275.586 117.576 275.207 117.41 275.204 117.409C274.922 117.326 276.88 118.13 277.511 118.362C277.342 118.303 277.173 118.242 277.004 118.18C277.231 118.27 277.458 118.358 277.685 118.444C276.6 118.037 277.646 118.435 277.907 118.557C277.965 118.585 277.258 118.31 278.063 118.627C277.464 118.408 277.653 118.485 277.113 118.269C277.125 118.287 278.333 118.758 278.825 118.93C277.109 118.323 278.097 118.651 276.623 118.096C276.358 117.976 277.052 118.257 276.997 118.232C276.792 118.143 276.316 117.967 275.754 117.7C275.662 117.656 276.061 117.813 275.478 117.564C275.413 117.536 275.04 117.385 275.045 117.388C275.089 117.417 275.457 117.574 275.471 117.584C275.483 117.593 275.076 117.413 275.075 117.413C275.057 117.418 275.413 117.566 275.36 117.547C275.246 117.506 273.773 116.883 275.689 117.714C274.103 117.008 275.486 117.622 276.111 117.884C276.269 117.951 276.307 117.974 276.533 118.068C276.821 118.188 277.172 118.322 277.323 118.381C277.487 118.444 276.547 118.104 277.9 118.612C277.203 118.374 276.007 117.874 275.338 117.591C273.995 117.025 276.261 118.025 276.502 118.111C276.565 118.137 276.349 118.059 276.392 118.076C276.455 118.108 277.772 118.618 277.899 118.668C278.026 118.723 277.418 118.487 277.374 118.477C277.345 118.478 278.929 119.067 278.068 118.756C277.475 118.546 276.393 118.092 276.207 118.036C277.064 118.391 277.935 118.725 278.816 119.034C278.328 118.873 277.851 118.707 277.371 118.532C278.344 118.907 279.205 119.197 280.147 119.508C277.869 118.792 280.878 119.774 280.915 119.77C280.926 119.778 280.019 119.521 279.873 119.476C280.663 119.758 283.109 120.425 281.669 120.058C281.931 120.127 282.557 120.308 282.548 120.306C282.466 120.303 281.091 119.911 281.313 119.983C281.569 120.07 281.939 120.156 282.338 120.263C284.398 120.786 283.816 120.721 285.911 121.119C285.869 121.114 285.827 121.108 285.785 121.103C288.066 121.518 290.393 121.759 292.72 121.784C293.629 121.833 296.055 121.747 297.245 121.579C297.478 121.557 298.657 121.373 298.739 121.352C298.901 121.323 298.007 121.465 298.41 121.395C298.495 121.397 300.46 121.006 300.319 121.034C300.1 121.087 299.416 121.222 299.301 121.244C298.537 121.534 304.507 119.916 304.733 119.609C304.609 119.667 304.484 119.724 304.358 119.78C304.72 119.628 305.074 119.468 305.429 119.296ZM288.04 120.613C287.813 120.573 287.25 120.5 286.918 120.443C286.458 120.367 285.686 120.182 286.013 120.284C286.69 120.411 287.357 120.519 288.04 120.613ZM297.994 120.603C297.54 120.673 297.897 120.648 298.266 120.581C298.306 120.573 298.604 120.502 297.994 120.603ZM293.21 120.956C293.228 120.957 293.625 120.954 293.64 120.953C293.995 120.941 292.801 120.95 293.21 120.956ZM312.661 111.157C312.448 111.605 312.586 111.273 312.719 110.996C312.728 110.979 312.675 111.128 312.661 111.157ZM312.51 111.476C312.36 111.834 311.945 112.487 312.247 111.953C312.277 111.902 312.518 111.461 312.51 111.476ZM296.375 120.807C296.428 120.81 296.898 120.759 297.097 120.733C297.091 120.728 296.574 120.791 296.375 120.807ZM307.561 117.083C307.593 117.089 306.213 117.952 306.104 117.983C306.337 117.875 307.553 117.099 307.561 117.083ZM310.642 114.322C310.619 114.355 310.249 114.772 310.254 114.755C310.435 114.552 310.758 114.178 310.642 114.322ZM313.842 106.901C313.843 106.87 313.843 107.29 313.912 106.304C313.921 106.159 313.869 106.675 313.872 106.623C313.88 106.515 313.886 106.43 313.891 106.362C313.854 106.821 313.784 107.291 313.779 107.337C313.758 107.552 313.844 106.915 313.842 106.901ZM313.774 102.602C313.768 102.509 313.661 101.904 313.63 101.773C313.625 101.75 313.633 101.854 313.579 101.587C313.535 101.372 313.618 101.69 313.524 101.272C313.425 100.85 313.545 101.417 313.535 101.38C313.526 101.331 313.375 100.674 313.371 100.699C313.371 100.712 313.542 101.415 313.573 101.587C313.616 101.808 313.554 101.542 313.627 101.911C313.672 102.146 313.665 102.012 313.675 102.062C313.688 102.104 313.805 102.927 313.774 102.601C313.774 102.602 313.774 102.602 313.774 102.602ZM313.901 106.238C313.898 106.273 313.895 106.313 313.891 106.362C313.895 106.32 313.898 106.279 313.901 106.238ZM289.355 120.774C289.593 120.793 288.887 120.715 288.623 120.689C288.618 120.695 289.315 120.773 289.355 120.774ZM313.94 105.815C313.955 105.131 313.946 105.636 313.901 106.238C313.918 106.047 313.931 106.044 313.94 105.815ZM302.144 119.684C302.171 119.674 302.188 119.666 302.19 119.662C302.118 119.689 302.112 119.693 302.144 119.684ZM303.665 119.14C304.186 118.945 303.137 119.357 303.14 119.342C303.144 119.339 303.643 119.15 303.665 119.14ZM312.911 110.576C312.892 110.622 313.218 109.918 312.764 110.947C312.997 110.394 312.746 110.975 312.745 110.965C312.756 110.943 313.138 110.01 313.197 109.793C313.269 109.633 312.977 110.425 312.912 110.574C312.912 110.575 312.912 110.575 312.911 110.576ZM311.207 95.2549C311.267 95.3813 311.475 95.7693 311.606 96.0322C311.553 95.9057 311.35 95.5171 311.207 95.2549ZM252.61 92.6527C252.325 90.6599 252.303 90.3978 252.528 92.2274C252.532 92.2628 252.626 92.7743 252.61 92.6527ZM258.868 77.6374C259.018 77.5187 258.49 77.8683 258.163 78.1253C258.089 78.1825 257.824 78.4046 258.139 78.167C258.116 78.1602 258.61 77.7875 258.868 77.6374ZM313.961 105.429C313.977 105.227 313.965 104.619 313.944 104.294C313.949 104.493 313.967 105.142 313.961 105.429ZM252.768 86.098C252.818 85.8924 252.869 85.7582 252.86 85.7937C252.82 85.9521 252.717 86.3337 252.768 86.098ZM313.799 107.396C313.805 107.425 313.911 106.622 313.897 106.563C313.886 106.737 313.801 107.376 313.799 107.396ZM311.472 95.7483C311.535 95.8602 311.233 95.2715 311.132 95.0986C311.136 95.1136 311.435 95.6754 311.472 95.7483ZM253.997 82.9253C254.083 82.7559 254.32 82.3474 254.354 82.3051C254.389 82.2515 254.04 82.85 253.997 82.9253ZM267.465 112.697C267.485 112.708 266.883 112.277 266.608 112.084C266.087 111.726 267.439 112.689 267.465 112.697ZM252.412 88.0683C252.365 88.6657 252.417 88.0023 252.429 88.0301C252.377 88.4312 252.334 89.4287 252.357 88.7419C252.361 88.6089 252.391 88.2549 252.412 88.0683ZM252.476 87.5209C252.488 87.4582 252.57 87.0338 252.51 87.4021C252.484 87.572 252.433 87.8447 252.476 87.5209ZM263.772 109.911C263.34 109.578 265.284 111.148 265.355 111.178C265.386 111.2 265.407 111.215 265.418 111.223C265.491 111.283 265.866 111.564 265.916 111.589C265.801 111.506 265.495 111.275 265.457 111.248C265.442 111.236 265.43 111.228 265.422 111.222C265.285 111.12 263.849 109.985 263.772 109.911ZM260.722 107.115C261.151 107.574 261.248 107.624 261.211 107.587C260.741 107.104 261.038 107.429 261.023 107.415C260.989 107.385 260.654 107.031 260.723 107.116C260.723 107.116 260.723 107.115 260.722 107.115ZM263.125 109.365C263.143 109.383 263.539 109.721 263.557 109.735C263.888 110.006 262.765 109.045 263.125 109.365ZM313.038 99.4235C312.92 99.073 313.026 99.421 313.101 99.6531C313.107 99.6721 313.14 99.7327 313.038 99.4235ZM252.524 87.2301C252.496 87.1366 253.029 85.0145 253.038 85.1547C252.923 85.3163 252.42 87.7492 252.524 87.2301ZM262.946 75.5348C262.583 75.6735 262.983 75.5348 263.178 75.459C263.249 75.4306 263.038 75.4999 262.946 75.5348ZM313.608 108.472C313.507 108.859 313.554 108.786 313.624 108.445C313.627 108.432 313.612 108.457 313.608 108.472ZM260.117 76.8538C261.316 76.2329 260.985 76.3006 259.484 77.2004C259.532 77.1734 259.581 77.1462 259.628 77.1199C257.93 78.2156 259.502 77.1769 259.937 76.9451C260.1 76.8527 259.967 76.9373 260.116 76.8545C260.116 76.8543 260.117 76.854 260.117 76.8538ZM264.905 74.8935C266.153 74.5187 263.759 75.1853 263.094 75.462C263.747 75.2363 264.608 74.9603 263.448 75.3618C265.147 74.8029 264.44 75.0363 264.506 75.0073C264.586 74.9815 264.852 74.9096 264.905 74.8935ZM261.68 76.0558C261.61 76.0841 261.098 76.3317 260.918 76.4233C261.173 76.2995 262.136 75.8582 261.68 76.0558ZM257.876 103.852C257.898 103.893 257.965 103.995 258.245 104.338C258.163 104.23 257.988 104.002 257.876 103.852ZM287.603 120.599C287.299 120.558 286.689 120.463 286.878 120.484C286.898 120.488 287.603 120.596 287.603 120.599ZM254.921 81.3996C254.939 81.3317 255.999 80.036 255.639 80.4886C255.513 80.6104 254.613 81.8388 254.921 81.3996ZM252.319 89.5046C252.318 89.3636 252.343 88.7965 252.348 88.7851C252.355 88.7466 252.323 89.4424 252.319 89.5046ZM286.059 120.359C286.02 120.355 285.092 120.174 285.195 120.189C285.391 120.222 286.196 120.381 286.059 120.359ZM312.604 98.1438C312.576 98.0711 312.529 97.9787 312.519 97.9536C312.504 97.8896 311.934 96.5802 312.142 97.0843C312.194 97.1553 312.956 99.0738 313.016 99.3335C313.064 99.4282 312.767 98.5972 312.689 98.4C312.676 98.3649 312.679 98.3387 312.604 98.1444C312.604 98.1442 312.604 98.144 312.604 98.1438ZM259.353 105.648C259.382 105.707 260.529 106.951 260.529 106.924C260.128 106.508 259.735 106.083 259.353 105.648ZM258.791 105C258.553 104.726 259.099 105.378 259.265 105.559C259.27 105.558 258.826 105.042 258.791 105ZM252.657 86.3632C252.696 86.2001 252.596 86.7058 252.624 86.5937C252.639 86.5216 252.719 86.1556 252.753 86.041C252.762 86.0083 252.682 86.382 252.659 86.4897C252.625 86.6427 252.648 86.4922 252.613 86.6596C252.498 87.2167 252.432 87.7164 252.381 88.2475C252.376 88.2955 252.406 87.9225 252.367 88.3322C252.361 88.3967 252.335 88.7746 252.32 89.2667C252.271 90.3503 252.335 91.1553 252.54 92.5185C252.521 92.4674 252.377 91.4474 252.378 91.3841C252.228 90.2379 252.281 88.1589 252.532 86.9758C252.589 86.6716 252.567 86.8205 252.594 86.6899C252.616 86.5869 252.576 86.7066 252.657 86.3632ZM287.766 120.629C287.614 120.62 287.11 120.539 286.782 120.485C286.899 120.494 287.443 120.588 287.766 120.629ZM254.602 98.7123C254.53 98.5692 254.307 98.105 254.294 98.0663C254.273 98.0147 254.593 98.6823 254.602 98.7123ZM308.591 91.1574C308.582 91.1444 308.338 90.8305 308.328 90.819C308.103 90.5439 308.834 91.4855 308.591 91.1574ZM301.944 84.4113C301.712 84.2222 301.475 84.0318 301.389 83.9769C301.542 84.0934 301.967 84.438 301.944 84.4113ZM290.709 77.6705C290.771 77.6826 289.929 77.3329 289.769 77.2714C289.826 77.2983 290.663 77.6581 290.709 77.6705ZM257.806 103.824C258.148 104.262 258.061 104.18 258.287 104.447C258.324 104.491 258.468 104.611 258.08 104.148C258.01 104.063 258.267 104.408 257.806 103.824ZM259.242 77.3524C259.118 77.4207 258.756 77.6611 258.515 77.835C258.573 77.7982 259.061 77.4633 259.242 77.3524ZM284.382 120.032C284.127 119.992 282.951 119.698 283.245 119.761C283.287 119.773 284.218 119.999 284.382 120.032ZM313.964 104.041C313.94 103.555 314.014 104.562 314.002 104.881C314.004 104.738 313.969 104.071 313.964 104.041ZM293.573 79.0107C293.553 78.9992 293.083 78.7644 293.061 78.7548C292.672 78.5703 294.001 79.235 293.573 79.0107ZM304.314 86.4465C304.188 86.3117 303.257 85.4832 303.039 85.3118C303.241 85.4882 304.484 86.6096 304.314 86.4465ZM256.484 101.978C256.7 102.303 256.916 102.608 257.131 102.902C257.087 102.837 256.506 102.011 256.484 101.978ZM291.833 78.1655C291.807 78.1537 291.782 78.1429 291.758 78.1317C291.783 78.1432 291.808 78.1545 291.833 78.1655ZM252.839 94.0277C252.758 93.7073 252.787 93.7714 252.791 93.791C252.852 94.0334 252.932 94.3842 252.839 94.0277ZM287.387 120.592C287.272 120.586 286.722 120.492 286.402 120.438C286.496 120.447 287.133 120.554 287.387 120.592ZM266.256 74.5323C266.659 74.4248 265.005 74.7999 264.664 74.9231C264.641 74.925 266.189 74.5366 266.256 74.5323ZM314.011 105.553C314.022 105.587 313.975 106.286 313.979 106.137C313.985 106.043 314.008 105.534 314.011 105.553ZM263.853 75.1791C263.699 75.2263 263.35 75.3563 263.476 75.3178C263.636 75.268 263.893 75.1667 263.853 75.1791ZM253.383 84.0835C253.401 84.0176 253.8 83.1821 253.645 83.5319C253.538 83.7744 253.512 83.8087 253.486 83.8655C253.447 83.9245 252.924 85.3089 253.383 84.0835ZM275.723 73.8941C275.367 73.8662 274.938 73.8463 274.569 73.832C274.718 73.8403 275.57 73.8876 275.723 73.8941ZM313.862 102.853C313.909 102.934 314.064 105.234 313.969 103.928C313.975 103.853 313.824 102.597 313.862 102.853ZM257.806 103.824C257.763 103.768 257.713 103.705 257.656 103.631C257.712 103.704 257.762 103.768 257.806 103.824ZM254.487 98.5226C254.537 98.6403 254.257 98.0607 254.185 97.888C254.166 97.8324 254.477 98.5065 254.487 98.5226ZM274.541 73.8228C274.332 73.811 273.937 73.8034 273.673 73.7996C273.716 73.8039 274.452 73.823 274.541 73.8228ZM289.156 76.9979C288.757 76.8438 288.269 76.6603 288.264 76.6515C288.256 76.6494 288.236 76.6433 288.204 76.6325C288.171 76.6211 287.747 76.4629 287.558 76.3987C286.454 75.9784 291.819 78.0481 288.72 76.8156C288.865 76.8756 289.01 76.9363 289.156 76.9979ZM305.53 87.6064C305.707 87.7719 306.163 88.264 306.04 88.1404C305.958 88.0532 305.356 87.4399 305.53 87.6064ZM298.382 81.7704C298.444 81.8082 298.988 82.1802 298.998 82.1939C298.685 81.9841 298.103 81.5951 298.382 81.7704ZM306.802 88.9429C306.904 89.0542 307.021 89.2064 307.008 89.1936C306.905 89.0822 306.627 88.7595 306.802 88.9429ZM257.093 102.928C256.956 102.747 256.559 102.157 256.483 102.024C256.466 102.002 256.42 101.938 256.339 101.82C256.339 101.82 256.339 101.82 256.34 101.821C256.134 101.716 253.432 96.6424 255.26 100.035C255.321 100.139 255.23 100.001 255.477 100.425C255.494 100.454 255.507 100.464 255.559 100.551C255.675 100.758 256.327 101.788 256.469 101.998C256.471 101.999 256.481 102.011 256.501 102.039C256.671 102.284 257.195 103.068 257.093 102.928ZM297.285 81.0669C297.399 81.1346 297.752 81.3603 297.785 81.3885C297.61 81.2784 297.02 80.9091 297.285 81.0669ZM313.894 102.92C313.937 103.183 313.99 103.858 313.966 103.654C313.959 103.53 313.85 102.617 313.894 102.92ZM300.745 83.4358C299.502 82.5254 300.45 83.2163 300.265 83.0695C300.426 83.1909 300.586 83.313 300.745 83.4358ZM261.82 108.254C261.639 108.086 261.839 108.299 262.044 108.477C262.108 108.532 261.922 108.349 261.82 108.254ZM270.779 114.814C270.588 114.724 271.489 115.217 271.144 115.014C271.128 115.005 270.793 114.822 270.779 114.814ZM264.338 110.463C264.215 110.351 264.128 110.281 263.764 109.981C264.301 110.428 263.794 110.024 264.338 110.463ZM288.269 76.6521C288.266 76.6515 288.264 76.651 288.264 76.6515C288.267 76.6522 288.269 76.6524 288.269 76.6521ZM307.747 90.0411C307.878 90.184 308.214 90.6031 308.107 90.4836C308.098 90.4719 307.793 90.1056 307.747 90.0411ZM256.483 102.024C256.498 102.045 256.492 102.033 256.469 101.998C256.467 101.997 256.472 102.006 256.483 102.024ZM305.813 87.876C305.824 87.8935 305.24 87.3053 305.218 87.2851C304.89 86.9465 305.577 87.6271 305.813 87.876ZM313.725 108.272C313.716 108.313 313.757 108.046 313.792 107.884C313.82 107.759 313.762 108.12 313.725 108.272ZM265.599 111.448C265.806 111.604 266.103 111.821 266.163 111.854C266.02 111.753 265.597 111.44 265.599 111.448ZM270.422 114.622C270.156 114.46 269.555 114.105 269.166 113.865C269.154 113.875 270.168 114.478 270.422 114.622ZM257.514 103.493C257.499 103.476 257.113 102.956 257.171 103.022C257.256 103.122 257.627 103.637 257.514 103.493ZM313.925 107.035C313.966 106.75 313.904 107.41 313.835 107.709C313.805 107.863 313.924 107.084 313.925 107.035ZM308.801 91.3577C309.029 91.6674 308.449 90.9115 308.369 90.8017C308.48 90.9417 308.721 91.2475 308.801 91.3577ZM299.296 82.3619C300.308 83.0433 299.739 82.6976 299.563 82.568C299.538 82.5492 299.271 82.3455 299.296 82.3619ZM281.431 119.327C281.265 119.276 281.89 119.443 281.969 119.472C282.018 119.491 281.534 119.36 281.431 119.327ZM282.58 74.9193C282.63 74.9312 282.68 74.9432 282.729 74.9551C282.692 74.9458 282.644 74.9341 282.58 74.9193ZM310.773 94.2412C310.304 93.5237 310.368 93.5951 310.33 93.5304C310.245 93.3952 310.035 93.0854 309.867 92.8317C310.057 93.1236 310.242 93.4178 310.421 93.7121C310.296 93.4708 308.932 91.5165 308.893 91.4888C308.858 91.4255 309.297 92.0302 309.309 92.0498C309.328 92.0749 309.414 92.1581 309.454 92.2145C309.533 92.299 310.621 93.9588 310.773 94.2412ZM301.35 83.8736C301.193 83.7553 301.143 83.7281 301.072 83.6709C301.048 83.6515 301.049 83.642 300.966 83.5758C301.094 83.6746 301.223 83.7739 301.35 83.8736ZM311.49 95.591C311.614 95.8001 311.098 94.8427 311.077 94.8183C310.982 94.6595 311.394 95.4167 311.49 95.591ZM306.102 88.1677C306.131 88.1938 306.7 88.8041 306.691 88.8049C306.539 88.638 305.776 87.8337 306.102 88.1677ZM300.861 83.4959C300.627 83.3191 300.176 82.9987 300.234 83.0264C300.234 83.0267 300.234 83.0269 300.235 83.0272C300.446 83.1822 300.653 83.3375 300.861 83.4959ZM314.041 106.053C314.023 106.588 314.021 106.334 314.04 105.86C314.055 105.716 314.043 105.965 314.041 106.053ZM313.857 107.762C313.856 107.914 313.483 109.41 313.523 109.177C313.549 109.098 313.767 108.239 313.768 108.198C313.779 108.137 313.713 108.412 313.807 107.949C313.806 107.977 313.865 107.711 313.857 107.762ZM314.021 106.497C313.985 107.031 313.938 107.146 313.984 106.747C314.001 106.591 314.025 106.42 314.021 106.497ZM314.057 104.316C314.071 104.509 314.09 105.02 314.073 105.373C314.08 104.902 314.065 104.427 314.031 103.957C314.032 103.902 314.047 104.145 314.057 104.317C314.057 104.316 314.057 104.316 314.057 104.316ZM273.264 116.218C272.873 116.034 273.766 116.476 273.806 116.491C273.922 116.54 273.438 116.301 273.264 116.218ZM278.144 118.508C278.03 118.47 277.953 118.453 277.707 118.354C277.959 118.442 278.21 118.526 278.464 118.609C278.653 118.695 278.267 118.55 278.144 118.508ZM277.169 118.206C277.204 118.22 277.002 118.171 277.464 118.33C277.773 118.441 276.113 117.776 275.814 117.652C276.142 117.799 276.863 118.085 277.169 118.206ZM274.238 117.081C274.218 117.075 274.837 117.361 274.909 117.39C275.289 117.551 274.344 117.121 274.238 117.081ZM276.231 117.947C275.934 117.83 276.586 118.103 276.782 118.177C276.803 118.18 276.277 117.966 276.231 117.947ZM269.236 114.447C268.929 114.282 268.687 114.086 269.137 114.372C269.159 114.386 269.249 114.454 269.236 114.447ZM274.833 117.381C275.126 117.506 274.483 117.215 274.29 117.128C274.27 117.125 274.788 117.363 274.833 117.381ZM269.005 114.356C268.605 114.125 268.767 114.174 268.817 114.202C269.022 114.324 269.705 114.754 269.847 114.84C268.811 114.218 269.193 114.462 269.005 114.356ZM267.237 113.189C266.886 112.947 267.796 113.549 267.965 113.668C267.789 113.555 267.336 113.258 267.237 113.189ZM265.129 111.699C264.943 111.563 264.403 111.147 264.319 111.07C264.512 111.227 265.054 111.636 265.129 111.699ZM264.703 111.399C264.415 111.187 264.364 111.113 264.684 111.373C264.697 111.383 264.714 111.407 264.703 111.399ZM263.134 110.14C262.949 109.996 262.764 109.803 263.052 110.049C263.138 110.122 263.154 110.155 263.134 110.14ZM268.49 114.092C268.203 113.916 267.849 113.667 268.455 114.05C268.243 113.913 268.033 113.775 267.825 113.636C268.616 114.136 268.55 114.117 268.779 114.26C269.102 114.457 269.089 114.423 269.027 114.378C269.282 114.553 270.416 115.225 271.082 115.587C270.496 115.275 269.548 114.736 268.986 114.393C268.824 114.295 268.672 114.193 268.536 114.109C268.317 113.972 268.506 114.101 268.491 114.092C268.491 114.092 268.49 114.092 268.49 114.092ZM261.171 108.368C260.668 107.897 260.997 108.182 261.276 108.456C261.288 108.468 261.184 108.38 261.171 108.368ZM273.966 117.071C274.814 117.447 274.194 117.171 275.966 117.954C275.223 117.623 275.929 117.927 275.785 117.859C275.67 117.806 275.229 117.62 275.488 117.721C275.144 117.592 273.714 116.932 273.649 116.897C273.649 116.897 273.65 116.897 273.651 116.898C273.612 116.88 273.696 116.949 273.966 117.071ZM265.084 111.752C264.88 111.637 264.838 111.543 264.465 111.285C264.01 110.887 265.785 112.301 266.036 112.424C264.046 110.976 267.376 113.352 265.952 112.383C267.121 113.192 266.328 112.658 266.503 112.79C266.688 112.93 267.356 113.374 267.317 113.36C267.316 113.36 267.316 113.359 267.315 113.359C266.906 113.084 266.51 112.809 266.107 112.52C266.514 112.779 265.691 112.202 265.409 112.015C265.3 111.928 265.194 111.842 265.084 111.752ZM267.357 113.34C267.314 113.315 266.439 112.71 266.501 112.744C266.613 112.826 267.868 113.674 267.357 113.34ZM271.374 115.763C271.036 115.582 270.52 115.299 270.342 115.186C270.678 115.378 271.193 115.656 271.374 115.763ZM256.532 103.056C256.253 102.655 257.136 103.873 256.873 103.526C256.861 103.512 256.545 103.076 256.532 103.056ZM264.209 111.067C263.818 110.766 264.019 110.888 264.3 111.122C264.316 111.136 264.227 111.081 264.209 111.067ZM274.645 117.388C274.669 117.411 275.902 117.944 276.123 118.03C276 117.978 274.61 117.368 274.645 117.388ZM271.957 116.105C271.263 115.776 270.383 115.244 270.282 115.185C270.183 115.13 270.331 115.228 270.309 115.216C270.254 115.189 269.22 114.58 269.174 114.547C269.139 114.525 269.334 114.623 269.124 114.49C269.522 114.759 271.442 115.833 271.546 115.878C271.624 115.92 271.025 115.624 271.956 116.105C271.956 116.105 271.957 116.105 271.957 116.105ZM270.034 115.047C270.297 115.191 269.569 114.768 269.395 114.665C269.005 114.438 269.997 115.03 270.034 115.047ZM268.299 114.002C268.217 113.954 267.49 113.483 267.433 113.433C267.783 113.657 268.484 114.116 268.299 114.002ZM260.746 108.029C260.588 107.874 260.146 107.434 260.127 107.403C260.283 107.567 260.726 108.001 260.746 108.029ZM278.875 119.137C278.518 119.019 279.34 119.307 279.581 119.381C279.596 119.382 278.906 119.148 278.875 119.137ZM264.103 111.066C263.986 111 261.912 109.226 261.653 108.951C261.912 109.214 263.969 110.968 264.074 111.031C264.102 111.054 264.116 111.076 264.103 111.066ZM268.921 114.446C269.13 114.586 269.275 114.659 269.302 114.675C269.565 114.833 270.119 115.157 270.002 115.078C269.527 114.812 268.507 114.168 268.921 114.446ZM260.577 107.926C259.927 107.272 261.19 108.513 261.02 108.355C261.008 108.345 260.643 107.994 260.577 107.926ZM264.338 111.256C264.481 111.404 266.684 113.018 267.054 113.243C266.738 113.01 266.476 112.843 266.045 112.534C265.929 112.451 265.964 112.468 265.951 112.459C265.752 112.315 265.897 112.428 265.774 112.339C265.691 112.293 264.115 111.075 264.338 111.256ZM269.04 114.527C269.162 114.617 270.633 115.475 270.697 115.501C271.148 115.748 269.145 114.604 269.04 114.527ZM264.135 111.112C264.347 111.31 265.436 112.125 264.702 111.553C264.632 111.499 264.332 111.275 264.135 111.112ZM260.635 108.007C260.603 107.98 259.92 107.29 259.915 107.273C260.009 107.377 261.005 108.368 260.635 108.007ZM260.978 108.369C260.962 108.353 261.131 108.503 260.806 108.189C260.779 108.162 260.72 108.126 260.322 107.718C260.241 107.635 260.122 107.501 260.131 107.51C260.554 107.93 261.818 109.181 260.978 108.369ZM269.061 114.551C268.98 114.508 269.162 114.637 269.336 114.732C269.41 114.772 269.28 114.684 269.061 114.551ZM258.544 105.778C258.901 106.211 257.755 104.868 257.711 104.793C257.745 104.834 258.506 105.739 258.544 105.778ZM279.684 119.484C279.684 119.483 279.683 119.483 279.683 119.483C280.133 119.627 279.857 119.529 279.878 119.536C280.846 119.831 280.585 119.763 280.735 119.812C281.058 119.913 281.008 119.878 281.555 120.043C280.654 119.771 281.473 120.013 281.503 120.013C281.609 120.015 280.3 119.678 279.851 119.52C279.788 119.5 280.254 119.638 280.094 119.584C279.575 119.414 277.966 118.913 279.684 119.484ZM269.467 114.811C269.644 114.936 271.099 115.748 270.718 115.524C270.654 115.495 269.194 114.639 269.467 114.811ZM288.367 75.9737C287.996 75.8286 288.865 76.1396 289.024 76.2094C289.102 76.2422 288.53 76.0361 288.367 75.9737ZM294.318 78.5707C294.741 78.7925 295.165 79.0586 294.646 78.7756C294.591 78.7454 294.267 78.5493 294.318 78.5707ZM264.023 74.3909C264.498 74.2336 264.477 74.2638 264.124 74.3696C264 74.4076 264.008 74.396 264.023 74.3909ZM282.85 74.2879C282.898 74.2977 283.459 74.4374 283.437 74.4375C283.229 74.3867 282.535 74.2182 282.85 74.2879ZM263.87 74.4356C264.153 74.351 263.675 74.5145 263.322 74.6215C263.498 74.5612 263.842 74.4438 263.87 74.4356ZM263.311 110.501C263.126 110.337 262.6 109.891 262.3 109.621C262.259 109.604 263.091 110.32 263.311 110.501ZM292.504 77.6868C292.909 77.8864 292.032 77.4809 292.116 77.5102C292.128 77.5144 292.489 77.6785 292.504 77.6868ZM252.355 84.8266C252.463 84.5129 252.151 85.5191 252.227 85.2395C252.23 85.225 252.347 84.8435 252.355 84.8266ZM251.585 89.3408C251.578 89.0882 251.66 88.0226 251.635 88.4385C251.626 88.5023 251.587 89.3211 251.585 89.3408ZM280.759 119.828C280.628 119.802 281.369 120.018 281.479 120.046C281.52 120.057 280.931 119.865 280.759 119.828ZM267.184 73.6163C267.443 73.5679 268.097 73.4603 268.218 73.4504C267.903 73.4921 267.104 73.6415 267.184 73.6163ZM290.632 76.849C291.001 76.9898 291.61 77.2624 291.452 77.2106C290.779 76.9137 291.545 77.2306 290.632 76.849ZM262.289 74.985C262.485 74.906 262.638 74.8658 262.617 74.8746C262.411 74.9597 262.097 75.0686 262.289 74.985ZM277.622 73.3569C277.634 73.3502 278.291 73.4341 278.203 73.4281C278.173 73.4249 277.612 73.3603 277.622 73.3569ZM257.301 104.333C257.109 104.098 257.674 104.832 257.853 105.035C257.943 105.132 257.324 104.368 257.301 104.333ZM257.274 77.8582C257.24 77.8643 258.08 77.2372 257.754 77.4922C257.671 77.5544 257.285 77.8522 257.274 77.8582ZM251.952 86.1775C252.041 85.837 251.905 86.3831 251.812 86.9279C251.715 87.4736 251.657 88.0112 251.696 87.6268C251.687 87.5712 251.922 86.2336 251.952 86.1775ZM251.609 90.9552C251.601 90.8358 251.565 90.8973 251.624 91.3935C251.632 91.4585 251.612 91.1525 251.619 91.2057C251.616 91.2375 251.748 92.3153 251.762 92.3621C251.769 92.4152 251.749 92.3545 251.756 92.4085C251.761 92.4685 251.882 93.1299 251.956 93.4666C252.095 94.1084 252.112 94.1808 252.123 94.2331C252.161 94.384 252.232 94.6361 252.32 94.9423C252.735 96.4921 253.714 98.7483 254.346 99.84C253.809 98.851 253.365 97.8732 252.965 96.8229C253.055 97.143 252.421 95.2605 252.787 96.3636C252.489 95.9004 251.502 91.3753 251.609 90.9566C251.609 90.9561 251.609 90.9557 251.609 90.9552ZM295.97 79.4578C295.723 79.3008 297.02 80.0535 297.116 80.134C296.95 80.0319 296.003 79.475 295.97 79.4578ZM289.76 76.4341C289.633 76.3821 289.517 76.3066 288.83 76.057C288.829 76.0568 288.829 76.0565 288.828 76.0563C288.627 75.984 288.853 76.0751 288.815 76.0631C288.802 76.0581 288.175 75.8367 288.691 76.0312C289.479 76.3337 288.772 76.0428 289.192 76.2041C289.245 76.2226 290.031 76.5496 289.983 76.5345C289.978 76.5327 289.743 76.4347 289.703 76.4203C289.554 76.3652 289.623 76.4004 289.602 76.3924C289.533 76.3612 288.279 75.8698 288.093 75.8187C288.032 75.7889 290.095 76.5902 290.168 76.6309C290.218 76.6506 290.205 76.6238 290.257 76.6435C290.285 76.6518 291.101 77.0062 291.208 77.0532C291.238 77.066 291.262 77.0758 291.279 77.0828C291.154 77.0335 291.886 77.3591 291.867 77.3442C291.855 77.3352 291.351 77.1111 291.333 77.1043C291.325 77.101 291.318 77.0982 291.311 77.0956C291.423 77.1288 289.692 76.4003 290.07 76.5486C289.57 76.3392 290.135 76.5919 289.76 76.4341ZM287.313 75.5111C287.365 75.5312 287.418 75.5515 287.47 75.5718C286.574 75.2557 285.522 74.9334 284.462 74.642C284.193 74.5684 284.506 74.6404 284.152 74.5483C283.869 74.475 283.554 74.4069 283.706 74.4487C283.744 74.4582 284.32 74.6021 284.608 74.6844C285.458 74.9273 285.236 74.8789 285.286 74.8928C285.34 74.9085 285.872 75.0599 286.161 75.1524C286.888 75.3858 287.209 75.4962 288.193 75.841C287.632 75.6317 287.945 75.7256 287.313 75.5111ZM254.211 81.0611C254.182 81.0859 253.833 81.6163 253.715 81.8154C253.737 81.7861 254.075 81.2472 254.211 81.0611ZM308.072 117.747C307.913 117.857 309.087 116.987 308.782 117.223C308.718 117.278 308.226 117.644 308.072 117.747ZM312.587 113.035C312.694 112.871 312.28 113.543 312.27 113.534C312.27 113.533 312.576 113.058 312.587 113.035ZM275.255 73.103C275.218 73.0996 274.689 73.0769 274.673 73.0776C274.321 73.0697 276.065 73.1554 275.255 73.103ZM314.782 105.471C314.771 106.148 314.768 104.112 314.78 104.734C314.784 104.765 314.787 105.437 314.782 105.471ZM314.611 102.651C314.637 102.807 314.719 103.526 314.714 103.535C314.714 103.55 314.617 102.73 314.611 102.651ZM262.142 74.9987C262.206 74.9556 261.338 75.3292 261.035 75.4768C260.97 75.5175 261.83 75.1164 262.142 74.9987ZM267.912 73.4252C263.989 74.1912 264.857 73.9968 268.148 73.3952C268.152 73.3867 268.161 73.387 267.912 73.4252ZM262.951 74.6808C263.088 74.6385 263.524 74.4843 263.814 74.3923C263.762 74.401 263.158 74.6047 262.951 74.6808ZM306.609 118.681C306.838 118.575 307.782 117.969 307.609 118.07C307.574 118.103 306.53 118.729 306.609 118.681ZM274.922 73.0751C275.016 73.0636 273.823 73.0268 273.73 73.0329C273.36 73.0343 274.829 73.0609 274.922 73.0751ZM257.208 77.8389C257.032 77.9651 256.572 78.3613 256.287 78.631C256.422 78.5116 256.945 78.0456 257.208 77.8389ZM259.53 76.2457C259.508 76.256 259.043 76.5343 259.022 76.55C258.644 76.7866 259.965 75.9982 259.53 76.2457ZM279.033 119.363C279.05 119.37 279.434 119.498 279.447 119.502C279.792 119.608 278.641 119.222 279.033 119.363Z" fill="#B8FF4F"/>
<path d="M249.273 108.984L253.018 104.91L255.06 107.434C255.604 108.107 257.13 109.704 257.825 110.417L252.932 114.377L250.89 111.852C250.345 111.179 249.585 109.66 249.273 108.984Z" fill="white"/>
<path d="M295.099 130.379L297.653 124.833C297.057 124.967 295.593 125.246 294.504 125.292C293.415 125.338 291.072 125.401 290.249 125.254L289.015 131.126L289.993 131.03C290.607 130.97 293.653 130.622 295.099 130.379Z" fill="#B8FF4F"/>
<path d="M290.672 130.131L291.268 126.517L290.885 126.479L290.289 130.093L290.672 130.131Z" fill="white"/>
<path d="M288.63 131.087L289.864 125.216C289.558 125.186 288.857 124.987 288.545 124.891L287.098 130.934C287.541 131.133 288.304 131.119 288.63 131.087Z" fill="#B8FF4F"/>
<path d="M268.949 95.1312C268.93 94.9111 269.009 94.7041 269.173 94.5589L284.565 81.0044C284.846 80.7567 285.396 80.9633 285.436 81.3319L286.057 86.969C286.08 87.1848 286.002 87.3918 285.832 87.5412L270.441 101.096C270.16 101.343 269.61 101.137 269.57 100.768L268.949 95.1312Z" fill="url(#paint0_linear_242_806)"/>
<path d="M288.762 89.1552C288.506 89.1444 288.264 89.2192 288.094 89.3687L272.703 102.923C272.422 103.171 272.69 103.625 273.128 103.644L279.829 103.925C280.086 103.936 280.328 103.861 280.497 103.712L295.889 90.1574C296.17 89.9097 295.902 89.4555 295.464 89.4371L288.762 89.1552Z" fill="url(#paint1_linear_242_806)"/>
<path d="M282.621 106.181C282.597 105.966 282.676 105.759 282.845 105.609L298.237 92.0547C298.518 91.807 299.067 92.0136 299.108 92.3822L299.728 98.0193C299.752 98.2351 299.674 98.4421 299.504 98.5915L284.113 112.146C283.831 112.394 283.282 112.187 283.241 111.819L282.621 106.181Z" fill="url(#paint2_linear_242_806)"/>
<defs>
<linearGradient id="paint0_linear_242_806" x1="273.321" y1="82.2675" x2="280.369" y2="113.078" gradientUnits="userSpaceOnUse">
<stop stop-color="#00FFA3"/>
<stop offset="1" stop-color="#DC1FFF"/>
</linearGradient>
<linearGradient id="paint1_linear_242_806" x1="277.093" y1="81.4049" x2="284.14" y2="112.216" gradientUnits="userSpaceOnUse">
<stop stop-color="#00FFA3"/>
<stop offset="1" stop-color="#DC1FFF"/>
</linearGradient>
<linearGradient id="paint2_linear_242_806" x1="280.91" y1="80.5289" x2="287.957" y2="111.344" gradientUnits="userSpaceOnUse">
<stop stop-color="#00FFA3"/>
<stop offset="1" stop-color="#DC1FFF"/>
</linearGradient>
</defs>
</svg>
