<svg width="130" height="31" viewBox="0 0 130 31" fill="none" xmlns="http://www.w3.org/2000/svg">
<path d="M18.5443 2.56009L6.44828 22.3041L3.66428 21.1681H12.1123C12.6456 21.1681 13.1309 21.1148 13.5683 21.0081C14.0056 20.9014 14.4109 20.7094 14.7843 20.4321C15.1683 20.1441 15.5309 19.7388 15.8723 19.2161C16.2136 18.6934 16.5549 18.0214 16.8963 17.2001L17.3603 16.0801C17.4776 15.7921 17.6376 15.6001 17.8403 15.5041C18.0536 15.4081 18.2936 15.3921 18.5603 15.4561C18.8483 15.5094 19.0456 15.6374 19.1523 15.8401C19.2589 16.0428 19.2803 16.2988 19.2163 16.6081L18.0643 22.1601C17.9683 22.5974 17.8189 22.9174 17.6163 23.1201C17.4136 23.3334 17.1149 23.4401 16.7203 23.4401C16.4856 23.4401 16.2563 23.3974 16.0323 23.3121C15.8083 23.2374 15.5523 23.1574 15.2643 23.0721C14.9763 22.9868 14.6243 22.9441 14.2083 22.9441H0.960281C0.640281 22.9441 0.400281 22.8694 0.240281 22.7201C0.0802813 22.5708 0.000281274 22.3681 0.000281274 22.1121C0.000281274 21.9521 0.0376146 21.7761 0.112281 21.5841C0.186948 21.3921 0.298948 21.1734 0.448281 20.9281L12.6243 1.10409L13.2003 2.32009H7.34428C6.70428 2.32009 6.14428 2.41609 5.66428 2.60809C5.19495 2.78942 4.76828 3.10942 4.38428 3.56809C4.01095 4.02676 3.63761 4.67742 3.26428 5.52009L2.83228 6.48009C2.68295 6.76809 2.49628 6.96009 2.27228 7.05609C2.05895 7.14142 1.84028 7.16276 1.61628 7.12009C1.33895 7.07742 1.13095 6.96009 0.992281 6.76809C0.853615 6.57609 0.816281 6.30942 0.880281 5.96809L1.72828 1.29609C1.82428 0.837425 1.97895 0.506758 2.19228 0.30409C2.40561 0.101425 2.70428 9.15527e-05 3.08828 9.15527e-05C3.32295 9.15527e-05 3.55228 0.0480913 3.77628 0.144091C4.00028 0.229424 4.25628 0.320091 4.54428 0.41609C4.84295 0.501424 5.19495 0.54409 5.60028 0.54409H18.0483C18.3683 0.54409 18.6083 0.613424 18.7683 0.75209C18.9389 0.890757 19.0243 1.09342 19.0243 1.36009C19.0243 1.50942 18.9816 1.68542 18.8963 1.88809C18.8216 2.08009 18.7043 2.30409 18.5443 2.56009ZM28.3205 8.51209V20.2081C28.3205 20.5601 28.3579 20.8161 28.4325 20.9761C28.5072 21.1361 28.6299 21.2481 28.8005 21.3121L29.3125 21.4561C29.5259 21.5414 29.6752 21.6481 29.7605 21.7761C29.8565 21.8934 29.9045 22.0374 29.9045 22.2081C29.9045 22.4321 29.8299 22.6134 29.6805 22.7521C29.5312 22.8801 29.2912 22.9441 28.9605 22.9441H22.1125C21.7925 22.9441 21.5525 22.8801 21.3925 22.7521C21.2432 22.6134 21.1685 22.4321 21.1685 22.2081C21.1685 22.0374 21.2165 21.8934 21.3125 21.7761C21.4085 21.6481 21.5579 21.5468 21.7605 21.4721L22.2885 21.3121C22.4592 21.2374 22.5819 21.1254 22.6565 20.9761C22.7312 20.8161 22.7685 20.5601 22.7685 20.2081V11.5041C22.7685 11.2268 22.7259 11.0294 22.6405 10.9121C22.5659 10.7841 22.4432 10.6988 22.2725 10.6561L21.6485 10.5921C21.4565 10.5388 21.3179 10.4588 21.2325 10.3521C21.1472 10.2454 21.1045 10.1068 21.1045 9.93609C21.1045 9.74409 21.1579 9.58942 21.2645 9.47209C21.3712 9.35476 21.5792 9.23742 21.8885 9.12009L25.3765 7.85609C25.8352 7.68542 26.1925 7.56809 26.4485 7.50409C26.7152 7.42942 26.9499 7.39209 27.1525 7.39209C27.5365 7.39209 27.8245 7.49876 28.0165 7.71209C28.2192 7.91476 28.3205 8.18142 28.3205 8.51209ZM25.2165 5.52009C24.2139 5.52009 23.4139 5.26942 22.8165 4.76809C22.2299 4.26676 21.9365 3.60009 21.9365 2.76809C21.9365 1.93609 22.2299 1.27476 22.8165 0.78409C23.4139 0.293423 24.2139 0.04809 25.2165 0.04809C26.2299 0.04809 27.0352 0.298757 27.6325 0.800091C28.2299 1.29076 28.5285 1.94676 28.5285 2.76809C28.5285 3.60009 28.2299 4.26676 27.6325 4.76809C27.0352 5.26942 26.2299 5.52009 25.2165 5.52009ZM38.758 8.51209V20.2081C38.758 20.5601 38.7954 20.8161 38.87 20.9761C38.9447 21.1254 39.0674 21.2374 39.238 21.3121L39.718 21.4721C40.038 21.6321 40.198 21.8614 40.198 22.1601C40.198 22.6828 39.878 22.9441 39.238 22.9441H32.55C32.2194 22.9441 31.9794 22.8801 31.83 22.7521C31.6807 22.6134 31.606 22.4321 31.606 22.2081C31.606 22.0374 31.6487 21.8934 31.734 21.7761C31.83 21.6481 31.9847 21.5468 32.198 21.4721L32.71 21.3121C32.8914 21.2374 33.0194 21.1254 33.094 20.9761C33.1687 20.8161 33.206 20.5601 33.206 20.2081V11.5041C33.206 11.2268 33.1634 11.0294 33.078 10.9121C33.0034 10.7841 32.8754 10.6988 32.694 10.6561L32.07 10.5921C31.878 10.5388 31.7394 10.4588 31.654 10.3521C31.5687 10.2454 31.526 10.1068 31.526 9.93609C31.526 9.74409 31.5794 9.58942 31.686 9.47209C31.8034 9.35476 32.0114 9.23742 32.31 9.12009L35.814 7.85609C36.2407 7.69609 36.5874 7.57876 36.854 7.50409C37.1207 7.42942 37.3767 7.39209 37.622 7.39209C37.9954 7.39209 38.278 7.49876 38.47 7.71209C38.662 7.91476 38.758 8.18142 38.758 8.51209ZM38.23 12.2081L37.462 11.3921L38.022 10.8961C39.4087 9.62676 40.598 8.72009 41.59 8.17609C42.582 7.63209 43.51 7.36009 44.374 7.36009C45.6754 7.36009 46.694 7.79742 47.43 8.67209C48.166 9.54676 48.6034 10.7201 48.742 12.1921L49.59 20.1761C49.6327 20.5388 49.6807 20.8054 49.734 20.9761C49.798 21.1361 49.9207 21.2481 50.102 21.3121L50.582 21.4721C50.7954 21.5468 50.9447 21.6481 51.03 21.7761C51.126 21.8934 51.174 22.0374 51.174 22.2081C51.174 22.4321 51.0994 22.6134 50.95 22.7521C50.8007 22.8801 50.5607 22.9441 50.23 22.9441H43.462C42.822 22.9441 42.502 22.6828 42.502 22.1601C42.502 21.8614 42.662 21.6321 42.982 21.4721L43.478 21.3121C43.6594 21.2374 43.7927 21.1201 43.878 20.9601C43.974 20.8001 44.006 20.5388 43.974 20.1761L43.222 12.9601C43.1367 12.1601 42.9394 11.5628 42.63 11.1681C42.3314 10.7734 41.8727 10.5761 41.254 10.5761C40.87 10.5761 40.47 10.6721 40.054 10.8641C39.6487 11.0561 39.2434 11.3281 38.838 11.6801L38.23 12.2081ZM63.0913 21.1041C64.7553 21.3068 66.0779 21.5894 67.0593 21.9521C68.0513 22.3041 68.7659 22.7681 69.2033 23.3441C69.6406 23.9308 69.8593 24.6561 69.8593 25.5201C69.8593 27.0561 69.0273 28.3148 67.3633 29.2961C65.6993 30.2881 63.2886 30.7841 60.1313 30.7841C58.1046 30.7841 56.5046 30.6401 55.3313 30.3521C54.1686 30.0641 53.3419 29.6588 52.8513 29.1361C52.3606 28.6241 52.1153 28.0321 52.1153 27.3601C52.1153 26.5601 52.4993 25.8614 53.2673 25.2641C54.0353 24.6774 55.4326 24.2668 57.4593 24.0321L57.6193 24.4801C57.1819 24.5974 56.8459 24.8054 56.6113 25.1041C56.3766 25.4028 56.2593 25.7281 56.2593 26.0801C56.2593 27.0081 56.6113 27.7494 57.3153 28.3041C58.0299 28.8588 59.2619 29.1361 61.0113 29.1361C62.0139 29.1361 62.8086 29.0614 63.3953 28.9121C63.9819 28.7628 64.4033 28.5441 64.6593 28.2561C64.9153 27.9788 65.0433 27.6321 65.0433 27.2161C65.0433 26.8534 64.8939 26.5494 64.5953 26.3041C64.2966 26.0588 63.7793 25.8401 63.0433 25.6481C62.3179 25.4561 61.3046 25.2694 60.0033 25.0881C58.4246 24.8748 57.2086 24.6294 56.3553 24.3521C55.5126 24.0748 54.9313 23.7441 54.6113 23.3601C54.2913 22.9761 54.1313 22.5068 54.1313 21.9521C54.1313 21.4294 54.2806 20.9494 54.5793 20.5121C54.8779 20.0641 55.3793 19.6908 56.0833 19.3921C56.7873 19.0934 57.7633 18.9068 59.0113 18.8321L59.2353 19.1041C58.9899 19.2001 58.8086 19.3068 58.6913 19.4241C58.5739 19.5414 58.5153 19.6748 58.5153 19.8241C58.5153 19.9628 58.5953 20.0961 58.7553 20.2241C58.9259 20.3521 59.3313 20.4854 59.9713 20.6241C60.6219 20.7628 61.6619 20.9228 63.0913 21.1041ZM63.1393 8.92809L63.6353 7.77609C64.1793 6.52809 64.8513 5.59476 65.6513 4.97609C66.4619 4.34676 67.3313 4.03209 68.2593 4.03209C69.0166 4.03209 69.6299 4.24542 70.0993 4.67209C70.5686 5.08809 70.8033 5.68542 70.8033 6.46409C70.8033 7.14676 70.6273 7.69609 70.2753 8.11209C69.9339 8.52809 69.4753 8.73609 68.8993 8.73609C68.5046 8.73609 68.1953 8.65076 67.9713 8.48009C67.7579 8.30942 67.5713 8.11209 67.4113 7.88809C67.2619 7.65342 67.0859 7.45076 66.8833 7.28009C66.6913 7.10942 66.4246 7.02409 66.0833 7.02409C65.7206 7.02409 65.4113 7.16809 65.1553 7.45609C64.9099 7.73342 64.6166 8.26142 64.2753 9.04009L63.1393 8.92809ZM68.5473 13.1201C68.5473 14.3574 68.2113 15.4454 67.5393 16.3841C66.8673 17.3121 65.9179 18.0428 64.6913 18.5761C63.4646 19.0988 62.0139 19.3601 60.3393 19.3601C58.7179 19.3601 57.3259 19.1094 56.1633 18.6081C55.0113 18.1068 54.1313 17.4241 53.5233 16.5601C52.9153 15.6961 52.6113 14.7361 52.6113 13.6801C52.6113 12.4428 52.9419 11.3548 53.6033 10.4161C54.2753 9.47742 55.2299 8.74676 56.4673 8.22409C57.7046 7.69076 59.1713 7.42409 60.8673 7.42409C62.4886 7.42409 63.8699 7.68009 65.0113 8.19209C66.1633 8.69342 67.0379 9.37609 67.6353 10.2401C68.2433 11.0934 68.5473 12.0534 68.5473 13.1201ZM59.8753 8.91209C59.4166 8.95476 59.0539 9.15742 58.7873 9.52009C58.5206 9.88276 58.3499 10.4001 58.2753 11.0721C58.2113 11.7334 58.2539 12.5494 58.4033 13.5201C58.5526 14.5014 58.7553 15.3228 59.0113 15.9841C59.2779 16.6348 59.5979 17.1148 59.9713 17.4241C60.3553 17.7228 60.7819 17.8454 61.2513 17.7921C61.9446 17.7068 62.4193 17.2801 62.6753 16.5121C62.9313 15.7441 62.9473 14.6294 62.7233 13.1681C62.5099 11.6961 62.1579 10.5974 61.6673 9.87209C61.1766 9.14676 60.5793 8.82676 59.8753 8.91209Z" fill="white"/>
<path d="M93.359 8.28809C93.1457 9.45076 92.735 10.4908 92.127 11.4081C91.519 12.3254 90.7564 13.1041 89.839 13.7441C88.9217 14.3734 87.8924 14.8534 86.751 15.1841C85.6097 15.5148 84.3884 15.6801 83.087 15.6801C81.999 15.6801 81.103 15.6001 80.399 15.4401C79.695 15.2694 78.9804 15.0081 78.255 14.6561L78.895 13.1041C79.3964 13.4241 79.9084 13.6588 80.431 13.8081C80.9537 13.9574 81.5084 14.0321 82.095 14.0321C83.0337 14.0321 83.8817 13.8081 84.639 13.3601C85.407 12.9014 86.0524 12.2188 86.575 11.3121C87.0977 10.4054 87.4764 9.27476 87.711 7.92009C87.9457 6.57609 87.9564 5.49342 87.743 4.67209C87.5404 3.85076 87.183 3.24809 86.671 2.86409C86.159 2.48009 85.5564 2.28809 84.863 2.28809C84.287 2.28809 83.8337 2.43742 83.503 2.73609C83.1724 3.03476 82.9057 3.50942 82.703 4.16009C82.671 4.28809 82.5857 4.62942 82.447 5.18409C82.3084 5.72809 82.1324 6.42142 81.919 7.26409C81.7057 8.09609 81.471 9.01342 81.215 10.0161C80.959 11.0081 80.6977 12.0161 80.431 13.0401C80.175 14.0534 79.9297 15.0241 79.695 15.9521C79.4604 16.8694 79.2524 17.6748 79.071 18.3681C78.8897 19.0614 78.7564 19.5681 78.671 19.8881C78.5644 20.2614 78.543 20.5334 78.607 20.7041C78.6817 20.8748 78.815 20.9814 79.007 21.0241L80.447 21.2481C80.671 21.3014 80.831 21.3974 80.927 21.5361C81.0337 21.6641 81.087 21.8241 81.087 22.0161C81.087 22.2828 80.9857 22.5068 80.783 22.6881C80.5804 22.8588 80.2924 22.9441 79.919 22.9441H71.183C70.7884 22.9441 70.527 22.8694 70.399 22.7201C70.271 22.5708 70.207 22.3788 70.207 22.1441C70.207 21.9094 70.2817 21.7174 70.431 21.5681C70.591 21.4081 70.7777 21.2908 70.991 21.2161L71.807 21.0241C72.0737 20.9494 72.271 20.8374 72.399 20.6881C72.5377 20.5281 72.655 20.2934 72.751 19.9841C72.847 19.6854 72.991 19.1841 73.183 18.4801C73.375 17.7761 73.599 16.9494 73.855 16.0001C74.1217 15.0401 74.3937 14.0268 74.671 12.9601C74.959 11.8934 75.2364 10.8374 75.503 9.79209C75.7804 8.73609 76.031 7.76009 76.255 6.86409C76.4897 5.95742 76.6817 5.19476 76.831 4.57609C76.991 3.94676 77.0924 3.53609 77.135 3.34409C77.1884 3.06676 77.1724 2.86409 77.087 2.73609C77.0017 2.60809 76.8577 2.51209 76.655 2.44809L75.823 2.22409C75.6204 2.13876 75.4657 2.04276 75.359 1.93609C75.263 1.81876 75.215 1.66409 75.215 1.47209C75.215 1.18409 75.311 0.960091 75.503 0.800091C75.7057 0.629424 75.999 0.54409 76.383 0.54409H85.839C87.151 0.54409 88.319 0.725424 89.343 1.08809C90.367 1.45076 91.215 1.97342 91.887 2.65609C92.5697 3.33876 93.039 4.15476 93.295 5.10409C93.5617 6.05342 93.583 7.11476 93.359 8.28809ZM107.865 17.8881C107.662 18.6988 107.593 19.2588 107.657 19.5681C107.732 19.8668 107.886 20.0161 108.121 20.0161C108.27 20.0161 108.42 19.9734 108.569 19.8881C108.729 19.7921 108.921 19.6321 109.145 19.4081C109.358 19.2268 109.534 19.1201 109.673 19.0881C109.812 19.0454 109.945 19.0561 110.073 19.1201C110.233 19.2054 110.313 19.3601 110.313 19.5841C110.324 19.8081 110.238 20.0961 110.057 20.4481C109.609 21.3121 108.932 22.0161 108.025 22.5601C107.118 23.0934 106.148 23.3601 105.113 23.3601C104.27 23.3601 103.662 23.1574 103.289 22.7521C102.926 22.3361 102.745 21.7601 102.745 21.0241C102.745 20.7788 102.756 20.5121 102.777 20.2241C102.809 19.9254 102.857 19.6054 102.921 19.2641C102.985 18.9228 103.065 18.5494 103.161 18.1441C103.268 17.7281 103.39 17.2801 103.529 16.8001L103.897 17.7121C103.513 18.8854 102.969 19.8934 102.265 20.7361C101.561 21.5788 100.756 22.2294 99.849 22.6881C98.9424 23.1361 97.9824 23.3601 96.969 23.3601C95.625 23.3601 94.5904 22.9281 93.865 22.0641C93.1397 21.2001 92.873 19.8934 93.065 18.1441C93.1717 17.1094 93.433 16.0908 93.849 15.0881C94.2757 14.0748 94.841 13.1254 95.545 12.2401C96.2597 11.3441 97.097 10.5601 98.057 9.88809C99.017 9.20542 100.1 8.67209 101.305 8.28809C102.51 7.90409 103.812 7.71209 105.209 7.71209C106.478 7.71209 107.534 7.79742 108.377 7.96809C109.23 8.13876 109.865 8.36809 110.281 8.65609C110.697 8.94409 110.878 9.26409 110.825 9.61609C110.793 9.92542 110.686 10.1494 110.505 10.2881C110.334 10.4161 110.153 10.5494 109.961 10.6881C109.769 10.8161 109.63 11.0401 109.545 11.3601L107.865 17.8881ZM98.585 18.1121C98.489 19.0188 98.537 19.6534 98.729 20.0161C98.9317 20.3681 99.2037 20.5441 99.545 20.5441C99.8864 20.5441 100.249 20.4001 100.633 20.1121C101.017 19.8241 101.401 19.4134 101.785 18.8801C102.18 18.3361 102.553 17.6961 102.905 16.9601C103.268 16.2241 103.593 15.4134 103.881 14.5281C104.169 13.6321 104.398 12.6828 104.569 11.6801C104.708 10.9441 104.718 10.4054 104.601 10.0641C104.484 9.71209 104.238 9.53609 103.865 9.53609C103.396 9.53609 102.921 9.70676 102.441 10.0481C101.972 10.3894 101.524 10.8534 101.097 11.4401C100.67 12.0268 100.281 12.6934 99.929 13.4401C99.577 14.1761 99.2837 14.9494 99.049 15.7601C98.825 16.5601 98.6704 17.3441 98.585 18.1121ZM122.916 12.9281C123.513 11.1468 124.185 9.82942 124.932 8.97609C125.689 8.11209 126.543 7.68009 127.492 7.68009C128.153 7.68009 128.676 7.89342 129.06 8.32009C129.444 8.74676 129.636 9.31742 129.636 10.0321C129.636 10.9068 129.38 11.6428 128.868 12.2401C128.356 12.8374 127.679 13.3388 126.836 13.7441C126.409 13.9254 126.02 14.1281 125.668 14.3521C125.316 14.5761 124.985 14.8481 124.676 15.1681C124.377 15.4774 124.095 15.8721 123.828 16.3521C123.561 16.8214 123.305 17.3974 123.06 18.0801L121.172 23.1681C120.521 25.0348 119.753 26.5281 118.868 27.6481C117.993 28.7788 116.985 29.5894 115.844 30.0801C114.713 30.5814 113.455 30.8321 112.068 30.8321C110.628 30.8321 109.535 30.5334 108.788 29.9361C108.031 29.3494 107.652 28.5761 107.652 27.6161C107.652 26.9441 107.865 26.3628 108.292 25.8721C108.719 25.3921 109.257 25.1521 109.908 25.1521C110.388 25.1521 110.783 25.2748 111.092 25.5201C111.401 25.7654 111.663 26.0641 111.876 26.4161C112.1 26.7788 112.308 27.1361 112.5 27.4881C112.703 27.8508 112.927 28.1548 113.172 28.4001C113.428 28.6454 113.743 28.7681 114.116 28.7681C114.404 28.7681 114.671 28.6988 114.916 28.5601C115.172 28.4321 115.391 28.2348 115.572 27.9681C115.753 27.7121 115.897 27.3921 116.004 27.0081C116.111 26.6241 116.164 26.1761 116.164 25.6641C116.164 25.2481 116.143 24.7148 116.1 24.0641C116.057 23.4241 115.999 22.7094 115.924 21.9201C115.86 21.1201 115.78 20.2934 115.684 19.4401C115.588 18.5761 115.487 17.7228 115.38 16.8801C115.284 16.0268 115.183 15.2214 115.076 14.4641C114.969 13.7068 114.868 13.0348 114.772 12.4481C114.719 11.9894 114.623 11.6534 114.484 11.4401C114.345 11.2268 114.18 11.1201 113.988 11.1201C113.86 11.1201 113.721 11.1734 113.572 11.2801C113.433 11.3761 113.263 11.5574 113.06 11.8241C112.953 11.9521 112.841 12.0428 112.724 12.0961C112.607 12.1388 112.489 12.1441 112.372 12.1121C112.233 12.0908 112.121 11.9948 112.036 11.8241C111.961 11.6534 111.972 11.3974 112.068 11.0561C112.281 10.4268 112.623 9.85609 113.092 9.34409C113.561 8.83209 114.127 8.43209 114.788 8.14409C115.46 7.84542 116.191 7.69609 116.98 7.69609C117.759 7.69609 118.393 7.95209 118.884 8.46409C119.375 8.96542 119.673 9.72809 119.78 10.7521C119.823 11.2428 119.871 11.8668 119.924 12.6241C119.977 13.3708 120.031 14.1974 120.084 15.1041C120.137 16.0001 120.18 16.9174 120.212 17.8561C120.255 18.7948 120.287 19.7014 120.308 20.5761C120.34 21.4508 120.361 22.2401 120.372 22.9441L119.748 22.7841L122.916 12.9281Z" fill="#B8FF4F"/>
</svg>
