<svg width="188" height="259" viewBox="0 0 188 259" fill="none" xmlns="http://www.w3.org/2000/svg">
<path d="M25.2933 15.258C25.5902 11.0968 25.2725 -0.307658 31.3943 0.00635726C38.807 0.386841 38.4536 13.4308 38.9438 18.8654C39.8262 28.8554 40.4213 38.8688 40.7275 48.8931C40.8106 51.9594 40.3824 60.9879 41.5014 62.9143C46.2644 71.1146 55.6692 80.3696 62.0715 87.6509C72.7685 70.9907 83.7244 54.507 95.5099 38.4621C103.701 27.3103 114.551 11.0287 130.63 20.9508C139.107 26.182 142.268 36.1912 145.306 45.1931C148.482 54.6783 151.339 64.2673 153.873 73.9442C155.165 78.7001 156.524 84.5046 157.995 89.0643C159.063 89.9941 159.276 90.3866 160.669 90.5063C161.485 91.2412 161.854 92.2614 162.313 93.2636C170.837 100.86 186.213 113.604 187.122 125.5C187.703 133.11 182.418 140.619 176.572 144.918C175.617 145.658 174.691 146.271 174.495 147.498C176.868 146.904 178.495 145.68 180.949 147.068C181.904 147.601 182.579 148.524 182.796 149.597C184.013 155.421 178.344 159.697 173.173 160.679C172.467 175.532 159.896 176.089 148.214 176.187C148.435 183.479 149.489 192.619 149.931 200.177C150.879 216.454 151.309 232.756 151.219 249.061C153.719 250.862 161.111 254.312 159.718 257.929C159.405 258.286 158.934 258.75 158.428 258.765C144.266 259.151 130.006 258.814 115.822 258.909C112.299 258.931 111.842 258.1 112.251 254.769C114.822 233.871 115.401 212.769 114.426 191.746C114.134 185.368 113.445 179.007 113.052 172.619C108.275 171.803 103.513 170.901 98.7668 169.921C96.739 175.53 94.2802 181.468 92.095 187.042L80.2316 217.437L71.4876 239.833C69.7638 244.227 68.159 248.77 66.1395 253.034C65.4472 254.498 64.1076 257.23 62.6423 258.049C61.4689 258.704 59.9596 258.875 58.6383 258.95C55.4031 259.131 23.2384 258.811 21.2121 258.105C20.8042 257.961 20.6212 257.802 20.4614 257.389C19.2429 254.236 24.9082 250.143 26.6366 247.973C27.8245 246.483 28.5874 244.887 29.3093 243.14C33.2644 233.553 37.5924 224.113 41.5398 214.519C48.6389 197.169 55.4354 179.699 61.9263 162.114C54.1835 160.655 42.9762 159.697 36.0378 155.961C23.7968 149.367 31.8612 137.44 36.8933 128.992L43.2225 118.391C37.8852 114.361 32.6562 110.193 27.5405 105.887C21.8694 101.175 14.7541 95.6943 12.5895 88.468C9.66511 78.7052 11.7982 66.1329 12.8935 56.176C12.4382 56.1435 12.0206 56.1052 11.5756 55.9852C-6.35579 51.1515 1.43545 36.1311 3.19858 23.1599C3.50942 20.8738 5.12544 16.829 7.02689 15.7413C10.1267 13.9682 21.8071 15.1118 24.842 16.028L25.2933 15.258Z" fill="#B8FF4F"/>
<path d="M12.8935 56.1761C12.4382 56.1436 12.0206 56.1053 11.5756 55.9853C-6.35579 51.1516 1.43545 36.1312 3.19858 23.16C3.50942 20.874 5.12544 16.8291 7.02689 15.7414C10.1267 13.9683 21.8071 15.112 24.842 16.0281L25.2933 15.2581C28.1629 14.4575 29.5182 16.2903 30.222 18.8335C31.5013 23.4565 30.5707 27.7222 27.9132 31.6289C30.3867 36.466 29.9109 39.3926 26.5694 43.6368C29.1649 47.3798 28.6568 52.0165 24.9663 54.9487C22.1258 57.2059 16.4139 56.6023 12.8935 56.1761Z" fill="#B8FF4F"/>
<path d="M25.292 15.258C28.1616 14.4575 29.5169 16.2902 30.2207 18.8334C31.4999 23.4564 30.5694 27.7221 27.9119 31.6289C30.3854 36.4659 29.9096 39.3925 26.5681 43.6367C29.1635 47.3797 28.6555 52.0164 24.965 54.9486C22.1244 57.2059 16.4125 56.6023 12.8921 56.1761C11.9643 55.2795 11.7363 54.3262 12.4058 53.1811C14.6186 51.4517 21.9964 54.5808 23.8316 50.6968C25.2959 47.5982 24.2294 46.1286 21.3784 44.9206C18.4731 43.6895 15.6 43.061 12.4427 42.7475C10.111 42.4063 5.11726 42.9268 3.45554 41.9999C3.02619 41.3868 2.90962 41.1104 2.99857 40.3275C3.24563 38.285 6.32861 38.7403 7.77797 38.7217C13.3105 38.6508 17.9939 39.5963 23.1574 41.5334C24.0418 40.6188 25.1251 39.3524 25.4916 38.1049C28.415 28.1547 6.6089 32.9805 4.7424 28.3663C5.29199 25.3173 9.44725 26.5506 11.7167 26.8546C16.0396 27.434 21.0231 27.6083 25.0667 29.2169C30.0885 19.8238 24.4357 20.2231 24.8406 16.028L25.292 15.258Z" fill="#0B2818"/>
<path d="M162.312 93.2634C170.836 100.86 186.212 113.604 187.121 125.5C187.703 133.109 182.417 140.619 176.571 144.917C175.616 145.658 174.69 146.271 174.494 147.498C174.504 145.172 173.329 138.754 172.852 136.145C171.083 126.414 168.886 116.766 166.266 107.231C165.14 103.035 163.129 97.1428 162.312 93.2634Z" fill="#B8FF4F"/>
<path d="M174.494 147.498C174.993 148.766 176.046 156.178 175.67 157.796C175.455 158.715 175.262 158.952 174.512 159.423C173.881 159.484 173.549 159.541 172.972 159.186C171.709 158.414 171.098 149.316 170.822 147.307C168.959 134.561 166.345 121.939 162.989 109.503C162.151 106.29 161.232 103.101 160.228 99.9383C159.515 97.682 158.652 95.221 158.146 92.9168C157.951 92.0239 158.087 91.7456 158.586 91.0503C159.361 90.5132 159.705 90.5731 160.668 90.5063C161.484 91.2412 161.853 92.2614 162.313 93.2636C163.129 97.143 165.14 103.035 166.267 107.231C168.886 116.766 171.083 126.414 172.852 136.145C173.329 138.755 174.504 145.172 174.494 147.498Z" fill="#0B2818"/>
<path d="M103.885 82.6443C107.603 82.2116 118.152 88.4457 123.359 88.4911C137.378 88.6133 134.315 98.3375 127.175 105.603C126.805 105.928 126.419 106.236 126.018 106.522C122.426 109.091 118.268 110.217 113.914 109.447C104.275 107.751 101.429 97.4153 101.438 88.9329C101.44 86.0858 101.35 84.32 103.885 82.6443Z" fill="#0B2818"/>
<path d="M107.234 96.3949C112.911 96.1554 116.491 98.2387 119.452 103.23C119.894 103.976 120.132 104.594 119.885 105.422L119.156 105.635C114.231 106.358 110.418 105.1 107.681 100.728C107.062 99.7401 106.218 97.8653 106.499 96.7079L107.234 96.3949Z" fill="#B8FF4F"/>
<path d="M111.049 44.3297C113.289 44.1124 116.549 43.6755 117.173 46.3308C116.322 49.0086 111.184 47.3765 107.649 49.8182L107.374 50.0101C106.121 51.2182 104.282 53.1549 102.931 50.9138C102.487 47.0112 108.121 45.0623 111.049 44.3297Z" fill="#0B2818"/>
<path d="M131.172 57.1628C134.398 57.284 141.518 61.7064 137.871 64.9534C137.557 64.9934 136.767 65.0856 136.567 64.8388C135.41 63.417 130.611 60.6341 130.186 59.1906C130.295 58.2344 130.609 57.9468 131.172 57.1628Z" fill="#0B2818"/>
<path d="M131.116 72.5198C131.723 72.6124 132.755 72.7089 133.092 73.1923C134.356 75.0033 133.645 80.4557 132.137 81.6749C131.485 81.6431 130.564 81.6814 130.189 81.159C128.739 79.1405 129.558 73.9796 131.116 72.5198Z" fill="#0B2818"/>
<path d="M108.33 67.4509C109.234 67.4218 109.786 67.2837 110.479 67.8128C111.945 69.6539 111.195 74.8372 109.623 76.4491C108.966 76.461 108.232 76.4979 107.753 76.0109C106.24 74.4716 107.185 68.8086 108.33 67.4509Z" fill="#0B2818"/>
</svg>
